G04 #@! TF.GenerationSoftware,KiCad,Pcbnew,(5.1.6)-1*
G04 #@! TF.CreationDate,2020-12-22T11:02:33+08:00*
G04 #@! TF.ProjectId,V1.0,56312e30-2e6b-4696-9361-645f70636258,rev?*
G04 #@! TF.SameCoordinates,Original*
G04 #@! TF.FileFunction,Legend,Bot*
G04 #@! TF.FilePolarity,Positive*
%FSLAX46Y46*%
G04 Gerber Fmt 4.6, Leading zero omitted, Abs format (unit mm)*
G04 Created by KiCad (PCBNEW (5.1.6)-1) date 2020-12-22 11:02:33*
%MOMM*%
%LPD*%
G01*
G04 APERTURE LIST*
%ADD10C,0.150000*%
G04 APERTURE END LIST*
D10*
X40588030Y-20074606D02*
X40588030Y-20141950D01*
X40655374Y-20276637D01*
X40722717Y-20343980D01*
X40857404Y-20411324D01*
X40992091Y-20411324D01*
X41093106Y-20377652D01*
X41261465Y-20276637D01*
X41362480Y-20175622D01*
X41463496Y-20007263D01*
X41497167Y-19906248D01*
X41497167Y-19771561D01*
X41429824Y-19636874D01*
X41362480Y-19569530D01*
X41227793Y-19502187D01*
X41160450Y-19502187D01*
X40891076Y-19232812D02*
X40891076Y-19165469D01*
X40857404Y-19064454D01*
X40689045Y-18896095D01*
X40588030Y-18862423D01*
X40520687Y-18862423D01*
X40419671Y-18896095D01*
X40352328Y-18963438D01*
X40284984Y-19098125D01*
X40284984Y-19906248D01*
X39847251Y-19468515D01*
X40318656Y-18525706D02*
X39880923Y-18087973D01*
X39847251Y-18593049D01*
X39746236Y-18492034D01*
X39645221Y-18458362D01*
X39577877Y-18458362D01*
X39476862Y-18492034D01*
X39308503Y-18660393D01*
X39274832Y-18761408D01*
X39274832Y-18828751D01*
X39308503Y-18929767D01*
X39510534Y-19131797D01*
X39611549Y-19165469D01*
X39678893Y-19165469D01*
X14565261Y-27559166D02*
X14612880Y-27702023D01*
X14612880Y-27940119D01*
X14565261Y-28035357D01*
X14517642Y-28082976D01*
X14422404Y-28130595D01*
X14327166Y-28130595D01*
X14231928Y-28082976D01*
X14184309Y-28035357D01*
X14136690Y-27940119D01*
X14089071Y-27749642D01*
X14041452Y-27654404D01*
X13993833Y-27606785D01*
X13898595Y-27559166D01*
X13803357Y-27559166D01*
X13708119Y-27606785D01*
X13660500Y-27654404D01*
X13612880Y-27749642D01*
X13612880Y-27987738D01*
X13660500Y-28130595D01*
X13612880Y-28463928D02*
X14612880Y-28702023D01*
X13898595Y-28892500D01*
X14612880Y-29082976D01*
X13612880Y-29321071D01*
X14612880Y-30225833D02*
X14612880Y-29654404D01*
X14612880Y-29940119D02*
X13612880Y-29940119D01*
X13755738Y-29844880D01*
X13850976Y-29749642D01*
X13898595Y-29654404D01*
X41604030Y-19058606D02*
X41604030Y-19125950D01*
X41671374Y-19260637D01*
X41738717Y-19327980D01*
X41873404Y-19395324D01*
X42008091Y-19395324D01*
X42109106Y-19361652D01*
X42277465Y-19260637D01*
X42378480Y-19159622D01*
X42479496Y-18991263D01*
X42513167Y-18890248D01*
X42513167Y-18755561D01*
X42445824Y-18620874D01*
X42378480Y-18553530D01*
X42243793Y-18486187D01*
X42176450Y-18486187D01*
X41907076Y-18216812D02*
X41907076Y-18149469D01*
X41873404Y-18048454D01*
X41705045Y-17880095D01*
X41604030Y-17846423D01*
X41536687Y-17846423D01*
X41435671Y-17880095D01*
X41368328Y-17947438D01*
X41300984Y-18082125D01*
X41300984Y-18890248D01*
X40863251Y-18452515D01*
X41233641Y-17543377D02*
X41233641Y-17476034D01*
X41199969Y-17375019D01*
X41031610Y-17206660D01*
X40930595Y-17172988D01*
X40863251Y-17172988D01*
X40762236Y-17206660D01*
X40694893Y-17274003D01*
X40627549Y-17408690D01*
X40627549Y-18216812D01*
X40189816Y-17779080D01*
X42366030Y-22424106D02*
X42366030Y-22491450D01*
X42433374Y-22626137D01*
X42500717Y-22693480D01*
X42635404Y-22760824D01*
X42770091Y-22760824D01*
X42871106Y-22727152D01*
X43039465Y-22626137D01*
X43140480Y-22525122D01*
X43241496Y-22356763D01*
X43275167Y-22255748D01*
X43275167Y-22121061D01*
X43207824Y-21986374D01*
X43140480Y-21919030D01*
X43005793Y-21851687D01*
X42938450Y-21851687D01*
X42669076Y-21582312D02*
X42669076Y-21514969D01*
X42635404Y-21413954D01*
X42467045Y-21245595D01*
X42366030Y-21211923D01*
X42298687Y-21211923D01*
X42197671Y-21245595D01*
X42130328Y-21312938D01*
X42062984Y-21447625D01*
X42062984Y-22255748D01*
X41625251Y-21818015D01*
X40951816Y-21144580D02*
X41355877Y-21548641D01*
X41153847Y-21346610D02*
X41860954Y-20639503D01*
X41827282Y-20807862D01*
X41827282Y-20942549D01*
X41860954Y-21043564D01*
X43445530Y-21471606D02*
X43445530Y-21538950D01*
X43512874Y-21673637D01*
X43580217Y-21740980D01*
X43714904Y-21808324D01*
X43849591Y-21808324D01*
X43950606Y-21774652D01*
X44118965Y-21673637D01*
X44219980Y-21572622D01*
X44320996Y-21404263D01*
X44354667Y-21303248D01*
X44354667Y-21168561D01*
X44287324Y-21033874D01*
X44219980Y-20966530D01*
X44085293Y-20899187D01*
X44017950Y-20899187D01*
X42704751Y-20865515D02*
X43108812Y-21269576D01*
X42906782Y-21067545D02*
X43613889Y-20360438D01*
X43580217Y-20528797D01*
X43580217Y-20663484D01*
X43613889Y-20764500D01*
X42368034Y-20528797D02*
X42233347Y-20394110D01*
X42199675Y-20293095D01*
X42199675Y-20225751D01*
X42233347Y-20057393D01*
X42334362Y-19889034D01*
X42603736Y-19619660D01*
X42704751Y-19585988D01*
X42772095Y-19585988D01*
X42873110Y-19619660D01*
X43007797Y-19754347D01*
X43041469Y-19855362D01*
X43041469Y-19922706D01*
X43007797Y-20023721D01*
X42839438Y-20192080D01*
X42738423Y-20225751D01*
X42671080Y-20225751D01*
X42570064Y-20192080D01*
X42435377Y-20057393D01*
X42401706Y-19956377D01*
X42401706Y-19889034D01*
X42435377Y-19788019D01*
X38457142Y-15994142D02*
X38504761Y-15946523D01*
X38552380Y-15803666D01*
X38552380Y-15708428D01*
X38504761Y-15565571D01*
X38409523Y-15470333D01*
X38314285Y-15422714D01*
X38123809Y-15375095D01*
X37980952Y-15375095D01*
X37790476Y-15422714D01*
X37695238Y-15470333D01*
X37600000Y-15565571D01*
X37552380Y-15708428D01*
X37552380Y-15803666D01*
X37600000Y-15946523D01*
X37647619Y-15994142D01*
X38552380Y-16946523D02*
X38552380Y-16375095D01*
X38552380Y-16660809D02*
X37552380Y-16660809D01*
X37695238Y-16565571D01*
X37790476Y-16470333D01*
X37838095Y-16375095D01*
X37552380Y-17851285D02*
X37552380Y-17375095D01*
X38028571Y-17327476D01*
X37980952Y-17375095D01*
X37933333Y-17470333D01*
X37933333Y-17708428D01*
X37980952Y-17803666D01*
X38028571Y-17851285D01*
X38123809Y-17898904D01*
X38361904Y-17898904D01*
X38457142Y-17851285D01*
X38504761Y-17803666D01*
X38552380Y-17708428D01*
X38552380Y-17470333D01*
X38504761Y-17375095D01*
X38457142Y-17327476D01*
M02*
