M48
; DRILL file {KiCad (5.1.6)-1} date 12/07/20 17:57:17
; FORMAT={-:-/ absolute / metric / decimal}
; #@! TF.CreationDate,2020-12-07T17:57:17+08:00
; #@! TF.GenerationSoftware,Kicad,Pcbnew,(5.1.6)-1
; #@! TF.FileFunction,Plated,1,2,PTH
FMAT,2
METRIC
T1C0.300
T2C0.400
T3C0.500
%
G90
G05
T1
X16.51Y-37.719
X16.891Y-38.544
X17.462Y-37.846
X17.526Y-39.433
X19.558Y-37.973
X19.621Y-39.433
X20.574Y-41.021
X22.288Y-39.37
X22.415Y-41.021
X22.987Y-22.225
X22.987Y-24.003
X22.987Y-25.781
X23.939Y-16.002
X24.194Y-41.021
X24.257Y-34.734
X24.638Y-22.225
X24.638Y-24.003
X24.638Y-25.781
X25.908Y-34.734
X25.908Y-36.195
X26.289Y-22.225
X26.289Y-24.003
X26.289Y-25.781
X27.495Y-36.195
X28.067Y-16.066
X28.067Y-19.939
X29.21Y-32.639
X30.099Y-17.272
X30.099Y-33.655
X30.162Y-16.066
X31.242Y-16.129
X31.242Y-17.272
X31.432Y-34.861
X33.02Y-36.322
X33.084Y-14.859
X34.48Y-37.782
X34.671Y-14.795
X35.115Y-33.655
X35.623Y-23.177
X35.623Y-24.257
X36.068Y-20.273
X36.068Y-39.37
X36.449Y-22.669
X36.449Y-23.685
X36.449Y-24.638
X36.512Y-34.925
X36.576Y-31.75
X37.401Y-23.685
X37.465Y-18.415
X37.91Y-36.195
X38.036Y-33.147
X38.1Y-18.415
X39.052Y-19.431
X39.433Y-29.362
X39.497Y-17.526
X39.56Y-37.719
X39.814Y-34.48
X40.005Y-30.099
X40.069Y-16.954
X40.576Y-29.362
X41.148Y-22.098
X41.148Y-22.924
X42.418Y-23.939
X43.053Y-26.67
X43.878Y-22.733
X44.323Y-26.67
X44.831Y-22.479
X45.339Y-26.67
X46.228Y-26.67
T2
X18.415Y-21.336
X18.415Y-36.131
X18.415Y-36.83
X19.748Y-31.242
X20.828Y-18.694
X27.051Y-18.669
X28.765Y-28.575
X45.91Y-25.019
X46.101Y-25.717
T3
X43.242Y-36.264
X44.642Y-36.264
X30.734Y-19.832
X30.734Y-21.082
X30.734Y-22.332
X30.734Y-23.582
T0
M30
