%TF.GenerationSoftware,KiCad,Pcbnew,(5.1.6)-1*%
%TF.CreationDate,2020-12-07T17:57:15+08:00*%
%TF.ProjectId,A1.0,41312e30-2e6b-4696-9361-645f70636258,rev?*%
%TF.SameCoordinates,Original*%
%TF.FileFunction,Legend,Top*%
%TF.FilePolarity,Positive*%
%FSLAX46Y46*%
G04 Gerber Fmt 4.6, Leading zero omitted, Abs format (unit mm)*
G04 Created by KiCad (PCBNEW (5.1.6)-1) date 2020-12-07 17:57:15*
%MOMM*%
%LPD*%
G01*
G04 APERTURE LIST*
%ADD10C,0.150000*%
%ADD11C,0.120000*%
G04 APERTURE END LIST*
D10*
X30924547Y-15120928D02*
X31686452Y-15120928D01*
X28321047Y-15184428D02*
X29082952Y-15184428D01*
X28702000Y-15565380D02*
X28702000Y-14803476D01*
X29027500Y-23360095D02*
X28979880Y-23455333D01*
X28979880Y-23598190D01*
X29027500Y-23741047D01*
X29122738Y-23836285D01*
X29217976Y-23883904D01*
X29408452Y-23931523D01*
X29551309Y-23931523D01*
X29741785Y-23883904D01*
X29837023Y-23836285D01*
X29932261Y-23741047D01*
X29979880Y-23598190D01*
X29979880Y-23502952D01*
X29932261Y-23360095D01*
X29884642Y-23312476D01*
X29551309Y-23312476D01*
X29551309Y-23502952D01*
X28979880Y-20145333D02*
X29979880Y-19812000D01*
X28979880Y-19478666D01*
X29884642Y-20835976D02*
X29932261Y-20883595D01*
X29979880Y-21026452D01*
X29979880Y-21121690D01*
X29932261Y-21264547D01*
X29837023Y-21359785D01*
X29741785Y-21407404D01*
X29551309Y-21455023D01*
X29408452Y-21455023D01*
X29217976Y-21407404D01*
X29122738Y-21359785D01*
X29027500Y-21264547D01*
X28979880Y-21121690D01*
X28979880Y-21026452D01*
X29027500Y-20883595D01*
X29075119Y-20835976D01*
X29979880Y-22613904D02*
X28979880Y-22613904D01*
X28979880Y-22375809D01*
X29027500Y-22232952D01*
X29122738Y-22137714D01*
X29217976Y-22090095D01*
X29408452Y-22042476D01*
X29551309Y-22042476D01*
X29741785Y-22090095D01*
X29837023Y-22137714D01*
X29932261Y-22232952D01*
X29979880Y-22375809D01*
X29979880Y-22613904D01*
D11*
X21216884Y-20520000D02*
G75*
G03*
X21216884Y-20520000I-188884J0D01*
G01*
X21104368Y-20520000D02*
G75*
G03*
X21104368Y-20520000I-76368J0D01*
G01*
X46799500Y-33274000D02*
X47053500Y-31178500D01*
X46418500Y-33274000D02*
X46799500Y-33274000D01*
X46926500Y-29972000D02*
X46926500Y-28829000D01*
X46863000Y-29972000D02*
X46926500Y-29972000D01*
X40830500Y-29972000D02*
X46863000Y-29972000D01*
X40830500Y-29972000D02*
X40830500Y-30353000D01*
X40830500Y-29972000D02*
X40449500Y-29908500D01*
X42291000Y-33655000D02*
X42100500Y-33274000D01*
X41719500Y-33464500D02*
X42100500Y-33274000D01*
X41275000Y-36639500D02*
X42100500Y-33274000D01*
X41275000Y-39243000D02*
X41275000Y-36639500D01*
X40830500Y-29972000D02*
X37147500Y-33274000D01*
X46418500Y-33274000D02*
X42100500Y-33274000D01*
D10*
X14052339Y-24479709D02*
X14187026Y-24345022D01*
X14288042Y-24311351D01*
X14422729Y-24311351D01*
X14591087Y-24412366D01*
X14826790Y-24648068D01*
X14927805Y-24816427D01*
X14927805Y-24951114D01*
X14894133Y-25052129D01*
X14759446Y-25186816D01*
X14658431Y-25220488D01*
X14523744Y-25220488D01*
X14355385Y-25119473D01*
X14119683Y-24883770D01*
X14018668Y-24715412D01*
X14018668Y-24580725D01*
X14052339Y-24479709D01*
X15230851Y-23974633D02*
X14995148Y-24210335D01*
X15365538Y-24580725D02*
X14658431Y-23873618D01*
X14995148Y-23536900D01*
X15836942Y-23368542D02*
X15601240Y-23604244D01*
X15971629Y-23974633D02*
X15264522Y-23267526D01*
X15601240Y-22930809D01*
X13231880Y-32305547D02*
X13231880Y-32115071D01*
X13279500Y-32019833D01*
X13374738Y-31924595D01*
X13565214Y-31876976D01*
X13898547Y-31876976D01*
X14089023Y-31924595D01*
X14184261Y-32019833D01*
X14231880Y-32115071D01*
X14231880Y-32305547D01*
X14184261Y-32400785D01*
X14089023Y-32496023D01*
X13898547Y-32543642D01*
X13565214Y-32543642D01*
X13374738Y-32496023D01*
X13279500Y-32400785D01*
X13231880Y-32305547D01*
X14231880Y-31448404D02*
X13231880Y-31448404D01*
X14231880Y-30876976D01*
X13231880Y-30876976D01*
D11*
%TO.C,C23*%
X40140478Y-19779727D02*
X39910273Y-19549522D01*
X40861727Y-19058478D02*
X40631522Y-18828273D01*
%TO.C,J4*%
X36385500Y-44640500D02*
X36385500Y-41846500D01*
X40386000Y-44640500D02*
X40386000Y-41846500D01*
%TO.C,J1*%
X24300000Y-44332000D02*
X24300000Y-41538000D01*
X35700000Y-47300000D02*
X35700000Y-41538000D01*
X25872500Y-41538000D02*
X24300000Y-41538000D01*
D10*
X35200000Y-45538000D02*
G75*
G03*
X35200000Y-45538000I-500000J0D01*
G01*
X25200000Y-45538000D02*
G75*
G03*
X25200000Y-45538000I-500000J0D01*
G01*
D11*
X35700000Y-41538000D02*
X34127500Y-41538000D01*
X23700000Y-47300000D02*
X23700000Y-44967000D01*
X24300000Y-44332000D02*
X23700000Y-44967000D01*
%TO.C,Y1*%
X33904000Y-15280000D02*
X33904000Y-18080000D01*
X33904000Y-18080000D02*
X37204000Y-18080000D01*
%TO.C,U3*%
X34594700Y-29113000D02*
X38303300Y-29113000D01*
X32924000Y-20163000D02*
X38307600Y-20163000D01*
D10*
%TO.C,SW1*%
X17430000Y-27305000D02*
X17430000Y-26670000D01*
X16731500Y-26202000D02*
X15303500Y-26202000D01*
X17430000Y-30734000D02*
X17430000Y-30075500D01*
X16731500Y-31202000D02*
X15303500Y-31202000D01*
X14732000Y-30734000D02*
X14732000Y-26670000D01*
X14732000Y-27432000D02*
X13232000Y-27432000D01*
X14732000Y-29972000D02*
X13232000Y-29972000D01*
X13208000Y-27432000D02*
X13208000Y-29972000D01*
D11*
%TO.C,R8*%
X42636000Y-31746779D02*
X42636000Y-31421221D01*
X43656000Y-31746779D02*
X43656000Y-31421221D01*
%TO.C,R7*%
X44176000Y-28706779D02*
X44176000Y-28381221D01*
X45196000Y-28706779D02*
X45196000Y-28381221D01*
%TO.C,R6*%
X46706000Y-31421221D02*
X46706000Y-31746779D01*
X45686000Y-31421221D02*
X45686000Y-31746779D01*
%TO.C,R5*%
X35397221Y-18540000D02*
X35722779Y-18540000D01*
X35397221Y-19560000D02*
X35722779Y-19560000D01*
D10*
%TO.C,MK1*%
X43243500Y-36957000D02*
X43116500Y-37274500D01*
X43116500Y-37274500D02*
X43370500Y-37274500D01*
X43370500Y-37274500D02*
X43243500Y-36957000D01*
X45942000Y-35814000D02*
G75*
G03*
X45942000Y-35814000I-2000000J0D01*
G01*
D11*
%TO.C,C22*%
X41156478Y-18763727D02*
X40926273Y-18533522D01*
X41877727Y-18042478D02*
X41647522Y-17812273D01*
%TO.C,C21*%
X41918478Y-22192727D02*
X41688273Y-21962522D01*
X42639727Y-21471478D02*
X42409522Y-21241273D01*
%TO.C,C20*%
X42166000Y-31401221D02*
X42166000Y-31726779D01*
X41146000Y-31401221D02*
X41146000Y-31726779D01*
%TO.C,C19*%
X42934478Y-21176727D02*
X42704273Y-20946522D01*
X43655727Y-20455478D02*
X43425522Y-20225273D01*
%TO.C,C18*%
X45186000Y-31411221D02*
X45186000Y-31736779D01*
X44166000Y-31411221D02*
X44166000Y-31736779D01*
%TO.C,C17*%
X44575000Y-24927779D02*
X44575000Y-24602221D01*
X45595000Y-24927779D02*
X45595000Y-24602221D01*
%TO.C,C16*%
X33564000Y-16517221D02*
X33564000Y-16842779D01*
X32544000Y-16517221D02*
X32544000Y-16842779D01*
%TO.C,C15*%
X37544000Y-16842779D02*
X37544000Y-16517221D01*
X38564000Y-16842779D02*
X38564000Y-16517221D01*
%TO.C,C14*%
X43051000Y-24927779D02*
X43051000Y-24602221D01*
X44071000Y-24927779D02*
X44071000Y-24602221D01*
%TO.C,C13*%
X43690000Y-28386721D02*
X43690000Y-28712279D01*
X42670000Y-28386721D02*
X42670000Y-28712279D01*
%TO.C,C12*%
X42166000Y-28412221D02*
X42166000Y-28737779D01*
X41146000Y-28412221D02*
X41146000Y-28737779D01*
%TO.C,C11*%
X45696000Y-28716779D02*
X45696000Y-28391221D01*
X46716000Y-28716779D02*
X46716000Y-28391221D01*
%TO.C,C10*%
X34110221Y-31169000D02*
X34435779Y-31169000D01*
X34110221Y-32189000D02*
X34435779Y-32189000D01*
%TO.C,C9*%
X34100221Y-29599000D02*
X34425779Y-29599000D01*
X34100221Y-30619000D02*
X34425779Y-30619000D01*
%TO.C,U2*%
X18344000Y-33276000D02*
X17414000Y-33276000D01*
X15184000Y-33276000D02*
X16114000Y-33276000D01*
X15184000Y-33276000D02*
X15184000Y-35436000D01*
X18344000Y-33276000D02*
X18344000Y-34736000D01*
%TO.C,U1*%
X27773000Y-20520000D02*
X28248000Y-20520000D01*
X28248000Y-20520000D02*
X28248000Y-20995000D01*
X21503000Y-27740000D02*
X21028000Y-27740000D01*
X21028000Y-27740000D02*
X21028000Y-27265000D01*
X27773000Y-27740000D02*
X28248000Y-27740000D01*
X28248000Y-27740000D02*
X28248000Y-27265000D01*
X21503000Y-20520000D02*
X21028000Y-20520000D01*
%TO.C,R4*%
X26312000Y-38995779D02*
X26312000Y-38670221D01*
X27332000Y-38995779D02*
X27332000Y-38670221D01*
%TO.C,R3*%
X21714000Y-32271221D02*
X21714000Y-32596779D01*
X20694000Y-32271221D02*
X20694000Y-32596779D01*
%TO.C,R2*%
X22594000Y-32596779D02*
X22594000Y-32271221D01*
X23614000Y-32596779D02*
X23614000Y-32271221D01*
%TO.C,R1*%
X23366000Y-18069779D02*
X23366000Y-17744221D01*
X24386000Y-18069779D02*
X24386000Y-17744221D01*
%TO.C,Q1*%
X20574000Y-36494000D02*
X21504000Y-36494000D01*
X23734000Y-36494000D02*
X22804000Y-36494000D01*
X23734000Y-36494000D02*
X23734000Y-34334000D01*
X20574000Y-36494000D02*
X20574000Y-35034000D01*
%TO.C,C8*%
X27812000Y-38995779D02*
X27812000Y-38670221D01*
X28832000Y-38995779D02*
X28832000Y-38670221D01*
%TO.C,C7*%
X16926779Y-37086000D02*
X16601221Y-37086000D01*
X16926779Y-36066000D02*
X16601221Y-36066000D01*
%TO.C,C6*%
X19814000Y-33669183D02*
X19814000Y-33994741D01*
X18794000Y-33669183D02*
X18794000Y-33994741D01*
%TO.C,C5*%
X19048000Y-20736779D02*
X19048000Y-20411221D01*
X20068000Y-20736779D02*
X20068000Y-20411221D01*
%TO.C,C4*%
X27557000Y-18069779D02*
X27557000Y-17744221D01*
X28577000Y-18069779D02*
X28577000Y-17744221D01*
%TO.C,C3*%
X29212000Y-30190221D02*
X29212000Y-30515779D01*
X28192000Y-30190221D02*
X28192000Y-30515779D01*
%TO.C,C2*%
X21334000Y-18069779D02*
X21334000Y-17744221D01*
X22354000Y-18069779D02*
X22354000Y-17744221D01*
%TO.C,C1*%
X26668000Y-30515779D02*
X26668000Y-30190221D01*
X27688000Y-30515779D02*
X27688000Y-30190221D01*
%TO.C,J4*%
D10*
X38084166Y-39774880D02*
X38084166Y-40489166D01*
X38036547Y-40632023D01*
X37941309Y-40727261D01*
X37798452Y-40774880D01*
X37703214Y-40774880D01*
X38988928Y-40108214D02*
X38988928Y-40774880D01*
X38750833Y-39727261D02*
X38512738Y-40441547D01*
X39131785Y-40441547D01*
%TO.C,J1*%
X29321166Y-44918380D02*
X29321166Y-45632666D01*
X29273547Y-45775523D01*
X29178309Y-45870761D01*
X29035452Y-45918380D01*
X28940214Y-45918380D01*
X30321166Y-45918380D02*
X29749738Y-45918380D01*
X30035452Y-45918380D02*
X30035452Y-44918380D01*
X29940214Y-45061238D01*
X29844976Y-45156476D01*
X29749738Y-45204095D01*
%TO.C,Y1*%
X35147309Y-14581190D02*
X35147309Y-15057380D01*
X34813976Y-14057380D02*
X35147309Y-14581190D01*
X35480642Y-14057380D01*
X36337785Y-15057380D02*
X35766357Y-15057380D01*
X36052071Y-15057380D02*
X36052071Y-14057380D01*
X35956833Y-14200238D01*
X35861595Y-14295476D01*
X35766357Y-14343095D01*
%TO.C,U3*%
X35687095Y-24153880D02*
X35687095Y-24963404D01*
X35734714Y-25058642D01*
X35782333Y-25106261D01*
X35877571Y-25153880D01*
X36068047Y-25153880D01*
X36163285Y-25106261D01*
X36210904Y-25058642D01*
X36258523Y-24963404D01*
X36258523Y-24153880D01*
X36639476Y-24153880D02*
X37258523Y-24153880D01*
X36925190Y-24534833D01*
X37068047Y-24534833D01*
X37163285Y-24582452D01*
X37210904Y-24630071D01*
X37258523Y-24725309D01*
X37258523Y-24963404D01*
X37210904Y-25058642D01*
X37163285Y-25106261D01*
X37068047Y-25153880D01*
X36782333Y-25153880D01*
X36687095Y-25106261D01*
X36639476Y-25058642D01*
%TO.C,R8*%
X38615880Y-38584166D02*
X38139690Y-38917500D01*
X38615880Y-39155595D02*
X37615880Y-39155595D01*
X37615880Y-38774642D01*
X37663500Y-38679404D01*
X37711119Y-38631785D01*
X37806357Y-38584166D01*
X37949214Y-38584166D01*
X38044452Y-38631785D01*
X38092071Y-38679404D01*
X38139690Y-38774642D01*
X38139690Y-39155595D01*
X38044452Y-38012738D02*
X37996833Y-38107976D01*
X37949214Y-38155595D01*
X37853976Y-38203214D01*
X37806357Y-38203214D01*
X37711119Y-38155595D01*
X37663500Y-38107976D01*
X37615880Y-38012738D01*
X37615880Y-37822261D01*
X37663500Y-37727023D01*
X37711119Y-37679404D01*
X37806357Y-37631785D01*
X37853976Y-37631785D01*
X37949214Y-37679404D01*
X37996833Y-37727023D01*
X38044452Y-37822261D01*
X38044452Y-38012738D01*
X38092071Y-38107976D01*
X38139690Y-38155595D01*
X38234928Y-38203214D01*
X38425404Y-38203214D01*
X38520642Y-38155595D01*
X38568261Y-38107976D01*
X38615880Y-38012738D01*
X38615880Y-37822261D01*
X38568261Y-37727023D01*
X38520642Y-37679404D01*
X38425404Y-37631785D01*
X38234928Y-37631785D01*
X38139690Y-37679404D01*
X38092071Y-37727023D01*
X38044452Y-37822261D01*
%TO.C,R7*%
X39822380Y-35472666D02*
X39346190Y-35806000D01*
X39822380Y-36044095D02*
X38822380Y-36044095D01*
X38822380Y-35663142D01*
X38870000Y-35567904D01*
X38917619Y-35520285D01*
X39012857Y-35472666D01*
X39155714Y-35472666D01*
X39250952Y-35520285D01*
X39298571Y-35567904D01*
X39346190Y-35663142D01*
X39346190Y-36044095D01*
X38822380Y-35139333D02*
X38822380Y-34472666D01*
X39822380Y-34901238D01*
%TO.C,R6*%
X41092380Y-38647666D02*
X40616190Y-38981000D01*
X41092380Y-39219095D02*
X40092380Y-39219095D01*
X40092380Y-38838142D01*
X40140000Y-38742904D01*
X40187619Y-38695285D01*
X40282857Y-38647666D01*
X40425714Y-38647666D01*
X40520952Y-38695285D01*
X40568571Y-38742904D01*
X40616190Y-38838142D01*
X40616190Y-39219095D01*
X40092380Y-37790523D02*
X40092380Y-37981000D01*
X40140000Y-38076238D01*
X40187619Y-38123857D01*
X40330476Y-38219095D01*
X40520952Y-38266714D01*
X40901904Y-38266714D01*
X40997142Y-38219095D01*
X41044761Y-38171476D01*
X41092380Y-38076238D01*
X41092380Y-37885761D01*
X41044761Y-37790523D01*
X40997142Y-37742904D01*
X40901904Y-37695285D01*
X40663809Y-37695285D01*
X40568571Y-37742904D01*
X40520952Y-37790523D01*
X40473333Y-37885761D01*
X40473333Y-38076238D01*
X40520952Y-38171476D01*
X40568571Y-38219095D01*
X40663809Y-38266714D01*
%TO.C,R5*%
X32916833Y-19629380D02*
X32583500Y-19153190D01*
X32345404Y-19629380D02*
X32345404Y-18629380D01*
X32726357Y-18629380D01*
X32821595Y-18677000D01*
X32869214Y-18724619D01*
X32916833Y-18819857D01*
X32916833Y-18962714D01*
X32869214Y-19057952D01*
X32821595Y-19105571D01*
X32726357Y-19153190D01*
X32345404Y-19153190D01*
X33821595Y-18629380D02*
X33345404Y-18629380D01*
X33297785Y-19105571D01*
X33345404Y-19057952D01*
X33440642Y-19010333D01*
X33678738Y-19010333D01*
X33773976Y-19057952D01*
X33821595Y-19105571D01*
X33869214Y-19200809D01*
X33869214Y-19438904D01*
X33821595Y-19534142D01*
X33773976Y-19581761D01*
X33678738Y-19629380D01*
X33440642Y-19629380D01*
X33345404Y-19581761D01*
X33297785Y-19534142D01*
%TO.C,MK1*%
X41679976Y-39060380D02*
X41679976Y-38060380D01*
X42013309Y-38774666D01*
X42346642Y-38060380D01*
X42346642Y-39060380D01*
X42822833Y-39060380D02*
X42822833Y-38060380D01*
X43394261Y-39060380D02*
X42965690Y-38488952D01*
X43394261Y-38060380D02*
X42822833Y-38631809D01*
X44346642Y-39060380D02*
X43775214Y-39060380D01*
X44060928Y-39060380D02*
X44060928Y-38060380D01*
X43965690Y-38203238D01*
X43870452Y-38298476D01*
X43775214Y-38346095D01*
%TO.C,C20*%
X37250642Y-38552357D02*
X37298261Y-38599976D01*
X37345880Y-38742833D01*
X37345880Y-38838071D01*
X37298261Y-38980928D01*
X37203023Y-39076166D01*
X37107785Y-39123785D01*
X36917309Y-39171404D01*
X36774452Y-39171404D01*
X36583976Y-39123785D01*
X36488738Y-39076166D01*
X36393500Y-38980928D01*
X36345880Y-38838071D01*
X36345880Y-38742833D01*
X36393500Y-38599976D01*
X36441119Y-38552357D01*
X36441119Y-38171404D02*
X36393500Y-38123785D01*
X36345880Y-38028547D01*
X36345880Y-37790452D01*
X36393500Y-37695214D01*
X36441119Y-37647595D01*
X36536357Y-37599976D01*
X36631595Y-37599976D01*
X36774452Y-37647595D01*
X37345880Y-38219023D01*
X37345880Y-37599976D01*
X36345880Y-36980928D02*
X36345880Y-36885690D01*
X36393500Y-36790452D01*
X36441119Y-36742833D01*
X36536357Y-36695214D01*
X36726833Y-36647595D01*
X36964928Y-36647595D01*
X37155404Y-36695214D01*
X37250642Y-36742833D01*
X37298261Y-36790452D01*
X37345880Y-36885690D01*
X37345880Y-36980928D01*
X37298261Y-37076166D01*
X37250642Y-37123785D01*
X37155404Y-37171404D01*
X36964928Y-37219023D01*
X36726833Y-37219023D01*
X36536357Y-37171404D01*
X36441119Y-37123785D01*
X36393500Y-37076166D01*
X36345880Y-36980928D01*
%TO.C,C18*%
X39727142Y-38615857D02*
X39774761Y-38663476D01*
X39822380Y-38806333D01*
X39822380Y-38901571D01*
X39774761Y-39044428D01*
X39679523Y-39139666D01*
X39584285Y-39187285D01*
X39393809Y-39234904D01*
X39250952Y-39234904D01*
X39060476Y-39187285D01*
X38965238Y-39139666D01*
X38870000Y-39044428D01*
X38822380Y-38901571D01*
X38822380Y-38806333D01*
X38870000Y-38663476D01*
X38917619Y-38615857D01*
X39822380Y-37663476D02*
X39822380Y-38234904D01*
X39822380Y-37949190D02*
X38822380Y-37949190D01*
X38965238Y-38044428D01*
X39060476Y-38139666D01*
X39108095Y-38234904D01*
X39250952Y-37092047D02*
X39203333Y-37187285D01*
X39155714Y-37234904D01*
X39060476Y-37282523D01*
X39012857Y-37282523D01*
X38917619Y-37234904D01*
X38870000Y-37187285D01*
X38822380Y-37092047D01*
X38822380Y-36901571D01*
X38870000Y-36806333D01*
X38917619Y-36758714D01*
X39012857Y-36711095D01*
X39060476Y-36711095D01*
X39155714Y-36758714D01*
X39203333Y-36806333D01*
X39250952Y-36901571D01*
X39250952Y-37092047D01*
X39298571Y-37187285D01*
X39346190Y-37234904D01*
X39441428Y-37282523D01*
X39631904Y-37282523D01*
X39727142Y-37234904D01*
X39774761Y-37187285D01*
X39822380Y-37092047D01*
X39822380Y-36901571D01*
X39774761Y-36806333D01*
X39727142Y-36758714D01*
X39631904Y-36711095D01*
X39441428Y-36711095D01*
X39346190Y-36758714D01*
X39298571Y-36806333D01*
X39250952Y-36901571D01*
%TO.C,C17*%
X42584642Y-25661857D02*
X42632261Y-25709476D01*
X42679880Y-25852333D01*
X42679880Y-25947571D01*
X42632261Y-26090428D01*
X42537023Y-26185666D01*
X42441785Y-26233285D01*
X42251309Y-26280904D01*
X42108452Y-26280904D01*
X41917976Y-26233285D01*
X41822738Y-26185666D01*
X41727500Y-26090428D01*
X41679880Y-25947571D01*
X41679880Y-25852333D01*
X41727500Y-25709476D01*
X41775119Y-25661857D01*
X42679880Y-24709476D02*
X42679880Y-25280904D01*
X42679880Y-24995190D02*
X41679880Y-24995190D01*
X41822738Y-25090428D01*
X41917976Y-25185666D01*
X41965595Y-25280904D01*
X41679880Y-24376142D02*
X41679880Y-23709476D01*
X42679880Y-24138047D01*
%TO.C,C16*%
X32107142Y-17660857D02*
X32154761Y-17708476D01*
X32202380Y-17851333D01*
X32202380Y-17946571D01*
X32154761Y-18089428D01*
X32059523Y-18184666D01*
X31964285Y-18232285D01*
X31773809Y-18279904D01*
X31630952Y-18279904D01*
X31440476Y-18232285D01*
X31345238Y-18184666D01*
X31250000Y-18089428D01*
X31202380Y-17946571D01*
X31202380Y-17851333D01*
X31250000Y-17708476D01*
X31297619Y-17660857D01*
X32202380Y-16708476D02*
X32202380Y-17279904D01*
X32202380Y-16994190D02*
X31202380Y-16994190D01*
X31345238Y-17089428D01*
X31440476Y-17184666D01*
X31488095Y-17279904D01*
X31202380Y-15851333D02*
X31202380Y-16041809D01*
X31250000Y-16137047D01*
X31297619Y-16184666D01*
X31440476Y-16279904D01*
X31630952Y-16327523D01*
X32011904Y-16327523D01*
X32107142Y-16279904D01*
X32154761Y-16232285D01*
X32202380Y-16137047D01*
X32202380Y-15946571D01*
X32154761Y-15851333D01*
X32107142Y-15803714D01*
X32011904Y-15756095D01*
X31773809Y-15756095D01*
X31678571Y-15803714D01*
X31630952Y-15851333D01*
X31583333Y-15946571D01*
X31583333Y-16137047D01*
X31630952Y-16232285D01*
X31678571Y-16279904D01*
X31773809Y-16327523D01*
%TO.C,C14*%
X41378142Y-25661857D02*
X41425761Y-25709476D01*
X41473380Y-25852333D01*
X41473380Y-25947571D01*
X41425761Y-26090428D01*
X41330523Y-26185666D01*
X41235285Y-26233285D01*
X41044809Y-26280904D01*
X40901952Y-26280904D01*
X40711476Y-26233285D01*
X40616238Y-26185666D01*
X40521000Y-26090428D01*
X40473380Y-25947571D01*
X40473380Y-25852333D01*
X40521000Y-25709476D01*
X40568619Y-25661857D01*
X41473380Y-24709476D02*
X41473380Y-25280904D01*
X41473380Y-24995190D02*
X40473380Y-24995190D01*
X40616238Y-25090428D01*
X40711476Y-25185666D01*
X40759095Y-25280904D01*
X40806714Y-23852333D02*
X41473380Y-23852333D01*
X40425761Y-24090428D02*
X41140047Y-24328523D01*
X41140047Y-23709476D01*
%TO.C,C13*%
X38520642Y-35440857D02*
X38568261Y-35488476D01*
X38615880Y-35631333D01*
X38615880Y-35726571D01*
X38568261Y-35869428D01*
X38473023Y-35964666D01*
X38377785Y-36012285D01*
X38187309Y-36059904D01*
X38044452Y-36059904D01*
X37853976Y-36012285D01*
X37758738Y-35964666D01*
X37663500Y-35869428D01*
X37615880Y-35726571D01*
X37615880Y-35631333D01*
X37663500Y-35488476D01*
X37711119Y-35440857D01*
X38615880Y-34488476D02*
X38615880Y-35059904D01*
X38615880Y-34774190D02*
X37615880Y-34774190D01*
X37758738Y-34869428D01*
X37853976Y-34964666D01*
X37901595Y-35059904D01*
X37615880Y-34155142D02*
X37615880Y-33536095D01*
X37996833Y-33869428D01*
X37996833Y-33726571D01*
X38044452Y-33631333D01*
X38092071Y-33583714D01*
X38187309Y-33536095D01*
X38425404Y-33536095D01*
X38520642Y-33583714D01*
X38568261Y-33631333D01*
X38615880Y-33726571D01*
X38615880Y-34012285D01*
X38568261Y-34107523D01*
X38520642Y-34155142D01*
%TO.C,C12*%
X37250642Y-35440857D02*
X37298261Y-35488476D01*
X37345880Y-35631333D01*
X37345880Y-35726571D01*
X37298261Y-35869428D01*
X37203023Y-35964666D01*
X37107785Y-36012285D01*
X36917309Y-36059904D01*
X36774452Y-36059904D01*
X36583976Y-36012285D01*
X36488738Y-35964666D01*
X36393500Y-35869428D01*
X36345880Y-35726571D01*
X36345880Y-35631333D01*
X36393500Y-35488476D01*
X36441119Y-35440857D01*
X37345880Y-34488476D02*
X37345880Y-35059904D01*
X37345880Y-34774190D02*
X36345880Y-34774190D01*
X36488738Y-34869428D01*
X36583976Y-34964666D01*
X36631595Y-35059904D01*
X36441119Y-34107523D02*
X36393500Y-34059904D01*
X36345880Y-33964666D01*
X36345880Y-33726571D01*
X36393500Y-33631333D01*
X36441119Y-33583714D01*
X36536357Y-33536095D01*
X36631595Y-33536095D01*
X36774452Y-33583714D01*
X37345880Y-34155142D01*
X37345880Y-33536095D01*
%TO.C,C11*%
X40933642Y-35440857D02*
X40981261Y-35488476D01*
X41028880Y-35631333D01*
X41028880Y-35726571D01*
X40981261Y-35869428D01*
X40886023Y-35964666D01*
X40790785Y-36012285D01*
X40600309Y-36059904D01*
X40457452Y-36059904D01*
X40266976Y-36012285D01*
X40171738Y-35964666D01*
X40076500Y-35869428D01*
X40028880Y-35726571D01*
X40028880Y-35631333D01*
X40076500Y-35488476D01*
X40124119Y-35440857D01*
X41028880Y-34488476D02*
X41028880Y-35059904D01*
X41028880Y-34774190D02*
X40028880Y-34774190D01*
X40171738Y-34869428D01*
X40266976Y-34964666D01*
X40314595Y-35059904D01*
X41028880Y-33536095D02*
X41028880Y-34107523D01*
X41028880Y-33821809D02*
X40028880Y-33821809D01*
X40171738Y-33917047D01*
X40266976Y-34012285D01*
X40314595Y-34107523D01*
%TO.C,C10*%
X36441142Y-32107142D02*
X36393523Y-32154761D01*
X36250666Y-32202380D01*
X36155428Y-32202380D01*
X36012571Y-32154761D01*
X35917333Y-32059523D01*
X35869714Y-31964285D01*
X35822095Y-31773809D01*
X35822095Y-31630952D01*
X35869714Y-31440476D01*
X35917333Y-31345238D01*
X36012571Y-31250000D01*
X36155428Y-31202380D01*
X36250666Y-31202380D01*
X36393523Y-31250000D01*
X36441142Y-31297619D01*
X37393523Y-32202380D02*
X36822095Y-32202380D01*
X37107809Y-32202380D02*
X37107809Y-31202380D01*
X37012571Y-31345238D01*
X36917333Y-31440476D01*
X36822095Y-31488095D01*
X38012571Y-31202380D02*
X38107809Y-31202380D01*
X38203047Y-31250000D01*
X38250666Y-31297619D01*
X38298285Y-31392857D01*
X38345904Y-31583333D01*
X38345904Y-31821428D01*
X38298285Y-32011904D01*
X38250666Y-32107142D01*
X38203047Y-32154761D01*
X38107809Y-32202380D01*
X38012571Y-32202380D01*
X37917333Y-32154761D01*
X37869714Y-32107142D01*
X37822095Y-32011904D01*
X37774476Y-31821428D01*
X37774476Y-31583333D01*
X37822095Y-31392857D01*
X37869714Y-31297619D01*
X37917333Y-31250000D01*
X38012571Y-31202380D01*
%TO.C,C9*%
X36409333Y-30456142D02*
X36361714Y-30503761D01*
X36218857Y-30551380D01*
X36123619Y-30551380D01*
X35980761Y-30503761D01*
X35885523Y-30408523D01*
X35837904Y-30313285D01*
X35790285Y-30122809D01*
X35790285Y-29979952D01*
X35837904Y-29789476D01*
X35885523Y-29694238D01*
X35980761Y-29599000D01*
X36123619Y-29551380D01*
X36218857Y-29551380D01*
X36361714Y-29599000D01*
X36409333Y-29646619D01*
X36885523Y-30551380D02*
X37076000Y-30551380D01*
X37171238Y-30503761D01*
X37218857Y-30456142D01*
X37314095Y-30313285D01*
X37361714Y-30122809D01*
X37361714Y-29741857D01*
X37314095Y-29646619D01*
X37266476Y-29599000D01*
X37171238Y-29551380D01*
X36980761Y-29551380D01*
X36885523Y-29599000D01*
X36837904Y-29646619D01*
X36790285Y-29741857D01*
X36790285Y-29979952D01*
X36837904Y-30075190D01*
X36885523Y-30122809D01*
X36980761Y-30170428D01*
X37171238Y-30170428D01*
X37266476Y-30122809D01*
X37314095Y-30075190D01*
X37361714Y-29979952D01*
%TO.C,U2*%
X13993880Y-35686904D02*
X14803404Y-35686904D01*
X14898642Y-35639285D01*
X14946261Y-35591666D01*
X14993880Y-35496428D01*
X14993880Y-35305952D01*
X14946261Y-35210714D01*
X14898642Y-35163095D01*
X14803404Y-35115476D01*
X13993880Y-35115476D01*
X14089119Y-34686904D02*
X14041500Y-34639285D01*
X13993880Y-34544047D01*
X13993880Y-34305952D01*
X14041500Y-34210714D01*
X14089119Y-34163095D01*
X14184357Y-34115476D01*
X14279595Y-34115476D01*
X14422452Y-34163095D01*
X14993880Y-34734523D01*
X14993880Y-34115476D01*
%TO.C,U1*%
X18859595Y-23455380D02*
X18859595Y-24264904D01*
X18907214Y-24360142D01*
X18954833Y-24407761D01*
X19050071Y-24455380D01*
X19240547Y-24455380D01*
X19335785Y-24407761D01*
X19383404Y-24360142D01*
X19431023Y-24264904D01*
X19431023Y-23455380D01*
X20431023Y-24455380D02*
X19859595Y-24455380D01*
X20145309Y-24455380D02*
X20145309Y-23455380D01*
X20050071Y-23598238D01*
X19954833Y-23693476D01*
X19859595Y-23741095D01*
%TO.C,R4*%
X27249380Y-36679166D02*
X26773190Y-37012500D01*
X27249380Y-37250595D02*
X26249380Y-37250595D01*
X26249380Y-36869642D01*
X26297000Y-36774404D01*
X26344619Y-36726785D01*
X26439857Y-36679166D01*
X26582714Y-36679166D01*
X26677952Y-36726785D01*
X26725571Y-36774404D01*
X26773190Y-36869642D01*
X26773190Y-37250595D01*
X26582714Y-35822023D02*
X27249380Y-35822023D01*
X26201761Y-36060119D02*
X26916047Y-36298214D01*
X26916047Y-35679166D01*
%TO.C,R3*%
X23566380Y-30265666D02*
X23090190Y-30599000D01*
X23566380Y-30837095D02*
X22566380Y-30837095D01*
X22566380Y-30456142D01*
X22614000Y-30360904D01*
X22661619Y-30313285D01*
X22756857Y-30265666D01*
X22899714Y-30265666D01*
X22994952Y-30313285D01*
X23042571Y-30360904D01*
X23090190Y-30456142D01*
X23090190Y-30837095D01*
X22566380Y-29932333D02*
X22566380Y-29313285D01*
X22947333Y-29646619D01*
X22947333Y-29503761D01*
X22994952Y-29408523D01*
X23042571Y-29360904D01*
X23137809Y-29313285D01*
X23375904Y-29313285D01*
X23471142Y-29360904D01*
X23518761Y-29408523D01*
X23566380Y-29503761D01*
X23566380Y-29789476D01*
X23518761Y-29884714D01*
X23471142Y-29932333D01*
%TO.C,R2*%
X21661380Y-30265666D02*
X21185190Y-30599000D01*
X21661380Y-30837095D02*
X20661380Y-30837095D01*
X20661380Y-30456142D01*
X20709000Y-30360904D01*
X20756619Y-30313285D01*
X20851857Y-30265666D01*
X20994714Y-30265666D01*
X21089952Y-30313285D01*
X21137571Y-30360904D01*
X21185190Y-30456142D01*
X21185190Y-30837095D01*
X20756619Y-29884714D02*
X20709000Y-29837095D01*
X20661380Y-29741857D01*
X20661380Y-29503761D01*
X20709000Y-29408523D01*
X20756619Y-29360904D01*
X20851857Y-29313285D01*
X20947095Y-29313285D01*
X21089952Y-29360904D01*
X21661380Y-29932333D01*
X21661380Y-29313285D01*
%TO.C,R1*%
X25661880Y-18073666D02*
X25185690Y-18407000D01*
X25661880Y-18645095D02*
X24661880Y-18645095D01*
X24661880Y-18264142D01*
X24709500Y-18168904D01*
X24757119Y-18121285D01*
X24852357Y-18073666D01*
X24995214Y-18073666D01*
X25090452Y-18121285D01*
X25138071Y-18168904D01*
X25185690Y-18264142D01*
X25185690Y-18645095D01*
X25661880Y-17121285D02*
X25661880Y-17692714D01*
X25661880Y-17407000D02*
X24661880Y-17407000D01*
X24804738Y-17502238D01*
X24899976Y-17597476D01*
X24947595Y-17692714D01*
%TO.C,Q1*%
X22066261Y-38647619D02*
X21971023Y-38600000D01*
X21875785Y-38504761D01*
X21732928Y-38361904D01*
X21637690Y-38314285D01*
X21542452Y-38314285D01*
X21590071Y-38552380D02*
X21494833Y-38504761D01*
X21399595Y-38409523D01*
X21351976Y-38219047D01*
X21351976Y-37885714D01*
X21399595Y-37695238D01*
X21494833Y-37600000D01*
X21590071Y-37552380D01*
X21780547Y-37552380D01*
X21875785Y-37600000D01*
X21971023Y-37695238D01*
X22018642Y-37885714D01*
X22018642Y-38219047D01*
X21971023Y-38409523D01*
X21875785Y-38504761D01*
X21780547Y-38552380D01*
X21590071Y-38552380D01*
X22971023Y-38552380D02*
X22399595Y-38552380D01*
X22685309Y-38552380D02*
X22685309Y-37552380D01*
X22590071Y-37695238D01*
X22494833Y-37790476D01*
X22399595Y-37838095D01*
%TO.C,J3*%
X32726380Y-21415333D02*
X33440666Y-21415333D01*
X33583523Y-21462952D01*
X33678761Y-21558190D01*
X33726380Y-21701047D01*
X33726380Y-21796285D01*
X32726380Y-21034380D02*
X32726380Y-20415333D01*
X33107333Y-20748666D01*
X33107333Y-20605809D01*
X33154952Y-20510571D01*
X33202571Y-20462952D01*
X33297809Y-20415333D01*
X33535904Y-20415333D01*
X33631142Y-20462952D01*
X33678761Y-20510571D01*
X33726380Y-20605809D01*
X33726380Y-20891523D01*
X33678761Y-20986761D01*
X33631142Y-21034380D01*
%TO.C,C8*%
X28678142Y-36679166D02*
X28725761Y-36726785D01*
X28773380Y-36869642D01*
X28773380Y-36964880D01*
X28725761Y-37107738D01*
X28630523Y-37202976D01*
X28535285Y-37250595D01*
X28344809Y-37298214D01*
X28201952Y-37298214D01*
X28011476Y-37250595D01*
X27916238Y-37202976D01*
X27821000Y-37107738D01*
X27773380Y-36964880D01*
X27773380Y-36869642D01*
X27821000Y-36726785D01*
X27868619Y-36679166D01*
X28201952Y-36107738D02*
X28154333Y-36202976D01*
X28106714Y-36250595D01*
X28011476Y-36298214D01*
X27963857Y-36298214D01*
X27868619Y-36250595D01*
X27821000Y-36202976D01*
X27773380Y-36107738D01*
X27773380Y-35917261D01*
X27821000Y-35822023D01*
X27868619Y-35774404D01*
X27963857Y-35726785D01*
X28011476Y-35726785D01*
X28106714Y-35774404D01*
X28154333Y-35822023D01*
X28201952Y-35917261D01*
X28201952Y-36107738D01*
X28249571Y-36202976D01*
X28297190Y-36250595D01*
X28392428Y-36298214D01*
X28582904Y-36298214D01*
X28678142Y-36250595D01*
X28725761Y-36202976D01*
X28773380Y-36107738D01*
X28773380Y-35917261D01*
X28725761Y-35822023D01*
X28678142Y-35774404D01*
X28582904Y-35726785D01*
X28392428Y-35726785D01*
X28297190Y-35774404D01*
X28249571Y-35822023D01*
X28201952Y-35917261D01*
%TO.C,C7*%
X16597333Y-38363142D02*
X16549714Y-38410761D01*
X16406857Y-38458380D01*
X16311619Y-38458380D01*
X16168761Y-38410761D01*
X16073523Y-38315523D01*
X16025904Y-38220285D01*
X15978285Y-38029809D01*
X15978285Y-37886952D01*
X16025904Y-37696476D01*
X16073523Y-37601238D01*
X16168761Y-37506000D01*
X16311619Y-37458380D01*
X16406857Y-37458380D01*
X16549714Y-37506000D01*
X16597333Y-37553619D01*
X16930666Y-37458380D02*
X17597333Y-37458380D01*
X17168761Y-38458380D01*
%TO.C,C6*%
X19761142Y-36698628D02*
X19808761Y-36746247D01*
X19856380Y-36889104D01*
X19856380Y-36984342D01*
X19808761Y-37127200D01*
X19713523Y-37222438D01*
X19618285Y-37270057D01*
X19427809Y-37317676D01*
X19284952Y-37317676D01*
X19094476Y-37270057D01*
X18999238Y-37222438D01*
X18904000Y-37127200D01*
X18856380Y-36984342D01*
X18856380Y-36889104D01*
X18904000Y-36746247D01*
X18951619Y-36698628D01*
X18856380Y-35841485D02*
X18856380Y-36031962D01*
X18904000Y-36127200D01*
X18951619Y-36174819D01*
X19094476Y-36270057D01*
X19284952Y-36317676D01*
X19665904Y-36317676D01*
X19761142Y-36270057D01*
X19808761Y-36222438D01*
X19856380Y-36127200D01*
X19856380Y-35936723D01*
X19808761Y-35841485D01*
X19761142Y-35793866D01*
X19665904Y-35746247D01*
X19427809Y-35746247D01*
X19332571Y-35793866D01*
X19284952Y-35841485D01*
X19237333Y-35936723D01*
X19237333Y-36127200D01*
X19284952Y-36222438D01*
X19332571Y-36270057D01*
X19427809Y-36317676D01*
%TO.C,C5*%
X18485142Y-20740666D02*
X18532761Y-20788285D01*
X18580380Y-20931142D01*
X18580380Y-21026380D01*
X18532761Y-21169238D01*
X18437523Y-21264476D01*
X18342285Y-21312095D01*
X18151809Y-21359714D01*
X18008952Y-21359714D01*
X17818476Y-21312095D01*
X17723238Y-21264476D01*
X17628000Y-21169238D01*
X17580380Y-21026380D01*
X17580380Y-20931142D01*
X17628000Y-20788285D01*
X17675619Y-20740666D01*
X17580380Y-19835904D02*
X17580380Y-20312095D01*
X18056571Y-20359714D01*
X18008952Y-20312095D01*
X17961333Y-20216857D01*
X17961333Y-19978761D01*
X18008952Y-19883523D01*
X18056571Y-19835904D01*
X18151809Y-19788285D01*
X18389904Y-19788285D01*
X18485142Y-19835904D01*
X18532761Y-19883523D01*
X18580380Y-19978761D01*
X18580380Y-20216857D01*
X18532761Y-20312095D01*
X18485142Y-20359714D01*
%TO.C,C4*%
X27154142Y-18073666D02*
X27201761Y-18121285D01*
X27249380Y-18264142D01*
X27249380Y-18359380D01*
X27201761Y-18502238D01*
X27106523Y-18597476D01*
X27011285Y-18645095D01*
X26820809Y-18692714D01*
X26677952Y-18692714D01*
X26487476Y-18645095D01*
X26392238Y-18597476D01*
X26297000Y-18502238D01*
X26249380Y-18359380D01*
X26249380Y-18264142D01*
X26297000Y-18121285D01*
X26344619Y-18073666D01*
X26582714Y-17216523D02*
X27249380Y-17216523D01*
X26201761Y-17454619D02*
X26916047Y-17692714D01*
X26916047Y-17073666D01*
%TO.C,C3*%
X29059142Y-32805666D02*
X29106761Y-32853285D01*
X29154380Y-32996142D01*
X29154380Y-33091380D01*
X29106761Y-33234238D01*
X29011523Y-33329476D01*
X28916285Y-33377095D01*
X28725809Y-33424714D01*
X28582952Y-33424714D01*
X28392476Y-33377095D01*
X28297238Y-33329476D01*
X28202000Y-33234238D01*
X28154380Y-33091380D01*
X28154380Y-32996142D01*
X28202000Y-32853285D01*
X28249619Y-32805666D01*
X28154380Y-32472333D02*
X28154380Y-31853285D01*
X28535333Y-32186619D01*
X28535333Y-32043761D01*
X28582952Y-31948523D01*
X28630571Y-31900904D01*
X28725809Y-31853285D01*
X28963904Y-31853285D01*
X29059142Y-31900904D01*
X29106761Y-31948523D01*
X29154380Y-32043761D01*
X29154380Y-32329476D01*
X29106761Y-32424714D01*
X29059142Y-32472333D01*
%TO.C,C2*%
X20931142Y-18073666D02*
X20978761Y-18121285D01*
X21026380Y-18264142D01*
X21026380Y-18359380D01*
X20978761Y-18502238D01*
X20883523Y-18597476D01*
X20788285Y-18645095D01*
X20597809Y-18692714D01*
X20454952Y-18692714D01*
X20264476Y-18645095D01*
X20169238Y-18597476D01*
X20074000Y-18502238D01*
X20026380Y-18359380D01*
X20026380Y-18264142D01*
X20074000Y-18121285D01*
X20121619Y-18073666D01*
X20121619Y-17692714D02*
X20074000Y-17645095D01*
X20026380Y-17549857D01*
X20026380Y-17311761D01*
X20074000Y-17216523D01*
X20121619Y-17168904D01*
X20216857Y-17121285D01*
X20312095Y-17121285D01*
X20454952Y-17168904D01*
X21026380Y-17740333D01*
X21026380Y-17121285D01*
%TO.C,C1*%
X27535142Y-32869166D02*
X27582761Y-32916785D01*
X27630380Y-33059642D01*
X27630380Y-33154880D01*
X27582761Y-33297738D01*
X27487523Y-33392976D01*
X27392285Y-33440595D01*
X27201809Y-33488214D01*
X27058952Y-33488214D01*
X26868476Y-33440595D01*
X26773238Y-33392976D01*
X26678000Y-33297738D01*
X26630380Y-33154880D01*
X26630380Y-33059642D01*
X26678000Y-32916785D01*
X26725619Y-32869166D01*
X27630380Y-31916785D02*
X27630380Y-32488214D01*
X27630380Y-32202500D02*
X26630380Y-32202500D01*
X26773238Y-32297738D01*
X26868476Y-32392976D01*
X26916095Y-32488214D01*
%TD*%
M02*
