%TF.GenerationSoftware,KiCad,Pcbnew,(5.1.6)-1*%
%TF.CreationDate,2020-12-07T17:57:15+08:00*%
%TF.ProjectId,A1.0,41312e30-2e6b-4696-9361-645f70636258,rev?*%
%TF.SameCoordinates,Original*%
%TF.FileFunction,Paste,Top*%
%TF.FilePolarity,Positive*%
%FSLAX46Y46*%
G04 Gerber Fmt 4.6, Leading zero omitted, Abs format (unit mm)*
G04 Created by KiCad (PCBNEW (5.1.6)-1) date 2020-12-07 17:57:15*
%MOMM*%
%LPD*%
G01*
G04 APERTURE LIST*
%ADD10R,1.150000X1.000000*%
%ADD11R,1.600000X0.410000*%
%ADD12R,0.500000X1.000000*%
%ADD13R,1.300000X0.500000*%
%ADD14R,0.800000X0.900000*%
%ADD15C,1.524000*%
G04 APERTURE END LIST*
%TO.C,C23*%
G36*
G01*
X40319708Y-18875316D02*
X39957316Y-19237709D01*
G75*
G02*
X39647956Y-19237709I-154680J154680D01*
G01*
X39338597Y-18928350D01*
G75*
G02*
X39338597Y-18618990I154680J154680D01*
G01*
X39700990Y-18256597D01*
G75*
G02*
X40010350Y-18256597I154680J-154680D01*
G01*
X40319709Y-18565956D01*
G75*
G02*
X40319709Y-18875316I-154680J-154680D01*
G01*
G37*
G36*
G01*
X41433402Y-19989010D02*
X41071010Y-20351403D01*
G75*
G02*
X40761650Y-20351403I-154680J154680D01*
G01*
X40452291Y-20042044D01*
G75*
G02*
X40452291Y-19732684I154680J154680D01*
G01*
X40814684Y-19370291D01*
G75*
G02*
X41124044Y-19370291I154680J-154680D01*
G01*
X41433403Y-19679650D01*
G75*
G02*
X41433403Y-19989010I-154680J-154680D01*
G01*
G37*
%TD*%
%TO.C,J4*%
G36*
G01*
X38905500Y-43353500D02*
X38905500Y-41228500D01*
G75*
G02*
X38993000Y-41141000I87500J0D01*
G01*
X39168000Y-41141000D01*
G75*
G02*
X39255500Y-41228500I0J-87500D01*
G01*
X39255500Y-43353500D01*
G75*
G02*
X39168000Y-43441000I-87500J0D01*
G01*
X38993000Y-43441000D01*
G75*
G02*
X38905500Y-43353500I0J87500D01*
G01*
G37*
G36*
G01*
X38205500Y-43353500D02*
X38205500Y-41228500D01*
G75*
G02*
X38293000Y-41141000I87500J0D01*
G01*
X38468000Y-41141000D01*
G75*
G02*
X38555500Y-41228500I0J-87500D01*
G01*
X38555500Y-43353500D01*
G75*
G02*
X38468000Y-43441000I-87500J0D01*
G01*
X38293000Y-43441000D01*
G75*
G02*
X38205500Y-43353500I0J87500D01*
G01*
G37*
G36*
G01*
X37505500Y-43353500D02*
X37505500Y-41228500D01*
G75*
G02*
X37593000Y-41141000I87500J0D01*
G01*
X37768000Y-41141000D01*
G75*
G02*
X37855500Y-41228500I0J-87500D01*
G01*
X37855500Y-43353500D01*
G75*
G02*
X37768000Y-43441000I-87500J0D01*
G01*
X37593000Y-43441000D01*
G75*
G02*
X37505500Y-43353500I0J87500D01*
G01*
G37*
G36*
G01*
X39605500Y-43353500D02*
X39605500Y-41228500D01*
G75*
G02*
X39693000Y-41141000I87500J0D01*
G01*
X39868000Y-41141000D01*
G75*
G02*
X39955500Y-41228500I0J-87500D01*
G01*
X39955500Y-43353500D01*
G75*
G02*
X39868000Y-43441000I-87500J0D01*
G01*
X39693000Y-43441000D01*
G75*
G02*
X39605500Y-43353500I0J87500D01*
G01*
G37*
G36*
G01*
X36805500Y-43353500D02*
X36805500Y-41228500D01*
G75*
G02*
X36893000Y-41141000I87500J0D01*
G01*
X37068000Y-41141000D01*
G75*
G02*
X37155500Y-41228500I0J-87500D01*
G01*
X37155500Y-43353500D01*
G75*
G02*
X37068000Y-43441000I-87500J0D01*
G01*
X36893000Y-43441000D01*
G75*
G02*
X36805500Y-43353500I0J87500D01*
G01*
G37*
%TD*%
%TO.C,J1*%
G36*
G01*
X33675000Y-43362500D02*
X33675000Y-41237500D01*
G75*
G02*
X33762500Y-41150000I87500J0D01*
G01*
X33937500Y-41150000D01*
G75*
G02*
X34025000Y-41237500I0J-87500D01*
G01*
X34025000Y-43362500D01*
G75*
G02*
X33937500Y-43450000I-87500J0D01*
G01*
X33762500Y-43450000D01*
G75*
G02*
X33675000Y-43362500I0J87500D01*
G01*
G37*
G36*
G01*
X32975000Y-43362500D02*
X32975000Y-41237500D01*
G75*
G02*
X33062500Y-41150000I87500J0D01*
G01*
X33237500Y-41150000D01*
G75*
G02*
X33325000Y-41237500I0J-87500D01*
G01*
X33325000Y-43362500D01*
G75*
G02*
X33237500Y-43450000I-87500J0D01*
G01*
X33062500Y-43450000D01*
G75*
G02*
X32975000Y-43362500I0J87500D01*
G01*
G37*
G36*
G01*
X32275000Y-43362500D02*
X32275000Y-41237500D01*
G75*
G02*
X32362500Y-41150000I87500J0D01*
G01*
X32537500Y-41150000D01*
G75*
G02*
X32625000Y-41237500I0J-87500D01*
G01*
X32625000Y-43362500D01*
G75*
G02*
X32537500Y-43450000I-87500J0D01*
G01*
X32362500Y-43450000D01*
G75*
G02*
X32275000Y-43362500I0J87500D01*
G01*
G37*
G36*
G01*
X31575000Y-43362500D02*
X31575000Y-41237500D01*
G75*
G02*
X31662500Y-41150000I87500J0D01*
G01*
X31837500Y-41150000D01*
G75*
G02*
X31925000Y-41237500I0J-87500D01*
G01*
X31925000Y-43362500D01*
G75*
G02*
X31837500Y-43450000I-87500J0D01*
G01*
X31662500Y-43450000D01*
G75*
G02*
X31575000Y-43362500I0J87500D01*
G01*
G37*
G36*
G01*
X30875000Y-43362500D02*
X30875000Y-41237500D01*
G75*
G02*
X30962500Y-41150000I87500J0D01*
G01*
X31137500Y-41150000D01*
G75*
G02*
X31225000Y-41237500I0J-87500D01*
G01*
X31225000Y-43362500D01*
G75*
G02*
X31137500Y-43450000I-87500J0D01*
G01*
X30962500Y-43450000D01*
G75*
G02*
X30875000Y-43362500I0J87500D01*
G01*
G37*
G36*
G01*
X25975000Y-43362500D02*
X25975000Y-41237500D01*
G75*
G02*
X26062500Y-41150000I87500J0D01*
G01*
X26237500Y-41150000D01*
G75*
G02*
X26325000Y-41237500I0J-87500D01*
G01*
X26325000Y-43362500D01*
G75*
G02*
X26237500Y-43450000I-87500J0D01*
G01*
X26062500Y-43450000D01*
G75*
G02*
X25975000Y-43362500I0J87500D01*
G01*
G37*
G36*
G01*
X26675000Y-43362500D02*
X26675000Y-41237500D01*
G75*
G02*
X26762500Y-41150000I87500J0D01*
G01*
X26937500Y-41150000D01*
G75*
G02*
X27025000Y-41237500I0J-87500D01*
G01*
X27025000Y-43362500D01*
G75*
G02*
X26937500Y-43450000I-87500J0D01*
G01*
X26762500Y-43450000D01*
G75*
G02*
X26675000Y-43362500I0J87500D01*
G01*
G37*
G36*
G01*
X27375000Y-43362500D02*
X27375000Y-41237500D01*
G75*
G02*
X27462500Y-41150000I87500J0D01*
G01*
X27637500Y-41150000D01*
G75*
G02*
X27725000Y-41237500I0J-87500D01*
G01*
X27725000Y-43362500D01*
G75*
G02*
X27637500Y-43450000I-87500J0D01*
G01*
X27462500Y-43450000D01*
G75*
G02*
X27375000Y-43362500I0J87500D01*
G01*
G37*
G36*
G01*
X28075000Y-43362500D02*
X28075000Y-41237500D01*
G75*
G02*
X28162500Y-41150000I87500J0D01*
G01*
X28337500Y-41150000D01*
G75*
G02*
X28425000Y-41237500I0J-87500D01*
G01*
X28425000Y-43362500D01*
G75*
G02*
X28337500Y-43450000I-87500J0D01*
G01*
X28162500Y-43450000D01*
G75*
G02*
X28075000Y-43362500I0J87500D01*
G01*
G37*
G36*
G01*
X28775000Y-43362500D02*
X28775000Y-41237500D01*
G75*
G02*
X28862500Y-41150000I87500J0D01*
G01*
X29037500Y-41150000D01*
G75*
G02*
X29125000Y-41237500I0J-87500D01*
G01*
X29125000Y-43362500D01*
G75*
G02*
X29037500Y-43450000I-87500J0D01*
G01*
X28862500Y-43450000D01*
G75*
G02*
X28775000Y-43362500I0J87500D01*
G01*
G37*
G36*
G01*
X30175000Y-43362500D02*
X30175000Y-41237500D01*
G75*
G02*
X30262500Y-41150000I87500J0D01*
G01*
X30437500Y-41150000D01*
G75*
G02*
X30525000Y-41237500I0J-87500D01*
G01*
X30525000Y-43362500D01*
G75*
G02*
X30437500Y-43450000I-87500J0D01*
G01*
X30262500Y-43450000D01*
G75*
G02*
X30175000Y-43362500I0J87500D01*
G01*
G37*
G36*
G01*
X29475000Y-43362500D02*
X29475000Y-41237500D01*
G75*
G02*
X29562500Y-41150000I87500J0D01*
G01*
X29737500Y-41150000D01*
G75*
G02*
X29825000Y-41237500I0J-87500D01*
G01*
X29825000Y-43362500D01*
G75*
G02*
X29737500Y-43450000I-87500J0D01*
G01*
X29562500Y-43450000D01*
G75*
G02*
X29475000Y-43362500I0J87500D01*
G01*
G37*
%TD*%
D10*
%TO.C,Y1*%
X34679000Y-15980000D03*
X36429000Y-15980000D03*
X36429000Y-17380000D03*
X34679000Y-17380000D03*
%TD*%
D11*
%TO.C,U3*%
X39103300Y-21145500D03*
X39103300Y-21780500D03*
X39103300Y-22415500D03*
X39103300Y-23050500D03*
X39103300Y-26225500D03*
X39103300Y-26860500D03*
X39103300Y-27495500D03*
X39103300Y-28130500D03*
X33794700Y-28130500D03*
X33794700Y-27495500D03*
X33794700Y-26860500D03*
X33794700Y-26225500D03*
X33794700Y-23050500D03*
X33794700Y-22415500D03*
X33794700Y-21780500D03*
X33794700Y-21145500D03*
X33794700Y-23685500D03*
X33794700Y-24320500D03*
X39103300Y-24320500D03*
X39103300Y-23685500D03*
X33794700Y-24955500D03*
X33794700Y-25590500D03*
X39103300Y-24955500D03*
X39103300Y-25590500D03*
%TD*%
D12*
%TO.C,SW1*%
X14859000Y-31369000D03*
X14858500Y-26035000D03*
X17208500Y-31369000D03*
X17208500Y-26035000D03*
D13*
X17970500Y-27702000D03*
X17970500Y-29702000D03*
X17970500Y-28702000D03*
%TD*%
%TO.C,R8*%
G36*
G01*
X43402250Y-31234000D02*
X42889750Y-31234000D01*
G75*
G02*
X42671000Y-31015250I0J218750D01*
G01*
X42671000Y-30577750D01*
G75*
G02*
X42889750Y-30359000I218750J0D01*
G01*
X43402250Y-30359000D01*
G75*
G02*
X43621000Y-30577750I0J-218750D01*
G01*
X43621000Y-31015250D01*
G75*
G02*
X43402250Y-31234000I-218750J0D01*
G01*
G37*
G36*
G01*
X43402250Y-32809000D02*
X42889750Y-32809000D01*
G75*
G02*
X42671000Y-32590250I0J218750D01*
G01*
X42671000Y-32152750D01*
G75*
G02*
X42889750Y-31934000I218750J0D01*
G01*
X43402250Y-31934000D01*
G75*
G02*
X43621000Y-32152750I0J-218750D01*
G01*
X43621000Y-32590250D01*
G75*
G02*
X43402250Y-32809000I-218750J0D01*
G01*
G37*
%TD*%
%TO.C,R7*%
G36*
G01*
X44942250Y-28194000D02*
X44429750Y-28194000D01*
G75*
G02*
X44211000Y-27975250I0J218750D01*
G01*
X44211000Y-27537750D01*
G75*
G02*
X44429750Y-27319000I218750J0D01*
G01*
X44942250Y-27319000D01*
G75*
G02*
X45161000Y-27537750I0J-218750D01*
G01*
X45161000Y-27975250D01*
G75*
G02*
X44942250Y-28194000I-218750J0D01*
G01*
G37*
G36*
G01*
X44942250Y-29769000D02*
X44429750Y-29769000D01*
G75*
G02*
X44211000Y-29550250I0J218750D01*
G01*
X44211000Y-29112750D01*
G75*
G02*
X44429750Y-28894000I218750J0D01*
G01*
X44942250Y-28894000D01*
G75*
G02*
X45161000Y-29112750I0J-218750D01*
G01*
X45161000Y-29550250D01*
G75*
G02*
X44942250Y-29769000I-218750J0D01*
G01*
G37*
%TD*%
%TO.C,R6*%
G36*
G01*
X45939750Y-31934000D02*
X46452250Y-31934000D01*
G75*
G02*
X46671000Y-32152750I0J-218750D01*
G01*
X46671000Y-32590250D01*
G75*
G02*
X46452250Y-32809000I-218750J0D01*
G01*
X45939750Y-32809000D01*
G75*
G02*
X45721000Y-32590250I0J218750D01*
G01*
X45721000Y-32152750D01*
G75*
G02*
X45939750Y-31934000I218750J0D01*
G01*
G37*
G36*
G01*
X45939750Y-30359000D02*
X46452250Y-30359000D01*
G75*
G02*
X46671000Y-30577750I0J-218750D01*
G01*
X46671000Y-31015250D01*
G75*
G02*
X46452250Y-31234000I-218750J0D01*
G01*
X45939750Y-31234000D01*
G75*
G02*
X45721000Y-31015250I0J218750D01*
G01*
X45721000Y-30577750D01*
G75*
G02*
X45939750Y-30359000I218750J0D01*
G01*
G37*
%TD*%
%TO.C,R5*%
G36*
G01*
X35910000Y-19306250D02*
X35910000Y-18793750D01*
G75*
G02*
X36128750Y-18575000I218750J0D01*
G01*
X36566250Y-18575000D01*
G75*
G02*
X36785000Y-18793750I0J-218750D01*
G01*
X36785000Y-19306250D01*
G75*
G02*
X36566250Y-19525000I-218750J0D01*
G01*
X36128750Y-19525000D01*
G75*
G02*
X35910000Y-19306250I0J218750D01*
G01*
G37*
G36*
G01*
X34335000Y-19306250D02*
X34335000Y-18793750D01*
G75*
G02*
X34553750Y-18575000I218750J0D01*
G01*
X34991250Y-18575000D01*
G75*
G02*
X35210000Y-18793750I0J-218750D01*
G01*
X35210000Y-19306250D01*
G75*
G02*
X34991250Y-19525000I-218750J0D01*
G01*
X34553750Y-19525000D01*
G75*
G02*
X34335000Y-19306250I0J218750D01*
G01*
G37*
%TD*%
%TO.C,C22*%
G36*
G01*
X41335708Y-17859316D02*
X40973316Y-18221709D01*
G75*
G02*
X40663956Y-18221709I-154680J154680D01*
G01*
X40354597Y-17912350D01*
G75*
G02*
X40354597Y-17602990I154680J154680D01*
G01*
X40716990Y-17240597D01*
G75*
G02*
X41026350Y-17240597I154680J-154680D01*
G01*
X41335709Y-17549956D01*
G75*
G02*
X41335709Y-17859316I-154680J-154680D01*
G01*
G37*
G36*
G01*
X42449402Y-18973010D02*
X42087010Y-19335403D01*
G75*
G02*
X41777650Y-19335403I-154680J154680D01*
G01*
X41468291Y-19026044D01*
G75*
G02*
X41468291Y-18716684I154680J154680D01*
G01*
X41830684Y-18354291D01*
G75*
G02*
X42140044Y-18354291I154680J-154680D01*
G01*
X42449403Y-18663650D01*
G75*
G02*
X42449403Y-18973010I-154680J-154680D01*
G01*
G37*
%TD*%
%TO.C,C21*%
G36*
G01*
X42097708Y-21288316D02*
X41735316Y-21650709D01*
G75*
G02*
X41425956Y-21650709I-154680J154680D01*
G01*
X41116597Y-21341350D01*
G75*
G02*
X41116597Y-21031990I154680J154680D01*
G01*
X41478990Y-20669597D01*
G75*
G02*
X41788350Y-20669597I154680J-154680D01*
G01*
X42097709Y-20978956D01*
G75*
G02*
X42097709Y-21288316I-154680J-154680D01*
G01*
G37*
G36*
G01*
X43211402Y-22402010D02*
X42849010Y-22764403D01*
G75*
G02*
X42539650Y-22764403I-154680J154680D01*
G01*
X42230291Y-22455044D01*
G75*
G02*
X42230291Y-22145684I154680J154680D01*
G01*
X42592684Y-21783291D01*
G75*
G02*
X42902044Y-21783291I154680J-154680D01*
G01*
X43211403Y-22092650D01*
G75*
G02*
X43211403Y-22402010I-154680J-154680D01*
G01*
G37*
%TD*%
%TO.C,C20*%
G36*
G01*
X41399750Y-31914000D02*
X41912250Y-31914000D01*
G75*
G02*
X42131000Y-32132750I0J-218750D01*
G01*
X42131000Y-32570250D01*
G75*
G02*
X41912250Y-32789000I-218750J0D01*
G01*
X41399750Y-32789000D01*
G75*
G02*
X41181000Y-32570250I0J218750D01*
G01*
X41181000Y-32132750D01*
G75*
G02*
X41399750Y-31914000I218750J0D01*
G01*
G37*
G36*
G01*
X41399750Y-30339000D02*
X41912250Y-30339000D01*
G75*
G02*
X42131000Y-30557750I0J-218750D01*
G01*
X42131000Y-30995250D01*
G75*
G02*
X41912250Y-31214000I-218750J0D01*
G01*
X41399750Y-31214000D01*
G75*
G02*
X41181000Y-30995250I0J218750D01*
G01*
X41181000Y-30557750D01*
G75*
G02*
X41399750Y-30339000I218750J0D01*
G01*
G37*
%TD*%
%TO.C,C19*%
G36*
G01*
X43113708Y-20272316D02*
X42751316Y-20634709D01*
G75*
G02*
X42441956Y-20634709I-154680J154680D01*
G01*
X42132597Y-20325350D01*
G75*
G02*
X42132597Y-20015990I154680J154680D01*
G01*
X42494990Y-19653597D01*
G75*
G02*
X42804350Y-19653597I154680J-154680D01*
G01*
X43113709Y-19962956D01*
G75*
G02*
X43113709Y-20272316I-154680J-154680D01*
G01*
G37*
G36*
G01*
X44227402Y-21386010D02*
X43865010Y-21748403D01*
G75*
G02*
X43555650Y-21748403I-154680J154680D01*
G01*
X43246291Y-21439044D01*
G75*
G02*
X43246291Y-21129684I154680J154680D01*
G01*
X43608684Y-20767291D01*
G75*
G02*
X43918044Y-20767291I154680J-154680D01*
G01*
X44227403Y-21076650D01*
G75*
G02*
X44227403Y-21386010I-154680J-154680D01*
G01*
G37*
%TD*%
%TO.C,C18*%
G36*
G01*
X44419750Y-31924000D02*
X44932250Y-31924000D01*
G75*
G02*
X45151000Y-32142750I0J-218750D01*
G01*
X45151000Y-32580250D01*
G75*
G02*
X44932250Y-32799000I-218750J0D01*
G01*
X44419750Y-32799000D01*
G75*
G02*
X44201000Y-32580250I0J218750D01*
G01*
X44201000Y-32142750D01*
G75*
G02*
X44419750Y-31924000I218750J0D01*
G01*
G37*
G36*
G01*
X44419750Y-30349000D02*
X44932250Y-30349000D01*
G75*
G02*
X45151000Y-30567750I0J-218750D01*
G01*
X45151000Y-31005250D01*
G75*
G02*
X44932250Y-31224000I-218750J0D01*
G01*
X44419750Y-31224000D01*
G75*
G02*
X44201000Y-31005250I0J218750D01*
G01*
X44201000Y-30567750D01*
G75*
G02*
X44419750Y-30349000I218750J0D01*
G01*
G37*
%TD*%
%TO.C,C17*%
G36*
G01*
X45341250Y-24415000D02*
X44828750Y-24415000D01*
G75*
G02*
X44610000Y-24196250I0J218750D01*
G01*
X44610000Y-23758750D01*
G75*
G02*
X44828750Y-23540000I218750J0D01*
G01*
X45341250Y-23540000D01*
G75*
G02*
X45560000Y-23758750I0J-218750D01*
G01*
X45560000Y-24196250D01*
G75*
G02*
X45341250Y-24415000I-218750J0D01*
G01*
G37*
G36*
G01*
X45341250Y-25990000D02*
X44828750Y-25990000D01*
G75*
G02*
X44610000Y-25771250I0J218750D01*
G01*
X44610000Y-25333750D01*
G75*
G02*
X44828750Y-25115000I218750J0D01*
G01*
X45341250Y-25115000D01*
G75*
G02*
X45560000Y-25333750I0J-218750D01*
G01*
X45560000Y-25771250D01*
G75*
G02*
X45341250Y-25990000I-218750J0D01*
G01*
G37*
%TD*%
%TO.C,C16*%
G36*
G01*
X32797750Y-17030000D02*
X33310250Y-17030000D01*
G75*
G02*
X33529000Y-17248750I0J-218750D01*
G01*
X33529000Y-17686250D01*
G75*
G02*
X33310250Y-17905000I-218750J0D01*
G01*
X32797750Y-17905000D01*
G75*
G02*
X32579000Y-17686250I0J218750D01*
G01*
X32579000Y-17248750D01*
G75*
G02*
X32797750Y-17030000I218750J0D01*
G01*
G37*
G36*
G01*
X32797750Y-15455000D02*
X33310250Y-15455000D01*
G75*
G02*
X33529000Y-15673750I0J-218750D01*
G01*
X33529000Y-16111250D01*
G75*
G02*
X33310250Y-16330000I-218750J0D01*
G01*
X32797750Y-16330000D01*
G75*
G02*
X32579000Y-16111250I0J218750D01*
G01*
X32579000Y-15673750D01*
G75*
G02*
X32797750Y-15455000I218750J0D01*
G01*
G37*
%TD*%
%TO.C,C15*%
G36*
G01*
X38310250Y-16330000D02*
X37797750Y-16330000D01*
G75*
G02*
X37579000Y-16111250I0J218750D01*
G01*
X37579000Y-15673750D01*
G75*
G02*
X37797750Y-15455000I218750J0D01*
G01*
X38310250Y-15455000D01*
G75*
G02*
X38529000Y-15673750I0J-218750D01*
G01*
X38529000Y-16111250D01*
G75*
G02*
X38310250Y-16330000I-218750J0D01*
G01*
G37*
G36*
G01*
X38310250Y-17905000D02*
X37797750Y-17905000D01*
G75*
G02*
X37579000Y-17686250I0J218750D01*
G01*
X37579000Y-17248750D01*
G75*
G02*
X37797750Y-17030000I218750J0D01*
G01*
X38310250Y-17030000D01*
G75*
G02*
X38529000Y-17248750I0J-218750D01*
G01*
X38529000Y-17686250D01*
G75*
G02*
X38310250Y-17905000I-218750J0D01*
G01*
G37*
%TD*%
%TO.C,C14*%
G36*
G01*
X43817250Y-24415000D02*
X43304750Y-24415000D01*
G75*
G02*
X43086000Y-24196250I0J218750D01*
G01*
X43086000Y-23758750D01*
G75*
G02*
X43304750Y-23540000I218750J0D01*
G01*
X43817250Y-23540000D01*
G75*
G02*
X44036000Y-23758750I0J-218750D01*
G01*
X44036000Y-24196250D01*
G75*
G02*
X43817250Y-24415000I-218750J0D01*
G01*
G37*
G36*
G01*
X43817250Y-25990000D02*
X43304750Y-25990000D01*
G75*
G02*
X43086000Y-25771250I0J218750D01*
G01*
X43086000Y-25333750D01*
G75*
G02*
X43304750Y-25115000I218750J0D01*
G01*
X43817250Y-25115000D01*
G75*
G02*
X44036000Y-25333750I0J-218750D01*
G01*
X44036000Y-25771250D01*
G75*
G02*
X43817250Y-25990000I-218750J0D01*
G01*
G37*
%TD*%
%TO.C,C13*%
G36*
G01*
X42923750Y-28899500D02*
X43436250Y-28899500D01*
G75*
G02*
X43655000Y-29118250I0J-218750D01*
G01*
X43655000Y-29555750D01*
G75*
G02*
X43436250Y-29774500I-218750J0D01*
G01*
X42923750Y-29774500D01*
G75*
G02*
X42705000Y-29555750I0J218750D01*
G01*
X42705000Y-29118250D01*
G75*
G02*
X42923750Y-28899500I218750J0D01*
G01*
G37*
G36*
G01*
X42923750Y-27324500D02*
X43436250Y-27324500D01*
G75*
G02*
X43655000Y-27543250I0J-218750D01*
G01*
X43655000Y-27980750D01*
G75*
G02*
X43436250Y-28199500I-218750J0D01*
G01*
X42923750Y-28199500D01*
G75*
G02*
X42705000Y-27980750I0J218750D01*
G01*
X42705000Y-27543250D01*
G75*
G02*
X42923750Y-27324500I218750J0D01*
G01*
G37*
%TD*%
%TO.C,C12*%
G36*
G01*
X41399750Y-28925000D02*
X41912250Y-28925000D01*
G75*
G02*
X42131000Y-29143750I0J-218750D01*
G01*
X42131000Y-29581250D01*
G75*
G02*
X41912250Y-29800000I-218750J0D01*
G01*
X41399750Y-29800000D01*
G75*
G02*
X41181000Y-29581250I0J218750D01*
G01*
X41181000Y-29143750D01*
G75*
G02*
X41399750Y-28925000I218750J0D01*
G01*
G37*
G36*
G01*
X41399750Y-27350000D02*
X41912250Y-27350000D01*
G75*
G02*
X42131000Y-27568750I0J-218750D01*
G01*
X42131000Y-28006250D01*
G75*
G02*
X41912250Y-28225000I-218750J0D01*
G01*
X41399750Y-28225000D01*
G75*
G02*
X41181000Y-28006250I0J218750D01*
G01*
X41181000Y-27568750D01*
G75*
G02*
X41399750Y-27350000I218750J0D01*
G01*
G37*
%TD*%
%TO.C,C11*%
G36*
G01*
X46462250Y-28204000D02*
X45949750Y-28204000D01*
G75*
G02*
X45731000Y-27985250I0J218750D01*
G01*
X45731000Y-27547750D01*
G75*
G02*
X45949750Y-27329000I218750J0D01*
G01*
X46462250Y-27329000D01*
G75*
G02*
X46681000Y-27547750I0J-218750D01*
G01*
X46681000Y-27985250D01*
G75*
G02*
X46462250Y-28204000I-218750J0D01*
G01*
G37*
G36*
G01*
X46462250Y-29779000D02*
X45949750Y-29779000D01*
G75*
G02*
X45731000Y-29560250I0J218750D01*
G01*
X45731000Y-29122750D01*
G75*
G02*
X45949750Y-28904000I218750J0D01*
G01*
X46462250Y-28904000D01*
G75*
G02*
X46681000Y-29122750I0J-218750D01*
G01*
X46681000Y-29560250D01*
G75*
G02*
X46462250Y-29779000I-218750J0D01*
G01*
G37*
%TD*%
%TO.C,C10*%
G36*
G01*
X34623000Y-31935250D02*
X34623000Y-31422750D01*
G75*
G02*
X34841750Y-31204000I218750J0D01*
G01*
X35279250Y-31204000D01*
G75*
G02*
X35498000Y-31422750I0J-218750D01*
G01*
X35498000Y-31935250D01*
G75*
G02*
X35279250Y-32154000I-218750J0D01*
G01*
X34841750Y-32154000D01*
G75*
G02*
X34623000Y-31935250I0J218750D01*
G01*
G37*
G36*
G01*
X33048000Y-31935250D02*
X33048000Y-31422750D01*
G75*
G02*
X33266750Y-31204000I218750J0D01*
G01*
X33704250Y-31204000D01*
G75*
G02*
X33923000Y-31422750I0J-218750D01*
G01*
X33923000Y-31935250D01*
G75*
G02*
X33704250Y-32154000I-218750J0D01*
G01*
X33266750Y-32154000D01*
G75*
G02*
X33048000Y-31935250I0J218750D01*
G01*
G37*
%TD*%
%TO.C,C9*%
G36*
G01*
X34613000Y-30365250D02*
X34613000Y-29852750D01*
G75*
G02*
X34831750Y-29634000I218750J0D01*
G01*
X35269250Y-29634000D01*
G75*
G02*
X35488000Y-29852750I0J-218750D01*
G01*
X35488000Y-30365250D01*
G75*
G02*
X35269250Y-30584000I-218750J0D01*
G01*
X34831750Y-30584000D01*
G75*
G02*
X34613000Y-30365250I0J218750D01*
G01*
G37*
G36*
G01*
X33038000Y-30365250D02*
X33038000Y-29852750D01*
G75*
G02*
X33256750Y-29634000I218750J0D01*
G01*
X33694250Y-29634000D01*
G75*
G02*
X33913000Y-29852750I0J-218750D01*
G01*
X33913000Y-30365250D01*
G75*
G02*
X33694250Y-30584000I-218750J0D01*
G01*
X33256750Y-30584000D01*
G75*
G02*
X33038000Y-30365250I0J218750D01*
G01*
G37*
%TD*%
D14*
%TO.C,U2*%
X16764000Y-33036000D03*
X17714000Y-35036000D03*
X15814000Y-35036000D03*
%TD*%
%TO.C,U1*%
G36*
G01*
X26173000Y-26545000D02*
X26173000Y-25915000D01*
G75*
G02*
X26423000Y-25665000I250000J0D01*
G01*
X27053000Y-25665000D01*
G75*
G02*
X27303000Y-25915000I0J-250000D01*
G01*
X27303000Y-26545000D01*
G75*
G02*
X27053000Y-26795000I-250000J0D01*
G01*
X26423000Y-26795000D01*
G75*
G02*
X26173000Y-26545000I0J250000D01*
G01*
G37*
G36*
G01*
X26173000Y-25145000D02*
X26173000Y-24515000D01*
G75*
G02*
X26423000Y-24265000I250000J0D01*
G01*
X27053000Y-24265000D01*
G75*
G02*
X27303000Y-24515000I0J-250000D01*
G01*
X27303000Y-25145000D01*
G75*
G02*
X27053000Y-25395000I-250000J0D01*
G01*
X26423000Y-25395000D01*
G75*
G02*
X26173000Y-25145000I0J250000D01*
G01*
G37*
G36*
G01*
X26173000Y-23745000D02*
X26173000Y-23115000D01*
G75*
G02*
X26423000Y-22865000I250000J0D01*
G01*
X27053000Y-22865000D01*
G75*
G02*
X27303000Y-23115000I0J-250000D01*
G01*
X27303000Y-23745000D01*
G75*
G02*
X27053000Y-23995000I-250000J0D01*
G01*
X26423000Y-23995000D01*
G75*
G02*
X26173000Y-23745000I0J250000D01*
G01*
G37*
G36*
G01*
X26173000Y-22345000D02*
X26173000Y-21715000D01*
G75*
G02*
X26423000Y-21465000I250000J0D01*
G01*
X27053000Y-21465000D01*
G75*
G02*
X27303000Y-21715000I0J-250000D01*
G01*
X27303000Y-22345000D01*
G75*
G02*
X27053000Y-22595000I-250000J0D01*
G01*
X26423000Y-22595000D01*
G75*
G02*
X26173000Y-22345000I0J250000D01*
G01*
G37*
G36*
G01*
X24773000Y-26545000D02*
X24773000Y-25915000D01*
G75*
G02*
X25023000Y-25665000I250000J0D01*
G01*
X25653000Y-25665000D01*
G75*
G02*
X25903000Y-25915000I0J-250000D01*
G01*
X25903000Y-26545000D01*
G75*
G02*
X25653000Y-26795000I-250000J0D01*
G01*
X25023000Y-26795000D01*
G75*
G02*
X24773000Y-26545000I0J250000D01*
G01*
G37*
G36*
G01*
X24773000Y-25145000D02*
X24773000Y-24515000D01*
G75*
G02*
X25023000Y-24265000I250000J0D01*
G01*
X25653000Y-24265000D01*
G75*
G02*
X25903000Y-24515000I0J-250000D01*
G01*
X25903000Y-25145000D01*
G75*
G02*
X25653000Y-25395000I-250000J0D01*
G01*
X25023000Y-25395000D01*
G75*
G02*
X24773000Y-25145000I0J250000D01*
G01*
G37*
G36*
G01*
X24773000Y-23745000D02*
X24773000Y-23115000D01*
G75*
G02*
X25023000Y-22865000I250000J0D01*
G01*
X25653000Y-22865000D01*
G75*
G02*
X25903000Y-23115000I0J-250000D01*
G01*
X25903000Y-23745000D01*
G75*
G02*
X25653000Y-23995000I-250000J0D01*
G01*
X25023000Y-23995000D01*
G75*
G02*
X24773000Y-23745000I0J250000D01*
G01*
G37*
G36*
G01*
X24773000Y-22345000D02*
X24773000Y-21715000D01*
G75*
G02*
X25023000Y-21465000I250000J0D01*
G01*
X25653000Y-21465000D01*
G75*
G02*
X25903000Y-21715000I0J-250000D01*
G01*
X25903000Y-22345000D01*
G75*
G02*
X25653000Y-22595000I-250000J0D01*
G01*
X25023000Y-22595000D01*
G75*
G02*
X24773000Y-22345000I0J250000D01*
G01*
G37*
G36*
G01*
X23373000Y-26545000D02*
X23373000Y-25915000D01*
G75*
G02*
X23623000Y-25665000I250000J0D01*
G01*
X24253000Y-25665000D01*
G75*
G02*
X24503000Y-25915000I0J-250000D01*
G01*
X24503000Y-26545000D01*
G75*
G02*
X24253000Y-26795000I-250000J0D01*
G01*
X23623000Y-26795000D01*
G75*
G02*
X23373000Y-26545000I0J250000D01*
G01*
G37*
G36*
G01*
X23373000Y-25145000D02*
X23373000Y-24515000D01*
G75*
G02*
X23623000Y-24265000I250000J0D01*
G01*
X24253000Y-24265000D01*
G75*
G02*
X24503000Y-24515000I0J-250000D01*
G01*
X24503000Y-25145000D01*
G75*
G02*
X24253000Y-25395000I-250000J0D01*
G01*
X23623000Y-25395000D01*
G75*
G02*
X23373000Y-25145000I0J250000D01*
G01*
G37*
G36*
G01*
X23373000Y-23745000D02*
X23373000Y-23115000D01*
G75*
G02*
X23623000Y-22865000I250000J0D01*
G01*
X24253000Y-22865000D01*
G75*
G02*
X24503000Y-23115000I0J-250000D01*
G01*
X24503000Y-23745000D01*
G75*
G02*
X24253000Y-23995000I-250000J0D01*
G01*
X23623000Y-23995000D01*
G75*
G02*
X23373000Y-23745000I0J250000D01*
G01*
G37*
G36*
G01*
X23373000Y-22345000D02*
X23373000Y-21715000D01*
G75*
G02*
X23623000Y-21465000I250000J0D01*
G01*
X24253000Y-21465000D01*
G75*
G02*
X24503000Y-21715000I0J-250000D01*
G01*
X24503000Y-22345000D01*
G75*
G02*
X24253000Y-22595000I-250000J0D01*
G01*
X23623000Y-22595000D01*
G75*
G02*
X23373000Y-22345000I0J250000D01*
G01*
G37*
G36*
G01*
X21973000Y-26545000D02*
X21973000Y-25915000D01*
G75*
G02*
X22223000Y-25665000I250000J0D01*
G01*
X22853000Y-25665000D01*
G75*
G02*
X23103000Y-25915000I0J-250000D01*
G01*
X23103000Y-26545000D01*
G75*
G02*
X22853000Y-26795000I-250000J0D01*
G01*
X22223000Y-26795000D01*
G75*
G02*
X21973000Y-26545000I0J250000D01*
G01*
G37*
G36*
G01*
X21973000Y-25145000D02*
X21973000Y-24515000D01*
G75*
G02*
X22223000Y-24265000I250000J0D01*
G01*
X22853000Y-24265000D01*
G75*
G02*
X23103000Y-24515000I0J-250000D01*
G01*
X23103000Y-25145000D01*
G75*
G02*
X22853000Y-25395000I-250000J0D01*
G01*
X22223000Y-25395000D01*
G75*
G02*
X21973000Y-25145000I0J250000D01*
G01*
G37*
G36*
G01*
X21973000Y-23745000D02*
X21973000Y-23115000D01*
G75*
G02*
X22223000Y-22865000I250000J0D01*
G01*
X22853000Y-22865000D01*
G75*
G02*
X23103000Y-23115000I0J-250000D01*
G01*
X23103000Y-23745000D01*
G75*
G02*
X22853000Y-23995000I-250000J0D01*
G01*
X22223000Y-23995000D01*
G75*
G02*
X21973000Y-23745000I0J250000D01*
G01*
G37*
G36*
G01*
X21973000Y-22345000D02*
X21973000Y-21715000D01*
G75*
G02*
X22223000Y-21465000I250000J0D01*
G01*
X22853000Y-21465000D01*
G75*
G02*
X23103000Y-21715000I0J-250000D01*
G01*
X23103000Y-22345000D01*
G75*
G02*
X22853000Y-22595000I-250000J0D01*
G01*
X22223000Y-22595000D01*
G75*
G02*
X21973000Y-22345000I0J250000D01*
G01*
G37*
G36*
G01*
X21763000Y-21067500D02*
X21763000Y-20317500D01*
G75*
G02*
X21825500Y-20255000I62500J0D01*
G01*
X21950500Y-20255000D01*
G75*
G02*
X22013000Y-20317500I0J-62500D01*
G01*
X22013000Y-21067500D01*
G75*
G02*
X21950500Y-21130000I-62500J0D01*
G01*
X21825500Y-21130000D01*
G75*
G02*
X21763000Y-21067500I0J62500D01*
G01*
G37*
G36*
G01*
X22263000Y-21067500D02*
X22263000Y-20317500D01*
G75*
G02*
X22325500Y-20255000I62500J0D01*
G01*
X22450500Y-20255000D01*
G75*
G02*
X22513000Y-20317500I0J-62500D01*
G01*
X22513000Y-21067500D01*
G75*
G02*
X22450500Y-21130000I-62500J0D01*
G01*
X22325500Y-21130000D01*
G75*
G02*
X22263000Y-21067500I0J62500D01*
G01*
G37*
G36*
G01*
X22763000Y-21067500D02*
X22763000Y-20317500D01*
G75*
G02*
X22825500Y-20255000I62500J0D01*
G01*
X22950500Y-20255000D01*
G75*
G02*
X23013000Y-20317500I0J-62500D01*
G01*
X23013000Y-21067500D01*
G75*
G02*
X22950500Y-21130000I-62500J0D01*
G01*
X22825500Y-21130000D01*
G75*
G02*
X22763000Y-21067500I0J62500D01*
G01*
G37*
G36*
G01*
X23263000Y-21067500D02*
X23263000Y-20317500D01*
G75*
G02*
X23325500Y-20255000I62500J0D01*
G01*
X23450500Y-20255000D01*
G75*
G02*
X23513000Y-20317500I0J-62500D01*
G01*
X23513000Y-21067500D01*
G75*
G02*
X23450500Y-21130000I-62500J0D01*
G01*
X23325500Y-21130000D01*
G75*
G02*
X23263000Y-21067500I0J62500D01*
G01*
G37*
G36*
G01*
X23763000Y-21067500D02*
X23763000Y-20317500D01*
G75*
G02*
X23825500Y-20255000I62500J0D01*
G01*
X23950500Y-20255000D01*
G75*
G02*
X24013000Y-20317500I0J-62500D01*
G01*
X24013000Y-21067500D01*
G75*
G02*
X23950500Y-21130000I-62500J0D01*
G01*
X23825500Y-21130000D01*
G75*
G02*
X23763000Y-21067500I0J62500D01*
G01*
G37*
G36*
G01*
X24263000Y-21067500D02*
X24263000Y-20317500D01*
G75*
G02*
X24325500Y-20255000I62500J0D01*
G01*
X24450500Y-20255000D01*
G75*
G02*
X24513000Y-20317500I0J-62500D01*
G01*
X24513000Y-21067500D01*
G75*
G02*
X24450500Y-21130000I-62500J0D01*
G01*
X24325500Y-21130000D01*
G75*
G02*
X24263000Y-21067500I0J62500D01*
G01*
G37*
G36*
G01*
X24763000Y-21067500D02*
X24763000Y-20317500D01*
G75*
G02*
X24825500Y-20255000I62500J0D01*
G01*
X24950500Y-20255000D01*
G75*
G02*
X25013000Y-20317500I0J-62500D01*
G01*
X25013000Y-21067500D01*
G75*
G02*
X24950500Y-21130000I-62500J0D01*
G01*
X24825500Y-21130000D01*
G75*
G02*
X24763000Y-21067500I0J62500D01*
G01*
G37*
G36*
G01*
X25263000Y-21067500D02*
X25263000Y-20317500D01*
G75*
G02*
X25325500Y-20255000I62500J0D01*
G01*
X25450500Y-20255000D01*
G75*
G02*
X25513000Y-20317500I0J-62500D01*
G01*
X25513000Y-21067500D01*
G75*
G02*
X25450500Y-21130000I-62500J0D01*
G01*
X25325500Y-21130000D01*
G75*
G02*
X25263000Y-21067500I0J62500D01*
G01*
G37*
G36*
G01*
X25763000Y-21067500D02*
X25763000Y-20317500D01*
G75*
G02*
X25825500Y-20255000I62500J0D01*
G01*
X25950500Y-20255000D01*
G75*
G02*
X26013000Y-20317500I0J-62500D01*
G01*
X26013000Y-21067500D01*
G75*
G02*
X25950500Y-21130000I-62500J0D01*
G01*
X25825500Y-21130000D01*
G75*
G02*
X25763000Y-21067500I0J62500D01*
G01*
G37*
G36*
G01*
X26263000Y-21067500D02*
X26263000Y-20317500D01*
G75*
G02*
X26325500Y-20255000I62500J0D01*
G01*
X26450500Y-20255000D01*
G75*
G02*
X26513000Y-20317500I0J-62500D01*
G01*
X26513000Y-21067500D01*
G75*
G02*
X26450500Y-21130000I-62500J0D01*
G01*
X26325500Y-21130000D01*
G75*
G02*
X26263000Y-21067500I0J62500D01*
G01*
G37*
G36*
G01*
X26763000Y-21067500D02*
X26763000Y-20317500D01*
G75*
G02*
X26825500Y-20255000I62500J0D01*
G01*
X26950500Y-20255000D01*
G75*
G02*
X27013000Y-20317500I0J-62500D01*
G01*
X27013000Y-21067500D01*
G75*
G02*
X26950500Y-21130000I-62500J0D01*
G01*
X26825500Y-21130000D01*
G75*
G02*
X26763000Y-21067500I0J62500D01*
G01*
G37*
G36*
G01*
X27263000Y-21067500D02*
X27263000Y-20317500D01*
G75*
G02*
X27325500Y-20255000I62500J0D01*
G01*
X27450500Y-20255000D01*
G75*
G02*
X27513000Y-20317500I0J-62500D01*
G01*
X27513000Y-21067500D01*
G75*
G02*
X27450500Y-21130000I-62500J0D01*
G01*
X27325500Y-21130000D01*
G75*
G02*
X27263000Y-21067500I0J62500D01*
G01*
G37*
G36*
G01*
X27638000Y-21442500D02*
X27638000Y-21317500D01*
G75*
G02*
X27700500Y-21255000I62500J0D01*
G01*
X28450500Y-21255000D01*
G75*
G02*
X28513000Y-21317500I0J-62500D01*
G01*
X28513000Y-21442500D01*
G75*
G02*
X28450500Y-21505000I-62500J0D01*
G01*
X27700500Y-21505000D01*
G75*
G02*
X27638000Y-21442500I0J62500D01*
G01*
G37*
G36*
G01*
X27638000Y-21942500D02*
X27638000Y-21817500D01*
G75*
G02*
X27700500Y-21755000I62500J0D01*
G01*
X28450500Y-21755000D01*
G75*
G02*
X28513000Y-21817500I0J-62500D01*
G01*
X28513000Y-21942500D01*
G75*
G02*
X28450500Y-22005000I-62500J0D01*
G01*
X27700500Y-22005000D01*
G75*
G02*
X27638000Y-21942500I0J62500D01*
G01*
G37*
G36*
G01*
X27638000Y-22442500D02*
X27638000Y-22317500D01*
G75*
G02*
X27700500Y-22255000I62500J0D01*
G01*
X28450500Y-22255000D01*
G75*
G02*
X28513000Y-22317500I0J-62500D01*
G01*
X28513000Y-22442500D01*
G75*
G02*
X28450500Y-22505000I-62500J0D01*
G01*
X27700500Y-22505000D01*
G75*
G02*
X27638000Y-22442500I0J62500D01*
G01*
G37*
G36*
G01*
X27638000Y-22942500D02*
X27638000Y-22817500D01*
G75*
G02*
X27700500Y-22755000I62500J0D01*
G01*
X28450500Y-22755000D01*
G75*
G02*
X28513000Y-22817500I0J-62500D01*
G01*
X28513000Y-22942500D01*
G75*
G02*
X28450500Y-23005000I-62500J0D01*
G01*
X27700500Y-23005000D01*
G75*
G02*
X27638000Y-22942500I0J62500D01*
G01*
G37*
G36*
G01*
X27638000Y-23442500D02*
X27638000Y-23317500D01*
G75*
G02*
X27700500Y-23255000I62500J0D01*
G01*
X28450500Y-23255000D01*
G75*
G02*
X28513000Y-23317500I0J-62500D01*
G01*
X28513000Y-23442500D01*
G75*
G02*
X28450500Y-23505000I-62500J0D01*
G01*
X27700500Y-23505000D01*
G75*
G02*
X27638000Y-23442500I0J62500D01*
G01*
G37*
G36*
G01*
X27638000Y-23942500D02*
X27638000Y-23817500D01*
G75*
G02*
X27700500Y-23755000I62500J0D01*
G01*
X28450500Y-23755000D01*
G75*
G02*
X28513000Y-23817500I0J-62500D01*
G01*
X28513000Y-23942500D01*
G75*
G02*
X28450500Y-24005000I-62500J0D01*
G01*
X27700500Y-24005000D01*
G75*
G02*
X27638000Y-23942500I0J62500D01*
G01*
G37*
G36*
G01*
X27638000Y-24442500D02*
X27638000Y-24317500D01*
G75*
G02*
X27700500Y-24255000I62500J0D01*
G01*
X28450500Y-24255000D01*
G75*
G02*
X28513000Y-24317500I0J-62500D01*
G01*
X28513000Y-24442500D01*
G75*
G02*
X28450500Y-24505000I-62500J0D01*
G01*
X27700500Y-24505000D01*
G75*
G02*
X27638000Y-24442500I0J62500D01*
G01*
G37*
G36*
G01*
X27638000Y-24942500D02*
X27638000Y-24817500D01*
G75*
G02*
X27700500Y-24755000I62500J0D01*
G01*
X28450500Y-24755000D01*
G75*
G02*
X28513000Y-24817500I0J-62500D01*
G01*
X28513000Y-24942500D01*
G75*
G02*
X28450500Y-25005000I-62500J0D01*
G01*
X27700500Y-25005000D01*
G75*
G02*
X27638000Y-24942500I0J62500D01*
G01*
G37*
G36*
G01*
X27638000Y-25442500D02*
X27638000Y-25317500D01*
G75*
G02*
X27700500Y-25255000I62500J0D01*
G01*
X28450500Y-25255000D01*
G75*
G02*
X28513000Y-25317500I0J-62500D01*
G01*
X28513000Y-25442500D01*
G75*
G02*
X28450500Y-25505000I-62500J0D01*
G01*
X27700500Y-25505000D01*
G75*
G02*
X27638000Y-25442500I0J62500D01*
G01*
G37*
G36*
G01*
X27638000Y-25942500D02*
X27638000Y-25817500D01*
G75*
G02*
X27700500Y-25755000I62500J0D01*
G01*
X28450500Y-25755000D01*
G75*
G02*
X28513000Y-25817500I0J-62500D01*
G01*
X28513000Y-25942500D01*
G75*
G02*
X28450500Y-26005000I-62500J0D01*
G01*
X27700500Y-26005000D01*
G75*
G02*
X27638000Y-25942500I0J62500D01*
G01*
G37*
G36*
G01*
X27638000Y-26442500D02*
X27638000Y-26317500D01*
G75*
G02*
X27700500Y-26255000I62500J0D01*
G01*
X28450500Y-26255000D01*
G75*
G02*
X28513000Y-26317500I0J-62500D01*
G01*
X28513000Y-26442500D01*
G75*
G02*
X28450500Y-26505000I-62500J0D01*
G01*
X27700500Y-26505000D01*
G75*
G02*
X27638000Y-26442500I0J62500D01*
G01*
G37*
G36*
G01*
X27638000Y-26942500D02*
X27638000Y-26817500D01*
G75*
G02*
X27700500Y-26755000I62500J0D01*
G01*
X28450500Y-26755000D01*
G75*
G02*
X28513000Y-26817500I0J-62500D01*
G01*
X28513000Y-26942500D01*
G75*
G02*
X28450500Y-27005000I-62500J0D01*
G01*
X27700500Y-27005000D01*
G75*
G02*
X27638000Y-26942500I0J62500D01*
G01*
G37*
G36*
G01*
X27263000Y-27942500D02*
X27263000Y-27192500D01*
G75*
G02*
X27325500Y-27130000I62500J0D01*
G01*
X27450500Y-27130000D01*
G75*
G02*
X27513000Y-27192500I0J-62500D01*
G01*
X27513000Y-27942500D01*
G75*
G02*
X27450500Y-28005000I-62500J0D01*
G01*
X27325500Y-28005000D01*
G75*
G02*
X27263000Y-27942500I0J62500D01*
G01*
G37*
G36*
G01*
X26763000Y-27942500D02*
X26763000Y-27192500D01*
G75*
G02*
X26825500Y-27130000I62500J0D01*
G01*
X26950500Y-27130000D01*
G75*
G02*
X27013000Y-27192500I0J-62500D01*
G01*
X27013000Y-27942500D01*
G75*
G02*
X26950500Y-28005000I-62500J0D01*
G01*
X26825500Y-28005000D01*
G75*
G02*
X26763000Y-27942500I0J62500D01*
G01*
G37*
G36*
G01*
X26263000Y-27942500D02*
X26263000Y-27192500D01*
G75*
G02*
X26325500Y-27130000I62500J0D01*
G01*
X26450500Y-27130000D01*
G75*
G02*
X26513000Y-27192500I0J-62500D01*
G01*
X26513000Y-27942500D01*
G75*
G02*
X26450500Y-28005000I-62500J0D01*
G01*
X26325500Y-28005000D01*
G75*
G02*
X26263000Y-27942500I0J62500D01*
G01*
G37*
G36*
G01*
X25763000Y-27942500D02*
X25763000Y-27192500D01*
G75*
G02*
X25825500Y-27130000I62500J0D01*
G01*
X25950500Y-27130000D01*
G75*
G02*
X26013000Y-27192500I0J-62500D01*
G01*
X26013000Y-27942500D01*
G75*
G02*
X25950500Y-28005000I-62500J0D01*
G01*
X25825500Y-28005000D01*
G75*
G02*
X25763000Y-27942500I0J62500D01*
G01*
G37*
G36*
G01*
X25263000Y-27942500D02*
X25263000Y-27192500D01*
G75*
G02*
X25325500Y-27130000I62500J0D01*
G01*
X25450500Y-27130000D01*
G75*
G02*
X25513000Y-27192500I0J-62500D01*
G01*
X25513000Y-27942500D01*
G75*
G02*
X25450500Y-28005000I-62500J0D01*
G01*
X25325500Y-28005000D01*
G75*
G02*
X25263000Y-27942500I0J62500D01*
G01*
G37*
G36*
G01*
X24763000Y-27942500D02*
X24763000Y-27192500D01*
G75*
G02*
X24825500Y-27130000I62500J0D01*
G01*
X24950500Y-27130000D01*
G75*
G02*
X25013000Y-27192500I0J-62500D01*
G01*
X25013000Y-27942500D01*
G75*
G02*
X24950500Y-28005000I-62500J0D01*
G01*
X24825500Y-28005000D01*
G75*
G02*
X24763000Y-27942500I0J62500D01*
G01*
G37*
G36*
G01*
X24263000Y-27942500D02*
X24263000Y-27192500D01*
G75*
G02*
X24325500Y-27130000I62500J0D01*
G01*
X24450500Y-27130000D01*
G75*
G02*
X24513000Y-27192500I0J-62500D01*
G01*
X24513000Y-27942500D01*
G75*
G02*
X24450500Y-28005000I-62500J0D01*
G01*
X24325500Y-28005000D01*
G75*
G02*
X24263000Y-27942500I0J62500D01*
G01*
G37*
G36*
G01*
X23763000Y-27942500D02*
X23763000Y-27192500D01*
G75*
G02*
X23825500Y-27130000I62500J0D01*
G01*
X23950500Y-27130000D01*
G75*
G02*
X24013000Y-27192500I0J-62500D01*
G01*
X24013000Y-27942500D01*
G75*
G02*
X23950500Y-28005000I-62500J0D01*
G01*
X23825500Y-28005000D01*
G75*
G02*
X23763000Y-27942500I0J62500D01*
G01*
G37*
G36*
G01*
X23263000Y-27942500D02*
X23263000Y-27192500D01*
G75*
G02*
X23325500Y-27130000I62500J0D01*
G01*
X23450500Y-27130000D01*
G75*
G02*
X23513000Y-27192500I0J-62500D01*
G01*
X23513000Y-27942500D01*
G75*
G02*
X23450500Y-28005000I-62500J0D01*
G01*
X23325500Y-28005000D01*
G75*
G02*
X23263000Y-27942500I0J62500D01*
G01*
G37*
G36*
G01*
X22763000Y-27942500D02*
X22763000Y-27192500D01*
G75*
G02*
X22825500Y-27130000I62500J0D01*
G01*
X22950500Y-27130000D01*
G75*
G02*
X23013000Y-27192500I0J-62500D01*
G01*
X23013000Y-27942500D01*
G75*
G02*
X22950500Y-28005000I-62500J0D01*
G01*
X22825500Y-28005000D01*
G75*
G02*
X22763000Y-27942500I0J62500D01*
G01*
G37*
G36*
G01*
X22263000Y-27942500D02*
X22263000Y-27192500D01*
G75*
G02*
X22325500Y-27130000I62500J0D01*
G01*
X22450500Y-27130000D01*
G75*
G02*
X22513000Y-27192500I0J-62500D01*
G01*
X22513000Y-27942500D01*
G75*
G02*
X22450500Y-28005000I-62500J0D01*
G01*
X22325500Y-28005000D01*
G75*
G02*
X22263000Y-27942500I0J62500D01*
G01*
G37*
G36*
G01*
X21763000Y-27942500D02*
X21763000Y-27192500D01*
G75*
G02*
X21825500Y-27130000I62500J0D01*
G01*
X21950500Y-27130000D01*
G75*
G02*
X22013000Y-27192500I0J-62500D01*
G01*
X22013000Y-27942500D01*
G75*
G02*
X21950500Y-28005000I-62500J0D01*
G01*
X21825500Y-28005000D01*
G75*
G02*
X21763000Y-27942500I0J62500D01*
G01*
G37*
G36*
G01*
X20763000Y-26942500D02*
X20763000Y-26817500D01*
G75*
G02*
X20825500Y-26755000I62500J0D01*
G01*
X21575500Y-26755000D01*
G75*
G02*
X21638000Y-26817500I0J-62500D01*
G01*
X21638000Y-26942500D01*
G75*
G02*
X21575500Y-27005000I-62500J0D01*
G01*
X20825500Y-27005000D01*
G75*
G02*
X20763000Y-26942500I0J62500D01*
G01*
G37*
G36*
G01*
X20763000Y-26442500D02*
X20763000Y-26317500D01*
G75*
G02*
X20825500Y-26255000I62500J0D01*
G01*
X21575500Y-26255000D01*
G75*
G02*
X21638000Y-26317500I0J-62500D01*
G01*
X21638000Y-26442500D01*
G75*
G02*
X21575500Y-26505000I-62500J0D01*
G01*
X20825500Y-26505000D01*
G75*
G02*
X20763000Y-26442500I0J62500D01*
G01*
G37*
G36*
G01*
X20763000Y-25942500D02*
X20763000Y-25817500D01*
G75*
G02*
X20825500Y-25755000I62500J0D01*
G01*
X21575500Y-25755000D01*
G75*
G02*
X21638000Y-25817500I0J-62500D01*
G01*
X21638000Y-25942500D01*
G75*
G02*
X21575500Y-26005000I-62500J0D01*
G01*
X20825500Y-26005000D01*
G75*
G02*
X20763000Y-25942500I0J62500D01*
G01*
G37*
G36*
G01*
X20763000Y-25442500D02*
X20763000Y-25317500D01*
G75*
G02*
X20825500Y-25255000I62500J0D01*
G01*
X21575500Y-25255000D01*
G75*
G02*
X21638000Y-25317500I0J-62500D01*
G01*
X21638000Y-25442500D01*
G75*
G02*
X21575500Y-25505000I-62500J0D01*
G01*
X20825500Y-25505000D01*
G75*
G02*
X20763000Y-25442500I0J62500D01*
G01*
G37*
G36*
G01*
X20763000Y-24942500D02*
X20763000Y-24817500D01*
G75*
G02*
X20825500Y-24755000I62500J0D01*
G01*
X21575500Y-24755000D01*
G75*
G02*
X21638000Y-24817500I0J-62500D01*
G01*
X21638000Y-24942500D01*
G75*
G02*
X21575500Y-25005000I-62500J0D01*
G01*
X20825500Y-25005000D01*
G75*
G02*
X20763000Y-24942500I0J62500D01*
G01*
G37*
G36*
G01*
X20763000Y-24442500D02*
X20763000Y-24317500D01*
G75*
G02*
X20825500Y-24255000I62500J0D01*
G01*
X21575500Y-24255000D01*
G75*
G02*
X21638000Y-24317500I0J-62500D01*
G01*
X21638000Y-24442500D01*
G75*
G02*
X21575500Y-24505000I-62500J0D01*
G01*
X20825500Y-24505000D01*
G75*
G02*
X20763000Y-24442500I0J62500D01*
G01*
G37*
G36*
G01*
X20763000Y-23942500D02*
X20763000Y-23817500D01*
G75*
G02*
X20825500Y-23755000I62500J0D01*
G01*
X21575500Y-23755000D01*
G75*
G02*
X21638000Y-23817500I0J-62500D01*
G01*
X21638000Y-23942500D01*
G75*
G02*
X21575500Y-24005000I-62500J0D01*
G01*
X20825500Y-24005000D01*
G75*
G02*
X20763000Y-23942500I0J62500D01*
G01*
G37*
G36*
G01*
X20763000Y-23442500D02*
X20763000Y-23317500D01*
G75*
G02*
X20825500Y-23255000I62500J0D01*
G01*
X21575500Y-23255000D01*
G75*
G02*
X21638000Y-23317500I0J-62500D01*
G01*
X21638000Y-23442500D01*
G75*
G02*
X21575500Y-23505000I-62500J0D01*
G01*
X20825500Y-23505000D01*
G75*
G02*
X20763000Y-23442500I0J62500D01*
G01*
G37*
G36*
G01*
X20763000Y-22942500D02*
X20763000Y-22817500D01*
G75*
G02*
X20825500Y-22755000I62500J0D01*
G01*
X21575500Y-22755000D01*
G75*
G02*
X21638000Y-22817500I0J-62500D01*
G01*
X21638000Y-22942500D01*
G75*
G02*
X21575500Y-23005000I-62500J0D01*
G01*
X20825500Y-23005000D01*
G75*
G02*
X20763000Y-22942500I0J62500D01*
G01*
G37*
G36*
G01*
X20763000Y-22442500D02*
X20763000Y-22317500D01*
G75*
G02*
X20825500Y-22255000I62500J0D01*
G01*
X21575500Y-22255000D01*
G75*
G02*
X21638000Y-22317500I0J-62500D01*
G01*
X21638000Y-22442500D01*
G75*
G02*
X21575500Y-22505000I-62500J0D01*
G01*
X20825500Y-22505000D01*
G75*
G02*
X20763000Y-22442500I0J62500D01*
G01*
G37*
G36*
G01*
X20763000Y-21942500D02*
X20763000Y-21817500D01*
G75*
G02*
X20825500Y-21755000I62500J0D01*
G01*
X21575500Y-21755000D01*
G75*
G02*
X21638000Y-21817500I0J-62500D01*
G01*
X21638000Y-21942500D01*
G75*
G02*
X21575500Y-22005000I-62500J0D01*
G01*
X20825500Y-22005000D01*
G75*
G02*
X20763000Y-21942500I0J62500D01*
G01*
G37*
G36*
G01*
X20763000Y-21442500D02*
X20763000Y-21317500D01*
G75*
G02*
X20825500Y-21255000I62500J0D01*
G01*
X21575500Y-21255000D01*
G75*
G02*
X21638000Y-21317500I0J-62500D01*
G01*
X21638000Y-21442500D01*
G75*
G02*
X21575500Y-21505000I-62500J0D01*
G01*
X20825500Y-21505000D01*
G75*
G02*
X20763000Y-21442500I0J62500D01*
G01*
G37*
%TD*%
%TO.C,R4*%
G36*
G01*
X27078250Y-38483000D02*
X26565750Y-38483000D01*
G75*
G02*
X26347000Y-38264250I0J218750D01*
G01*
X26347000Y-37826750D01*
G75*
G02*
X26565750Y-37608000I218750J0D01*
G01*
X27078250Y-37608000D01*
G75*
G02*
X27297000Y-37826750I0J-218750D01*
G01*
X27297000Y-38264250D01*
G75*
G02*
X27078250Y-38483000I-218750J0D01*
G01*
G37*
G36*
G01*
X27078250Y-40058000D02*
X26565750Y-40058000D01*
G75*
G02*
X26347000Y-39839250I0J218750D01*
G01*
X26347000Y-39401750D01*
G75*
G02*
X26565750Y-39183000I218750J0D01*
G01*
X27078250Y-39183000D01*
G75*
G02*
X27297000Y-39401750I0J-218750D01*
G01*
X27297000Y-39839250D01*
G75*
G02*
X27078250Y-40058000I-218750J0D01*
G01*
G37*
%TD*%
%TO.C,R3*%
G36*
G01*
X20947750Y-32784000D02*
X21460250Y-32784000D01*
G75*
G02*
X21679000Y-33002750I0J-218750D01*
G01*
X21679000Y-33440250D01*
G75*
G02*
X21460250Y-33659000I-218750J0D01*
G01*
X20947750Y-33659000D01*
G75*
G02*
X20729000Y-33440250I0J218750D01*
G01*
X20729000Y-33002750D01*
G75*
G02*
X20947750Y-32784000I218750J0D01*
G01*
G37*
G36*
G01*
X20947750Y-31209000D02*
X21460250Y-31209000D01*
G75*
G02*
X21679000Y-31427750I0J-218750D01*
G01*
X21679000Y-31865250D01*
G75*
G02*
X21460250Y-32084000I-218750J0D01*
G01*
X20947750Y-32084000D01*
G75*
G02*
X20729000Y-31865250I0J218750D01*
G01*
X20729000Y-31427750D01*
G75*
G02*
X20947750Y-31209000I218750J0D01*
G01*
G37*
%TD*%
%TO.C,R2*%
G36*
G01*
X23360250Y-32084000D02*
X22847750Y-32084000D01*
G75*
G02*
X22629000Y-31865250I0J218750D01*
G01*
X22629000Y-31427750D01*
G75*
G02*
X22847750Y-31209000I218750J0D01*
G01*
X23360250Y-31209000D01*
G75*
G02*
X23579000Y-31427750I0J-218750D01*
G01*
X23579000Y-31865250D01*
G75*
G02*
X23360250Y-32084000I-218750J0D01*
G01*
G37*
G36*
G01*
X23360250Y-33659000D02*
X22847750Y-33659000D01*
G75*
G02*
X22629000Y-33440250I0J218750D01*
G01*
X22629000Y-33002750D01*
G75*
G02*
X22847750Y-32784000I218750J0D01*
G01*
X23360250Y-32784000D01*
G75*
G02*
X23579000Y-33002750I0J-218750D01*
G01*
X23579000Y-33440250D01*
G75*
G02*
X23360250Y-33659000I-218750J0D01*
G01*
G37*
%TD*%
%TO.C,R1*%
G36*
G01*
X24132250Y-17557000D02*
X23619750Y-17557000D01*
G75*
G02*
X23401000Y-17338250I0J218750D01*
G01*
X23401000Y-16900750D01*
G75*
G02*
X23619750Y-16682000I218750J0D01*
G01*
X24132250Y-16682000D01*
G75*
G02*
X24351000Y-16900750I0J-218750D01*
G01*
X24351000Y-17338250D01*
G75*
G02*
X24132250Y-17557000I-218750J0D01*
G01*
G37*
G36*
G01*
X24132250Y-19132000D02*
X23619750Y-19132000D01*
G75*
G02*
X23401000Y-18913250I0J218750D01*
G01*
X23401000Y-18475750D01*
G75*
G02*
X23619750Y-18257000I218750J0D01*
G01*
X24132250Y-18257000D01*
G75*
G02*
X24351000Y-18475750I0J-218750D01*
G01*
X24351000Y-18913250D01*
G75*
G02*
X24132250Y-19132000I-218750J0D01*
G01*
G37*
%TD*%
%TO.C,Q1*%
X22154000Y-36734000D03*
X21204000Y-34734000D03*
X23104000Y-34734000D03*
%TD*%
D15*
%TO.C,J2*%
X28700000Y-13800000D03*
X31300000Y-13800000D03*
%TD*%
%TO.C,C8*%
G36*
G01*
X28578250Y-38483000D02*
X28065750Y-38483000D01*
G75*
G02*
X27847000Y-38264250I0J218750D01*
G01*
X27847000Y-37826750D01*
G75*
G02*
X28065750Y-37608000I218750J0D01*
G01*
X28578250Y-37608000D01*
G75*
G02*
X28797000Y-37826750I0J-218750D01*
G01*
X28797000Y-38264250D01*
G75*
G02*
X28578250Y-38483000I-218750J0D01*
G01*
G37*
G36*
G01*
X28578250Y-40058000D02*
X28065750Y-40058000D01*
G75*
G02*
X27847000Y-39839250I0J218750D01*
G01*
X27847000Y-39401750D01*
G75*
G02*
X28065750Y-39183000I218750J0D01*
G01*
X28578250Y-39183000D01*
G75*
G02*
X28797000Y-39401750I0J-218750D01*
G01*
X28797000Y-39839250D01*
G75*
G02*
X28578250Y-40058000I-218750J0D01*
G01*
G37*
%TD*%
%TO.C,C7*%
G36*
G01*
X16414000Y-36319750D02*
X16414000Y-36832250D01*
G75*
G02*
X16195250Y-37051000I-218750J0D01*
G01*
X15757750Y-37051000D01*
G75*
G02*
X15539000Y-36832250I0J218750D01*
G01*
X15539000Y-36319750D01*
G75*
G02*
X15757750Y-36101000I218750J0D01*
G01*
X16195250Y-36101000D01*
G75*
G02*
X16414000Y-36319750I0J-218750D01*
G01*
G37*
G36*
G01*
X17989000Y-36319750D02*
X17989000Y-36832250D01*
G75*
G02*
X17770250Y-37051000I-218750J0D01*
G01*
X17332750Y-37051000D01*
G75*
G02*
X17114000Y-36832250I0J218750D01*
G01*
X17114000Y-36319750D01*
G75*
G02*
X17332750Y-36101000I218750J0D01*
G01*
X17770250Y-36101000D01*
G75*
G02*
X17989000Y-36319750I0J-218750D01*
G01*
G37*
%TD*%
%TO.C,C6*%
G36*
G01*
X19047750Y-34181962D02*
X19560250Y-34181962D01*
G75*
G02*
X19779000Y-34400712I0J-218750D01*
G01*
X19779000Y-34838212D01*
G75*
G02*
X19560250Y-35056962I-218750J0D01*
G01*
X19047750Y-35056962D01*
G75*
G02*
X18829000Y-34838212I0J218750D01*
G01*
X18829000Y-34400712D01*
G75*
G02*
X19047750Y-34181962I218750J0D01*
G01*
G37*
G36*
G01*
X19047750Y-32606962D02*
X19560250Y-32606962D01*
G75*
G02*
X19779000Y-32825712I0J-218750D01*
G01*
X19779000Y-33263212D01*
G75*
G02*
X19560250Y-33481962I-218750J0D01*
G01*
X19047750Y-33481962D01*
G75*
G02*
X18829000Y-33263212I0J218750D01*
G01*
X18829000Y-32825712D01*
G75*
G02*
X19047750Y-32606962I218750J0D01*
G01*
G37*
%TD*%
%TO.C,C5*%
G36*
G01*
X19814250Y-20224000D02*
X19301750Y-20224000D01*
G75*
G02*
X19083000Y-20005250I0J218750D01*
G01*
X19083000Y-19567750D01*
G75*
G02*
X19301750Y-19349000I218750J0D01*
G01*
X19814250Y-19349000D01*
G75*
G02*
X20033000Y-19567750I0J-218750D01*
G01*
X20033000Y-20005250D01*
G75*
G02*
X19814250Y-20224000I-218750J0D01*
G01*
G37*
G36*
G01*
X19814250Y-21799000D02*
X19301750Y-21799000D01*
G75*
G02*
X19083000Y-21580250I0J218750D01*
G01*
X19083000Y-21142750D01*
G75*
G02*
X19301750Y-20924000I218750J0D01*
G01*
X19814250Y-20924000D01*
G75*
G02*
X20033000Y-21142750I0J-218750D01*
G01*
X20033000Y-21580250D01*
G75*
G02*
X19814250Y-21799000I-218750J0D01*
G01*
G37*
%TD*%
%TO.C,C4*%
G36*
G01*
X28323250Y-17557000D02*
X27810750Y-17557000D01*
G75*
G02*
X27592000Y-17338250I0J218750D01*
G01*
X27592000Y-16900750D01*
G75*
G02*
X27810750Y-16682000I218750J0D01*
G01*
X28323250Y-16682000D01*
G75*
G02*
X28542000Y-16900750I0J-218750D01*
G01*
X28542000Y-17338250D01*
G75*
G02*
X28323250Y-17557000I-218750J0D01*
G01*
G37*
G36*
G01*
X28323250Y-19132000D02*
X27810750Y-19132000D01*
G75*
G02*
X27592000Y-18913250I0J218750D01*
G01*
X27592000Y-18475750D01*
G75*
G02*
X27810750Y-18257000I218750J0D01*
G01*
X28323250Y-18257000D01*
G75*
G02*
X28542000Y-18475750I0J-218750D01*
G01*
X28542000Y-18913250D01*
G75*
G02*
X28323250Y-19132000I-218750J0D01*
G01*
G37*
%TD*%
%TO.C,C3*%
G36*
G01*
X28445750Y-30703000D02*
X28958250Y-30703000D01*
G75*
G02*
X29177000Y-30921750I0J-218750D01*
G01*
X29177000Y-31359250D01*
G75*
G02*
X28958250Y-31578000I-218750J0D01*
G01*
X28445750Y-31578000D01*
G75*
G02*
X28227000Y-31359250I0J218750D01*
G01*
X28227000Y-30921750D01*
G75*
G02*
X28445750Y-30703000I218750J0D01*
G01*
G37*
G36*
G01*
X28445750Y-29128000D02*
X28958250Y-29128000D01*
G75*
G02*
X29177000Y-29346750I0J-218750D01*
G01*
X29177000Y-29784250D01*
G75*
G02*
X28958250Y-30003000I-218750J0D01*
G01*
X28445750Y-30003000D01*
G75*
G02*
X28227000Y-29784250I0J218750D01*
G01*
X28227000Y-29346750D01*
G75*
G02*
X28445750Y-29128000I218750J0D01*
G01*
G37*
%TD*%
%TO.C,C2*%
G36*
G01*
X22100250Y-17557000D02*
X21587750Y-17557000D01*
G75*
G02*
X21369000Y-17338250I0J218750D01*
G01*
X21369000Y-16900750D01*
G75*
G02*
X21587750Y-16682000I218750J0D01*
G01*
X22100250Y-16682000D01*
G75*
G02*
X22319000Y-16900750I0J-218750D01*
G01*
X22319000Y-17338250D01*
G75*
G02*
X22100250Y-17557000I-218750J0D01*
G01*
G37*
G36*
G01*
X22100250Y-19132000D02*
X21587750Y-19132000D01*
G75*
G02*
X21369000Y-18913250I0J218750D01*
G01*
X21369000Y-18475750D01*
G75*
G02*
X21587750Y-18257000I218750J0D01*
G01*
X22100250Y-18257000D01*
G75*
G02*
X22319000Y-18475750I0J-218750D01*
G01*
X22319000Y-18913250D01*
G75*
G02*
X22100250Y-19132000I-218750J0D01*
G01*
G37*
%TD*%
%TO.C,C1*%
G36*
G01*
X27434250Y-30003000D02*
X26921750Y-30003000D01*
G75*
G02*
X26703000Y-29784250I0J218750D01*
G01*
X26703000Y-29346750D01*
G75*
G02*
X26921750Y-29128000I218750J0D01*
G01*
X27434250Y-29128000D01*
G75*
G02*
X27653000Y-29346750I0J-218750D01*
G01*
X27653000Y-29784250D01*
G75*
G02*
X27434250Y-30003000I-218750J0D01*
G01*
G37*
G36*
G01*
X27434250Y-31578000D02*
X26921750Y-31578000D01*
G75*
G02*
X26703000Y-31359250I0J218750D01*
G01*
X26703000Y-30921750D01*
G75*
G02*
X26921750Y-30703000I218750J0D01*
G01*
X27434250Y-30703000D01*
G75*
G02*
X27653000Y-30921750I0J-218750D01*
G01*
X27653000Y-31359250D01*
G75*
G02*
X27434250Y-31578000I-218750J0D01*
G01*
G37*
%TD*%
M02*
