%TF.GenerationSoftware,KiCad,Pcbnew,(5.1.6)-1*%
%TF.CreationDate,2020-12-07T17:57:15+08:00*%
%TF.ProjectId,A1.0,41312e30-2e6b-4696-9361-645f70636258,rev?*%
%TF.SameCoordinates,Original*%
%TF.FileFunction,Copper,L1,Top*%
%TF.FilePolarity,Positive*%
%FSLAX46Y46*%
G04 Gerber Fmt 4.6, Leading zero omitted, Abs format (unit mm)*
G04 Created by KiCad (PCBNEW (5.1.6)-1) date 2020-12-07 17:57:15*
%MOMM*%
%LPD*%
G01*
G04 APERTURE LIST*
%TA.AperFunction,SMDPad,CuDef*%
%ADD10R,1.150000X1.000000*%
%TD*%
%TA.AperFunction,SMDPad,CuDef*%
%ADD11R,1.600000X0.410000*%
%TD*%
%TA.AperFunction,SMDPad,CuDef*%
%ADD12R,0.500000X1.000000*%
%TD*%
%TA.AperFunction,SMDPad,CuDef*%
%ADD13R,1.300000X0.500000*%
%TD*%
%TA.AperFunction,ComponentPad*%
%ADD14C,1.000000*%
%TD*%
%TA.AperFunction,SMDPad,CuDef*%
%ADD15R,0.800000X0.900000*%
%TD*%
%TA.AperFunction,SMDPad,CuDef*%
%ADD16R,5.600000X5.600000*%
%TD*%
%TA.AperFunction,ComponentPad*%
%ADD17O,1.000000X1.000000*%
%TD*%
%TA.AperFunction,ComponentPad*%
%ADD18R,1.000000X1.000000*%
%TD*%
%TA.AperFunction,SMDPad,CuDef*%
%ADD19C,1.524000*%
%TD*%
%TA.AperFunction,ViaPad*%
%ADD20C,0.600000*%
%TD*%
%TA.AperFunction,ViaPad*%
%ADD21C,0.800000*%
%TD*%
%TA.AperFunction,Conductor*%
%ADD22C,0.254000*%
%TD*%
%TA.AperFunction,Conductor*%
%ADD23C,0.203200*%
%TD*%
%TA.AperFunction,Conductor*%
%ADD24C,0.635000*%
%TD*%
%TA.AperFunction,Conductor*%
%ADD25C,0.381000*%
%TD*%
%TA.AperFunction,Conductor*%
%ADD26C,0.762000*%
%TD*%
G04 APERTURE END LIST*
%TO.P,C23,2*%
%TO.N,Earth*%
%TA.AperFunction,SMDPad,CuDef*%
G36*
G01*
X40319708Y-18875316D02*
X39957316Y-19237709D01*
G75*
G02*
X39647956Y-19237709I-154680J154680D01*
G01*
X39338597Y-18928350D01*
G75*
G02*
X39338597Y-18618990I154680J154680D01*
G01*
X39700990Y-18256597D01*
G75*
G02*
X40010350Y-18256597I154680J-154680D01*
G01*
X40319709Y-18565956D01*
G75*
G02*
X40319709Y-18875316I-154680J-154680D01*
G01*
G37*
%TD.AperFunction*%
%TO.P,C23,1*%
%TO.N,Net-(C22-Pad1)*%
%TA.AperFunction,SMDPad,CuDef*%
G36*
G01*
X41433402Y-19989010D02*
X41071010Y-20351403D01*
G75*
G02*
X40761650Y-20351403I-154680J154680D01*
G01*
X40452291Y-20042044D01*
G75*
G02*
X40452291Y-19732684I154680J154680D01*
G01*
X40814684Y-19370291D01*
G75*
G02*
X41124044Y-19370291I154680J-154680D01*
G01*
X41433403Y-19679650D01*
G75*
G02*
X41433403Y-19989010I-154680J-154680D01*
G01*
G37*
%TD.AperFunction*%
%TD*%
%TO.P,J4,4*%
%TO.N,/LED_R*%
%TA.AperFunction,SMDPad,CuDef*%
G36*
G01*
X38905500Y-43353500D02*
X38905500Y-41228500D01*
G75*
G02*
X38993000Y-41141000I87500J0D01*
G01*
X39168000Y-41141000D01*
G75*
G02*
X39255500Y-41228500I0J-87500D01*
G01*
X39255500Y-43353500D01*
G75*
G02*
X39168000Y-43441000I-87500J0D01*
G01*
X38993000Y-43441000D01*
G75*
G02*
X38905500Y-43353500I0J87500D01*
G01*
G37*
%TD.AperFunction*%
%TO.P,J4,3*%
%TO.N,/LED_G*%
%TA.AperFunction,SMDPad,CuDef*%
G36*
G01*
X38205500Y-43353500D02*
X38205500Y-41228500D01*
G75*
G02*
X38293000Y-41141000I87500J0D01*
G01*
X38468000Y-41141000D01*
G75*
G02*
X38555500Y-41228500I0J-87500D01*
G01*
X38555500Y-43353500D01*
G75*
G02*
X38468000Y-43441000I-87500J0D01*
G01*
X38293000Y-43441000D01*
G75*
G02*
X38205500Y-43353500I0J87500D01*
G01*
G37*
%TD.AperFunction*%
%TO.P,J4,2*%
%TO.N,+5V*%
%TA.AperFunction,SMDPad,CuDef*%
G36*
G01*
X37505500Y-43353500D02*
X37505500Y-41228500D01*
G75*
G02*
X37593000Y-41141000I87500J0D01*
G01*
X37768000Y-41141000D01*
G75*
G02*
X37855500Y-41228500I0J-87500D01*
G01*
X37855500Y-43353500D01*
G75*
G02*
X37768000Y-43441000I-87500J0D01*
G01*
X37593000Y-43441000D01*
G75*
G02*
X37505500Y-43353500I0J87500D01*
G01*
G37*
%TD.AperFunction*%
%TO.P,J4,5*%
%TO.N,/LED_B*%
%TA.AperFunction,SMDPad,CuDef*%
G36*
G01*
X39605500Y-43353500D02*
X39605500Y-41228500D01*
G75*
G02*
X39693000Y-41141000I87500J0D01*
G01*
X39868000Y-41141000D01*
G75*
G02*
X39955500Y-41228500I0J-87500D01*
G01*
X39955500Y-43353500D01*
G75*
G02*
X39868000Y-43441000I-87500J0D01*
G01*
X39693000Y-43441000D01*
G75*
G02*
X39605500Y-43353500I0J87500D01*
G01*
G37*
%TD.AperFunction*%
%TO.P,J4,1*%
%TO.N,Earth*%
%TA.AperFunction,SMDPad,CuDef*%
G36*
G01*
X36805500Y-43353500D02*
X36805500Y-41228500D01*
G75*
G02*
X36893000Y-41141000I87500J0D01*
G01*
X37068000Y-41141000D01*
G75*
G02*
X37155500Y-41228500I0J-87500D01*
G01*
X37155500Y-43353500D01*
G75*
G02*
X37068000Y-43441000I-87500J0D01*
G01*
X36893000Y-43441000D01*
G75*
G02*
X36805500Y-43353500I0J87500D01*
G01*
G37*
%TD.AperFunction*%
%TD*%
%TO.P,J1,12*%
%TO.N,Earth*%
%TA.AperFunction,SMDPad,CuDef*%
G36*
G01*
X33675000Y-43362500D02*
X33675000Y-41237500D01*
G75*
G02*
X33762500Y-41150000I87500J0D01*
G01*
X33937500Y-41150000D01*
G75*
G02*
X34025000Y-41237500I0J-87500D01*
G01*
X34025000Y-43362500D01*
G75*
G02*
X33937500Y-43450000I-87500J0D01*
G01*
X33762500Y-43450000D01*
G75*
G02*
X33675000Y-43362500I0J87500D01*
G01*
G37*
%TD.AperFunction*%
%TO.P,J1,11*%
%TO.N,/RES*%
%TA.AperFunction,SMDPad,CuDef*%
G36*
G01*
X32975000Y-43362500D02*
X32975000Y-41237500D01*
G75*
G02*
X33062500Y-41150000I87500J0D01*
G01*
X33237500Y-41150000D01*
G75*
G02*
X33325000Y-41237500I0J-87500D01*
G01*
X33325000Y-43362500D01*
G75*
G02*
X33237500Y-43450000I-87500J0D01*
G01*
X33062500Y-43450000D01*
G75*
G02*
X32975000Y-43362500I0J87500D01*
G01*
G37*
%TD.AperFunction*%
%TO.P,J1,10*%
%TO.N,/SDA*%
%TA.AperFunction,SMDPad,CuDef*%
G36*
G01*
X32275000Y-43362500D02*
X32275000Y-41237500D01*
G75*
G02*
X32362500Y-41150000I87500J0D01*
G01*
X32537500Y-41150000D01*
G75*
G02*
X32625000Y-41237500I0J-87500D01*
G01*
X32625000Y-43362500D01*
G75*
G02*
X32537500Y-43450000I-87500J0D01*
G01*
X32362500Y-43450000D01*
G75*
G02*
X32275000Y-43362500I0J87500D01*
G01*
G37*
%TD.AperFunction*%
%TO.P,J1,9*%
%TO.N,/SCL*%
%TA.AperFunction,SMDPad,CuDef*%
G36*
G01*
X31575000Y-43362500D02*
X31575000Y-41237500D01*
G75*
G02*
X31662500Y-41150000I87500J0D01*
G01*
X31837500Y-41150000D01*
G75*
G02*
X31925000Y-41237500I0J-87500D01*
G01*
X31925000Y-43362500D01*
G75*
G02*
X31837500Y-43450000I-87500J0D01*
G01*
X31662500Y-43450000D01*
G75*
G02*
X31575000Y-43362500I0J87500D01*
G01*
G37*
%TD.AperFunction*%
%TO.P,J1,8*%
%TO.N,Earth*%
%TA.AperFunction,SMDPad,CuDef*%
G36*
G01*
X30875000Y-43362500D02*
X30875000Y-41237500D01*
G75*
G02*
X30962500Y-41150000I87500J0D01*
G01*
X31137500Y-41150000D01*
G75*
G02*
X31225000Y-41237500I0J-87500D01*
G01*
X31225000Y-43362500D01*
G75*
G02*
X31137500Y-43450000I-87500J0D01*
G01*
X30962500Y-43450000D01*
G75*
G02*
X30875000Y-43362500I0J87500D01*
G01*
G37*
%TD.AperFunction*%
%TO.P,J1,1*%
%TA.AperFunction,SMDPad,CuDef*%
G36*
G01*
X25975000Y-43362500D02*
X25975000Y-41237500D01*
G75*
G02*
X26062500Y-41150000I87500J0D01*
G01*
X26237500Y-41150000D01*
G75*
G02*
X26325000Y-41237500I0J-87500D01*
G01*
X26325000Y-43362500D01*
G75*
G02*
X26237500Y-43450000I-87500J0D01*
G01*
X26062500Y-43450000D01*
G75*
G02*
X25975000Y-43362500I0J87500D01*
G01*
G37*
%TD.AperFunction*%
%TO.P,J1,2*%
%TO.N,/LEDK*%
%TA.AperFunction,SMDPad,CuDef*%
G36*
G01*
X26675000Y-43362500D02*
X26675000Y-41237500D01*
G75*
G02*
X26762500Y-41150000I87500J0D01*
G01*
X26937500Y-41150000D01*
G75*
G02*
X27025000Y-41237500I0J-87500D01*
G01*
X27025000Y-43362500D01*
G75*
G02*
X26937500Y-43450000I-87500J0D01*
G01*
X26762500Y-43450000D01*
G75*
G02*
X26675000Y-43362500I0J87500D01*
G01*
G37*
%TD.AperFunction*%
%TO.P,J1,3*%
%TO.N,+3V3*%
%TA.AperFunction,SMDPad,CuDef*%
G36*
G01*
X27375000Y-43362500D02*
X27375000Y-41237500D01*
G75*
G02*
X27462500Y-41150000I87500J0D01*
G01*
X27637500Y-41150000D01*
G75*
G02*
X27725000Y-41237500I0J-87500D01*
G01*
X27725000Y-43362500D01*
G75*
G02*
X27637500Y-43450000I-87500J0D01*
G01*
X27462500Y-43450000D01*
G75*
G02*
X27375000Y-43362500I0J87500D01*
G01*
G37*
%TD.AperFunction*%
%TO.P,J1,4*%
%TA.AperFunction,SMDPad,CuDef*%
G36*
G01*
X28075000Y-43362500D02*
X28075000Y-41237500D01*
G75*
G02*
X28162500Y-41150000I87500J0D01*
G01*
X28337500Y-41150000D01*
G75*
G02*
X28425000Y-41237500I0J-87500D01*
G01*
X28425000Y-43362500D01*
G75*
G02*
X28337500Y-43450000I-87500J0D01*
G01*
X28162500Y-43450000D01*
G75*
G02*
X28075000Y-43362500I0J87500D01*
G01*
G37*
%TD.AperFunction*%
%TO.P,J1,5*%
%TO.N,Earth*%
%TA.AperFunction,SMDPad,CuDef*%
G36*
G01*
X28775000Y-43362500D02*
X28775000Y-41237500D01*
G75*
G02*
X28862500Y-41150000I87500J0D01*
G01*
X29037500Y-41150000D01*
G75*
G02*
X29125000Y-41237500I0J-87500D01*
G01*
X29125000Y-43362500D01*
G75*
G02*
X29037500Y-43450000I-87500J0D01*
G01*
X28862500Y-43450000D01*
G75*
G02*
X28775000Y-43362500I0J87500D01*
G01*
G37*
%TD.AperFunction*%
%TO.P,J1,7*%
%TO.N,/DC*%
%TA.AperFunction,SMDPad,CuDef*%
G36*
G01*
X30175000Y-43362500D02*
X30175000Y-41237500D01*
G75*
G02*
X30262500Y-41150000I87500J0D01*
G01*
X30437500Y-41150000D01*
G75*
G02*
X30525000Y-41237500I0J-87500D01*
G01*
X30525000Y-43362500D01*
G75*
G02*
X30437500Y-43450000I-87500J0D01*
G01*
X30262500Y-43450000D01*
G75*
G02*
X30175000Y-43362500I0J87500D01*
G01*
G37*
%TD.AperFunction*%
%TO.P,J1,6*%
%TO.N,Earth*%
%TA.AperFunction,SMDPad,CuDef*%
G36*
G01*
X29475000Y-43362500D02*
X29475000Y-41237500D01*
G75*
G02*
X29562500Y-41150000I87500J0D01*
G01*
X29737500Y-41150000D01*
G75*
G02*
X29825000Y-41237500I0J-87500D01*
G01*
X29825000Y-43362500D01*
G75*
G02*
X29737500Y-43450000I-87500J0D01*
G01*
X29562500Y-43450000D01*
G75*
G02*
X29475000Y-43362500I0J87500D01*
G01*
G37*
%TD.AperFunction*%
%TD*%
D10*
%TO.P,Y1,4*%
%TO.N,Earth*%
X34679000Y-15980000D03*
%TO.P,Y1,3*%
%TO.N,Net-(C15-Pad2)*%
X36429000Y-15980000D03*
%TO.P,Y1,2*%
%TO.N,Earth*%
X36429000Y-17380000D03*
%TO.P,Y1,1*%
%TO.N,Net-(C16-Pad2)*%
X34679000Y-17380000D03*
%TD*%
D11*
%TO.P,U3,24*%
%TO.N,Net-(C15-Pad2)*%
X39103300Y-21145500D03*
%TO.P,U3,23*%
%TO.N,Net-(C16-Pad2)*%
X39103300Y-21780500D03*
%TO.P,U3,22*%
%TO.N,Net-(U3-Pad22)*%
X39103300Y-22415500D03*
%TO.P,U3,21*%
%TO.N,Net-(U3-Pad21)*%
X39103300Y-23050500D03*
%TO.P,U3,16*%
%TO.N,/VMIC*%
X39103300Y-26225500D03*
%TO.P,U3,15*%
%TO.N,/MIC_IN*%
X39103300Y-26860500D03*
%TO.P,U3,14*%
%TO.N,Net-(U3-Pad14)*%
X39103300Y-27495500D03*
%TO.P,U3,13*%
%TO.N,Net-(U3-Pad13)*%
X39103300Y-28130500D03*
%TO.P,U3,12*%
%TO.N,Net-(C10-Pad1)*%
X33794700Y-28130500D03*
%TO.P,U3,11*%
%TO.N,Earth*%
X33794700Y-27495500D03*
%TO.P,U3,10*%
%TO.N,Net-(U3-Pad10)*%
X33794700Y-26860500D03*
%TO.P,U3,9*%
%TO.N,Net-(U3-Pad9)*%
X33794700Y-26225500D03*
%TO.P,U3,4*%
%TO.N,Net-(U3-Pad4)*%
X33794700Y-23050500D03*
%TO.P,U3,3*%
%TO.N,Net-(U3-Pad3)*%
X33794700Y-22415500D03*
%TO.P,U3,2*%
%TO.N,Net-(U3-Pad2)*%
X33794700Y-21780500D03*
%TO.P,U3,1*%
%TO.N,Net-(U3-Pad1)*%
X33794700Y-21145500D03*
%TO.P,U3,5*%
%TO.N,Net-(U3-Pad5)*%
X33794700Y-23685500D03*
%TO.P,U3,6*%
%TO.N,Net-(U3-Pad6)*%
X33794700Y-24320500D03*
%TO.P,U3,19*%
%TO.N,Net-(C22-Pad1)*%
X39103300Y-24320500D03*
%TO.P,U3,20*%
%TO.N,Earth*%
X39103300Y-23685500D03*
%TO.P,U3,7*%
%TO.N,/TX*%
X33794700Y-24955500D03*
%TO.P,U3,8*%
%TO.N,/RX*%
X33794700Y-25590500D03*
%TO.P,U3,18*%
%TO.N,Net-(C19-Pad1)*%
X39103300Y-24955500D03*
%TO.P,U3,17*%
%TO.N,+3V3*%
X39103300Y-25590500D03*
%TD*%
D12*
%TO.P,SW1,0*%
%TO.N,N/C*%
X14859000Y-31369000D03*
X14858500Y-26035000D03*
X17208500Y-31369000D03*
X17208500Y-26035000D03*
D13*
%TO.P,SW1,3*%
%TO.N,Net-(SW1-Pad3)*%
X17970500Y-27702000D03*
%TO.P,SW1,1*%
%TO.N,+5V*%
X17970500Y-29702000D03*
%TO.P,SW1,2*%
%TO.N,Net-(J2-Pad2)*%
X17970500Y-28702000D03*
%TD*%
%TO.P,R8,2*%
%TO.N,Net-(C18-Pad2)*%
%TA.AperFunction,SMDPad,CuDef*%
G36*
G01*
X43402250Y-31234000D02*
X42889750Y-31234000D01*
G75*
G02*
X42671000Y-31015250I0J218750D01*
G01*
X42671000Y-30577750D01*
G75*
G02*
X42889750Y-30359000I218750J0D01*
G01*
X43402250Y-30359000D01*
G75*
G02*
X43621000Y-30577750I0J-218750D01*
G01*
X43621000Y-31015250D01*
G75*
G02*
X43402250Y-31234000I-218750J0D01*
G01*
G37*
%TD.AperFunction*%
%TO.P,R8,1*%
%TO.N,Net-(MK1-Pad2)*%
%TA.AperFunction,SMDPad,CuDef*%
G36*
G01*
X43402250Y-32809000D02*
X42889750Y-32809000D01*
G75*
G02*
X42671000Y-32590250I0J218750D01*
G01*
X42671000Y-32152750D01*
G75*
G02*
X42889750Y-31934000I218750J0D01*
G01*
X43402250Y-31934000D01*
G75*
G02*
X43621000Y-32152750I0J-218750D01*
G01*
X43621000Y-32590250D01*
G75*
G02*
X43402250Y-32809000I-218750J0D01*
G01*
G37*
%TD.AperFunction*%
%TD*%
%TO.P,R7,2*%
%TO.N,/VMIC*%
%TA.AperFunction,SMDPad,CuDef*%
G36*
G01*
X44942250Y-28194000D02*
X44429750Y-28194000D01*
G75*
G02*
X44211000Y-27975250I0J218750D01*
G01*
X44211000Y-27537750D01*
G75*
G02*
X44429750Y-27319000I218750J0D01*
G01*
X44942250Y-27319000D01*
G75*
G02*
X45161000Y-27537750I0J-218750D01*
G01*
X45161000Y-27975250D01*
G75*
G02*
X44942250Y-28194000I-218750J0D01*
G01*
G37*
%TD.AperFunction*%
%TO.P,R7,1*%
%TO.N,Net-(C11-Pad1)*%
%TA.AperFunction,SMDPad,CuDef*%
G36*
G01*
X44942250Y-29769000D02*
X44429750Y-29769000D01*
G75*
G02*
X44211000Y-29550250I0J218750D01*
G01*
X44211000Y-29112750D01*
G75*
G02*
X44429750Y-28894000I218750J0D01*
G01*
X44942250Y-28894000D01*
G75*
G02*
X45161000Y-29112750I0J-218750D01*
G01*
X45161000Y-29550250D01*
G75*
G02*
X44942250Y-29769000I-218750J0D01*
G01*
G37*
%TD.AperFunction*%
%TD*%
%TO.P,R6,2*%
%TO.N,Net-(MK1-Pad2)*%
%TA.AperFunction,SMDPad,CuDef*%
G36*
G01*
X45939750Y-31934000D02*
X46452250Y-31934000D01*
G75*
G02*
X46671000Y-32152750I0J-218750D01*
G01*
X46671000Y-32590250D01*
G75*
G02*
X46452250Y-32809000I-218750J0D01*
G01*
X45939750Y-32809000D01*
G75*
G02*
X45721000Y-32590250I0J218750D01*
G01*
X45721000Y-32152750D01*
G75*
G02*
X45939750Y-31934000I218750J0D01*
G01*
G37*
%TD.AperFunction*%
%TO.P,R6,1*%
%TO.N,Net-(C11-Pad1)*%
%TA.AperFunction,SMDPad,CuDef*%
G36*
G01*
X45939750Y-30359000D02*
X46452250Y-30359000D01*
G75*
G02*
X46671000Y-30577750I0J-218750D01*
G01*
X46671000Y-31015250D01*
G75*
G02*
X46452250Y-31234000I-218750J0D01*
G01*
X45939750Y-31234000D01*
G75*
G02*
X45721000Y-31015250I0J218750D01*
G01*
X45721000Y-30577750D01*
G75*
G02*
X45939750Y-30359000I218750J0D01*
G01*
G37*
%TD.AperFunction*%
%TD*%
%TO.P,R5,2*%
%TO.N,Net-(C15-Pad2)*%
%TA.AperFunction,SMDPad,CuDef*%
G36*
G01*
X35910000Y-19306250D02*
X35910000Y-18793750D01*
G75*
G02*
X36128750Y-18575000I218750J0D01*
G01*
X36566250Y-18575000D01*
G75*
G02*
X36785000Y-18793750I0J-218750D01*
G01*
X36785000Y-19306250D01*
G75*
G02*
X36566250Y-19525000I-218750J0D01*
G01*
X36128750Y-19525000D01*
G75*
G02*
X35910000Y-19306250I0J218750D01*
G01*
G37*
%TD.AperFunction*%
%TO.P,R5,1*%
%TO.N,Net-(C16-Pad2)*%
%TA.AperFunction,SMDPad,CuDef*%
G36*
G01*
X34335000Y-19306250D02*
X34335000Y-18793750D01*
G75*
G02*
X34553750Y-18575000I218750J0D01*
G01*
X34991250Y-18575000D01*
G75*
G02*
X35210000Y-18793750I0J-218750D01*
G01*
X35210000Y-19306250D01*
G75*
G02*
X34991250Y-19525000I-218750J0D01*
G01*
X34553750Y-19525000D01*
G75*
G02*
X34335000Y-19306250I0J218750D01*
G01*
G37*
%TD.AperFunction*%
%TD*%
D14*
%TO.P,MK1,2*%
%TO.N,Net-(MK1-Pad2)*%
X44642000Y-36264000D03*
%TO.P,MK1,1*%
%TO.N,Earth*%
X43242000Y-36264000D03*
%TD*%
%TO.P,C22,2*%
%TO.N,Earth*%
%TA.AperFunction,SMDPad,CuDef*%
G36*
G01*
X41335708Y-17859316D02*
X40973316Y-18221709D01*
G75*
G02*
X40663956Y-18221709I-154680J154680D01*
G01*
X40354597Y-17912350D01*
G75*
G02*
X40354597Y-17602990I154680J154680D01*
G01*
X40716990Y-17240597D01*
G75*
G02*
X41026350Y-17240597I154680J-154680D01*
G01*
X41335709Y-17549956D01*
G75*
G02*
X41335709Y-17859316I-154680J-154680D01*
G01*
G37*
%TD.AperFunction*%
%TO.P,C22,1*%
%TO.N,Net-(C22-Pad1)*%
%TA.AperFunction,SMDPad,CuDef*%
G36*
G01*
X42449402Y-18973010D02*
X42087010Y-19335403D01*
G75*
G02*
X41777650Y-19335403I-154680J154680D01*
G01*
X41468291Y-19026044D01*
G75*
G02*
X41468291Y-18716684I154680J154680D01*
G01*
X41830684Y-18354291D01*
G75*
G02*
X42140044Y-18354291I154680J-154680D01*
G01*
X42449403Y-18663650D01*
G75*
G02*
X42449403Y-18973010I-154680J-154680D01*
G01*
G37*
%TD.AperFunction*%
%TD*%
%TO.P,C21,2*%
%TO.N,Earth*%
%TA.AperFunction,SMDPad,CuDef*%
G36*
G01*
X42097708Y-21288316D02*
X41735316Y-21650709D01*
G75*
G02*
X41425956Y-21650709I-154680J154680D01*
G01*
X41116597Y-21341350D01*
G75*
G02*
X41116597Y-21031990I154680J154680D01*
G01*
X41478990Y-20669597D01*
G75*
G02*
X41788350Y-20669597I154680J-154680D01*
G01*
X42097709Y-20978956D01*
G75*
G02*
X42097709Y-21288316I-154680J-154680D01*
G01*
G37*
%TD.AperFunction*%
%TO.P,C21,1*%
%TO.N,Net-(C19-Pad1)*%
%TA.AperFunction,SMDPad,CuDef*%
G36*
G01*
X43211402Y-22402010D02*
X42849010Y-22764403D01*
G75*
G02*
X42539650Y-22764403I-154680J154680D01*
G01*
X42230291Y-22455044D01*
G75*
G02*
X42230291Y-22145684I154680J154680D01*
G01*
X42592684Y-21783291D01*
G75*
G02*
X42902044Y-21783291I154680J-154680D01*
G01*
X43211403Y-22092650D01*
G75*
G02*
X43211403Y-22402010I-154680J-154680D01*
G01*
G37*
%TD.AperFunction*%
%TD*%
%TO.P,C20,2*%
%TO.N,Net-(C18-Pad2)*%
%TA.AperFunction,SMDPad,CuDef*%
G36*
G01*
X41399750Y-31914000D02*
X41912250Y-31914000D01*
G75*
G02*
X42131000Y-32132750I0J-218750D01*
G01*
X42131000Y-32570250D01*
G75*
G02*
X41912250Y-32789000I-218750J0D01*
G01*
X41399750Y-32789000D01*
G75*
G02*
X41181000Y-32570250I0J218750D01*
G01*
X41181000Y-32132750D01*
G75*
G02*
X41399750Y-31914000I218750J0D01*
G01*
G37*
%TD.AperFunction*%
%TO.P,C20,1*%
%TO.N,/MIC_IN*%
%TA.AperFunction,SMDPad,CuDef*%
G36*
G01*
X41399750Y-30339000D02*
X41912250Y-30339000D01*
G75*
G02*
X42131000Y-30557750I0J-218750D01*
G01*
X42131000Y-30995250D01*
G75*
G02*
X41912250Y-31214000I-218750J0D01*
G01*
X41399750Y-31214000D01*
G75*
G02*
X41181000Y-30995250I0J218750D01*
G01*
X41181000Y-30557750D01*
G75*
G02*
X41399750Y-30339000I218750J0D01*
G01*
G37*
%TD.AperFunction*%
%TD*%
%TO.P,C19,2*%
%TO.N,Earth*%
%TA.AperFunction,SMDPad,CuDef*%
G36*
G01*
X43113708Y-20272316D02*
X42751316Y-20634709D01*
G75*
G02*
X42441956Y-20634709I-154680J154680D01*
G01*
X42132597Y-20325350D01*
G75*
G02*
X42132597Y-20015990I154680J154680D01*
G01*
X42494990Y-19653597D01*
G75*
G02*
X42804350Y-19653597I154680J-154680D01*
G01*
X43113709Y-19962956D01*
G75*
G02*
X43113709Y-20272316I-154680J-154680D01*
G01*
G37*
%TD.AperFunction*%
%TO.P,C19,1*%
%TO.N,Net-(C19-Pad1)*%
%TA.AperFunction,SMDPad,CuDef*%
G36*
G01*
X44227402Y-21386010D02*
X43865010Y-21748403D01*
G75*
G02*
X43555650Y-21748403I-154680J154680D01*
G01*
X43246291Y-21439044D01*
G75*
G02*
X43246291Y-21129684I154680J154680D01*
G01*
X43608684Y-20767291D01*
G75*
G02*
X43918044Y-20767291I154680J-154680D01*
G01*
X44227403Y-21076650D01*
G75*
G02*
X44227403Y-21386010I-154680J-154680D01*
G01*
G37*
%TD.AperFunction*%
%TD*%
%TO.P,C18,2*%
%TO.N,Net-(C18-Pad2)*%
%TA.AperFunction,SMDPad,CuDef*%
G36*
G01*
X44419750Y-31924000D02*
X44932250Y-31924000D01*
G75*
G02*
X45151000Y-32142750I0J-218750D01*
G01*
X45151000Y-32580250D01*
G75*
G02*
X44932250Y-32799000I-218750J0D01*
G01*
X44419750Y-32799000D01*
G75*
G02*
X44201000Y-32580250I0J218750D01*
G01*
X44201000Y-32142750D01*
G75*
G02*
X44419750Y-31924000I218750J0D01*
G01*
G37*
%TD.AperFunction*%
%TO.P,C18,1*%
%TO.N,Earth*%
%TA.AperFunction,SMDPad,CuDef*%
G36*
G01*
X44419750Y-30349000D02*
X44932250Y-30349000D01*
G75*
G02*
X45151000Y-30567750I0J-218750D01*
G01*
X45151000Y-31005250D01*
G75*
G02*
X44932250Y-31224000I-218750J0D01*
G01*
X44419750Y-31224000D01*
G75*
G02*
X44201000Y-31005250I0J218750D01*
G01*
X44201000Y-30567750D01*
G75*
G02*
X44419750Y-30349000I218750J0D01*
G01*
G37*
%TD.AperFunction*%
%TD*%
%TO.P,C17,2*%
%TO.N,Earth*%
%TA.AperFunction,SMDPad,CuDef*%
G36*
G01*
X45341250Y-24415000D02*
X44828750Y-24415000D01*
G75*
G02*
X44610000Y-24196250I0J218750D01*
G01*
X44610000Y-23758750D01*
G75*
G02*
X44828750Y-23540000I218750J0D01*
G01*
X45341250Y-23540000D01*
G75*
G02*
X45560000Y-23758750I0J-218750D01*
G01*
X45560000Y-24196250D01*
G75*
G02*
X45341250Y-24415000I-218750J0D01*
G01*
G37*
%TD.AperFunction*%
%TO.P,C17,1*%
%TO.N,+3V3*%
%TA.AperFunction,SMDPad,CuDef*%
G36*
G01*
X45341250Y-25990000D02*
X44828750Y-25990000D01*
G75*
G02*
X44610000Y-25771250I0J218750D01*
G01*
X44610000Y-25333750D01*
G75*
G02*
X44828750Y-25115000I218750J0D01*
G01*
X45341250Y-25115000D01*
G75*
G02*
X45560000Y-25333750I0J-218750D01*
G01*
X45560000Y-25771250D01*
G75*
G02*
X45341250Y-25990000I-218750J0D01*
G01*
G37*
%TD.AperFunction*%
%TD*%
%TO.P,C16,2*%
%TO.N,Net-(C16-Pad2)*%
%TA.AperFunction,SMDPad,CuDef*%
G36*
G01*
X32797750Y-17030000D02*
X33310250Y-17030000D01*
G75*
G02*
X33529000Y-17248750I0J-218750D01*
G01*
X33529000Y-17686250D01*
G75*
G02*
X33310250Y-17905000I-218750J0D01*
G01*
X32797750Y-17905000D01*
G75*
G02*
X32579000Y-17686250I0J218750D01*
G01*
X32579000Y-17248750D01*
G75*
G02*
X32797750Y-17030000I218750J0D01*
G01*
G37*
%TD.AperFunction*%
%TO.P,C16,1*%
%TO.N,Earth*%
%TA.AperFunction,SMDPad,CuDef*%
G36*
G01*
X32797750Y-15455000D02*
X33310250Y-15455000D01*
G75*
G02*
X33529000Y-15673750I0J-218750D01*
G01*
X33529000Y-16111250D01*
G75*
G02*
X33310250Y-16330000I-218750J0D01*
G01*
X32797750Y-16330000D01*
G75*
G02*
X32579000Y-16111250I0J218750D01*
G01*
X32579000Y-15673750D01*
G75*
G02*
X32797750Y-15455000I218750J0D01*
G01*
G37*
%TD.AperFunction*%
%TD*%
%TO.P,C15,2*%
%TO.N,Net-(C15-Pad2)*%
%TA.AperFunction,SMDPad,CuDef*%
G36*
G01*
X38310250Y-16330000D02*
X37797750Y-16330000D01*
G75*
G02*
X37579000Y-16111250I0J218750D01*
G01*
X37579000Y-15673750D01*
G75*
G02*
X37797750Y-15455000I218750J0D01*
G01*
X38310250Y-15455000D01*
G75*
G02*
X38529000Y-15673750I0J-218750D01*
G01*
X38529000Y-16111250D01*
G75*
G02*
X38310250Y-16330000I-218750J0D01*
G01*
G37*
%TD.AperFunction*%
%TO.P,C15,1*%
%TO.N,Earth*%
%TA.AperFunction,SMDPad,CuDef*%
G36*
G01*
X38310250Y-17905000D02*
X37797750Y-17905000D01*
G75*
G02*
X37579000Y-17686250I0J218750D01*
G01*
X37579000Y-17248750D01*
G75*
G02*
X37797750Y-17030000I218750J0D01*
G01*
X38310250Y-17030000D01*
G75*
G02*
X38529000Y-17248750I0J-218750D01*
G01*
X38529000Y-17686250D01*
G75*
G02*
X38310250Y-17905000I-218750J0D01*
G01*
G37*
%TD.AperFunction*%
%TD*%
%TO.P,C14,2*%
%TO.N,Earth*%
%TA.AperFunction,SMDPad,CuDef*%
G36*
G01*
X43817250Y-24415000D02*
X43304750Y-24415000D01*
G75*
G02*
X43086000Y-24196250I0J218750D01*
G01*
X43086000Y-23758750D01*
G75*
G02*
X43304750Y-23540000I218750J0D01*
G01*
X43817250Y-23540000D01*
G75*
G02*
X44036000Y-23758750I0J-218750D01*
G01*
X44036000Y-24196250D01*
G75*
G02*
X43817250Y-24415000I-218750J0D01*
G01*
G37*
%TD.AperFunction*%
%TO.P,C14,1*%
%TO.N,+3V3*%
%TA.AperFunction,SMDPad,CuDef*%
G36*
G01*
X43817250Y-25990000D02*
X43304750Y-25990000D01*
G75*
G02*
X43086000Y-25771250I0J218750D01*
G01*
X43086000Y-25333750D01*
G75*
G02*
X43304750Y-25115000I218750J0D01*
G01*
X43817250Y-25115000D01*
G75*
G02*
X44036000Y-25333750I0J-218750D01*
G01*
X44036000Y-25771250D01*
G75*
G02*
X43817250Y-25990000I-218750J0D01*
G01*
G37*
%TD.AperFunction*%
%TD*%
%TO.P,C13,2*%
%TO.N,Earth*%
%TA.AperFunction,SMDPad,CuDef*%
G36*
G01*
X42923750Y-28899500D02*
X43436250Y-28899500D01*
G75*
G02*
X43655000Y-29118250I0J-218750D01*
G01*
X43655000Y-29555750D01*
G75*
G02*
X43436250Y-29774500I-218750J0D01*
G01*
X42923750Y-29774500D01*
G75*
G02*
X42705000Y-29555750I0J218750D01*
G01*
X42705000Y-29118250D01*
G75*
G02*
X42923750Y-28899500I218750J0D01*
G01*
G37*
%TD.AperFunction*%
%TO.P,C13,1*%
%TO.N,/VMIC*%
%TA.AperFunction,SMDPad,CuDef*%
G36*
G01*
X42923750Y-27324500D02*
X43436250Y-27324500D01*
G75*
G02*
X43655000Y-27543250I0J-218750D01*
G01*
X43655000Y-27980750D01*
G75*
G02*
X43436250Y-28199500I-218750J0D01*
G01*
X42923750Y-28199500D01*
G75*
G02*
X42705000Y-27980750I0J218750D01*
G01*
X42705000Y-27543250D01*
G75*
G02*
X42923750Y-27324500I218750J0D01*
G01*
G37*
%TD.AperFunction*%
%TD*%
%TO.P,C12,2*%
%TO.N,Earth*%
%TA.AperFunction,SMDPad,CuDef*%
G36*
G01*
X41399750Y-28925000D02*
X41912250Y-28925000D01*
G75*
G02*
X42131000Y-29143750I0J-218750D01*
G01*
X42131000Y-29581250D01*
G75*
G02*
X41912250Y-29800000I-218750J0D01*
G01*
X41399750Y-29800000D01*
G75*
G02*
X41181000Y-29581250I0J218750D01*
G01*
X41181000Y-29143750D01*
G75*
G02*
X41399750Y-28925000I218750J0D01*
G01*
G37*
%TD.AperFunction*%
%TO.P,C12,1*%
%TO.N,/VMIC*%
%TA.AperFunction,SMDPad,CuDef*%
G36*
G01*
X41399750Y-27350000D02*
X41912250Y-27350000D01*
G75*
G02*
X42131000Y-27568750I0J-218750D01*
G01*
X42131000Y-28006250D01*
G75*
G02*
X41912250Y-28225000I-218750J0D01*
G01*
X41399750Y-28225000D01*
G75*
G02*
X41181000Y-28006250I0J218750D01*
G01*
X41181000Y-27568750D01*
G75*
G02*
X41399750Y-27350000I218750J0D01*
G01*
G37*
%TD.AperFunction*%
%TD*%
%TO.P,C11,2*%
%TO.N,Earth*%
%TA.AperFunction,SMDPad,CuDef*%
G36*
G01*
X46462250Y-28204000D02*
X45949750Y-28204000D01*
G75*
G02*
X45731000Y-27985250I0J218750D01*
G01*
X45731000Y-27547750D01*
G75*
G02*
X45949750Y-27329000I218750J0D01*
G01*
X46462250Y-27329000D01*
G75*
G02*
X46681000Y-27547750I0J-218750D01*
G01*
X46681000Y-27985250D01*
G75*
G02*
X46462250Y-28204000I-218750J0D01*
G01*
G37*
%TD.AperFunction*%
%TO.P,C11,1*%
%TO.N,Net-(C11-Pad1)*%
%TA.AperFunction,SMDPad,CuDef*%
G36*
G01*
X46462250Y-29779000D02*
X45949750Y-29779000D01*
G75*
G02*
X45731000Y-29560250I0J218750D01*
G01*
X45731000Y-29122750D01*
G75*
G02*
X45949750Y-28904000I218750J0D01*
G01*
X46462250Y-28904000D01*
G75*
G02*
X46681000Y-29122750I0J-218750D01*
G01*
X46681000Y-29560250D01*
G75*
G02*
X46462250Y-29779000I-218750J0D01*
G01*
G37*
%TD.AperFunction*%
%TD*%
%TO.P,C10,2*%
%TO.N,Earth*%
%TA.AperFunction,SMDPad,CuDef*%
G36*
G01*
X34623000Y-31935250D02*
X34623000Y-31422750D01*
G75*
G02*
X34841750Y-31204000I218750J0D01*
G01*
X35279250Y-31204000D01*
G75*
G02*
X35498000Y-31422750I0J-218750D01*
G01*
X35498000Y-31935250D01*
G75*
G02*
X35279250Y-32154000I-218750J0D01*
G01*
X34841750Y-32154000D01*
G75*
G02*
X34623000Y-31935250I0J218750D01*
G01*
G37*
%TD.AperFunction*%
%TO.P,C10,1*%
%TO.N,Net-(C10-Pad1)*%
%TA.AperFunction,SMDPad,CuDef*%
G36*
G01*
X33048000Y-31935250D02*
X33048000Y-31422750D01*
G75*
G02*
X33266750Y-31204000I218750J0D01*
G01*
X33704250Y-31204000D01*
G75*
G02*
X33923000Y-31422750I0J-218750D01*
G01*
X33923000Y-31935250D01*
G75*
G02*
X33704250Y-32154000I-218750J0D01*
G01*
X33266750Y-32154000D01*
G75*
G02*
X33048000Y-31935250I0J218750D01*
G01*
G37*
%TD.AperFunction*%
%TD*%
%TO.P,C9,2*%
%TO.N,Earth*%
%TA.AperFunction,SMDPad,CuDef*%
G36*
G01*
X34613000Y-30365250D02*
X34613000Y-29852750D01*
G75*
G02*
X34831750Y-29634000I218750J0D01*
G01*
X35269250Y-29634000D01*
G75*
G02*
X35488000Y-29852750I0J-218750D01*
G01*
X35488000Y-30365250D01*
G75*
G02*
X35269250Y-30584000I-218750J0D01*
G01*
X34831750Y-30584000D01*
G75*
G02*
X34613000Y-30365250I0J218750D01*
G01*
G37*
%TD.AperFunction*%
%TO.P,C9,1*%
%TO.N,Net-(C10-Pad1)*%
%TA.AperFunction,SMDPad,CuDef*%
G36*
G01*
X33038000Y-30365250D02*
X33038000Y-29852750D01*
G75*
G02*
X33256750Y-29634000I218750J0D01*
G01*
X33694250Y-29634000D01*
G75*
G02*
X33913000Y-29852750I0J-218750D01*
G01*
X33913000Y-30365250D01*
G75*
G02*
X33694250Y-30584000I-218750J0D01*
G01*
X33256750Y-30584000D01*
G75*
G02*
X33038000Y-30365250I0J218750D01*
G01*
G37*
%TD.AperFunction*%
%TD*%
D15*
%TO.P,U2,3*%
%TO.N,+5V*%
X16764000Y-33036000D03*
%TO.P,U2,2*%
%TO.N,+3V3*%
X17714000Y-35036000D03*
%TO.P,U2,1*%
%TO.N,Earth*%
X15814000Y-35036000D03*
%TD*%
D16*
%TO.P,U1,49*%
%TO.N,Earth*%
X24638000Y-24130000D03*
%TO.P,U1,48*%
%TO.N,+3V3*%
%TA.AperFunction,SMDPad,CuDef*%
G36*
G01*
X21763000Y-21067500D02*
X21763000Y-20317500D01*
G75*
G02*
X21825500Y-20255000I62500J0D01*
G01*
X21950500Y-20255000D01*
G75*
G02*
X22013000Y-20317500I0J-62500D01*
G01*
X22013000Y-21067500D01*
G75*
G02*
X21950500Y-21130000I-62500J0D01*
G01*
X21825500Y-21130000D01*
G75*
G02*
X21763000Y-21067500I0J62500D01*
G01*
G37*
%TD.AperFunction*%
%TO.P,U1,47*%
%TO.N,Earth*%
%TA.AperFunction,SMDPad,CuDef*%
G36*
G01*
X22263000Y-21067500D02*
X22263000Y-20317500D01*
G75*
G02*
X22325500Y-20255000I62500J0D01*
G01*
X22450500Y-20255000D01*
G75*
G02*
X22513000Y-20317500I0J-62500D01*
G01*
X22513000Y-21067500D01*
G75*
G02*
X22450500Y-21130000I-62500J0D01*
G01*
X22325500Y-21130000D01*
G75*
G02*
X22263000Y-21067500I0J62500D01*
G01*
G37*
%TD.AperFunction*%
%TO.P,U1,46*%
%TO.N,Net-(U1-Pad46)*%
%TA.AperFunction,SMDPad,CuDef*%
G36*
G01*
X22763000Y-21067500D02*
X22763000Y-20317500D01*
G75*
G02*
X22825500Y-20255000I62500J0D01*
G01*
X22950500Y-20255000D01*
G75*
G02*
X23013000Y-20317500I0J-62500D01*
G01*
X23013000Y-21067500D01*
G75*
G02*
X22950500Y-21130000I-62500J0D01*
G01*
X22825500Y-21130000D01*
G75*
G02*
X22763000Y-21067500I0J62500D01*
G01*
G37*
%TD.AperFunction*%
%TO.P,U1,45*%
%TO.N,Net-(U1-Pad45)*%
%TA.AperFunction,SMDPad,CuDef*%
G36*
G01*
X23263000Y-21067500D02*
X23263000Y-20317500D01*
G75*
G02*
X23325500Y-20255000I62500J0D01*
G01*
X23450500Y-20255000D01*
G75*
G02*
X23513000Y-20317500I0J-62500D01*
G01*
X23513000Y-21067500D01*
G75*
G02*
X23450500Y-21130000I-62500J0D01*
G01*
X23325500Y-21130000D01*
G75*
G02*
X23263000Y-21067500I0J62500D01*
G01*
G37*
%TD.AperFunction*%
%TO.P,U1,44*%
%TO.N,Net-(R1-Pad1)*%
%TA.AperFunction,SMDPad,CuDef*%
G36*
G01*
X23763000Y-21067500D02*
X23763000Y-20317500D01*
G75*
G02*
X23825500Y-20255000I62500J0D01*
G01*
X23950500Y-20255000D01*
G75*
G02*
X24013000Y-20317500I0J-62500D01*
G01*
X24013000Y-21067500D01*
G75*
G02*
X23950500Y-21130000I-62500J0D01*
G01*
X23825500Y-21130000D01*
G75*
G02*
X23763000Y-21067500I0J62500D01*
G01*
G37*
%TD.AperFunction*%
%TO.P,U1,43*%
%TO.N,Net-(U1-Pad43)*%
%TA.AperFunction,SMDPad,CuDef*%
G36*
G01*
X24263000Y-21067500D02*
X24263000Y-20317500D01*
G75*
G02*
X24325500Y-20255000I62500J0D01*
G01*
X24450500Y-20255000D01*
G75*
G02*
X24513000Y-20317500I0J-62500D01*
G01*
X24513000Y-21067500D01*
G75*
G02*
X24450500Y-21130000I-62500J0D01*
G01*
X24325500Y-21130000D01*
G75*
G02*
X24263000Y-21067500I0J62500D01*
G01*
G37*
%TD.AperFunction*%
%TO.P,U1,42*%
%TO.N,Net-(U1-Pad42)*%
%TA.AperFunction,SMDPad,CuDef*%
G36*
G01*
X24763000Y-21067500D02*
X24763000Y-20317500D01*
G75*
G02*
X24825500Y-20255000I62500J0D01*
G01*
X24950500Y-20255000D01*
G75*
G02*
X25013000Y-20317500I0J-62500D01*
G01*
X25013000Y-21067500D01*
G75*
G02*
X24950500Y-21130000I-62500J0D01*
G01*
X24825500Y-21130000D01*
G75*
G02*
X24763000Y-21067500I0J62500D01*
G01*
G37*
%TD.AperFunction*%
%TO.P,U1,41*%
%TO.N,Net-(U1-Pad41)*%
%TA.AperFunction,SMDPad,CuDef*%
G36*
G01*
X25263000Y-21067500D02*
X25263000Y-20317500D01*
G75*
G02*
X25325500Y-20255000I62500J0D01*
G01*
X25450500Y-20255000D01*
G75*
G02*
X25513000Y-20317500I0J-62500D01*
G01*
X25513000Y-21067500D01*
G75*
G02*
X25450500Y-21130000I-62500J0D01*
G01*
X25325500Y-21130000D01*
G75*
G02*
X25263000Y-21067500I0J62500D01*
G01*
G37*
%TD.AperFunction*%
%TO.P,U1,40*%
%TO.N,Net-(U1-Pad40)*%
%TA.AperFunction,SMDPad,CuDef*%
G36*
G01*
X25763000Y-21067500D02*
X25763000Y-20317500D01*
G75*
G02*
X25825500Y-20255000I62500J0D01*
G01*
X25950500Y-20255000D01*
G75*
G02*
X26013000Y-20317500I0J-62500D01*
G01*
X26013000Y-21067500D01*
G75*
G02*
X25950500Y-21130000I-62500J0D01*
G01*
X25825500Y-21130000D01*
G75*
G02*
X25763000Y-21067500I0J62500D01*
G01*
G37*
%TD.AperFunction*%
%TO.P,U1,39*%
%TO.N,Net-(U1-Pad39)*%
%TA.AperFunction,SMDPad,CuDef*%
G36*
G01*
X26263000Y-21067500D02*
X26263000Y-20317500D01*
G75*
G02*
X26325500Y-20255000I62500J0D01*
G01*
X26450500Y-20255000D01*
G75*
G02*
X26513000Y-20317500I0J-62500D01*
G01*
X26513000Y-21067500D01*
G75*
G02*
X26450500Y-21130000I-62500J0D01*
G01*
X26325500Y-21130000D01*
G75*
G02*
X26263000Y-21067500I0J62500D01*
G01*
G37*
%TD.AperFunction*%
%TO.P,U1,38*%
%TO.N,Net-(U1-Pad38)*%
%TA.AperFunction,SMDPad,CuDef*%
G36*
G01*
X26763000Y-21067500D02*
X26763000Y-20317500D01*
G75*
G02*
X26825500Y-20255000I62500J0D01*
G01*
X26950500Y-20255000D01*
G75*
G02*
X27013000Y-20317500I0J-62500D01*
G01*
X27013000Y-21067500D01*
G75*
G02*
X26950500Y-21130000I-62500J0D01*
G01*
X26825500Y-21130000D01*
G75*
G02*
X26763000Y-21067500I0J62500D01*
G01*
G37*
%TD.AperFunction*%
%TO.P,U1,37*%
%TO.N,/SWCLK*%
%TA.AperFunction,SMDPad,CuDef*%
G36*
G01*
X27263000Y-21067500D02*
X27263000Y-20317500D01*
G75*
G02*
X27325500Y-20255000I62500J0D01*
G01*
X27450500Y-20255000D01*
G75*
G02*
X27513000Y-20317500I0J-62500D01*
G01*
X27513000Y-21067500D01*
G75*
G02*
X27450500Y-21130000I-62500J0D01*
G01*
X27325500Y-21130000D01*
G75*
G02*
X27263000Y-21067500I0J62500D01*
G01*
G37*
%TD.AperFunction*%
%TO.P,U1,36*%
%TO.N,+3V3*%
%TA.AperFunction,SMDPad,CuDef*%
G36*
G01*
X27638000Y-21442500D02*
X27638000Y-21317500D01*
G75*
G02*
X27700500Y-21255000I62500J0D01*
G01*
X28450500Y-21255000D01*
G75*
G02*
X28513000Y-21317500I0J-62500D01*
G01*
X28513000Y-21442500D01*
G75*
G02*
X28450500Y-21505000I-62500J0D01*
G01*
X27700500Y-21505000D01*
G75*
G02*
X27638000Y-21442500I0J62500D01*
G01*
G37*
%TD.AperFunction*%
%TO.P,U1,35*%
%TO.N,Earth*%
%TA.AperFunction,SMDPad,CuDef*%
G36*
G01*
X27638000Y-21942500D02*
X27638000Y-21817500D01*
G75*
G02*
X27700500Y-21755000I62500J0D01*
G01*
X28450500Y-21755000D01*
G75*
G02*
X28513000Y-21817500I0J-62500D01*
G01*
X28513000Y-21942500D01*
G75*
G02*
X28450500Y-22005000I-62500J0D01*
G01*
X27700500Y-22005000D01*
G75*
G02*
X27638000Y-21942500I0J62500D01*
G01*
G37*
%TD.AperFunction*%
%TO.P,U1,34*%
%TO.N,/SWDIO*%
%TA.AperFunction,SMDPad,CuDef*%
G36*
G01*
X27638000Y-22442500D02*
X27638000Y-22317500D01*
G75*
G02*
X27700500Y-22255000I62500J0D01*
G01*
X28450500Y-22255000D01*
G75*
G02*
X28513000Y-22317500I0J-62500D01*
G01*
X28513000Y-22442500D01*
G75*
G02*
X28450500Y-22505000I-62500J0D01*
G01*
X27700500Y-22505000D01*
G75*
G02*
X27638000Y-22442500I0J62500D01*
G01*
G37*
%TD.AperFunction*%
%TO.P,U1,33*%
%TO.N,Net-(U1-Pad33)*%
%TA.AperFunction,SMDPad,CuDef*%
G36*
G01*
X27638000Y-22942500D02*
X27638000Y-22817500D01*
G75*
G02*
X27700500Y-22755000I62500J0D01*
G01*
X28450500Y-22755000D01*
G75*
G02*
X28513000Y-22817500I0J-62500D01*
G01*
X28513000Y-22942500D01*
G75*
G02*
X28450500Y-23005000I-62500J0D01*
G01*
X27700500Y-23005000D01*
G75*
G02*
X27638000Y-22942500I0J62500D01*
G01*
G37*
%TD.AperFunction*%
%TO.P,U1,32*%
%TO.N,Net-(U1-Pad32)*%
%TA.AperFunction,SMDPad,CuDef*%
G36*
G01*
X27638000Y-23442500D02*
X27638000Y-23317500D01*
G75*
G02*
X27700500Y-23255000I62500J0D01*
G01*
X28450500Y-23255000D01*
G75*
G02*
X28513000Y-23317500I0J-62500D01*
G01*
X28513000Y-23442500D01*
G75*
G02*
X28450500Y-23505000I-62500J0D01*
G01*
X27700500Y-23505000D01*
G75*
G02*
X27638000Y-23442500I0J62500D01*
G01*
G37*
%TD.AperFunction*%
%TO.P,U1,31*%
%TO.N,Net-(U1-Pad31)*%
%TA.AperFunction,SMDPad,CuDef*%
G36*
G01*
X27638000Y-23942500D02*
X27638000Y-23817500D01*
G75*
G02*
X27700500Y-23755000I62500J0D01*
G01*
X28450500Y-23755000D01*
G75*
G02*
X28513000Y-23817500I0J-62500D01*
G01*
X28513000Y-23942500D01*
G75*
G02*
X28450500Y-24005000I-62500J0D01*
G01*
X27700500Y-24005000D01*
G75*
G02*
X27638000Y-23942500I0J62500D01*
G01*
G37*
%TD.AperFunction*%
%TO.P,U1,30*%
%TO.N,/TX*%
%TA.AperFunction,SMDPad,CuDef*%
G36*
G01*
X27638000Y-24442500D02*
X27638000Y-24317500D01*
G75*
G02*
X27700500Y-24255000I62500J0D01*
G01*
X28450500Y-24255000D01*
G75*
G02*
X28513000Y-24317500I0J-62500D01*
G01*
X28513000Y-24442500D01*
G75*
G02*
X28450500Y-24505000I-62500J0D01*
G01*
X27700500Y-24505000D01*
G75*
G02*
X27638000Y-24442500I0J62500D01*
G01*
G37*
%TD.AperFunction*%
%TO.P,U1,29*%
%TO.N,/RX*%
%TA.AperFunction,SMDPad,CuDef*%
G36*
G01*
X27638000Y-24942500D02*
X27638000Y-24817500D01*
G75*
G02*
X27700500Y-24755000I62500J0D01*
G01*
X28450500Y-24755000D01*
G75*
G02*
X28513000Y-24817500I0J-62500D01*
G01*
X28513000Y-24942500D01*
G75*
G02*
X28450500Y-25005000I-62500J0D01*
G01*
X27700500Y-25005000D01*
G75*
G02*
X27638000Y-24942500I0J62500D01*
G01*
G37*
%TD.AperFunction*%
%TO.P,U1,28*%
%TO.N,/LED_B*%
%TA.AperFunction,SMDPad,CuDef*%
G36*
G01*
X27638000Y-25442500D02*
X27638000Y-25317500D01*
G75*
G02*
X27700500Y-25255000I62500J0D01*
G01*
X28450500Y-25255000D01*
G75*
G02*
X28513000Y-25317500I0J-62500D01*
G01*
X28513000Y-25442500D01*
G75*
G02*
X28450500Y-25505000I-62500J0D01*
G01*
X27700500Y-25505000D01*
G75*
G02*
X27638000Y-25442500I0J62500D01*
G01*
G37*
%TD.AperFunction*%
%TO.P,U1,27*%
%TO.N,/LED_R*%
%TA.AperFunction,SMDPad,CuDef*%
G36*
G01*
X27638000Y-25942500D02*
X27638000Y-25817500D01*
G75*
G02*
X27700500Y-25755000I62500J0D01*
G01*
X28450500Y-25755000D01*
G75*
G02*
X28513000Y-25817500I0J-62500D01*
G01*
X28513000Y-25942500D01*
G75*
G02*
X28450500Y-26005000I-62500J0D01*
G01*
X27700500Y-26005000D01*
G75*
G02*
X27638000Y-25942500I0J62500D01*
G01*
G37*
%TD.AperFunction*%
%TO.P,U1,26*%
%TO.N,/LED_G*%
%TA.AperFunction,SMDPad,CuDef*%
G36*
G01*
X27638000Y-26442500D02*
X27638000Y-26317500D01*
G75*
G02*
X27700500Y-26255000I62500J0D01*
G01*
X28450500Y-26255000D01*
G75*
G02*
X28513000Y-26317500I0J-62500D01*
G01*
X28513000Y-26442500D01*
G75*
G02*
X28450500Y-26505000I-62500J0D01*
G01*
X27700500Y-26505000D01*
G75*
G02*
X27638000Y-26442500I0J62500D01*
G01*
G37*
%TD.AperFunction*%
%TO.P,U1,25*%
%TO.N,Net-(U1-Pad25)*%
%TA.AperFunction,SMDPad,CuDef*%
G36*
G01*
X27638000Y-26942500D02*
X27638000Y-26817500D01*
G75*
G02*
X27700500Y-26755000I62500J0D01*
G01*
X28450500Y-26755000D01*
G75*
G02*
X28513000Y-26817500I0J-62500D01*
G01*
X28513000Y-26942500D01*
G75*
G02*
X28450500Y-27005000I-62500J0D01*
G01*
X27700500Y-27005000D01*
G75*
G02*
X27638000Y-26942500I0J62500D01*
G01*
G37*
%TD.AperFunction*%
%TO.P,U1,24*%
%TO.N,+3V3*%
%TA.AperFunction,SMDPad,CuDef*%
G36*
G01*
X27263000Y-27942500D02*
X27263000Y-27192500D01*
G75*
G02*
X27325500Y-27130000I62500J0D01*
G01*
X27450500Y-27130000D01*
G75*
G02*
X27513000Y-27192500I0J-62500D01*
G01*
X27513000Y-27942500D01*
G75*
G02*
X27450500Y-28005000I-62500J0D01*
G01*
X27325500Y-28005000D01*
G75*
G02*
X27263000Y-27942500I0J62500D01*
G01*
G37*
%TD.AperFunction*%
%TO.P,U1,23*%
%TO.N,Earth*%
%TA.AperFunction,SMDPad,CuDef*%
G36*
G01*
X26763000Y-27942500D02*
X26763000Y-27192500D01*
G75*
G02*
X26825500Y-27130000I62500J0D01*
G01*
X26950500Y-27130000D01*
G75*
G02*
X27013000Y-27192500I0J-62500D01*
G01*
X27013000Y-27942500D01*
G75*
G02*
X26950500Y-28005000I-62500J0D01*
G01*
X26825500Y-28005000D01*
G75*
G02*
X26763000Y-27942500I0J62500D01*
G01*
G37*
%TD.AperFunction*%
%TO.P,U1,22*%
%TO.N,Net-(C1-Pad2)*%
%TA.AperFunction,SMDPad,CuDef*%
G36*
G01*
X26263000Y-27942500D02*
X26263000Y-27192500D01*
G75*
G02*
X26325500Y-27130000I62500J0D01*
G01*
X26450500Y-27130000D01*
G75*
G02*
X26513000Y-27192500I0J-62500D01*
G01*
X26513000Y-27942500D01*
G75*
G02*
X26450500Y-28005000I-62500J0D01*
G01*
X26325500Y-28005000D01*
G75*
G02*
X26263000Y-27942500I0J62500D01*
G01*
G37*
%TD.AperFunction*%
%TO.P,U1,21*%
%TO.N,Net-(U1-Pad21)*%
%TA.AperFunction,SMDPad,CuDef*%
G36*
G01*
X25763000Y-27942500D02*
X25763000Y-27192500D01*
G75*
G02*
X25825500Y-27130000I62500J0D01*
G01*
X25950500Y-27130000D01*
G75*
G02*
X26013000Y-27192500I0J-62500D01*
G01*
X26013000Y-27942500D01*
G75*
G02*
X25950500Y-28005000I-62500J0D01*
G01*
X25825500Y-28005000D01*
G75*
G02*
X25763000Y-27942500I0J62500D01*
G01*
G37*
%TD.AperFunction*%
%TO.P,U1,20*%
%TO.N,Net-(U1-Pad20)*%
%TA.AperFunction,SMDPad,CuDef*%
G36*
G01*
X25263000Y-27942500D02*
X25263000Y-27192500D01*
G75*
G02*
X25325500Y-27130000I62500J0D01*
G01*
X25450500Y-27130000D01*
G75*
G02*
X25513000Y-27192500I0J-62500D01*
G01*
X25513000Y-27942500D01*
G75*
G02*
X25450500Y-28005000I-62500J0D01*
G01*
X25325500Y-28005000D01*
G75*
G02*
X25263000Y-27942500I0J62500D01*
G01*
G37*
%TD.AperFunction*%
%TO.P,U1,19*%
%TO.N,Net-(U1-Pad19)*%
%TA.AperFunction,SMDPad,CuDef*%
G36*
G01*
X24763000Y-27942500D02*
X24763000Y-27192500D01*
G75*
G02*
X24825500Y-27130000I62500J0D01*
G01*
X24950500Y-27130000D01*
G75*
G02*
X25013000Y-27192500I0J-62500D01*
G01*
X25013000Y-27942500D01*
G75*
G02*
X24950500Y-28005000I-62500J0D01*
G01*
X24825500Y-28005000D01*
G75*
G02*
X24763000Y-27942500I0J62500D01*
G01*
G37*
%TD.AperFunction*%
%TO.P,U1,18*%
%TO.N,/RES*%
%TA.AperFunction,SMDPad,CuDef*%
G36*
G01*
X24263000Y-27942500D02*
X24263000Y-27192500D01*
G75*
G02*
X24325500Y-27130000I62500J0D01*
G01*
X24450500Y-27130000D01*
G75*
G02*
X24513000Y-27192500I0J-62500D01*
G01*
X24513000Y-27942500D01*
G75*
G02*
X24450500Y-28005000I-62500J0D01*
G01*
X24325500Y-28005000D01*
G75*
G02*
X24263000Y-27942500I0J62500D01*
G01*
G37*
%TD.AperFunction*%
%TO.P,U1,17*%
%TO.N,/SDA*%
%TA.AperFunction,SMDPad,CuDef*%
G36*
G01*
X23763000Y-27942500D02*
X23763000Y-27192500D01*
G75*
G02*
X23825500Y-27130000I62500J0D01*
G01*
X23950500Y-27130000D01*
G75*
G02*
X24013000Y-27192500I0J-62500D01*
G01*
X24013000Y-27942500D01*
G75*
G02*
X23950500Y-28005000I-62500J0D01*
G01*
X23825500Y-28005000D01*
G75*
G02*
X23763000Y-27942500I0J62500D01*
G01*
G37*
%TD.AperFunction*%
%TO.P,U1,16*%
%TO.N,Net-(U1-Pad16)*%
%TA.AperFunction,SMDPad,CuDef*%
G36*
G01*
X23263000Y-27942500D02*
X23263000Y-27192500D01*
G75*
G02*
X23325500Y-27130000I62500J0D01*
G01*
X23450500Y-27130000D01*
G75*
G02*
X23513000Y-27192500I0J-62500D01*
G01*
X23513000Y-27942500D01*
G75*
G02*
X23450500Y-28005000I-62500J0D01*
G01*
X23325500Y-28005000D01*
G75*
G02*
X23263000Y-27942500I0J62500D01*
G01*
G37*
%TD.AperFunction*%
%TO.P,U1,15*%
%TO.N,/SCL*%
%TA.AperFunction,SMDPad,CuDef*%
G36*
G01*
X22763000Y-27942500D02*
X22763000Y-27192500D01*
G75*
G02*
X22825500Y-27130000I62500J0D01*
G01*
X22950500Y-27130000D01*
G75*
G02*
X23013000Y-27192500I0J-62500D01*
G01*
X23013000Y-27942500D01*
G75*
G02*
X22950500Y-28005000I-62500J0D01*
G01*
X22825500Y-28005000D01*
G75*
G02*
X22763000Y-27942500I0J62500D01*
G01*
G37*
%TD.AperFunction*%
%TO.P,U1,14*%
%TO.N,/DC*%
%TA.AperFunction,SMDPad,CuDef*%
G36*
G01*
X22263000Y-27942500D02*
X22263000Y-27192500D01*
G75*
G02*
X22325500Y-27130000I62500J0D01*
G01*
X22450500Y-27130000D01*
G75*
G02*
X22513000Y-27192500I0J-62500D01*
G01*
X22513000Y-27942500D01*
G75*
G02*
X22450500Y-28005000I-62500J0D01*
G01*
X22325500Y-28005000D01*
G75*
G02*
X22263000Y-27942500I0J62500D01*
G01*
G37*
%TD.AperFunction*%
%TO.P,U1,13*%
%TO.N,/BLK*%
%TA.AperFunction,SMDPad,CuDef*%
G36*
G01*
X21763000Y-27942500D02*
X21763000Y-27192500D01*
G75*
G02*
X21825500Y-27130000I62500J0D01*
G01*
X21950500Y-27130000D01*
G75*
G02*
X22013000Y-27192500I0J-62500D01*
G01*
X22013000Y-27942500D01*
G75*
G02*
X21950500Y-28005000I-62500J0D01*
G01*
X21825500Y-28005000D01*
G75*
G02*
X21763000Y-27942500I0J62500D01*
G01*
G37*
%TD.AperFunction*%
%TO.P,U1,12*%
%TO.N,Net-(U1-Pad12)*%
%TA.AperFunction,SMDPad,CuDef*%
G36*
G01*
X20763000Y-26942500D02*
X20763000Y-26817500D01*
G75*
G02*
X20825500Y-26755000I62500J0D01*
G01*
X21575500Y-26755000D01*
G75*
G02*
X21638000Y-26817500I0J-62500D01*
G01*
X21638000Y-26942500D01*
G75*
G02*
X21575500Y-27005000I-62500J0D01*
G01*
X20825500Y-27005000D01*
G75*
G02*
X20763000Y-26942500I0J62500D01*
G01*
G37*
%TD.AperFunction*%
%TO.P,U1,11*%
%TO.N,Net-(U1-Pad11)*%
%TA.AperFunction,SMDPad,CuDef*%
G36*
G01*
X20763000Y-26442500D02*
X20763000Y-26317500D01*
G75*
G02*
X20825500Y-26255000I62500J0D01*
G01*
X21575500Y-26255000D01*
G75*
G02*
X21638000Y-26317500I0J-62500D01*
G01*
X21638000Y-26442500D01*
G75*
G02*
X21575500Y-26505000I-62500J0D01*
G01*
X20825500Y-26505000D01*
G75*
G02*
X20763000Y-26442500I0J62500D01*
G01*
G37*
%TD.AperFunction*%
%TO.P,U1,10*%
%TO.N,Net-(U1-Pad10)*%
%TA.AperFunction,SMDPad,CuDef*%
G36*
G01*
X20763000Y-25942500D02*
X20763000Y-25817500D01*
G75*
G02*
X20825500Y-25755000I62500J0D01*
G01*
X21575500Y-25755000D01*
G75*
G02*
X21638000Y-25817500I0J-62500D01*
G01*
X21638000Y-25942500D01*
G75*
G02*
X21575500Y-26005000I-62500J0D01*
G01*
X20825500Y-26005000D01*
G75*
G02*
X20763000Y-25942500I0J62500D01*
G01*
G37*
%TD.AperFunction*%
%TO.P,U1,9*%
%TO.N,+3V3*%
%TA.AperFunction,SMDPad,CuDef*%
G36*
G01*
X20763000Y-25442500D02*
X20763000Y-25317500D01*
G75*
G02*
X20825500Y-25255000I62500J0D01*
G01*
X21575500Y-25255000D01*
G75*
G02*
X21638000Y-25317500I0J-62500D01*
G01*
X21638000Y-25442500D01*
G75*
G02*
X21575500Y-25505000I-62500J0D01*
G01*
X20825500Y-25505000D01*
G75*
G02*
X20763000Y-25442500I0J62500D01*
G01*
G37*
%TD.AperFunction*%
%TO.P,U1,8*%
%TO.N,Earth*%
%TA.AperFunction,SMDPad,CuDef*%
G36*
G01*
X20763000Y-24942500D02*
X20763000Y-24817500D01*
G75*
G02*
X20825500Y-24755000I62500J0D01*
G01*
X21575500Y-24755000D01*
G75*
G02*
X21638000Y-24817500I0J-62500D01*
G01*
X21638000Y-24942500D01*
G75*
G02*
X21575500Y-25005000I-62500J0D01*
G01*
X20825500Y-25005000D01*
G75*
G02*
X20763000Y-24942500I0J62500D01*
G01*
G37*
%TD.AperFunction*%
%TO.P,U1,7*%
%TO.N,Net-(U1-Pad7)*%
%TA.AperFunction,SMDPad,CuDef*%
G36*
G01*
X20763000Y-24442500D02*
X20763000Y-24317500D01*
G75*
G02*
X20825500Y-24255000I62500J0D01*
G01*
X21575500Y-24255000D01*
G75*
G02*
X21638000Y-24317500I0J-62500D01*
G01*
X21638000Y-24442500D01*
G75*
G02*
X21575500Y-24505000I-62500J0D01*
G01*
X20825500Y-24505000D01*
G75*
G02*
X20763000Y-24442500I0J62500D01*
G01*
G37*
%TD.AperFunction*%
%TO.P,U1,6*%
%TO.N,Net-(U1-Pad6)*%
%TA.AperFunction,SMDPad,CuDef*%
G36*
G01*
X20763000Y-23942500D02*
X20763000Y-23817500D01*
G75*
G02*
X20825500Y-23755000I62500J0D01*
G01*
X21575500Y-23755000D01*
G75*
G02*
X21638000Y-23817500I0J-62500D01*
G01*
X21638000Y-23942500D01*
G75*
G02*
X21575500Y-24005000I-62500J0D01*
G01*
X20825500Y-24005000D01*
G75*
G02*
X20763000Y-23942500I0J62500D01*
G01*
G37*
%TD.AperFunction*%
%TO.P,U1,5*%
%TO.N,Net-(U1-Pad5)*%
%TA.AperFunction,SMDPad,CuDef*%
G36*
G01*
X20763000Y-23442500D02*
X20763000Y-23317500D01*
G75*
G02*
X20825500Y-23255000I62500J0D01*
G01*
X21575500Y-23255000D01*
G75*
G02*
X21638000Y-23317500I0J-62500D01*
G01*
X21638000Y-23442500D01*
G75*
G02*
X21575500Y-23505000I-62500J0D01*
G01*
X20825500Y-23505000D01*
G75*
G02*
X20763000Y-23442500I0J62500D01*
G01*
G37*
%TD.AperFunction*%
%TO.P,U1,4*%
%TO.N,Net-(U1-Pad4)*%
%TA.AperFunction,SMDPad,CuDef*%
G36*
G01*
X20763000Y-22942500D02*
X20763000Y-22817500D01*
G75*
G02*
X20825500Y-22755000I62500J0D01*
G01*
X21575500Y-22755000D01*
G75*
G02*
X21638000Y-22817500I0J-62500D01*
G01*
X21638000Y-22942500D01*
G75*
G02*
X21575500Y-23005000I-62500J0D01*
G01*
X20825500Y-23005000D01*
G75*
G02*
X20763000Y-22942500I0J62500D01*
G01*
G37*
%TD.AperFunction*%
%TO.P,U1,3*%
%TO.N,Net-(U1-Pad3)*%
%TA.AperFunction,SMDPad,CuDef*%
G36*
G01*
X20763000Y-22442500D02*
X20763000Y-22317500D01*
G75*
G02*
X20825500Y-22255000I62500J0D01*
G01*
X21575500Y-22255000D01*
G75*
G02*
X21638000Y-22317500I0J-62500D01*
G01*
X21638000Y-22442500D01*
G75*
G02*
X21575500Y-22505000I-62500J0D01*
G01*
X20825500Y-22505000D01*
G75*
G02*
X20763000Y-22442500I0J62500D01*
G01*
G37*
%TD.AperFunction*%
%TO.P,U1,2*%
%TO.N,Net-(U1-Pad2)*%
%TA.AperFunction,SMDPad,CuDef*%
G36*
G01*
X20763000Y-21942500D02*
X20763000Y-21817500D01*
G75*
G02*
X20825500Y-21755000I62500J0D01*
G01*
X21575500Y-21755000D01*
G75*
G02*
X21638000Y-21817500I0J-62500D01*
G01*
X21638000Y-21942500D01*
G75*
G02*
X21575500Y-22005000I-62500J0D01*
G01*
X20825500Y-22005000D01*
G75*
G02*
X20763000Y-21942500I0J62500D01*
G01*
G37*
%TD.AperFunction*%
%TO.P,U1,1*%
%TO.N,+3V3*%
%TA.AperFunction,SMDPad,CuDef*%
G36*
G01*
X20763000Y-21442500D02*
X20763000Y-21317500D01*
G75*
G02*
X20825500Y-21255000I62500J0D01*
G01*
X21575500Y-21255000D01*
G75*
G02*
X21638000Y-21317500I0J-62500D01*
G01*
X21638000Y-21442500D01*
G75*
G02*
X21575500Y-21505000I-62500J0D01*
G01*
X20825500Y-21505000D01*
G75*
G02*
X20763000Y-21442500I0J62500D01*
G01*
G37*
%TD.AperFunction*%
%TD*%
%TO.P,R4,2*%
%TO.N,Net-(Q1-Pad3)*%
%TA.AperFunction,SMDPad,CuDef*%
G36*
G01*
X27078250Y-38483000D02*
X26565750Y-38483000D01*
G75*
G02*
X26347000Y-38264250I0J218750D01*
G01*
X26347000Y-37826750D01*
G75*
G02*
X26565750Y-37608000I218750J0D01*
G01*
X27078250Y-37608000D01*
G75*
G02*
X27297000Y-37826750I0J-218750D01*
G01*
X27297000Y-38264250D01*
G75*
G02*
X27078250Y-38483000I-218750J0D01*
G01*
G37*
%TD.AperFunction*%
%TO.P,R4,1*%
%TO.N,/LEDK*%
%TA.AperFunction,SMDPad,CuDef*%
G36*
G01*
X27078250Y-40058000D02*
X26565750Y-40058000D01*
G75*
G02*
X26347000Y-39839250I0J218750D01*
G01*
X26347000Y-39401750D01*
G75*
G02*
X26565750Y-39183000I218750J0D01*
G01*
X27078250Y-39183000D01*
G75*
G02*
X27297000Y-39401750I0J-218750D01*
G01*
X27297000Y-39839250D01*
G75*
G02*
X27078250Y-40058000I-218750J0D01*
G01*
G37*
%TD.AperFunction*%
%TD*%
%TO.P,R3,2*%
%TO.N,Net-(Q1-Pad2)*%
%TA.AperFunction,SMDPad,CuDef*%
G36*
G01*
X20947750Y-32784000D02*
X21460250Y-32784000D01*
G75*
G02*
X21679000Y-33002750I0J-218750D01*
G01*
X21679000Y-33440250D01*
G75*
G02*
X21460250Y-33659000I-218750J0D01*
G01*
X20947750Y-33659000D01*
G75*
G02*
X20729000Y-33440250I0J218750D01*
G01*
X20729000Y-33002750D01*
G75*
G02*
X20947750Y-32784000I218750J0D01*
G01*
G37*
%TD.AperFunction*%
%TO.P,R3,1*%
%TO.N,+3V3*%
%TA.AperFunction,SMDPad,CuDef*%
G36*
G01*
X20947750Y-31209000D02*
X21460250Y-31209000D01*
G75*
G02*
X21679000Y-31427750I0J-218750D01*
G01*
X21679000Y-31865250D01*
G75*
G02*
X21460250Y-32084000I-218750J0D01*
G01*
X20947750Y-32084000D01*
G75*
G02*
X20729000Y-31865250I0J218750D01*
G01*
X20729000Y-31427750D01*
G75*
G02*
X20947750Y-31209000I218750J0D01*
G01*
G37*
%TD.AperFunction*%
%TD*%
%TO.P,R2,2*%
%TO.N,/BLK*%
%TA.AperFunction,SMDPad,CuDef*%
G36*
G01*
X23360250Y-32084000D02*
X22847750Y-32084000D01*
G75*
G02*
X22629000Y-31865250I0J218750D01*
G01*
X22629000Y-31427750D01*
G75*
G02*
X22847750Y-31209000I218750J0D01*
G01*
X23360250Y-31209000D01*
G75*
G02*
X23579000Y-31427750I0J-218750D01*
G01*
X23579000Y-31865250D01*
G75*
G02*
X23360250Y-32084000I-218750J0D01*
G01*
G37*
%TD.AperFunction*%
%TO.P,R2,1*%
%TO.N,Net-(Q1-Pad2)*%
%TA.AperFunction,SMDPad,CuDef*%
G36*
G01*
X23360250Y-33659000D02*
X22847750Y-33659000D01*
G75*
G02*
X22629000Y-33440250I0J218750D01*
G01*
X22629000Y-33002750D01*
G75*
G02*
X22847750Y-32784000I218750J0D01*
G01*
X23360250Y-32784000D01*
G75*
G02*
X23579000Y-33002750I0J-218750D01*
G01*
X23579000Y-33440250D01*
G75*
G02*
X23360250Y-33659000I-218750J0D01*
G01*
G37*
%TD.AperFunction*%
%TD*%
%TO.P,R1,2*%
%TO.N,Earth*%
%TA.AperFunction,SMDPad,CuDef*%
G36*
G01*
X24132250Y-17557000D02*
X23619750Y-17557000D01*
G75*
G02*
X23401000Y-17338250I0J218750D01*
G01*
X23401000Y-16900750D01*
G75*
G02*
X23619750Y-16682000I218750J0D01*
G01*
X24132250Y-16682000D01*
G75*
G02*
X24351000Y-16900750I0J-218750D01*
G01*
X24351000Y-17338250D01*
G75*
G02*
X24132250Y-17557000I-218750J0D01*
G01*
G37*
%TD.AperFunction*%
%TO.P,R1,1*%
%TO.N,Net-(R1-Pad1)*%
%TA.AperFunction,SMDPad,CuDef*%
G36*
G01*
X24132250Y-19132000D02*
X23619750Y-19132000D01*
G75*
G02*
X23401000Y-18913250I0J218750D01*
G01*
X23401000Y-18475750D01*
G75*
G02*
X23619750Y-18257000I218750J0D01*
G01*
X24132250Y-18257000D01*
G75*
G02*
X24351000Y-18475750I0J-218750D01*
G01*
X24351000Y-18913250D01*
G75*
G02*
X24132250Y-19132000I-218750J0D01*
G01*
G37*
%TD.AperFunction*%
%TD*%
D15*
%TO.P,Q1,3*%
%TO.N,Net-(Q1-Pad3)*%
X22154000Y-36734000D03*
%TO.P,Q1,2*%
%TO.N,Net-(Q1-Pad2)*%
X21204000Y-34734000D03*
%TO.P,Q1,1*%
%TO.N,Earth*%
X23104000Y-34734000D03*
%TD*%
D17*
%TO.P,J3,4*%
%TO.N,Earth*%
X30734000Y-23582000D03*
%TO.P,J3,3*%
%TO.N,/SWDIO*%
X30734000Y-22332000D03*
%TO.P,J3,2*%
%TO.N,/SWCLK*%
X30734000Y-21082000D03*
D18*
%TO.P,J3,1*%
%TO.N,+3V3*%
X30734000Y-19832000D03*
%TD*%
D19*
%TO.P,J2,2*%
%TO.N,Net-(J2-Pad2)*%
X28700000Y-13800000D03*
%TO.P,J2,1*%
%TO.N,Earth*%
X31300000Y-13800000D03*
%TD*%
%TO.P,C8,2*%
%TO.N,Earth*%
%TA.AperFunction,SMDPad,CuDef*%
G36*
G01*
X28578250Y-38483000D02*
X28065750Y-38483000D01*
G75*
G02*
X27847000Y-38264250I0J218750D01*
G01*
X27847000Y-37826750D01*
G75*
G02*
X28065750Y-37608000I218750J0D01*
G01*
X28578250Y-37608000D01*
G75*
G02*
X28797000Y-37826750I0J-218750D01*
G01*
X28797000Y-38264250D01*
G75*
G02*
X28578250Y-38483000I-218750J0D01*
G01*
G37*
%TD.AperFunction*%
%TO.P,C8,1*%
%TO.N,+3V3*%
%TA.AperFunction,SMDPad,CuDef*%
G36*
G01*
X28578250Y-40058000D02*
X28065750Y-40058000D01*
G75*
G02*
X27847000Y-39839250I0J218750D01*
G01*
X27847000Y-39401750D01*
G75*
G02*
X28065750Y-39183000I218750J0D01*
G01*
X28578250Y-39183000D01*
G75*
G02*
X28797000Y-39401750I0J-218750D01*
G01*
X28797000Y-39839250D01*
G75*
G02*
X28578250Y-40058000I-218750J0D01*
G01*
G37*
%TD.AperFunction*%
%TD*%
%TO.P,C7,2*%
%TO.N,Earth*%
%TA.AperFunction,SMDPad,CuDef*%
G36*
G01*
X16414000Y-36319750D02*
X16414000Y-36832250D01*
G75*
G02*
X16195250Y-37051000I-218750J0D01*
G01*
X15757750Y-37051000D01*
G75*
G02*
X15539000Y-36832250I0J218750D01*
G01*
X15539000Y-36319750D01*
G75*
G02*
X15757750Y-36101000I218750J0D01*
G01*
X16195250Y-36101000D01*
G75*
G02*
X16414000Y-36319750I0J-218750D01*
G01*
G37*
%TD.AperFunction*%
%TO.P,C7,1*%
%TO.N,+3V3*%
%TA.AperFunction,SMDPad,CuDef*%
G36*
G01*
X17989000Y-36319750D02*
X17989000Y-36832250D01*
G75*
G02*
X17770250Y-37051000I-218750J0D01*
G01*
X17332750Y-37051000D01*
G75*
G02*
X17114000Y-36832250I0J218750D01*
G01*
X17114000Y-36319750D01*
G75*
G02*
X17332750Y-36101000I218750J0D01*
G01*
X17770250Y-36101000D01*
G75*
G02*
X17989000Y-36319750I0J-218750D01*
G01*
G37*
%TD.AperFunction*%
%TD*%
%TO.P,C6,2*%
%TO.N,Earth*%
%TA.AperFunction,SMDPad,CuDef*%
G36*
G01*
X19047750Y-34181962D02*
X19560250Y-34181962D01*
G75*
G02*
X19779000Y-34400712I0J-218750D01*
G01*
X19779000Y-34838212D01*
G75*
G02*
X19560250Y-35056962I-218750J0D01*
G01*
X19047750Y-35056962D01*
G75*
G02*
X18829000Y-34838212I0J218750D01*
G01*
X18829000Y-34400712D01*
G75*
G02*
X19047750Y-34181962I218750J0D01*
G01*
G37*
%TD.AperFunction*%
%TO.P,C6,1*%
%TO.N,+5V*%
%TA.AperFunction,SMDPad,CuDef*%
G36*
G01*
X19047750Y-32606962D02*
X19560250Y-32606962D01*
G75*
G02*
X19779000Y-32825712I0J-218750D01*
G01*
X19779000Y-33263212D01*
G75*
G02*
X19560250Y-33481962I-218750J0D01*
G01*
X19047750Y-33481962D01*
G75*
G02*
X18829000Y-33263212I0J218750D01*
G01*
X18829000Y-32825712D01*
G75*
G02*
X19047750Y-32606962I218750J0D01*
G01*
G37*
%TD.AperFunction*%
%TD*%
%TO.P,C5,2*%
%TO.N,Earth*%
%TA.AperFunction,SMDPad,CuDef*%
G36*
G01*
X19814250Y-20224000D02*
X19301750Y-20224000D01*
G75*
G02*
X19083000Y-20005250I0J218750D01*
G01*
X19083000Y-19567750D01*
G75*
G02*
X19301750Y-19349000I218750J0D01*
G01*
X19814250Y-19349000D01*
G75*
G02*
X20033000Y-19567750I0J-218750D01*
G01*
X20033000Y-20005250D01*
G75*
G02*
X19814250Y-20224000I-218750J0D01*
G01*
G37*
%TD.AperFunction*%
%TO.P,C5,1*%
%TO.N,+3V3*%
%TA.AperFunction,SMDPad,CuDef*%
G36*
G01*
X19814250Y-21799000D02*
X19301750Y-21799000D01*
G75*
G02*
X19083000Y-21580250I0J218750D01*
G01*
X19083000Y-21142750D01*
G75*
G02*
X19301750Y-20924000I218750J0D01*
G01*
X19814250Y-20924000D01*
G75*
G02*
X20033000Y-21142750I0J-218750D01*
G01*
X20033000Y-21580250D01*
G75*
G02*
X19814250Y-21799000I-218750J0D01*
G01*
G37*
%TD.AperFunction*%
%TD*%
%TO.P,C4,2*%
%TO.N,Earth*%
%TA.AperFunction,SMDPad,CuDef*%
G36*
G01*
X28323250Y-17557000D02*
X27810750Y-17557000D01*
G75*
G02*
X27592000Y-17338250I0J218750D01*
G01*
X27592000Y-16900750D01*
G75*
G02*
X27810750Y-16682000I218750J0D01*
G01*
X28323250Y-16682000D01*
G75*
G02*
X28542000Y-16900750I0J-218750D01*
G01*
X28542000Y-17338250D01*
G75*
G02*
X28323250Y-17557000I-218750J0D01*
G01*
G37*
%TD.AperFunction*%
%TO.P,C4,1*%
%TO.N,+3V3*%
%TA.AperFunction,SMDPad,CuDef*%
G36*
G01*
X28323250Y-19132000D02*
X27810750Y-19132000D01*
G75*
G02*
X27592000Y-18913250I0J218750D01*
G01*
X27592000Y-18475750D01*
G75*
G02*
X27810750Y-18257000I218750J0D01*
G01*
X28323250Y-18257000D01*
G75*
G02*
X28542000Y-18475750I0J-218750D01*
G01*
X28542000Y-18913250D01*
G75*
G02*
X28323250Y-19132000I-218750J0D01*
G01*
G37*
%TD.AperFunction*%
%TD*%
%TO.P,C3,2*%
%TO.N,Earth*%
%TA.AperFunction,SMDPad,CuDef*%
G36*
G01*
X28445750Y-30703000D02*
X28958250Y-30703000D01*
G75*
G02*
X29177000Y-30921750I0J-218750D01*
G01*
X29177000Y-31359250D01*
G75*
G02*
X28958250Y-31578000I-218750J0D01*
G01*
X28445750Y-31578000D01*
G75*
G02*
X28227000Y-31359250I0J218750D01*
G01*
X28227000Y-30921750D01*
G75*
G02*
X28445750Y-30703000I218750J0D01*
G01*
G37*
%TD.AperFunction*%
%TO.P,C3,1*%
%TO.N,+3V3*%
%TA.AperFunction,SMDPad,CuDef*%
G36*
G01*
X28445750Y-29128000D02*
X28958250Y-29128000D01*
G75*
G02*
X29177000Y-29346750I0J-218750D01*
G01*
X29177000Y-29784250D01*
G75*
G02*
X28958250Y-30003000I-218750J0D01*
G01*
X28445750Y-30003000D01*
G75*
G02*
X28227000Y-29784250I0J218750D01*
G01*
X28227000Y-29346750D01*
G75*
G02*
X28445750Y-29128000I218750J0D01*
G01*
G37*
%TD.AperFunction*%
%TD*%
%TO.P,C2,2*%
%TO.N,Earth*%
%TA.AperFunction,SMDPad,CuDef*%
G36*
G01*
X22100250Y-17557000D02*
X21587750Y-17557000D01*
G75*
G02*
X21369000Y-17338250I0J218750D01*
G01*
X21369000Y-16900750D01*
G75*
G02*
X21587750Y-16682000I218750J0D01*
G01*
X22100250Y-16682000D01*
G75*
G02*
X22319000Y-16900750I0J-218750D01*
G01*
X22319000Y-17338250D01*
G75*
G02*
X22100250Y-17557000I-218750J0D01*
G01*
G37*
%TD.AperFunction*%
%TO.P,C2,1*%
%TO.N,+3V3*%
%TA.AperFunction,SMDPad,CuDef*%
G36*
G01*
X22100250Y-19132000D02*
X21587750Y-19132000D01*
G75*
G02*
X21369000Y-18913250I0J218750D01*
G01*
X21369000Y-18475750D01*
G75*
G02*
X21587750Y-18257000I218750J0D01*
G01*
X22100250Y-18257000D01*
G75*
G02*
X22319000Y-18475750I0J-218750D01*
G01*
X22319000Y-18913250D01*
G75*
G02*
X22100250Y-19132000I-218750J0D01*
G01*
G37*
%TD.AperFunction*%
%TD*%
%TO.P,C1,2*%
%TO.N,Net-(C1-Pad2)*%
%TA.AperFunction,SMDPad,CuDef*%
G36*
G01*
X27434250Y-30003000D02*
X26921750Y-30003000D01*
G75*
G02*
X26703000Y-29784250I0J218750D01*
G01*
X26703000Y-29346750D01*
G75*
G02*
X26921750Y-29128000I218750J0D01*
G01*
X27434250Y-29128000D01*
G75*
G02*
X27653000Y-29346750I0J-218750D01*
G01*
X27653000Y-29784250D01*
G75*
G02*
X27434250Y-30003000I-218750J0D01*
G01*
G37*
%TD.AperFunction*%
%TO.P,C1,1*%
%TO.N,Earth*%
%TA.AperFunction,SMDPad,CuDef*%
G36*
G01*
X27434250Y-31578000D02*
X26921750Y-31578000D01*
G75*
G02*
X26703000Y-31359250I0J218750D01*
G01*
X26703000Y-30921750D01*
G75*
G02*
X26921750Y-30703000I218750J0D01*
G01*
X27434250Y-30703000D01*
G75*
G02*
X27653000Y-30921750I0J-218750D01*
G01*
X27653000Y-31359250D01*
G75*
G02*
X27434250Y-31578000I-218750J0D01*
G01*
G37*
%TD.AperFunction*%
%TD*%
D20*
%TO.N,Earth*%
X23939500Y-16002000D03*
X33083500Y-14859000D03*
X41148000Y-22923500D03*
X41148000Y-22098000D03*
X45339000Y-26670000D03*
X46228000Y-26670000D03*
D21*
%TO.N,+3V3*%
X28765500Y-28575000D03*
X27051000Y-18669000D03*
D20*
%TO.N,Earth*%
X26289000Y-25781000D03*
X24638000Y-25781000D03*
X22987000Y-25781000D03*
X22987000Y-22225000D03*
X24638000Y-22225000D03*
X26289000Y-24003000D03*
X24638000Y-24003000D03*
X22987000Y-24003000D03*
X38100000Y-18415000D03*
X37465000Y-18415000D03*
X36068000Y-20273333D03*
X26289000Y-22225000D03*
X44323000Y-26670000D03*
X43053000Y-26670000D03*
X43878500Y-22733000D03*
X44831000Y-22479000D03*
X42418000Y-23939500D03*
X39052500Y-19431000D03*
X40068500Y-16954500D03*
X39497000Y-17526000D03*
X16891000Y-38544500D03*
X16510000Y-37719000D03*
X17462500Y-37846000D03*
X17526000Y-39433500D03*
X19558000Y-37973000D03*
X19621500Y-39433500D03*
X20574000Y-41021000D03*
X22415500Y-41021000D03*
X24193500Y-41021000D03*
X22288500Y-39370000D03*
X24257000Y-34734500D03*
X25908000Y-34734500D03*
X25908000Y-36195000D03*
X27495500Y-36195000D03*
X29210000Y-32639000D03*
X30099000Y-33655000D03*
X31432500Y-34861500D03*
X33020000Y-36322000D03*
X35115500Y-33655000D03*
X36512500Y-34925000D03*
X37909500Y-36195000D03*
X39560500Y-37719000D03*
X34480500Y-37782500D03*
X36068000Y-39370000D03*
X28067000Y-16065500D03*
X31242000Y-17272000D03*
X31242000Y-16129000D03*
X30162500Y-16065500D03*
X30099000Y-17272000D03*
X34671000Y-14795500D03*
X40576500Y-29362500D03*
X39433500Y-29362500D03*
X40005000Y-30099000D03*
X36449000Y-23685500D03*
X36449000Y-22669500D03*
X36449000Y-24638000D03*
X35623500Y-23177500D03*
X35623500Y-24257000D03*
X36576000Y-31750000D03*
X38036500Y-33147000D03*
X39814500Y-34480500D03*
X37401500Y-23685500D03*
D21*
%TO.N,+3V3*%
X18415000Y-21336000D03*
X19748500Y-31242000D03*
X18415000Y-36131500D03*
X18415000Y-36830000D03*
X20828000Y-18694500D03*
X45910500Y-25019000D03*
X46101000Y-25717500D03*
D20*
%TO.N,/SWCLK*%
X28067000Y-19939000D03*
%TD*%
D22*
%TO.N,Net-(C1-Pad2)*%
X26388000Y-28775500D02*
X27178000Y-29565500D01*
X26388000Y-27567500D02*
X26388000Y-28775500D01*
%TO.N,Earth*%
X29125000Y-38848500D02*
X28322000Y-38045500D01*
X29125000Y-39666000D02*
X29125000Y-38848500D01*
X29101810Y-39689190D02*
X29125000Y-39666000D01*
X29101810Y-40367190D02*
X29101810Y-39689190D01*
X28956000Y-40513000D02*
X29101810Y-40367190D01*
X28950000Y-42300000D02*
X28956000Y-42294000D01*
X28956000Y-42294000D02*
X28956000Y-40513000D01*
X29125000Y-40301000D02*
X29125000Y-39666000D01*
X29650000Y-42300000D02*
X29650000Y-40826000D01*
X29650000Y-40826000D02*
X29125000Y-40301000D01*
X29650000Y-42300000D02*
X29650000Y-44255000D01*
X29650000Y-44255000D02*
X29972000Y-44577000D01*
X29972000Y-44577000D02*
X30988000Y-44577000D01*
X31050000Y-44515000D02*
X31050000Y-42300000D01*
X30988000Y-44577000D02*
X31050000Y-44515000D01*
X33850000Y-42300000D02*
X33850000Y-44128000D01*
X33401000Y-44577000D02*
X30988000Y-44577000D01*
X33850000Y-44128000D02*
X33401000Y-44577000D01*
X43154500Y-29362500D02*
X43180000Y-29337000D01*
X41656000Y-29362500D02*
X41656000Y-29362500D01*
X44629500Y-30786500D02*
X43180000Y-29337000D01*
X44676000Y-30786500D02*
X44629500Y-30786500D01*
X44676000Y-30786500D02*
X44761000Y-30786500D01*
D23*
X36056994Y-18161000D02*
X35560666Y-18657328D01*
X35560666Y-18657328D02*
X35560666Y-19765999D01*
X37465000Y-18415000D02*
X37211000Y-18161000D01*
X35560666Y-19765999D02*
X36068000Y-20273333D01*
X37211000Y-18161000D02*
X36056994Y-18161000D01*
X36429000Y-17788994D02*
X36056994Y-18161000D01*
X36429000Y-17380000D02*
X36429000Y-17788994D01*
X37465000Y-18415000D02*
X38100000Y-18415000D01*
X38100000Y-17513500D02*
X38054000Y-17467500D01*
X38100000Y-18415000D02*
X38100000Y-17513500D01*
X33141500Y-15980000D02*
X33054000Y-15892500D01*
X34679000Y-15980000D02*
X33141500Y-15980000D01*
X33054000Y-15554000D02*
X31514750Y-14014750D01*
X33054000Y-15892500D02*
X33054000Y-15554000D01*
X26888000Y-21880000D02*
X24638000Y-24130000D01*
X28075500Y-21880000D02*
X26888000Y-21880000D01*
D22*
X26888000Y-26380000D02*
X24638000Y-24130000D01*
X26888000Y-27567500D02*
X26888000Y-26380000D01*
X23888000Y-24880000D02*
X24638000Y-24130000D01*
X21200500Y-24880000D02*
X23888000Y-24880000D01*
X22388000Y-21880000D02*
X24638000Y-24130000D01*
X22388000Y-20692500D02*
X22388000Y-21880000D01*
X21844000Y-17119500D02*
X23876000Y-17119500D01*
X23876000Y-17119500D02*
X28067000Y-17119500D01*
X28067000Y-17033000D02*
X28067000Y-17119500D01*
X31300000Y-13800000D02*
X31027250Y-14072750D01*
X15814000Y-36540500D02*
X15849500Y-36576000D01*
X15814000Y-35036000D02*
X15814000Y-35036000D01*
X23104000Y-34734000D02*
X23104000Y-35316000D01*
X23104000Y-35316000D02*
X22733000Y-35687000D01*
X20371538Y-35687000D02*
X19304000Y-34619462D01*
X22733000Y-35687000D02*
X20371538Y-35687000D01*
X28702000Y-31140500D02*
X27178000Y-31140500D01*
X34988500Y-27495500D02*
X35306000Y-27813000D01*
X33794700Y-27495500D02*
X34988500Y-27495500D01*
X35306000Y-29853500D02*
X35050500Y-30109000D01*
X35306000Y-27813000D02*
X35306000Y-29853500D01*
X35060500Y-30119000D02*
X35050500Y-30109000D01*
X35060500Y-31679000D02*
X35060500Y-30119000D01*
X21844000Y-17119500D02*
X20980500Y-17119500D01*
X19558000Y-18542000D02*
X19558000Y-19786500D01*
X20980500Y-17119500D02*
X19558000Y-18542000D01*
X39829153Y-18747153D02*
X39829153Y-18747153D01*
X41607153Y-21160153D02*
X41607153Y-21160153D01*
X43561000Y-23977500D02*
X45085000Y-23977500D01*
X41607153Y-21160153D02*
X42623153Y-20144153D01*
X39829153Y-18747153D02*
X40845153Y-17731153D01*
X40845153Y-17731153D02*
X40845153Y-17731153D01*
X39829153Y-18747153D02*
X39829153Y-18747153D01*
X15849500Y-36576000D02*
X15849500Y-36576000D01*
X15814000Y-35036000D02*
X15814000Y-36540500D01*
D24*
X15976500Y-37185500D02*
X16510000Y-37719000D01*
X15976500Y-36576000D02*
X15976500Y-37185500D01*
X16510000Y-38163500D02*
X16891000Y-38544500D01*
X16510000Y-37719000D02*
X16510000Y-38163500D01*
X16891000Y-38798500D02*
X17526000Y-39433500D01*
X16891000Y-38544500D02*
X16891000Y-38798500D01*
D22*
X31027250Y-14072750D02*
X30900250Y-14199750D01*
D23*
X31514750Y-14014750D02*
X31300000Y-13800000D01*
D22*
X30900250Y-14199750D02*
X28067000Y-17033000D01*
D24*
X39145306Y-19431000D02*
X39829153Y-18747153D01*
X39052500Y-19431000D02*
X39145306Y-19431000D01*
D22*
X41656000Y-29362500D02*
X41656000Y-29362500D01*
X41656000Y-29362500D02*
X41656000Y-29362500D01*
X41656000Y-29362500D02*
X43154500Y-29362500D01*
X39103300Y-23685500D02*
X37401500Y-23685500D01*
X36449000Y-23685500D02*
X36449000Y-23685500D01*
X37401500Y-23685500D02*
X36449000Y-23685500D01*
%TO.N,+3V3*%
X28250000Y-39692500D02*
X28322000Y-39620500D01*
X28250000Y-42300000D02*
X28250000Y-39692500D01*
X27550000Y-40392500D02*
X28322000Y-39620500D01*
X27550000Y-42300000D02*
X27550000Y-40392500D01*
X28250000Y-42300000D02*
X28250000Y-44013000D01*
X39141300Y-25552500D02*
X39103300Y-25590500D01*
D24*
X45085000Y-25552500D02*
X46075500Y-25552500D01*
D23*
X28658000Y-21380000D02*
X28075500Y-21380000D01*
X28829000Y-21209000D02*
X28658000Y-21380000D01*
X28067000Y-18694500D02*
X28244750Y-18872250D01*
X28829000Y-19456500D02*
X28829000Y-21209000D01*
X28244750Y-18872250D02*
X28829000Y-19456500D01*
D22*
X21888000Y-18738500D02*
X21844000Y-18694500D01*
X21888000Y-20692500D02*
X21888000Y-18738500D01*
X19558000Y-21361500D02*
X19786500Y-21361500D01*
X19558000Y-21336000D02*
X19558000Y-21361500D01*
X21844000Y-18694500D02*
X21844000Y-19050000D01*
X21844000Y-18694500D02*
X21844000Y-18694500D01*
X19786500Y-21361500D02*
X20993310Y-21361500D01*
D25*
X28041500Y-18669000D02*
X28067000Y-18694500D01*
X19532500Y-21336000D02*
X19558000Y-21361500D01*
D22*
X19558000Y-24194456D02*
X19558000Y-21361500D01*
X21200500Y-25380000D02*
X20743544Y-25380000D01*
X20743544Y-25380000D02*
X19558000Y-24194456D01*
D24*
X20089500Y-31646500D02*
X19939000Y-31496000D01*
X21204000Y-31646500D02*
X20089500Y-31646500D01*
X18034000Y-36576000D02*
X18415000Y-36195000D01*
X17424500Y-36576000D02*
X18034000Y-36576000D01*
X18161000Y-36576000D02*
X18415000Y-36830000D01*
X17424500Y-36576000D02*
X18161000Y-36576000D01*
X17424500Y-35325500D02*
X17714000Y-35036000D01*
X17424500Y-36576000D02*
X17424500Y-35325500D01*
D22*
X27388000Y-28251500D02*
X28702000Y-29565500D01*
X27388000Y-27567500D02*
X27388000Y-28251500D01*
D25*
X20828000Y-18694500D02*
X21844000Y-18694500D01*
X28702000Y-28638500D02*
X28765500Y-28575000D01*
X28702000Y-29565500D02*
X28702000Y-28638500D01*
X27622500Y-44640500D02*
X28250000Y-44013000D01*
X18351500Y-37376000D02*
X18351500Y-40576500D01*
X23812500Y-44640500D02*
X27622500Y-44640500D01*
X18351500Y-40576500D02*
X20383500Y-42608500D01*
X20383500Y-42608500D02*
X21780500Y-42608500D01*
X17551500Y-36576000D02*
X18351500Y-37376000D01*
X21780500Y-42608500D02*
X23812500Y-44640500D01*
D24*
X19735810Y-31292810D02*
X19939000Y-31496000D01*
X19558000Y-21361500D02*
X19735810Y-21539310D01*
X19735810Y-21539310D02*
X19735810Y-31292810D01*
X18440500Y-21361500D02*
X18415000Y-21336000D01*
X19558000Y-21361500D02*
X18440500Y-21361500D01*
D22*
X46101000Y-25209500D02*
X45910500Y-25019000D01*
X46101000Y-25527000D02*
X46101000Y-25209500D01*
X46075500Y-25552500D02*
X46101000Y-25527000D01*
D24*
X46075500Y-25552500D02*
X46075500Y-25552500D01*
D25*
X45047000Y-25590500D02*
X45085000Y-25552500D01*
X39103300Y-25590500D02*
X45047000Y-25590500D01*
X29596500Y-18694500D02*
X30734000Y-19832000D01*
X28067000Y-18694500D02*
X29596500Y-18694500D01*
D24*
X27051000Y-18669000D02*
X28041500Y-18669000D01*
%TO.N,+5V*%
X16772462Y-33044462D02*
X16764000Y-33036000D01*
X19304000Y-33044462D02*
X16772462Y-33044462D01*
D25*
X37680500Y-42291000D02*
X37680500Y-44742500D01*
X37680500Y-44742500D02*
X37680500Y-44996500D01*
D26*
X15713609Y-38636413D02*
X15584811Y-38419673D01*
X15845682Y-38851207D02*
X15713609Y-38636413D01*
X15980975Y-39063968D02*
X15845682Y-38851207D01*
X16119445Y-39274630D02*
X15980975Y-39063968D01*
X16261125Y-39483241D02*
X16119445Y-39274630D01*
X16405931Y-39689677D02*
X16261125Y-39483241D01*
X26743128Y-46373189D02*
X26496273Y-46322146D01*
X27239210Y-46464099D02*
X26990801Y-46420513D01*
X20310333Y-43594076D02*
X20106150Y-43446199D01*
X27488173Y-46503916D02*
X27239210Y-46464099D01*
X16553789Y-39893835D02*
X16405931Y-39689677D01*
X28238333Y-46600755D02*
X27987740Y-46572246D01*
X28489165Y-46625459D02*
X28238333Y-46600755D01*
X26990801Y-46420513D02*
X26743128Y-46373189D01*
X21798962Y-44540685D02*
X21580362Y-44415208D01*
X28740500Y-46646386D02*
X28489165Y-46625459D01*
X29243875Y-46676834D02*
X28991976Y-46663505D01*
X29495784Y-46686351D02*
X29243875Y-46676834D01*
X29747907Y-46692063D02*
X29495784Y-46686351D01*
X29999976Y-46693967D02*
X29747907Y-46692063D01*
X17175730Y-40687687D02*
X17015781Y-40492789D01*
X30504200Y-46686351D02*
X30252060Y-46692063D01*
X36851405Y-45223232D02*
X36620727Y-45324963D01*
X30756116Y-46676834D02*
X30504200Y-46686351D01*
X31007987Y-46663508D02*
X30756116Y-46676834D01*
X31510797Y-46625463D02*
X31259456Y-46646390D01*
X30252060Y-46692063D02*
X29999976Y-46693967D01*
X17844467Y-41442533D02*
X17673000Y-41257604D01*
X32262273Y-46539972D02*
X32012256Y-46572246D01*
X15584811Y-38419673D02*
X15459311Y-38201033D01*
X32511775Y-46503924D02*
X32262273Y-46539972D01*
X35683339Y-45696758D02*
X35445573Y-45780820D01*
X17673000Y-41257604D02*
X17504417Y-41070183D01*
X35919719Y-45609147D02*
X35683339Y-45696758D01*
X18018607Y-41624749D02*
X17844467Y-41442533D01*
X36154840Y-45517940D02*
X35919719Y-45609147D01*
X20106150Y-43446199D02*
X19904148Y-43295199D01*
X36620727Y-45324963D02*
X36388484Y-45423223D01*
X17015781Y-40492789D02*
X16858795Y-40295498D01*
X37080577Y-45118002D02*
X36851405Y-45223232D01*
X33749881Y-46267358D02*
X33503703Y-46322151D01*
X34725205Y-46011277D02*
X34482880Y-46080806D01*
X31761618Y-46600760D02*
X31510797Y-46625463D01*
X37680500Y-44821743D02*
X37533914Y-44897270D01*
X34239438Y-46146693D02*
X33995068Y-46208885D01*
X28991976Y-46663505D02*
X28740500Y-46646386D01*
X31259456Y-46646390D02*
X31007987Y-46663508D01*
X37680500Y-44742500D02*
X37680500Y-44821743D01*
X27987740Y-46572246D02*
X27737710Y-46539969D01*
X37533914Y-44897270D02*
X37308060Y-45009357D01*
X27737710Y-46539969D02*
X27488173Y-46503916D01*
X36388484Y-45423223D02*
X36154840Y-45517940D01*
X32012256Y-46572246D02*
X31761618Y-46600760D01*
X22019578Y-44662926D02*
X21798962Y-44540685D01*
X35445573Y-45780820D02*
X35206673Y-45861245D01*
X33009156Y-46420521D02*
X32760776Y-46464101D01*
X35206673Y-45861245D02*
X34966480Y-45938088D01*
X33503703Y-46322151D02*
X33256840Y-46373195D01*
X34966480Y-45938088D02*
X34725205Y-46011277D01*
X34482880Y-46080806D02*
X34239438Y-46146693D01*
X33995068Y-46208885D02*
X33749881Y-46267358D01*
X33256840Y-46373195D02*
X33009156Y-46420521D01*
X37308060Y-45009357D02*
X37080577Y-45118002D01*
X19704517Y-43141216D02*
X19507202Y-42984210D01*
X32760776Y-46464101D02*
X32511775Y-46503924D01*
X20725367Y-43880553D02*
X20516738Y-43738860D01*
X26496273Y-46322146D02*
X26250106Y-46267355D01*
X26250106Y-46267355D02*
X26004912Y-46208880D01*
X26004912Y-46208880D02*
X25760524Y-46146683D01*
X25760524Y-46146683D02*
X25517103Y-46080802D01*
X25517103Y-46080802D02*
X25274815Y-46011283D01*
X16704793Y-40095842D02*
X16553789Y-39893835D01*
X25274815Y-46011283D02*
X25033504Y-45938082D01*
X25033504Y-45938082D02*
X24793318Y-45861242D01*
X24793318Y-45861242D02*
X24554393Y-45780807D01*
X21363537Y-44286359D02*
X21148794Y-44154317D01*
X17338603Y-40880146D02*
X17175730Y-40687687D01*
X23845159Y-45517940D02*
X23611517Y-45423223D01*
X24554393Y-45780807D02*
X24316643Y-45696751D01*
X19312303Y-42824261D02*
X19119841Y-42661386D01*
X23611517Y-45423223D02*
X23379258Y-45324956D01*
X23379258Y-45324956D02*
X23148565Y-45223219D01*
X18195590Y-41804425D02*
X18018607Y-41624749D01*
X23148565Y-45223219D02*
X22919456Y-45118018D01*
X18302771Y-41910000D02*
X18195590Y-41804425D01*
X22919456Y-45118018D02*
X22691942Y-45009357D01*
X22691942Y-45009357D02*
X22466052Y-44897253D01*
X22466052Y-44897253D02*
X22241890Y-44781754D01*
X22241890Y-44781754D02*
X22019578Y-44662926D01*
X21580362Y-44415208D02*
X21363537Y-44286359D01*
X21148794Y-44154317D02*
X20936000Y-44019004D01*
X20936000Y-44019004D02*
X20725367Y-43880553D01*
X20516738Y-43738860D02*
X20310333Y-43594076D01*
X19904148Y-43295199D02*
X19704517Y-43141216D01*
X19507202Y-42984210D02*
X19312303Y-42824261D01*
X19119841Y-42661386D02*
X18929840Y-42495604D01*
X24316643Y-45696751D02*
X24080269Y-45609142D01*
X18929840Y-42495604D02*
X18742392Y-42326996D01*
X18742392Y-42326996D02*
X18566579Y-42163982D01*
X18566579Y-42163982D02*
X18312598Y-41910000D01*
X18312598Y-41910000D02*
X18302771Y-41910000D01*
X17504417Y-41070183D02*
X17338603Y-40880146D01*
X24080269Y-45609142D02*
X23845159Y-45517940D01*
X16858795Y-40295498D02*
X16704793Y-40095842D01*
X15584811Y-38419673D02*
X15459288Y-38200992D01*
X15218255Y-37758131D02*
X15102740Y-37533937D01*
X15459288Y-38200992D02*
X15337052Y-37980385D01*
X15337052Y-37980385D02*
X15218255Y-37758131D01*
X14776770Y-36851413D02*
X14675043Y-36620744D01*
X14881994Y-37080571D02*
X14776770Y-36851413D01*
X15102740Y-37533937D02*
X14990633Y-37308041D01*
X14990633Y-37308041D02*
X14881994Y-37080571D01*
X14675043Y-36620744D02*
X14576754Y-36388431D01*
X14482065Y-36154857D02*
X14390859Y-35919739D01*
X14576754Y-36388431D02*
X14482065Y-36154857D01*
X14390859Y-35919739D02*
X14303223Y-35683290D01*
X14303223Y-35683290D02*
X14219189Y-35445601D01*
X14303223Y-35683290D02*
X14219179Y-35445572D01*
X14138745Y-35206646D02*
X14061915Y-34966493D01*
X14219179Y-35445572D02*
X14138745Y-35206646D01*
X13988721Y-34725202D02*
X13919193Y-34482884D01*
X14061915Y-34966493D02*
X13988721Y-34725202D01*
X13791117Y-33995082D02*
X13732643Y-33749892D01*
X13919193Y-34482884D02*
X13853315Y-34239475D01*
X13853315Y-34239475D02*
X13791117Y-33995082D01*
X14446535Y-33036000D02*
X16764000Y-33036000D01*
X13732643Y-33749892D02*
X14446535Y-33036000D01*
D24*
X19304000Y-32258000D02*
X19304000Y-33044462D01*
X18669000Y-29845000D02*
X18669000Y-31623000D01*
X18669000Y-31623000D02*
X19304000Y-32258000D01*
X17843500Y-29702000D02*
X18526000Y-29702000D01*
X18526000Y-29702000D02*
X18669000Y-29845000D01*
D22*
%TO.N,Net-(R1-Pad1)*%
X23876000Y-20680500D02*
X23888000Y-20692500D01*
X23876000Y-18694500D02*
X23876000Y-20680500D01*
%TO.N,/TX*%
X29466801Y-24386801D02*
X30035500Y-24955500D01*
X30035500Y-24955500D02*
X33794700Y-24955500D01*
X28075500Y-24380000D02*
X28082301Y-24386801D01*
X28082301Y-24386801D02*
X29466801Y-24386801D01*
%TO.N,/RX*%
X30059830Y-25590500D02*
X33794700Y-25590500D01*
X28075500Y-24880000D02*
X29349330Y-24880000D01*
X29349330Y-24880000D02*
X30059830Y-25590500D01*
%TO.N,/SDA*%
X32450000Y-38419000D02*
X32450000Y-42300000D01*
X23888000Y-27567500D02*
X23888000Y-29857000D01*
X23888000Y-29857000D02*
X32450000Y-38419000D01*
%TO.N,/SCL*%
X22888000Y-27567500D02*
X22888000Y-29467670D01*
X31750000Y-38329670D02*
X31750000Y-42300000D01*
X22888000Y-29467670D02*
X31750000Y-38329670D01*
%TO.N,/BLK*%
X21888000Y-30430500D02*
X23104000Y-31646500D01*
X21888000Y-27567500D02*
X21888000Y-30430500D01*
%TO.N,/DC*%
X22388000Y-29578341D02*
X22709140Y-29899480D01*
X22388000Y-27567500D02*
X22388000Y-29578341D01*
X30350000Y-37540340D02*
X30350000Y-42300000D01*
X22709140Y-29899480D02*
X30350000Y-37540340D01*
%TO.N,/RES*%
X33150000Y-38454928D02*
X33150000Y-42300000D01*
X24388000Y-27567500D02*
X24388000Y-29692928D01*
X24388000Y-29692928D02*
X33150000Y-38454928D01*
%TO.N,/LEDK*%
X26850000Y-39648500D02*
X26822000Y-39620500D01*
X26850000Y-42300000D02*
X26850000Y-39648500D01*
D23*
%TO.N,/SWDIO*%
X30686000Y-22380000D02*
X30734000Y-22332000D01*
D22*
X28075500Y-22380000D02*
X30686000Y-22380000D01*
%TO.N,/SWCLK*%
X27388000Y-20692500D02*
X27388000Y-20110000D01*
X27559000Y-19939000D02*
X28067000Y-19939000D01*
X27388000Y-20110000D02*
X27559000Y-19939000D01*
%TO.N,/LED_G*%
X30988000Y-28511500D02*
X30988000Y-32385000D01*
X30988000Y-32385000D02*
X38380500Y-39777500D01*
X28856500Y-26380000D02*
X30988000Y-28511500D01*
X38380500Y-39777500D02*
X38380500Y-42291000D01*
X28075500Y-26380000D02*
X28856500Y-26380000D01*
%TO.N,/LED_R*%
X31419811Y-28332639D02*
X31419811Y-32206139D01*
X28075500Y-25880000D02*
X28967172Y-25880000D01*
X28967172Y-25880000D02*
X31419811Y-28332639D01*
X31419811Y-32206139D02*
X39080500Y-39866830D01*
X39080500Y-39866830D02*
X39080500Y-42291000D01*
%TO.N,/LED_B*%
X29077844Y-25380000D02*
X31851622Y-28153778D01*
X28075500Y-25380000D02*
X29077844Y-25380000D01*
X39780500Y-39956160D02*
X39780500Y-42291000D01*
X31851622Y-28153778D02*
X31851622Y-32027278D01*
X31851622Y-32027278D02*
X39780500Y-39956160D01*
D25*
%TO.N,Net-(Q1-Pad3)*%
X23465500Y-38045500D02*
X22154000Y-36734000D01*
X26822000Y-38045500D02*
X23465500Y-38045500D01*
D22*
%TO.N,Net-(Q1-Pad2)*%
X21204000Y-34734000D02*
X21204000Y-33221500D01*
X23104000Y-33221500D02*
X21204000Y-33221500D01*
%TO.N,Net-(C10-Pad1)*%
X33794700Y-28130500D02*
X32702500Y-28130500D01*
X32702500Y-28130500D02*
X32512000Y-28321000D01*
X32512000Y-29145500D02*
X33475500Y-30109000D01*
X32512000Y-28321000D02*
X32512000Y-29145500D01*
X33475500Y-31669000D02*
X33485500Y-31679000D01*
X33475500Y-30109000D02*
X33475500Y-31669000D01*
%TO.N,Net-(C11-Pad1)*%
X46151000Y-30796500D02*
X44686000Y-29331500D01*
X46196000Y-30796500D02*
X46151000Y-30796500D01*
X44696000Y-29341500D02*
X46206000Y-29341500D01*
X44686000Y-29331500D02*
X44696000Y-29341500D01*
%TO.N,/VMIC*%
X40094000Y-26225500D02*
X41656000Y-27787500D01*
X39103300Y-26225500D02*
X40094000Y-26225500D01*
X44655000Y-27787500D02*
X44686000Y-27756500D01*
X41656000Y-27787500D02*
X44655000Y-27787500D01*
%TO.N,Net-(C15-Pad2)*%
X37966500Y-15980000D02*
X38054000Y-15892500D01*
X36429000Y-15980000D02*
X37966500Y-15980000D01*
X38443000Y-21145500D02*
X36347500Y-19050000D01*
X39103300Y-21145500D02*
X38443000Y-21145500D01*
X38833810Y-18633690D02*
X38417500Y-19050000D01*
X38054000Y-15892500D02*
X38371500Y-15892500D01*
X38417500Y-19050000D02*
X36347500Y-19050000D01*
X38833810Y-16354810D02*
X38833810Y-18633690D01*
X38371500Y-15892500D02*
X38833810Y-16354810D01*
D24*
%TO.N,Net-(C16-Pad2)*%
X34772500Y-17473500D02*
X34679000Y-17380000D01*
D22*
X34591500Y-17467500D02*
X34679000Y-17380000D01*
X33054000Y-17467500D02*
X34591500Y-17467500D01*
X34772500Y-19050000D02*
X34772500Y-17473500D01*
X36512500Y-21780500D02*
X34772500Y-20040500D01*
X34772500Y-20040500D02*
X34772500Y-19050000D01*
X39103300Y-21780500D02*
X36512500Y-21780500D01*
%TO.N,Net-(C18-Pad2)*%
X44676000Y-32326500D02*
X43146000Y-30796500D01*
X44676000Y-32361500D02*
X44676000Y-32326500D01*
X43146000Y-30861500D02*
X41656000Y-32351500D01*
X43146000Y-30796500D02*
X43146000Y-30861500D01*
%TO.N,Net-(C19-Pad1)*%
X40039194Y-24955500D02*
X39103300Y-24955500D01*
X42720847Y-22273847D02*
X40039194Y-24955500D01*
X42720847Y-22273847D02*
X43736847Y-21257847D01*
%TO.N,/MIC_IN*%
X39103300Y-26860500D02*
X37655500Y-26860500D01*
X37655500Y-26860500D02*
X37084000Y-27432000D01*
X37084000Y-27432000D02*
X37084000Y-29400500D01*
X38460000Y-30776500D02*
X41656000Y-30776500D01*
X37084000Y-29400500D02*
X38460000Y-30776500D01*
%TO.N,Net-(C22-Pad1)*%
X40942847Y-19860847D02*
X40513000Y-20290694D01*
X40021942Y-24320500D02*
X39103300Y-24320500D01*
X40513000Y-20290694D02*
X40513000Y-23829442D01*
X40513000Y-23829442D02*
X40021942Y-24320500D01*
X40942847Y-19860847D02*
X41958847Y-18844847D01*
D24*
%TO.N,Net-(J2-Pad2)*%
X17843500Y-28702000D02*
X14605000Y-28702000D01*
X14605000Y-28702000D02*
X13589000Y-27686000D01*
D26*
X13626805Y-26743153D02*
X13677854Y-26496267D01*
X13589000Y-27686000D02*
X13589000Y-26941005D01*
X13589000Y-26941005D02*
X13626805Y-26743153D01*
X21148799Y-15845678D02*
X20936023Y-15980980D01*
X21148799Y-15845678D02*
X20936026Y-15980978D01*
X20936026Y-15980978D02*
X20725376Y-16119440D01*
X20516750Y-16261130D02*
X20310336Y-16405921D01*
X20936026Y-15980978D02*
X20725359Y-16119451D01*
X20725359Y-16119451D02*
X20516750Y-16261130D01*
X20310336Y-16405921D02*
X20106147Y-16553802D01*
X20106147Y-16553802D02*
X19904155Y-16704794D01*
X19704532Y-16858770D02*
X19507227Y-17015768D01*
X19904155Y-16704794D02*
X19704532Y-16858770D01*
X19507227Y-17015768D02*
X19312315Y-17175728D01*
X19312315Y-17175728D02*
X19119853Y-17338603D01*
X19119853Y-17338603D02*
X18929828Y-17504406D01*
X18929828Y-17504406D02*
X18742387Y-17673008D01*
X18742387Y-17673008D02*
X18557454Y-17844478D01*
X18557454Y-17844478D02*
X18375246Y-18018611D01*
X18105857Y-18288000D02*
X18104549Y-18288000D01*
X18375246Y-18018611D02*
X18105857Y-18288000D01*
X18018613Y-18375243D02*
X17844481Y-18557451D01*
X18104549Y-18288000D02*
X18018613Y-18375243D01*
X17672999Y-18742396D02*
X17504418Y-18929815D01*
X17844481Y-18557451D02*
X17672999Y-18742396D01*
X17175719Y-19312326D02*
X17015774Y-19507220D01*
X17504418Y-18929815D02*
X17338602Y-19119855D01*
X17338602Y-19119855D02*
X17175719Y-19312326D01*
X16704791Y-19904161D02*
X16553786Y-20106169D01*
X17015774Y-19507220D02*
X16858779Y-19704522D01*
X16858779Y-19704522D02*
X16704791Y-19904161D01*
X16553786Y-20106169D02*
X16405921Y-20310336D01*
X16261129Y-20516752D02*
X16119447Y-20725366D01*
X16405921Y-20310336D02*
X16261129Y-20516752D01*
X15980976Y-20936031D02*
X15845666Y-21148818D01*
X16119447Y-20725366D02*
X15980976Y-20936031D01*
X15584771Y-21580397D02*
X15459300Y-21798987D01*
X15845666Y-21148818D02*
X15713646Y-21363528D01*
X15713646Y-21363528D02*
X15584771Y-21580397D01*
X15218238Y-22241902D02*
X15102733Y-22466077D01*
X15459300Y-21798987D02*
X15337058Y-22019605D01*
X15337058Y-22019605D02*
X15218238Y-22241902D01*
X15102733Y-22466077D02*
X14990643Y-22691939D01*
X14881982Y-22919456D02*
X14776759Y-23148612D01*
X14990643Y-22691939D02*
X14881982Y-22919456D01*
X14675038Y-23379269D02*
X14576768Y-23611538D01*
X14776759Y-23148612D02*
X14675038Y-23379269D01*
X14482043Y-23845201D02*
X14390850Y-24080289D01*
X14576768Y-23611538D02*
X14482043Y-23845201D01*
X14303228Y-24316700D02*
X14219183Y-24554420D01*
X14390850Y-24080289D02*
X14303228Y-24316700D01*
X13732641Y-26250118D02*
X13791118Y-26004917D01*
X13677854Y-26496267D02*
X13732641Y-26250118D01*
X13919190Y-25517128D02*
X13988718Y-25274809D01*
X13791118Y-26004917D02*
X13853318Y-25760514D01*
X13853318Y-25760514D02*
X13919190Y-25517128D01*
X14138754Y-24793328D02*
X14219183Y-24554419D01*
X13988718Y-25274809D02*
X14061914Y-25033512D01*
X14061914Y-25033512D02*
X14138754Y-24793328D01*
X21580383Y-15584778D02*
X21363553Y-15713630D01*
X21363553Y-15713630D02*
X21148799Y-15845678D01*
X21798966Y-15459311D02*
X21580383Y-15584778D01*
X22919460Y-14881979D02*
X22691876Y-14990673D01*
X23148604Y-14776762D02*
X22919460Y-14881979D01*
X26496297Y-13677847D02*
X26250104Y-13732644D01*
X27239174Y-13535905D02*
X26990788Y-13579487D01*
X28293783Y-13393782D02*
X28238379Y-13399238D01*
X27488162Y-13496083D02*
X27239174Y-13535905D01*
X22241919Y-15218229D02*
X22019594Y-15337064D01*
X26743183Y-13626798D02*
X26496297Y-13677847D01*
X28700000Y-13800000D02*
X28293783Y-13393782D01*
X25274820Y-13988714D02*
X25033536Y-14061906D01*
X27737743Y-13460024D02*
X27488162Y-13496083D01*
X28238379Y-13399238D02*
X27987770Y-13427748D01*
X26990788Y-13579487D02*
X26743183Y-13626798D01*
X25760540Y-13853311D02*
X25517127Y-13919190D01*
X27987770Y-13427748D02*
X27737743Y-13460024D01*
X26004930Y-13791114D02*
X25760540Y-13853311D01*
X24316695Y-14303228D02*
X24080254Y-14390862D01*
X25517127Y-13919190D02*
X25274820Y-13988714D01*
X22466056Y-15102743D02*
X22241919Y-15218229D01*
X24080254Y-14390862D02*
X23845176Y-14482052D01*
X26250104Y-13732644D02*
X26004930Y-13791114D01*
X25033536Y-14061906D02*
X24793313Y-14138758D01*
X24793313Y-14138758D02*
X24554417Y-14219182D01*
X24554417Y-14219182D02*
X24316695Y-14303228D01*
X22691876Y-14990673D02*
X22466056Y-15102743D01*
X23845176Y-14482052D02*
X23611522Y-14576773D01*
X23611522Y-14576773D02*
X23379287Y-14675029D01*
X22019594Y-15337064D02*
X21798966Y-15459311D01*
X23379287Y-14675029D02*
X23148604Y-14776762D01*
D22*
%TO.N,Net-(MK1-Pad2)*%
X46196000Y-32798000D02*
X46196000Y-32371500D01*
X43434000Y-33274000D02*
X45720000Y-33274000D01*
X45720000Y-33274000D02*
X46196000Y-32798000D01*
X43146000Y-32371500D02*
X43146000Y-32986000D01*
X43146000Y-32986000D02*
X43434000Y-33274000D01*
X44642000Y-34352000D02*
X45720000Y-33274000D01*
X44642000Y-36264000D02*
X44642000Y-34352000D01*
%TD*%
%TO.N,Earth*%
G36*
X30353000Y-28774525D02*
G01*
X30353001Y-32353809D01*
X30349929Y-32385000D01*
X30353001Y-32416191D01*
X30353001Y-32416192D01*
X30359875Y-32485981D01*
X30362189Y-32509481D01*
X30398498Y-32629179D01*
X30457463Y-32739493D01*
X30457464Y-32739494D01*
X30536816Y-32836185D01*
X30561046Y-32856070D01*
X37745500Y-40040526D01*
X37745500Y-40630543D01*
X37593000Y-40630543D01*
X37476344Y-40642033D01*
X37364172Y-40676060D01*
X37260793Y-40731317D01*
X37170181Y-40805681D01*
X37095817Y-40896293D01*
X37040560Y-40999672D01*
X37006533Y-41111844D01*
X36995043Y-41228500D01*
X36995043Y-42144392D01*
X36992107Y-42154071D01*
X36982000Y-42256692D01*
X36982001Y-44178717D01*
X36918870Y-44210048D01*
X36703528Y-44312894D01*
X36486526Y-44412536D01*
X36268122Y-44508853D01*
X36048305Y-44601856D01*
X35827049Y-44691551D01*
X35604494Y-44777884D01*
X35380665Y-44860844D01*
X35155623Y-44940407D01*
X34929373Y-45016573D01*
X34702006Y-45089313D01*
X34473576Y-45158606D01*
X34244173Y-45224428D01*
X34013661Y-45286815D01*
X33782339Y-45345687D01*
X33550178Y-45401053D01*
X33317135Y-45452923D01*
X33083412Y-45501250D01*
X32848915Y-45546057D01*
X32613785Y-45587312D01*
X32377992Y-45625023D01*
X32141807Y-45659147D01*
X31905151Y-45689697D01*
X31667791Y-45716700D01*
X31430337Y-45740087D01*
X31192396Y-45759898D01*
X30954330Y-45776104D01*
X30715814Y-45788723D01*
X30477342Y-45797732D01*
X30238666Y-45803139D01*
X29999977Y-45804942D01*
X29761307Y-45803139D01*
X29522652Y-45797733D01*
X29284150Y-45788722D01*
X29045656Y-45776102D01*
X28807523Y-45759891D01*
X28569632Y-45740083D01*
X28332165Y-45716696D01*
X28094906Y-45689704D01*
X27858153Y-45659141D01*
X27621954Y-45625014D01*
X27386196Y-45587309D01*
X27151046Y-45546049D01*
X26916533Y-45501240D01*
X26682925Y-45452936D01*
X26449800Y-45401048D01*
X26217662Y-45345687D01*
X26191387Y-45339000D01*
X27588202Y-45339000D01*
X27622500Y-45342378D01*
X27656798Y-45339000D01*
X27656809Y-45339000D01*
X27759430Y-45328893D01*
X27891097Y-45288952D01*
X28012443Y-45224091D01*
X28118803Y-45136803D01*
X28140675Y-45110152D01*
X28768174Y-44482654D01*
X28833591Y-44402944D01*
X28898451Y-44281599D01*
X28938392Y-44149930D01*
X28951878Y-44013001D01*
X28938392Y-43876071D01*
X28898451Y-43744402D01*
X28885000Y-43719237D01*
X28885000Y-43600570D01*
X28889940Y-43591328D01*
X28923967Y-43479156D01*
X28935457Y-43362500D01*
X28935457Y-41237500D01*
X28923967Y-41120844D01*
X28889940Y-41008672D01*
X28885000Y-40999430D01*
X28885000Y-40498146D01*
X28983376Y-40445563D01*
X29093877Y-40354877D01*
X29184563Y-40244376D01*
X29251949Y-40118305D01*
X29293445Y-39981511D01*
X29307457Y-39839250D01*
X29307457Y-39401750D01*
X29293445Y-39259489D01*
X29251949Y-39122695D01*
X29184563Y-38996624D01*
X29093877Y-38886123D01*
X28983376Y-38795437D01*
X28857305Y-38728051D01*
X28720511Y-38686555D01*
X28578250Y-38672543D01*
X28065750Y-38672543D01*
X27923489Y-38686555D01*
X27786695Y-38728051D01*
X27660624Y-38795437D01*
X27572000Y-38868169D01*
X27529147Y-38833000D01*
X27593877Y-38779877D01*
X27684563Y-38669376D01*
X27751949Y-38543305D01*
X27793445Y-38406511D01*
X27807457Y-38264250D01*
X27807457Y-37826750D01*
X27793445Y-37684489D01*
X27751949Y-37547695D01*
X27684563Y-37421624D01*
X27593877Y-37311123D01*
X27483376Y-37220437D01*
X27357305Y-37153051D01*
X27220511Y-37111555D01*
X27078250Y-37097543D01*
X26565750Y-37097543D01*
X26423489Y-37111555D01*
X26286695Y-37153051D01*
X26160624Y-37220437D01*
X26050123Y-37311123D01*
X26020679Y-37347000D01*
X23754829Y-37347000D01*
X23064457Y-36656629D01*
X23064457Y-36284000D01*
X23054649Y-36184415D01*
X23025601Y-36088657D01*
X22978429Y-36000405D01*
X22914948Y-35923052D01*
X22837595Y-35859571D01*
X22749343Y-35812399D01*
X22653585Y-35783351D01*
X22554000Y-35773543D01*
X21754000Y-35773543D01*
X21654415Y-35783351D01*
X21558657Y-35812399D01*
X21470405Y-35859571D01*
X21393052Y-35923052D01*
X21329571Y-36000405D01*
X21282399Y-36088657D01*
X21253351Y-36184415D01*
X21243543Y-36284000D01*
X21243543Y-37184000D01*
X21253351Y-37283585D01*
X21282399Y-37379343D01*
X21329571Y-37467595D01*
X21393052Y-37544948D01*
X21470405Y-37608429D01*
X21558657Y-37655601D01*
X21654415Y-37684649D01*
X21754000Y-37694457D01*
X22126629Y-37694457D01*
X22947333Y-38515162D01*
X22969197Y-38541803D01*
X22995837Y-38563666D01*
X22995845Y-38563674D01*
X23075556Y-38629091D01*
X23178591Y-38684164D01*
X23196903Y-38693952D01*
X23328570Y-38733893D01*
X23431191Y-38744000D01*
X23431201Y-38744000D01*
X23465499Y-38747378D01*
X23499797Y-38744000D01*
X26020679Y-38744000D01*
X26050123Y-38779877D01*
X26114853Y-38833000D01*
X26050123Y-38886123D01*
X25959437Y-38996624D01*
X25892051Y-39122695D01*
X25850555Y-39259489D01*
X25836543Y-39401750D01*
X25836543Y-39839250D01*
X25850555Y-39981511D01*
X25892051Y-40118305D01*
X25959437Y-40244376D01*
X26050123Y-40354877D01*
X26160624Y-40445563D01*
X26215001Y-40474628D01*
X26215000Y-40999429D01*
X26210060Y-41008672D01*
X26176033Y-41120844D01*
X26164543Y-41237500D01*
X26164543Y-43362500D01*
X26176033Y-43479156D01*
X26210060Y-43591328D01*
X26265317Y-43694707D01*
X26339681Y-43785319D01*
X26430293Y-43859683D01*
X26533672Y-43914940D01*
X26622877Y-43942000D01*
X24101828Y-43942000D01*
X22298673Y-42138846D01*
X22276803Y-42112197D01*
X22170443Y-42024909D01*
X22049097Y-41960048D01*
X21917430Y-41920107D01*
X21814809Y-41910000D01*
X21814798Y-41910000D01*
X21780500Y-41906622D01*
X21746202Y-41910000D01*
X20672828Y-41910000D01*
X19050000Y-40287173D01*
X19050000Y-37479105D01*
X19120289Y-37408816D01*
X19219659Y-37260099D01*
X19288106Y-37094854D01*
X19323000Y-36919430D01*
X19323000Y-36740570D01*
X19288106Y-36565146D01*
X19253148Y-36480750D01*
X19288106Y-36396354D01*
X19323000Y-36220930D01*
X19323000Y-36042070D01*
X19288106Y-35866646D01*
X19219659Y-35701401D01*
X19120289Y-35552684D01*
X18993816Y-35426211D01*
X18845099Y-35326841D01*
X18679854Y-35258394D01*
X18624457Y-35247375D01*
X18624457Y-34586000D01*
X18614649Y-34486415D01*
X18585601Y-34390657D01*
X18538429Y-34302405D01*
X18474948Y-34225052D01*
X18397595Y-34161571D01*
X18309343Y-34114399D01*
X18213585Y-34085351D01*
X18114000Y-34075543D01*
X17314000Y-34075543D01*
X17214415Y-34085351D01*
X17118657Y-34114399D01*
X17030405Y-34161571D01*
X16953052Y-34225052D01*
X16889571Y-34302405D01*
X16842399Y-34390657D01*
X16813351Y-34486415D01*
X16803543Y-34586000D01*
X16803543Y-34780896D01*
X16803093Y-34781445D01*
X16734801Y-34864658D01*
X16658147Y-35008067D01*
X16610945Y-35163674D01*
X16595006Y-35325500D01*
X16599001Y-35366060D01*
X16599000Y-36535446D01*
X16595006Y-36576000D01*
X16603543Y-36662680D01*
X16603543Y-36832250D01*
X16617555Y-36974511D01*
X16659051Y-37111305D01*
X16726437Y-37237376D01*
X16817123Y-37347877D01*
X16927624Y-37438563D01*
X17053695Y-37505949D01*
X17190489Y-37547445D01*
X17332750Y-37561457D01*
X17549129Y-37561457D01*
X17653000Y-37665328D01*
X17653001Y-39865832D01*
X17558628Y-39747229D01*
X17412810Y-39558183D01*
X17269877Y-39366974D01*
X17129887Y-39173680D01*
X16992772Y-38978208D01*
X16858634Y-38780702D01*
X16727537Y-38581256D01*
X16599485Y-38379884D01*
X16474437Y-38176516D01*
X16352476Y-37971281D01*
X16277998Y-37841529D01*
X16233617Y-37764209D01*
X16117915Y-37555394D01*
X16005456Y-37344998D01*
X15896079Y-37132716D01*
X15789946Y-36918857D01*
X15687094Y-36703503D01*
X15587473Y-36486548D01*
X15491168Y-36268174D01*
X15398112Y-36048231D01*
X15308461Y-35827085D01*
X15222111Y-35604485D01*
X15139141Y-35380625D01*
X15059576Y-35155576D01*
X14983421Y-34929360D01*
X14910697Y-34702042D01*
X14841382Y-34473538D01*
X14775576Y-34244192D01*
X14715936Y-34023834D01*
X14814771Y-33925000D01*
X16107665Y-33925000D01*
X16168657Y-33957601D01*
X16264415Y-33986649D01*
X16364000Y-33996457D01*
X17164000Y-33996457D01*
X17263585Y-33986649D01*
X17359343Y-33957601D01*
X17447595Y-33910429D01*
X17496905Y-33869962D01*
X18643442Y-33869962D01*
X18768695Y-33936911D01*
X18905489Y-33978407D01*
X19047750Y-33992419D01*
X19560250Y-33992419D01*
X19702511Y-33978407D01*
X19839305Y-33936911D01*
X19965376Y-33869525D01*
X20075877Y-33778839D01*
X20166563Y-33668338D01*
X20229425Y-33550731D01*
X20232555Y-33582511D01*
X20274051Y-33719305D01*
X20341437Y-33845376D01*
X20424118Y-33946123D01*
X20379571Y-34000405D01*
X20332399Y-34088657D01*
X20303351Y-34184415D01*
X20293543Y-34284000D01*
X20293543Y-35184000D01*
X20303351Y-35283585D01*
X20332399Y-35379343D01*
X20379571Y-35467595D01*
X20443052Y-35544948D01*
X20520405Y-35608429D01*
X20608657Y-35655601D01*
X20704415Y-35684649D01*
X20804000Y-35694457D01*
X21604000Y-35694457D01*
X21703585Y-35684649D01*
X21799343Y-35655601D01*
X21887595Y-35608429D01*
X21964948Y-35544948D01*
X22028429Y-35467595D01*
X22075601Y-35379343D01*
X22104649Y-35283585D01*
X22114457Y-35184000D01*
X22114457Y-34284000D01*
X22104649Y-34184415D01*
X22075601Y-34088657D01*
X22028429Y-34000405D01*
X21983882Y-33946123D01*
X22057434Y-33856500D01*
X22250566Y-33856500D01*
X22332123Y-33955877D01*
X22442624Y-34046563D01*
X22568695Y-34113949D01*
X22705489Y-34155445D01*
X22847750Y-34169457D01*
X23360250Y-34169457D01*
X23502511Y-34155445D01*
X23639305Y-34113949D01*
X23765376Y-34046563D01*
X23875877Y-33955877D01*
X23966563Y-33845376D01*
X24033949Y-33719305D01*
X24075445Y-33582511D01*
X24089457Y-33440250D01*
X24089457Y-33002750D01*
X24075445Y-32860489D01*
X24033949Y-32723695D01*
X23966563Y-32597624D01*
X23875877Y-32487123D01*
X23811147Y-32434000D01*
X23875877Y-32380877D01*
X23966563Y-32270376D01*
X24033949Y-32144305D01*
X24039067Y-32127432D01*
X29715000Y-37803365D01*
X29715001Y-40999429D01*
X29710060Y-41008672D01*
X29676033Y-41120844D01*
X29664543Y-41237500D01*
X29664543Y-43362500D01*
X29676033Y-43479156D01*
X29710060Y-43591328D01*
X29765317Y-43694707D01*
X29839681Y-43785319D01*
X29930293Y-43859683D01*
X30033672Y-43914940D01*
X30145844Y-43948967D01*
X30262500Y-43960457D01*
X30437500Y-43960457D01*
X30554156Y-43948967D01*
X30666328Y-43914940D01*
X30769707Y-43859683D01*
X30860319Y-43785319D01*
X30934683Y-43694707D01*
X30989940Y-43591328D01*
X31023967Y-43479156D01*
X31035457Y-43362500D01*
X31035457Y-41237500D01*
X31023967Y-41120844D01*
X30989940Y-41008672D01*
X30985000Y-40999430D01*
X30985000Y-38462696D01*
X31115000Y-38592696D01*
X31115001Y-40999429D01*
X31110060Y-41008672D01*
X31076033Y-41120844D01*
X31064543Y-41237500D01*
X31064543Y-43362500D01*
X31076033Y-43479156D01*
X31110060Y-43591328D01*
X31165317Y-43694707D01*
X31239681Y-43785319D01*
X31330293Y-43859683D01*
X31433672Y-43914940D01*
X31545844Y-43948967D01*
X31662500Y-43960457D01*
X31837500Y-43960457D01*
X31954156Y-43948967D01*
X32066328Y-43914940D01*
X32100000Y-43896942D01*
X32133672Y-43914940D01*
X32245844Y-43948967D01*
X32362500Y-43960457D01*
X32537500Y-43960457D01*
X32654156Y-43948967D01*
X32766328Y-43914940D01*
X32800000Y-43896942D01*
X32833672Y-43914940D01*
X32945844Y-43948967D01*
X33062500Y-43960457D01*
X33237500Y-43960457D01*
X33354156Y-43948967D01*
X33466328Y-43914940D01*
X33569707Y-43859683D01*
X33660319Y-43785319D01*
X33734683Y-43694707D01*
X33789940Y-43591328D01*
X33823967Y-43479156D01*
X33835457Y-43362500D01*
X33835457Y-41237500D01*
X33823967Y-41120844D01*
X33789940Y-41008672D01*
X33785000Y-40999430D01*
X33785000Y-38486108D01*
X33788071Y-38454927D01*
X33785000Y-38423746D01*
X33785000Y-38423736D01*
X33775812Y-38330446D01*
X33739502Y-38210748D01*
X33733407Y-38199346D01*
X33680537Y-38100433D01*
X33621068Y-38027971D01*
X33601185Y-38003743D01*
X33576956Y-37983859D01*
X25023000Y-29429904D01*
X25023000Y-28508316D01*
X25062278Y-28504448D01*
X25138000Y-28481478D01*
X25213722Y-28504448D01*
X25325500Y-28515457D01*
X25450500Y-28515457D01*
X25562278Y-28504448D01*
X25638000Y-28481478D01*
X25713722Y-28504448D01*
X25753001Y-28508317D01*
X25753001Y-28744309D01*
X25749929Y-28775500D01*
X25753001Y-28806691D01*
X25753001Y-28806692D01*
X25762189Y-28899982D01*
X25768911Y-28922140D01*
X25798498Y-29019679D01*
X25857463Y-29129993D01*
X25863469Y-29137311D01*
X25936816Y-29226685D01*
X25961045Y-29246569D01*
X26192543Y-29478068D01*
X26192543Y-29784250D01*
X26206555Y-29926511D01*
X26248051Y-30063305D01*
X26315437Y-30189376D01*
X26406123Y-30299877D01*
X26516624Y-30390563D01*
X26642695Y-30457949D01*
X26779489Y-30499445D01*
X26921750Y-30513457D01*
X27434250Y-30513457D01*
X27576511Y-30499445D01*
X27713305Y-30457949D01*
X27839376Y-30390563D01*
X27940000Y-30307983D01*
X28040624Y-30390563D01*
X28166695Y-30457949D01*
X28303489Y-30499445D01*
X28445750Y-30513457D01*
X28958250Y-30513457D01*
X29100511Y-30499445D01*
X29237305Y-30457949D01*
X29363376Y-30390563D01*
X29473877Y-30299877D01*
X29564563Y-30189376D01*
X29631949Y-30063305D01*
X29673445Y-29926511D01*
X29687457Y-29784250D01*
X29687457Y-29346750D01*
X29673445Y-29204489D01*
X29631949Y-29067695D01*
X29582529Y-28975236D01*
X29638606Y-28839854D01*
X29673500Y-28664430D01*
X29673500Y-28485570D01*
X29638606Y-28310146D01*
X29570159Y-28144901D01*
X29470789Y-27996184D01*
X29344316Y-27869711D01*
X29195599Y-27770341D01*
X29030354Y-27701894D01*
X28854930Y-27667000D01*
X28676070Y-27667000D01*
X28500646Y-27701894D01*
X28335401Y-27770341D01*
X28186684Y-27869711D01*
X28060211Y-27996184D01*
X28048394Y-28013870D01*
X28023000Y-27988476D01*
X28023000Y-27947140D01*
X28023457Y-27942500D01*
X28023457Y-27515457D01*
X28450500Y-27515457D01*
X28562278Y-27504448D01*
X28669761Y-27471843D01*
X28768818Y-27418896D01*
X28855642Y-27347642D01*
X28887409Y-27308933D01*
X30353000Y-28774525D01*
G37*
X30353000Y-28774525D02*
X30353001Y-32353809D01*
X30349929Y-32385000D01*
X30353001Y-32416191D01*
X30353001Y-32416192D01*
X30359875Y-32485981D01*
X30362189Y-32509481D01*
X30398498Y-32629179D01*
X30457463Y-32739493D01*
X30457464Y-32739494D01*
X30536816Y-32836185D01*
X30561046Y-32856070D01*
X37745500Y-40040526D01*
X37745500Y-40630543D01*
X37593000Y-40630543D01*
X37476344Y-40642033D01*
X37364172Y-40676060D01*
X37260793Y-40731317D01*
X37170181Y-40805681D01*
X37095817Y-40896293D01*
X37040560Y-40999672D01*
X37006533Y-41111844D01*
X36995043Y-41228500D01*
X36995043Y-42144392D01*
X36992107Y-42154071D01*
X36982000Y-42256692D01*
X36982001Y-44178717D01*
X36918870Y-44210048D01*
X36703528Y-44312894D01*
X36486526Y-44412536D01*
X36268122Y-44508853D01*
X36048305Y-44601856D01*
X35827049Y-44691551D01*
X35604494Y-44777884D01*
X35380665Y-44860844D01*
X35155623Y-44940407D01*
X34929373Y-45016573D01*
X34702006Y-45089313D01*
X34473576Y-45158606D01*
X34244173Y-45224428D01*
X34013661Y-45286815D01*
X33782339Y-45345687D01*
X33550178Y-45401053D01*
X33317135Y-45452923D01*
X33083412Y-45501250D01*
X32848915Y-45546057D01*
X32613785Y-45587312D01*
X32377992Y-45625023D01*
X32141807Y-45659147D01*
X31905151Y-45689697D01*
X31667791Y-45716700D01*
X31430337Y-45740087D01*
X31192396Y-45759898D01*
X30954330Y-45776104D01*
X30715814Y-45788723D01*
X30477342Y-45797732D01*
X30238666Y-45803139D01*
X29999977Y-45804942D01*
X29761307Y-45803139D01*
X29522652Y-45797733D01*
X29284150Y-45788722D01*
X29045656Y-45776102D01*
X28807523Y-45759891D01*
X28569632Y-45740083D01*
X28332165Y-45716696D01*
X28094906Y-45689704D01*
X27858153Y-45659141D01*
X27621954Y-45625014D01*
X27386196Y-45587309D01*
X27151046Y-45546049D01*
X26916533Y-45501240D01*
X26682925Y-45452936D01*
X26449800Y-45401048D01*
X26217662Y-45345687D01*
X26191387Y-45339000D01*
X27588202Y-45339000D01*
X27622500Y-45342378D01*
X27656798Y-45339000D01*
X27656809Y-45339000D01*
X27759430Y-45328893D01*
X27891097Y-45288952D01*
X28012443Y-45224091D01*
X28118803Y-45136803D01*
X28140675Y-45110152D01*
X28768174Y-44482654D01*
X28833591Y-44402944D01*
X28898451Y-44281599D01*
X28938392Y-44149930D01*
X28951878Y-44013001D01*
X28938392Y-43876071D01*
X28898451Y-43744402D01*
X28885000Y-43719237D01*
X28885000Y-43600570D01*
X28889940Y-43591328D01*
X28923967Y-43479156D01*
X28935457Y-43362500D01*
X28935457Y-41237500D01*
X28923967Y-41120844D01*
X28889940Y-41008672D01*
X28885000Y-40999430D01*
X28885000Y-40498146D01*
X28983376Y-40445563D01*
X29093877Y-40354877D01*
X29184563Y-40244376D01*
X29251949Y-40118305D01*
X29293445Y-39981511D01*
X29307457Y-39839250D01*
X29307457Y-39401750D01*
X29293445Y-39259489D01*
X29251949Y-39122695D01*
X29184563Y-38996624D01*
X29093877Y-38886123D01*
X28983376Y-38795437D01*
X28857305Y-38728051D01*
X28720511Y-38686555D01*
X28578250Y-38672543D01*
X28065750Y-38672543D01*
X27923489Y-38686555D01*
X27786695Y-38728051D01*
X27660624Y-38795437D01*
X27572000Y-38868169D01*
X27529147Y-38833000D01*
X27593877Y-38779877D01*
X27684563Y-38669376D01*
X27751949Y-38543305D01*
X27793445Y-38406511D01*
X27807457Y-38264250D01*
X27807457Y-37826750D01*
X27793445Y-37684489D01*
X27751949Y-37547695D01*
X27684563Y-37421624D01*
X27593877Y-37311123D01*
X27483376Y-37220437D01*
X27357305Y-37153051D01*
X27220511Y-37111555D01*
X27078250Y-37097543D01*
X26565750Y-37097543D01*
X26423489Y-37111555D01*
X26286695Y-37153051D01*
X26160624Y-37220437D01*
X26050123Y-37311123D01*
X26020679Y-37347000D01*
X23754829Y-37347000D01*
X23064457Y-36656629D01*
X23064457Y-36284000D01*
X23054649Y-36184415D01*
X23025601Y-36088657D01*
X22978429Y-36000405D01*
X22914948Y-35923052D01*
X22837595Y-35859571D01*
X22749343Y-35812399D01*
X22653585Y-35783351D01*
X22554000Y-35773543D01*
X21754000Y-35773543D01*
X21654415Y-35783351D01*
X21558657Y-35812399D01*
X21470405Y-35859571D01*
X21393052Y-35923052D01*
X21329571Y-36000405D01*
X21282399Y-36088657D01*
X21253351Y-36184415D01*
X21243543Y-36284000D01*
X21243543Y-37184000D01*
X21253351Y-37283585D01*
X21282399Y-37379343D01*
X21329571Y-37467595D01*
X21393052Y-37544948D01*
X21470405Y-37608429D01*
X21558657Y-37655601D01*
X21654415Y-37684649D01*
X21754000Y-37694457D01*
X22126629Y-37694457D01*
X22947333Y-38515162D01*
X22969197Y-38541803D01*
X22995837Y-38563666D01*
X22995845Y-38563674D01*
X23075556Y-38629091D01*
X23178591Y-38684164D01*
X23196903Y-38693952D01*
X23328570Y-38733893D01*
X23431191Y-38744000D01*
X23431201Y-38744000D01*
X23465499Y-38747378D01*
X23499797Y-38744000D01*
X26020679Y-38744000D01*
X26050123Y-38779877D01*
X26114853Y-38833000D01*
X26050123Y-38886123D01*
X25959437Y-38996624D01*
X25892051Y-39122695D01*
X25850555Y-39259489D01*
X25836543Y-39401750D01*
X25836543Y-39839250D01*
X25850555Y-39981511D01*
X25892051Y-40118305D01*
X25959437Y-40244376D01*
X26050123Y-40354877D01*
X26160624Y-40445563D01*
X26215001Y-40474628D01*
X26215000Y-40999429D01*
X26210060Y-41008672D01*
X26176033Y-41120844D01*
X26164543Y-41237500D01*
X26164543Y-43362500D01*
X26176033Y-43479156D01*
X26210060Y-43591328D01*
X26265317Y-43694707D01*
X26339681Y-43785319D01*
X26430293Y-43859683D01*
X26533672Y-43914940D01*
X26622877Y-43942000D01*
X24101828Y-43942000D01*
X22298673Y-42138846D01*
X22276803Y-42112197D01*
X22170443Y-42024909D01*
X22049097Y-41960048D01*
X21917430Y-41920107D01*
X21814809Y-41910000D01*
X21814798Y-41910000D01*
X21780500Y-41906622D01*
X21746202Y-41910000D01*
X20672828Y-41910000D01*
X19050000Y-40287173D01*
X19050000Y-37479105D01*
X19120289Y-37408816D01*
X19219659Y-37260099D01*
X19288106Y-37094854D01*
X19323000Y-36919430D01*
X19323000Y-36740570D01*
X19288106Y-36565146D01*
X19253148Y-36480750D01*
X19288106Y-36396354D01*
X19323000Y-36220930D01*
X19323000Y-36042070D01*
X19288106Y-35866646D01*
X19219659Y-35701401D01*
X19120289Y-35552684D01*
X18993816Y-35426211D01*
X18845099Y-35326841D01*
X18679854Y-35258394D01*
X18624457Y-35247375D01*
X18624457Y-34586000D01*
X18614649Y-34486415D01*
X18585601Y-34390657D01*
X18538429Y-34302405D01*
X18474948Y-34225052D01*
X18397595Y-34161571D01*
X18309343Y-34114399D01*
X18213585Y-34085351D01*
X18114000Y-34075543D01*
X17314000Y-34075543D01*
X17214415Y-34085351D01*
X17118657Y-34114399D01*
X17030405Y-34161571D01*
X16953052Y-34225052D01*
X16889571Y-34302405D01*
X16842399Y-34390657D01*
X16813351Y-34486415D01*
X16803543Y-34586000D01*
X16803543Y-34780896D01*
X16803093Y-34781445D01*
X16734801Y-34864658D01*
X16658147Y-35008067D01*
X16610945Y-35163674D01*
X16595006Y-35325500D01*
X16599001Y-35366060D01*
X16599000Y-36535446D01*
X16595006Y-36576000D01*
X16603543Y-36662680D01*
X16603543Y-36832250D01*
X16617555Y-36974511D01*
X16659051Y-37111305D01*
X16726437Y-37237376D01*
X16817123Y-37347877D01*
X16927624Y-37438563D01*
X17053695Y-37505949D01*
X17190489Y-37547445D01*
X17332750Y-37561457D01*
X17549129Y-37561457D01*
X17653000Y-37665328D01*
X17653001Y-39865832D01*
X17558628Y-39747229D01*
X17412810Y-39558183D01*
X17269877Y-39366974D01*
X17129887Y-39173680D01*
X16992772Y-38978208D01*
X16858634Y-38780702D01*
X16727537Y-38581256D01*
X16599485Y-38379884D01*
X16474437Y-38176516D01*
X16352476Y-37971281D01*
X16277998Y-37841529D01*
X16233617Y-37764209D01*
X16117915Y-37555394D01*
X16005456Y-37344998D01*
X15896079Y-37132716D01*
X15789946Y-36918857D01*
X15687094Y-36703503D01*
X15587473Y-36486548D01*
X15491168Y-36268174D01*
X15398112Y-36048231D01*
X15308461Y-35827085D01*
X15222111Y-35604485D01*
X15139141Y-35380625D01*
X15059576Y-35155576D01*
X14983421Y-34929360D01*
X14910697Y-34702042D01*
X14841382Y-34473538D01*
X14775576Y-34244192D01*
X14715936Y-34023834D01*
X14814771Y-33925000D01*
X16107665Y-33925000D01*
X16168657Y-33957601D01*
X16264415Y-33986649D01*
X16364000Y-33996457D01*
X17164000Y-33996457D01*
X17263585Y-33986649D01*
X17359343Y-33957601D01*
X17447595Y-33910429D01*
X17496905Y-33869962D01*
X18643442Y-33869962D01*
X18768695Y-33936911D01*
X18905489Y-33978407D01*
X19047750Y-33992419D01*
X19560250Y-33992419D01*
X19702511Y-33978407D01*
X19839305Y-33936911D01*
X19965376Y-33869525D01*
X20075877Y-33778839D01*
X20166563Y-33668338D01*
X20229425Y-33550731D01*
X20232555Y-33582511D01*
X20274051Y-33719305D01*
X20341437Y-33845376D01*
X20424118Y-33946123D01*
X20379571Y-34000405D01*
X20332399Y-34088657D01*
X20303351Y-34184415D01*
X20293543Y-34284000D01*
X20293543Y-35184000D01*
X20303351Y-35283585D01*
X20332399Y-35379343D01*
X20379571Y-35467595D01*
X20443052Y-35544948D01*
X20520405Y-35608429D01*
X20608657Y-35655601D01*
X20704415Y-35684649D01*
X20804000Y-35694457D01*
X21604000Y-35694457D01*
X21703585Y-35684649D01*
X21799343Y-35655601D01*
X21887595Y-35608429D01*
X21964948Y-35544948D01*
X22028429Y-35467595D01*
X22075601Y-35379343D01*
X22104649Y-35283585D01*
X22114457Y-35184000D01*
X22114457Y-34284000D01*
X22104649Y-34184415D01*
X22075601Y-34088657D01*
X22028429Y-34000405D01*
X21983882Y-33946123D01*
X22057434Y-33856500D01*
X22250566Y-33856500D01*
X22332123Y-33955877D01*
X22442624Y-34046563D01*
X22568695Y-34113949D01*
X22705489Y-34155445D01*
X22847750Y-34169457D01*
X23360250Y-34169457D01*
X23502511Y-34155445D01*
X23639305Y-34113949D01*
X23765376Y-34046563D01*
X23875877Y-33955877D01*
X23966563Y-33845376D01*
X24033949Y-33719305D01*
X24075445Y-33582511D01*
X24089457Y-33440250D01*
X24089457Y-33002750D01*
X24075445Y-32860489D01*
X24033949Y-32723695D01*
X23966563Y-32597624D01*
X23875877Y-32487123D01*
X23811147Y-32434000D01*
X23875877Y-32380877D01*
X23966563Y-32270376D01*
X24033949Y-32144305D01*
X24039067Y-32127432D01*
X29715000Y-37803365D01*
X29715001Y-40999429D01*
X29710060Y-41008672D01*
X29676033Y-41120844D01*
X29664543Y-41237500D01*
X29664543Y-43362500D01*
X29676033Y-43479156D01*
X29710060Y-43591328D01*
X29765317Y-43694707D01*
X29839681Y-43785319D01*
X29930293Y-43859683D01*
X30033672Y-43914940D01*
X30145844Y-43948967D01*
X30262500Y-43960457D01*
X30437500Y-43960457D01*
X30554156Y-43948967D01*
X30666328Y-43914940D01*
X30769707Y-43859683D01*
X30860319Y-43785319D01*
X30934683Y-43694707D01*
X30989940Y-43591328D01*
X31023967Y-43479156D01*
X31035457Y-43362500D01*
X31035457Y-41237500D01*
X31023967Y-41120844D01*
X30989940Y-41008672D01*
X30985000Y-40999430D01*
X30985000Y-38462696D01*
X31115000Y-38592696D01*
X31115001Y-40999429D01*
X31110060Y-41008672D01*
X31076033Y-41120844D01*
X31064543Y-41237500D01*
X31064543Y-43362500D01*
X31076033Y-43479156D01*
X31110060Y-43591328D01*
X31165317Y-43694707D01*
X31239681Y-43785319D01*
X31330293Y-43859683D01*
X31433672Y-43914940D01*
X31545844Y-43948967D01*
X31662500Y-43960457D01*
X31837500Y-43960457D01*
X31954156Y-43948967D01*
X32066328Y-43914940D01*
X32100000Y-43896942D01*
X32133672Y-43914940D01*
X32245844Y-43948967D01*
X32362500Y-43960457D01*
X32537500Y-43960457D01*
X32654156Y-43948967D01*
X32766328Y-43914940D01*
X32800000Y-43896942D01*
X32833672Y-43914940D01*
X32945844Y-43948967D01*
X33062500Y-43960457D01*
X33237500Y-43960457D01*
X33354156Y-43948967D01*
X33466328Y-43914940D01*
X33569707Y-43859683D01*
X33660319Y-43785319D01*
X33734683Y-43694707D01*
X33789940Y-43591328D01*
X33823967Y-43479156D01*
X33835457Y-43362500D01*
X33835457Y-41237500D01*
X33823967Y-41120844D01*
X33789940Y-41008672D01*
X33785000Y-40999430D01*
X33785000Y-38486108D01*
X33788071Y-38454927D01*
X33785000Y-38423746D01*
X33785000Y-38423736D01*
X33775812Y-38330446D01*
X33739502Y-38210748D01*
X33733407Y-38199346D01*
X33680537Y-38100433D01*
X33621068Y-38027971D01*
X33601185Y-38003743D01*
X33576956Y-37983859D01*
X25023000Y-29429904D01*
X25023000Y-28508316D01*
X25062278Y-28504448D01*
X25138000Y-28481478D01*
X25213722Y-28504448D01*
X25325500Y-28515457D01*
X25450500Y-28515457D01*
X25562278Y-28504448D01*
X25638000Y-28481478D01*
X25713722Y-28504448D01*
X25753001Y-28508317D01*
X25753001Y-28744309D01*
X25749929Y-28775500D01*
X25753001Y-28806691D01*
X25753001Y-28806692D01*
X25762189Y-28899982D01*
X25768911Y-28922140D01*
X25798498Y-29019679D01*
X25857463Y-29129993D01*
X25863469Y-29137311D01*
X25936816Y-29226685D01*
X25961045Y-29246569D01*
X26192543Y-29478068D01*
X26192543Y-29784250D01*
X26206555Y-29926511D01*
X26248051Y-30063305D01*
X26315437Y-30189376D01*
X26406123Y-30299877D01*
X26516624Y-30390563D01*
X26642695Y-30457949D01*
X26779489Y-30499445D01*
X26921750Y-30513457D01*
X27434250Y-30513457D01*
X27576511Y-30499445D01*
X27713305Y-30457949D01*
X27839376Y-30390563D01*
X27940000Y-30307983D01*
X28040624Y-30390563D01*
X28166695Y-30457949D01*
X28303489Y-30499445D01*
X28445750Y-30513457D01*
X28958250Y-30513457D01*
X29100511Y-30499445D01*
X29237305Y-30457949D01*
X29363376Y-30390563D01*
X29473877Y-30299877D01*
X29564563Y-30189376D01*
X29631949Y-30063305D01*
X29673445Y-29926511D01*
X29687457Y-29784250D01*
X29687457Y-29346750D01*
X29673445Y-29204489D01*
X29631949Y-29067695D01*
X29582529Y-28975236D01*
X29638606Y-28839854D01*
X29673500Y-28664430D01*
X29673500Y-28485570D01*
X29638606Y-28310146D01*
X29570159Y-28144901D01*
X29470789Y-27996184D01*
X29344316Y-27869711D01*
X29195599Y-27770341D01*
X29030354Y-27701894D01*
X28854930Y-27667000D01*
X28676070Y-27667000D01*
X28500646Y-27701894D01*
X28335401Y-27770341D01*
X28186684Y-27869711D01*
X28060211Y-27996184D01*
X28048394Y-28013870D01*
X28023000Y-27988476D01*
X28023000Y-27947140D01*
X28023457Y-27942500D01*
X28023457Y-27515457D01*
X28450500Y-27515457D01*
X28562278Y-27504448D01*
X28669761Y-27471843D01*
X28768818Y-27418896D01*
X28855642Y-27347642D01*
X28887409Y-27308933D01*
X30353000Y-28774525D01*
G36*
X36041434Y-22207460D02*
G01*
X36061315Y-22231685D01*
X36085539Y-22251565D01*
X36085543Y-22251569D01*
X36158006Y-22311038D01*
X36236259Y-22352865D01*
X36268320Y-22370002D01*
X36388018Y-22406312D01*
X36481308Y-22415500D01*
X36481311Y-22415500D01*
X36512500Y-22418572D01*
X36543689Y-22415500D01*
X37792843Y-22415500D01*
X37792843Y-22620500D01*
X37802651Y-22720085D01*
X37806569Y-22733000D01*
X37802651Y-22745915D01*
X37792843Y-22845500D01*
X37792843Y-23255500D01*
X37802651Y-23355085D01*
X37831699Y-23450843D01*
X37878871Y-23539095D01*
X37942352Y-23616448D01*
X38019705Y-23679929D01*
X38030128Y-23685500D01*
X38019705Y-23691071D01*
X37942352Y-23754552D01*
X37878871Y-23831905D01*
X37831699Y-23920157D01*
X37802651Y-24015915D01*
X37792843Y-24115500D01*
X37792843Y-24525500D01*
X37802651Y-24625085D01*
X37806569Y-24638000D01*
X37802651Y-24650915D01*
X37792843Y-24750500D01*
X37792843Y-25160500D01*
X37802651Y-25260085D01*
X37806569Y-25273000D01*
X37802651Y-25285915D01*
X37792843Y-25385500D01*
X37792843Y-25795500D01*
X37802651Y-25895085D01*
X37806569Y-25908000D01*
X37802651Y-25920915D01*
X37792843Y-26020500D01*
X37792843Y-26225500D01*
X37686680Y-26225500D01*
X37655499Y-26222429D01*
X37624318Y-26225500D01*
X37624308Y-26225500D01*
X37531018Y-26234688D01*
X37411320Y-26270998D01*
X37301006Y-26329963D01*
X37204315Y-26409315D01*
X37184430Y-26433545D01*
X36657050Y-26960926D01*
X36632815Y-26980815D01*
X36553463Y-27077507D01*
X36494498Y-27187821D01*
X36458188Y-27307519D01*
X36449000Y-27400809D01*
X36449000Y-27400819D01*
X36445929Y-27432000D01*
X36449000Y-27463181D01*
X36449001Y-29369309D01*
X36445929Y-29400500D01*
X36449001Y-29431691D01*
X36449001Y-29431692D01*
X36458189Y-29524982D01*
X36465854Y-29550250D01*
X36494498Y-29644679D01*
X36553463Y-29754993D01*
X36553464Y-29754994D01*
X36632816Y-29851685D01*
X36657046Y-29871570D01*
X37988930Y-31203455D01*
X38008815Y-31227685D01*
X38038497Y-31252044D01*
X38105506Y-31307038D01*
X38215820Y-31366002D01*
X38335518Y-31402312D01*
X38428808Y-31411500D01*
X38428811Y-31411500D01*
X38460000Y-31414572D01*
X38491189Y-31411500D01*
X40802566Y-31411500D01*
X40884123Y-31510877D01*
X40948853Y-31564000D01*
X40884123Y-31617123D01*
X40793437Y-31727624D01*
X40726051Y-31853695D01*
X40684555Y-31990489D01*
X40670543Y-32132750D01*
X40670543Y-32570250D01*
X40684555Y-32712511D01*
X40726051Y-32849305D01*
X40793437Y-32975376D01*
X40884123Y-33085877D01*
X40994624Y-33176563D01*
X41120695Y-33243949D01*
X41257489Y-33285445D01*
X41399750Y-33299457D01*
X41912250Y-33299457D01*
X42054511Y-33285445D01*
X42191305Y-33243949D01*
X42317376Y-33176563D01*
X42388815Y-33117934D01*
X42484624Y-33196563D01*
X42560090Y-33236900D01*
X42579921Y-33274000D01*
X42610353Y-33330932D01*
X42615464Y-33340494D01*
X42694816Y-33437185D01*
X42719045Y-33457069D01*
X42962929Y-33700954D01*
X42982815Y-33725185D01*
X43028281Y-33762498D01*
X43079507Y-33804538D01*
X43138748Y-33836203D01*
X43189820Y-33863502D01*
X43309518Y-33899812D01*
X43402808Y-33909000D01*
X43402811Y-33909000D01*
X43434000Y-33912072D01*
X43465189Y-33909000D01*
X44184099Y-33909000D01*
X44170932Y-33925044D01*
X44111463Y-33997507D01*
X44052498Y-34107821D01*
X44029264Y-34184415D01*
X44016189Y-34227518D01*
X44008646Y-34304106D01*
X44003929Y-34352000D01*
X44007001Y-34383191D01*
X44007000Y-35475982D01*
X43999438Y-35481035D01*
X43859035Y-35621438D01*
X43748722Y-35786533D01*
X43672737Y-35969977D01*
X43634000Y-36164721D01*
X43634000Y-36363279D01*
X43672737Y-36558023D01*
X43748722Y-36741467D01*
X43859035Y-36906562D01*
X43999438Y-37046965D01*
X44164533Y-37157278D01*
X44347977Y-37233263D01*
X44542721Y-37272000D01*
X44741279Y-37272000D01*
X44936023Y-37233263D01*
X45119467Y-37157278D01*
X45284562Y-37046965D01*
X45424965Y-36906562D01*
X45535278Y-36741467D01*
X45611263Y-36558023D01*
X45650000Y-36363279D01*
X45650000Y-36164721D01*
X45611263Y-35969977D01*
X45535278Y-35786533D01*
X45424965Y-35621438D01*
X45284562Y-35481035D01*
X45277000Y-35475982D01*
X45277000Y-34615024D01*
X46146957Y-33745068D01*
X46171185Y-33725185D01*
X46191074Y-33700950D01*
X46585714Y-33306311D01*
X46594511Y-33305445D01*
X46624360Y-33296390D01*
X46488727Y-34000122D01*
X46033829Y-35549362D01*
X45433726Y-37048347D01*
X44693853Y-38483500D01*
X43820910Y-39841826D01*
X42822803Y-41111022D01*
X41708571Y-42279595D01*
X40488304Y-43336963D01*
X40465957Y-43352876D01*
X40465957Y-41228500D01*
X40454467Y-41111844D01*
X40420440Y-40999672D01*
X40415500Y-40990430D01*
X40415500Y-39987349D01*
X40418572Y-39956160D01*
X40413236Y-39901981D01*
X40406312Y-39831678D01*
X40370002Y-39711980D01*
X40367767Y-39707798D01*
X40311038Y-39601666D01*
X40251569Y-39529203D01*
X40251565Y-39529199D01*
X40231685Y-39504975D01*
X40207462Y-39485096D01*
X33386825Y-32664457D01*
X33704250Y-32664457D01*
X33846511Y-32650445D01*
X33983305Y-32608949D01*
X34109376Y-32541563D01*
X34219877Y-32450877D01*
X34310563Y-32340376D01*
X34377949Y-32214305D01*
X34419445Y-32077511D01*
X34433457Y-31935250D01*
X34433457Y-31422750D01*
X34419445Y-31280489D01*
X34377949Y-31143695D01*
X34310563Y-31017624D01*
X34219877Y-30907123D01*
X34198887Y-30889897D01*
X34209877Y-30880877D01*
X34300563Y-30770376D01*
X34367949Y-30644305D01*
X34409445Y-30507511D01*
X34423457Y-30365250D01*
X34423457Y-29852750D01*
X34409445Y-29710489D01*
X34367949Y-29573695D01*
X34300563Y-29447624D01*
X34209877Y-29337123D01*
X34099376Y-29246437D01*
X33973305Y-29179051D01*
X33836511Y-29137555D01*
X33694250Y-29123543D01*
X33388068Y-29123543D01*
X33147000Y-28882476D01*
X33147000Y-28845957D01*
X34594700Y-28845957D01*
X34694285Y-28836149D01*
X34790043Y-28807101D01*
X34878295Y-28759929D01*
X34955648Y-28696448D01*
X35019129Y-28619095D01*
X35066301Y-28530843D01*
X35095349Y-28435085D01*
X35105157Y-28335500D01*
X35105157Y-27925500D01*
X35095349Y-27825915D01*
X35066301Y-27730157D01*
X35019129Y-27641905D01*
X34955648Y-27564552D01*
X34878295Y-27501071D01*
X34867872Y-27495500D01*
X34878295Y-27489929D01*
X34955648Y-27426448D01*
X35019129Y-27349095D01*
X35066301Y-27260843D01*
X35095349Y-27165085D01*
X35105157Y-27065500D01*
X35105157Y-26655500D01*
X35095349Y-26555915D01*
X35091431Y-26543000D01*
X35095349Y-26530085D01*
X35105157Y-26430500D01*
X35105157Y-26020500D01*
X35095349Y-25920915D01*
X35091431Y-25908000D01*
X35095349Y-25895085D01*
X35105157Y-25795500D01*
X35105157Y-25385500D01*
X35095349Y-25285915D01*
X35091431Y-25273000D01*
X35095349Y-25260085D01*
X35105157Y-25160500D01*
X35105157Y-24750500D01*
X35095349Y-24650915D01*
X35091431Y-24638000D01*
X35095349Y-24625085D01*
X35105157Y-24525500D01*
X35105157Y-24115500D01*
X35095349Y-24015915D01*
X35091431Y-24003000D01*
X35095349Y-23990085D01*
X35105157Y-23890500D01*
X35105157Y-23480500D01*
X35095349Y-23380915D01*
X35091431Y-23368000D01*
X35095349Y-23355085D01*
X35105157Y-23255500D01*
X35105157Y-22845500D01*
X35095349Y-22745915D01*
X35091431Y-22733000D01*
X35095349Y-22720085D01*
X35105157Y-22620500D01*
X35105157Y-22210500D01*
X35095349Y-22110915D01*
X35091431Y-22098000D01*
X35095349Y-22085085D01*
X35105157Y-21985500D01*
X35105157Y-21575500D01*
X35095349Y-21475915D01*
X35091431Y-21463000D01*
X35095349Y-21450085D01*
X35105157Y-21350500D01*
X35105157Y-21271182D01*
X36041434Y-22207460D01*
G37*
X36041434Y-22207460D02*
X36061315Y-22231685D01*
X36085539Y-22251565D01*
X36085543Y-22251569D01*
X36158006Y-22311038D01*
X36236259Y-22352865D01*
X36268320Y-22370002D01*
X36388018Y-22406312D01*
X36481308Y-22415500D01*
X36481311Y-22415500D01*
X36512500Y-22418572D01*
X36543689Y-22415500D01*
X37792843Y-22415500D01*
X37792843Y-22620500D01*
X37802651Y-22720085D01*
X37806569Y-22733000D01*
X37802651Y-22745915D01*
X37792843Y-22845500D01*
X37792843Y-23255500D01*
X37802651Y-23355085D01*
X37831699Y-23450843D01*
X37878871Y-23539095D01*
X37942352Y-23616448D01*
X38019705Y-23679929D01*
X38030128Y-23685500D01*
X38019705Y-23691071D01*
X37942352Y-23754552D01*
X37878871Y-23831905D01*
X37831699Y-23920157D01*
X37802651Y-24015915D01*
X37792843Y-24115500D01*
X37792843Y-24525500D01*
X37802651Y-24625085D01*
X37806569Y-24638000D01*
X37802651Y-24650915D01*
X37792843Y-24750500D01*
X37792843Y-25160500D01*
X37802651Y-25260085D01*
X37806569Y-25273000D01*
X37802651Y-25285915D01*
X37792843Y-25385500D01*
X37792843Y-25795500D01*
X37802651Y-25895085D01*
X37806569Y-25908000D01*
X37802651Y-25920915D01*
X37792843Y-26020500D01*
X37792843Y-26225500D01*
X37686680Y-26225500D01*
X37655499Y-26222429D01*
X37624318Y-26225500D01*
X37624308Y-26225500D01*
X37531018Y-26234688D01*
X37411320Y-26270998D01*
X37301006Y-26329963D01*
X37204315Y-26409315D01*
X37184430Y-26433545D01*
X36657050Y-26960926D01*
X36632815Y-26980815D01*
X36553463Y-27077507D01*
X36494498Y-27187821D01*
X36458188Y-27307519D01*
X36449000Y-27400809D01*
X36449000Y-27400819D01*
X36445929Y-27432000D01*
X36449000Y-27463181D01*
X36449001Y-29369309D01*
X36445929Y-29400500D01*
X36449001Y-29431691D01*
X36449001Y-29431692D01*
X36458189Y-29524982D01*
X36465854Y-29550250D01*
X36494498Y-29644679D01*
X36553463Y-29754993D01*
X36553464Y-29754994D01*
X36632816Y-29851685D01*
X36657046Y-29871570D01*
X37988930Y-31203455D01*
X38008815Y-31227685D01*
X38038497Y-31252044D01*
X38105506Y-31307038D01*
X38215820Y-31366002D01*
X38335518Y-31402312D01*
X38428808Y-31411500D01*
X38428811Y-31411500D01*
X38460000Y-31414572D01*
X38491189Y-31411500D01*
X40802566Y-31411500D01*
X40884123Y-31510877D01*
X40948853Y-31564000D01*
X40884123Y-31617123D01*
X40793437Y-31727624D01*
X40726051Y-31853695D01*
X40684555Y-31990489D01*
X40670543Y-32132750D01*
X40670543Y-32570250D01*
X40684555Y-32712511D01*
X40726051Y-32849305D01*
X40793437Y-32975376D01*
X40884123Y-33085877D01*
X40994624Y-33176563D01*
X41120695Y-33243949D01*
X41257489Y-33285445D01*
X41399750Y-33299457D01*
X41912250Y-33299457D01*
X42054511Y-33285445D01*
X42191305Y-33243949D01*
X42317376Y-33176563D01*
X42388815Y-33117934D01*
X42484624Y-33196563D01*
X42560090Y-33236900D01*
X42579921Y-33274000D01*
X42610353Y-33330932D01*
X42615464Y-33340494D01*
X42694816Y-33437185D01*
X42719045Y-33457069D01*
X42962929Y-33700954D01*
X42982815Y-33725185D01*
X43028281Y-33762498D01*
X43079507Y-33804538D01*
X43138748Y-33836203D01*
X43189820Y-33863502D01*
X43309518Y-33899812D01*
X43402808Y-33909000D01*
X43402811Y-33909000D01*
X43434000Y-33912072D01*
X43465189Y-33909000D01*
X44184099Y-33909000D01*
X44170932Y-33925044D01*
X44111463Y-33997507D01*
X44052498Y-34107821D01*
X44029264Y-34184415D01*
X44016189Y-34227518D01*
X44008646Y-34304106D01*
X44003929Y-34352000D01*
X44007001Y-34383191D01*
X44007000Y-35475982D01*
X43999438Y-35481035D01*
X43859035Y-35621438D01*
X43748722Y-35786533D01*
X43672737Y-35969977D01*
X43634000Y-36164721D01*
X43634000Y-36363279D01*
X43672737Y-36558023D01*
X43748722Y-36741467D01*
X43859035Y-36906562D01*
X43999438Y-37046965D01*
X44164533Y-37157278D01*
X44347977Y-37233263D01*
X44542721Y-37272000D01*
X44741279Y-37272000D01*
X44936023Y-37233263D01*
X45119467Y-37157278D01*
X45284562Y-37046965D01*
X45424965Y-36906562D01*
X45535278Y-36741467D01*
X45611263Y-36558023D01*
X45650000Y-36363279D01*
X45650000Y-36164721D01*
X45611263Y-35969977D01*
X45535278Y-35786533D01*
X45424965Y-35621438D01*
X45284562Y-35481035D01*
X45277000Y-35475982D01*
X45277000Y-34615024D01*
X46146957Y-33745068D01*
X46171185Y-33725185D01*
X46191074Y-33700950D01*
X46585714Y-33306311D01*
X46594511Y-33305445D01*
X46624360Y-33296390D01*
X46488727Y-34000122D01*
X46033829Y-35549362D01*
X45433726Y-37048347D01*
X44693853Y-38483500D01*
X43820910Y-39841826D01*
X42822803Y-41111022D01*
X41708571Y-42279595D01*
X40488304Y-43336963D01*
X40465957Y-43352876D01*
X40465957Y-41228500D01*
X40454467Y-41111844D01*
X40420440Y-40999672D01*
X40415500Y-40990430D01*
X40415500Y-39987349D01*
X40418572Y-39956160D01*
X40413236Y-39901981D01*
X40406312Y-39831678D01*
X40370002Y-39711980D01*
X40367767Y-39707798D01*
X40311038Y-39601666D01*
X40251569Y-39529203D01*
X40251565Y-39529199D01*
X40231685Y-39504975D01*
X40207462Y-39485096D01*
X33386825Y-32664457D01*
X33704250Y-32664457D01*
X33846511Y-32650445D01*
X33983305Y-32608949D01*
X34109376Y-32541563D01*
X34219877Y-32450877D01*
X34310563Y-32340376D01*
X34377949Y-32214305D01*
X34419445Y-32077511D01*
X34433457Y-31935250D01*
X34433457Y-31422750D01*
X34419445Y-31280489D01*
X34377949Y-31143695D01*
X34310563Y-31017624D01*
X34219877Y-30907123D01*
X34198887Y-30889897D01*
X34209877Y-30880877D01*
X34300563Y-30770376D01*
X34367949Y-30644305D01*
X34409445Y-30507511D01*
X34423457Y-30365250D01*
X34423457Y-29852750D01*
X34409445Y-29710489D01*
X34367949Y-29573695D01*
X34300563Y-29447624D01*
X34209877Y-29337123D01*
X34099376Y-29246437D01*
X33973305Y-29179051D01*
X33836511Y-29137555D01*
X33694250Y-29123543D01*
X33388068Y-29123543D01*
X33147000Y-28882476D01*
X33147000Y-28845957D01*
X34594700Y-28845957D01*
X34694285Y-28836149D01*
X34790043Y-28807101D01*
X34878295Y-28759929D01*
X34955648Y-28696448D01*
X35019129Y-28619095D01*
X35066301Y-28530843D01*
X35095349Y-28435085D01*
X35105157Y-28335500D01*
X35105157Y-27925500D01*
X35095349Y-27825915D01*
X35066301Y-27730157D01*
X35019129Y-27641905D01*
X34955648Y-27564552D01*
X34878295Y-27501071D01*
X34867872Y-27495500D01*
X34878295Y-27489929D01*
X34955648Y-27426448D01*
X35019129Y-27349095D01*
X35066301Y-27260843D01*
X35095349Y-27165085D01*
X35105157Y-27065500D01*
X35105157Y-26655500D01*
X35095349Y-26555915D01*
X35091431Y-26543000D01*
X35095349Y-26530085D01*
X35105157Y-26430500D01*
X35105157Y-26020500D01*
X35095349Y-25920915D01*
X35091431Y-25908000D01*
X35095349Y-25895085D01*
X35105157Y-25795500D01*
X35105157Y-25385500D01*
X35095349Y-25285915D01*
X35091431Y-25273000D01*
X35095349Y-25260085D01*
X35105157Y-25160500D01*
X35105157Y-24750500D01*
X35095349Y-24650915D01*
X35091431Y-24638000D01*
X35095349Y-24625085D01*
X35105157Y-24525500D01*
X35105157Y-24115500D01*
X35095349Y-24015915D01*
X35091431Y-24003000D01*
X35095349Y-23990085D01*
X35105157Y-23890500D01*
X35105157Y-23480500D01*
X35095349Y-23380915D01*
X35091431Y-23368000D01*
X35095349Y-23355085D01*
X35105157Y-23255500D01*
X35105157Y-22845500D01*
X35095349Y-22745915D01*
X35091431Y-22733000D01*
X35095349Y-22720085D01*
X35105157Y-22620500D01*
X35105157Y-22210500D01*
X35095349Y-22110915D01*
X35091431Y-22098000D01*
X35095349Y-22085085D01*
X35105157Y-21985500D01*
X35105157Y-21575500D01*
X35095349Y-21475915D01*
X35091431Y-21463000D01*
X35095349Y-21450085D01*
X35105157Y-21350500D01*
X35105157Y-21271182D01*
X36041434Y-22207460D01*
G36*
X44024624Y-30156563D02*
G01*
X44150695Y-30223949D01*
X44287489Y-30265445D01*
X44429750Y-30279457D01*
X44735933Y-30279457D01*
X45210543Y-30754068D01*
X45210543Y-31015250D01*
X45224555Y-31157511D01*
X45266051Y-31294305D01*
X45333437Y-31420376D01*
X45424123Y-31530877D01*
X45488853Y-31584000D01*
X45442093Y-31622376D01*
X45337376Y-31536437D01*
X45211305Y-31469051D01*
X45074511Y-31427555D01*
X44932250Y-31413543D01*
X44661068Y-31413543D01*
X44131457Y-30883932D01*
X44131457Y-30577750D01*
X44117445Y-30435489D01*
X44075949Y-30298695D01*
X44008563Y-30172624D01*
X43935058Y-30083058D01*
X44024624Y-30156563D01*
G37*
X44024624Y-30156563D02*
X44150695Y-30223949D01*
X44287489Y-30265445D01*
X44429750Y-30279457D01*
X44735933Y-30279457D01*
X45210543Y-30754068D01*
X45210543Y-31015250D01*
X45224555Y-31157511D01*
X45266051Y-31294305D01*
X45333437Y-31420376D01*
X45424123Y-31530877D01*
X45488853Y-31584000D01*
X45442093Y-31622376D01*
X45337376Y-31536437D01*
X45211305Y-31469051D01*
X45074511Y-31427555D01*
X44932250Y-31413543D01*
X44661068Y-31413543D01*
X44131457Y-30883932D01*
X44131457Y-30577750D01*
X44117445Y-30435489D01*
X44075949Y-30298695D01*
X44008563Y-30172624D01*
X43935058Y-30083058D01*
X44024624Y-30156563D01*
G36*
X40670543Y-27700068D02*
G01*
X40670543Y-28006250D01*
X40684555Y-28148511D01*
X40726051Y-28285305D01*
X40793437Y-28411376D01*
X40884123Y-28521877D01*
X40994624Y-28612563D01*
X41120695Y-28679949D01*
X41257489Y-28721445D01*
X41399750Y-28735457D01*
X41912250Y-28735457D01*
X42054511Y-28721445D01*
X42191305Y-28679949D01*
X42317376Y-28612563D01*
X42427877Y-28521877D01*
X42432432Y-28516327D01*
X42518624Y-28587063D01*
X42644695Y-28654449D01*
X42781489Y-28695945D01*
X42923750Y-28709957D01*
X43436250Y-28709957D01*
X43578511Y-28695945D01*
X43715305Y-28654449D01*
X43841376Y-28587063D01*
X43936351Y-28509119D01*
X43978853Y-28544000D01*
X43914123Y-28597123D01*
X43823437Y-28707624D01*
X43756051Y-28833695D01*
X43714555Y-28970489D01*
X43700543Y-29112750D01*
X43700543Y-29550250D01*
X43714555Y-29692511D01*
X43756051Y-29829305D01*
X43823437Y-29955376D01*
X43896942Y-30044942D01*
X43807376Y-29971437D01*
X43681305Y-29904051D01*
X43544511Y-29862555D01*
X43402250Y-29848543D01*
X42889750Y-29848543D01*
X42747489Y-29862555D01*
X42610695Y-29904051D01*
X42484624Y-29971437D01*
X42413185Y-30030066D01*
X42317376Y-29951437D01*
X42191305Y-29884051D01*
X42054511Y-29842555D01*
X41912250Y-29828543D01*
X41399750Y-29828543D01*
X41257489Y-29842555D01*
X41120695Y-29884051D01*
X40994624Y-29951437D01*
X40884123Y-30042123D01*
X40802566Y-30141500D01*
X38723025Y-30141500D01*
X37719000Y-29137476D01*
X37719000Y-27695024D01*
X37792843Y-27621181D01*
X37792843Y-27700500D01*
X37802651Y-27800085D01*
X37806569Y-27813000D01*
X37802651Y-27825915D01*
X37792843Y-27925500D01*
X37792843Y-28335500D01*
X37802651Y-28435085D01*
X37831699Y-28530843D01*
X37878871Y-28619095D01*
X37942352Y-28696448D01*
X38019705Y-28759929D01*
X38107957Y-28807101D01*
X38203715Y-28836149D01*
X38303300Y-28845957D01*
X39903300Y-28845957D01*
X40002885Y-28836149D01*
X40098643Y-28807101D01*
X40186895Y-28759929D01*
X40264248Y-28696448D01*
X40327729Y-28619095D01*
X40374901Y-28530843D01*
X40403949Y-28435085D01*
X40413757Y-28335500D01*
X40413757Y-27925500D01*
X40403949Y-27825915D01*
X40400031Y-27813000D01*
X40403949Y-27800085D01*
X40413757Y-27700500D01*
X40413757Y-27443282D01*
X40670543Y-27700068D01*
G37*
X40670543Y-27700068D02*
X40670543Y-28006250D01*
X40684555Y-28148511D01*
X40726051Y-28285305D01*
X40793437Y-28411376D01*
X40884123Y-28521877D01*
X40994624Y-28612563D01*
X41120695Y-28679949D01*
X41257489Y-28721445D01*
X41399750Y-28735457D01*
X41912250Y-28735457D01*
X42054511Y-28721445D01*
X42191305Y-28679949D01*
X42317376Y-28612563D01*
X42427877Y-28521877D01*
X42432432Y-28516327D01*
X42518624Y-28587063D01*
X42644695Y-28654449D01*
X42781489Y-28695945D01*
X42923750Y-28709957D01*
X43436250Y-28709957D01*
X43578511Y-28695945D01*
X43715305Y-28654449D01*
X43841376Y-28587063D01*
X43936351Y-28509119D01*
X43978853Y-28544000D01*
X43914123Y-28597123D01*
X43823437Y-28707624D01*
X43756051Y-28833695D01*
X43714555Y-28970489D01*
X43700543Y-29112750D01*
X43700543Y-29550250D01*
X43714555Y-29692511D01*
X43756051Y-29829305D01*
X43823437Y-29955376D01*
X43896942Y-30044942D01*
X43807376Y-29971437D01*
X43681305Y-29904051D01*
X43544511Y-29862555D01*
X43402250Y-29848543D01*
X42889750Y-29848543D01*
X42747489Y-29862555D01*
X42610695Y-29904051D01*
X42484624Y-29971437D01*
X42413185Y-30030066D01*
X42317376Y-29951437D01*
X42191305Y-29884051D01*
X42054511Y-29842555D01*
X41912250Y-29828543D01*
X41399750Y-29828543D01*
X41257489Y-29842555D01*
X41120695Y-29884051D01*
X40994624Y-29951437D01*
X40884123Y-30042123D01*
X40802566Y-30141500D01*
X38723025Y-30141500D01*
X37719000Y-29137476D01*
X37719000Y-27695024D01*
X37792843Y-27621181D01*
X37792843Y-27700500D01*
X37802651Y-27800085D01*
X37806569Y-27813000D01*
X37802651Y-27825915D01*
X37792843Y-27925500D01*
X37792843Y-28335500D01*
X37802651Y-28435085D01*
X37831699Y-28530843D01*
X37878871Y-28619095D01*
X37942352Y-28696448D01*
X38019705Y-28759929D01*
X38107957Y-28807101D01*
X38203715Y-28836149D01*
X38303300Y-28845957D01*
X39903300Y-28845957D01*
X40002885Y-28836149D01*
X40098643Y-28807101D01*
X40186895Y-28759929D01*
X40264248Y-28696448D01*
X40327729Y-28619095D01*
X40374901Y-28530843D01*
X40403949Y-28435085D01*
X40413757Y-28335500D01*
X40413757Y-27925500D01*
X40403949Y-27825915D01*
X40400031Y-27813000D01*
X40403949Y-27800085D01*
X40413757Y-27700500D01*
X40413757Y-27443282D01*
X40670543Y-27700068D01*
G36*
X42899624Y-26377563D02*
G01*
X43025695Y-26444949D01*
X43162489Y-26486445D01*
X43304750Y-26500457D01*
X43817250Y-26500457D01*
X43959511Y-26486445D01*
X44096305Y-26444949D01*
X44222376Y-26377563D01*
X44323000Y-26294983D01*
X44423624Y-26377563D01*
X44549695Y-26444949D01*
X44686489Y-26486445D01*
X44828750Y-26500457D01*
X45341250Y-26500457D01*
X45483511Y-26486445D01*
X45575630Y-26458501D01*
X45670901Y-26522159D01*
X45836146Y-26590606D01*
X46011570Y-26625500D01*
X46190430Y-26625500D01*
X46365854Y-26590606D01*
X46531099Y-26522159D01*
X46582738Y-26487655D01*
X46794300Y-27585344D01*
X46884555Y-28530535D01*
X46867376Y-28516437D01*
X46741305Y-28449051D01*
X46604511Y-28407555D01*
X46462250Y-28393543D01*
X45949750Y-28393543D01*
X45807489Y-28407555D01*
X45670695Y-28449051D01*
X45544624Y-28516437D01*
X45452093Y-28592376D01*
X45393147Y-28544000D01*
X45457877Y-28490877D01*
X45548563Y-28380376D01*
X45615949Y-28254305D01*
X45657445Y-28117511D01*
X45671457Y-27975250D01*
X45671457Y-27537750D01*
X45657445Y-27395489D01*
X45615949Y-27258695D01*
X45548563Y-27132624D01*
X45457877Y-27022123D01*
X45347376Y-26931437D01*
X45221305Y-26864051D01*
X45084511Y-26822555D01*
X44942250Y-26808543D01*
X44429750Y-26808543D01*
X44287489Y-26822555D01*
X44150695Y-26864051D01*
X44024624Y-26931437D01*
X43929649Y-27009381D01*
X43841376Y-26936937D01*
X43715305Y-26869551D01*
X43578511Y-26828055D01*
X43436250Y-26814043D01*
X42923750Y-26814043D01*
X42781489Y-26828055D01*
X42644695Y-26869551D01*
X42518624Y-26936937D01*
X42408123Y-27027623D01*
X42403568Y-27033173D01*
X42317376Y-26962437D01*
X42191305Y-26895051D01*
X42054511Y-26853555D01*
X41912250Y-26839543D01*
X41606068Y-26839543D01*
X41055525Y-26289000D01*
X42791710Y-26289000D01*
X42899624Y-26377563D01*
G37*
X42899624Y-26377563D02*
X43025695Y-26444949D01*
X43162489Y-26486445D01*
X43304750Y-26500457D01*
X43817250Y-26500457D01*
X43959511Y-26486445D01*
X44096305Y-26444949D01*
X44222376Y-26377563D01*
X44323000Y-26294983D01*
X44423624Y-26377563D01*
X44549695Y-26444949D01*
X44686489Y-26486445D01*
X44828750Y-26500457D01*
X45341250Y-26500457D01*
X45483511Y-26486445D01*
X45575630Y-26458501D01*
X45670901Y-26522159D01*
X45836146Y-26590606D01*
X46011570Y-26625500D01*
X46190430Y-26625500D01*
X46365854Y-26590606D01*
X46531099Y-26522159D01*
X46582738Y-26487655D01*
X46794300Y-27585344D01*
X46884555Y-28530535D01*
X46867376Y-28516437D01*
X46741305Y-28449051D01*
X46604511Y-28407555D01*
X46462250Y-28393543D01*
X45949750Y-28393543D01*
X45807489Y-28407555D01*
X45670695Y-28449051D01*
X45544624Y-28516437D01*
X45452093Y-28592376D01*
X45393147Y-28544000D01*
X45457877Y-28490877D01*
X45548563Y-28380376D01*
X45615949Y-28254305D01*
X45657445Y-28117511D01*
X45671457Y-27975250D01*
X45671457Y-27537750D01*
X45657445Y-27395489D01*
X45615949Y-27258695D01*
X45548563Y-27132624D01*
X45457877Y-27022123D01*
X45347376Y-26931437D01*
X45221305Y-26864051D01*
X45084511Y-26822555D01*
X44942250Y-26808543D01*
X44429750Y-26808543D01*
X44287489Y-26822555D01*
X44150695Y-26864051D01*
X44024624Y-26931437D01*
X43929649Y-27009381D01*
X43841376Y-26936937D01*
X43715305Y-26869551D01*
X43578511Y-26828055D01*
X43436250Y-26814043D01*
X42923750Y-26814043D01*
X42781489Y-26828055D01*
X42644695Y-26869551D01*
X42518624Y-26936937D01*
X42408123Y-27027623D01*
X42403568Y-27033173D01*
X42317376Y-26962437D01*
X42191305Y-26895051D01*
X42054511Y-26853555D01*
X41912250Y-26839543D01*
X41606068Y-26839543D01*
X41055525Y-26289000D01*
X42791710Y-26289000D01*
X42899624Y-26377563D01*
G36*
X31612816Y-13109828D02*
G01*
X33211026Y-13339616D01*
X34780156Y-13720283D01*
X36305997Y-14248381D01*
X37774729Y-14919129D01*
X37818747Y-14944543D01*
X37797750Y-14944543D01*
X37655489Y-14958555D01*
X37518695Y-15000051D01*
X37392624Y-15067437D01*
X37347339Y-15104601D01*
X37287595Y-15055571D01*
X37199343Y-15008399D01*
X37103585Y-14979351D01*
X37004000Y-14969543D01*
X35854000Y-14969543D01*
X35754415Y-14979351D01*
X35658657Y-15008399D01*
X35570405Y-15055571D01*
X35493052Y-15119052D01*
X35429571Y-15196405D01*
X35382399Y-15284657D01*
X35353351Y-15380415D01*
X35343543Y-15480000D01*
X35343543Y-16378362D01*
X35254000Y-16369543D01*
X34104000Y-16369543D01*
X34004415Y-16379351D01*
X33908657Y-16408399D01*
X33820405Y-16455571D01*
X33743052Y-16519052D01*
X33679571Y-16596405D01*
X33668390Y-16617323D01*
X33589305Y-16575051D01*
X33452511Y-16533555D01*
X33310250Y-16519543D01*
X32797750Y-16519543D01*
X32655489Y-16533555D01*
X32518695Y-16575051D01*
X32392624Y-16642437D01*
X32282123Y-16733123D01*
X32191437Y-16843624D01*
X32124051Y-16969695D01*
X32082555Y-17106489D01*
X32068543Y-17248750D01*
X32068543Y-17686250D01*
X32082555Y-17828511D01*
X32124051Y-17965305D01*
X32191437Y-18091376D01*
X32282123Y-18201877D01*
X32392624Y-18292563D01*
X32518695Y-18359949D01*
X32655489Y-18401445D01*
X32797750Y-18415457D01*
X33310250Y-18415457D01*
X33452511Y-18401445D01*
X33589305Y-18359949D01*
X33715376Y-18292563D01*
X33760661Y-18255399D01*
X33820405Y-18304429D01*
X33908657Y-18351601D01*
X33964035Y-18368400D01*
X33947437Y-18388624D01*
X33880051Y-18514695D01*
X33838555Y-18651489D01*
X33824543Y-18793750D01*
X33824543Y-19306250D01*
X33838555Y-19448511D01*
X33880051Y-19585305D01*
X33947437Y-19711376D01*
X34038123Y-19821877D01*
X34137500Y-19903434D01*
X34137500Y-20009318D01*
X34134429Y-20040500D01*
X34137500Y-20071681D01*
X34137500Y-20071691D01*
X34146688Y-20164981D01*
X34182998Y-20284679D01*
X34241963Y-20394993D01*
X34270727Y-20430043D01*
X32994700Y-20430043D01*
X32895115Y-20439851D01*
X32799357Y-20468899D01*
X32711105Y-20516071D01*
X32633752Y-20579552D01*
X32570271Y-20656905D01*
X32523099Y-20745157D01*
X32494051Y-20840915D01*
X32484243Y-20940500D01*
X32484243Y-21350500D01*
X32494051Y-21450085D01*
X32497969Y-21463000D01*
X32494051Y-21475915D01*
X32484243Y-21575500D01*
X32484243Y-21985500D01*
X32494051Y-22085085D01*
X32497969Y-22098000D01*
X32494051Y-22110915D01*
X32484243Y-22210500D01*
X32484243Y-22620500D01*
X32494051Y-22720085D01*
X32497969Y-22733000D01*
X32494051Y-22745915D01*
X32484243Y-22845500D01*
X32484243Y-23255500D01*
X32494051Y-23355085D01*
X32497969Y-23368000D01*
X32494051Y-23380915D01*
X32484243Y-23480500D01*
X32484243Y-23890500D01*
X32494051Y-23990085D01*
X32497969Y-24003000D01*
X32494051Y-24015915D01*
X32484243Y-24115500D01*
X32484243Y-24320500D01*
X30298525Y-24320500D01*
X29937875Y-23959851D01*
X29917986Y-23935616D01*
X29821295Y-23856264D01*
X29710981Y-23797299D01*
X29591283Y-23760989D01*
X29497993Y-23751801D01*
X29497982Y-23751801D01*
X29466801Y-23748730D01*
X29435620Y-23751801D01*
X29016986Y-23751801D01*
X29012448Y-23705722D01*
X28989478Y-23630000D01*
X29012448Y-23554278D01*
X29023457Y-23442500D01*
X29023457Y-23317500D01*
X29012448Y-23205722D01*
X28989478Y-23130000D01*
X29012448Y-23054278D01*
X29016316Y-23015000D01*
X29991473Y-23015000D01*
X30091438Y-23114965D01*
X30256533Y-23225278D01*
X30439977Y-23301263D01*
X30634721Y-23340000D01*
X30833279Y-23340000D01*
X31028023Y-23301263D01*
X31211467Y-23225278D01*
X31376562Y-23114965D01*
X31516965Y-22974562D01*
X31627278Y-22809467D01*
X31703263Y-22626023D01*
X31742000Y-22431279D01*
X31742000Y-22232721D01*
X31703263Y-22037977D01*
X31627278Y-21854533D01*
X31528700Y-21707000D01*
X31627278Y-21559467D01*
X31703263Y-21376023D01*
X31742000Y-21181279D01*
X31742000Y-20982721D01*
X31703263Y-20787977D01*
X31640772Y-20637110D01*
X31658429Y-20615595D01*
X31705601Y-20527343D01*
X31734649Y-20431585D01*
X31744457Y-20332000D01*
X31744457Y-19332000D01*
X31734649Y-19232415D01*
X31705601Y-19136657D01*
X31658429Y-19048405D01*
X31594948Y-18971052D01*
X31517595Y-18907571D01*
X31429343Y-18860399D01*
X31333585Y-18831351D01*
X31234000Y-18821543D01*
X30711371Y-18821543D01*
X30114673Y-18224846D01*
X30092803Y-18198197D01*
X29986443Y-18110909D01*
X29865097Y-18046048D01*
X29733430Y-18006107D01*
X29630809Y-17996000D01*
X29630798Y-17996000D01*
X29596500Y-17992622D01*
X29562202Y-17996000D01*
X28868321Y-17996000D01*
X28838877Y-17960123D01*
X28728376Y-17869437D01*
X28602305Y-17802051D01*
X28465511Y-17760555D01*
X28323250Y-17746543D01*
X27810750Y-17746543D01*
X27668489Y-17760555D01*
X27531695Y-17802051D01*
X27454149Y-17843500D01*
X27430785Y-17843500D01*
X27315854Y-17795894D01*
X27140430Y-17761000D01*
X26961570Y-17761000D01*
X26786146Y-17795894D01*
X26620901Y-17864341D01*
X26472184Y-17963711D01*
X26345711Y-18090184D01*
X26246341Y-18238901D01*
X26177894Y-18404146D01*
X26143000Y-18579570D01*
X26143000Y-18758430D01*
X26177894Y-18933854D01*
X26246341Y-19099099D01*
X26345711Y-19247816D01*
X26472184Y-19374289D01*
X26620901Y-19473659D01*
X26786146Y-19542106D01*
X26961570Y-19577000D01*
X27022976Y-19577000D01*
X26961045Y-19638931D01*
X26936816Y-19658815D01*
X26866460Y-19744543D01*
X26825500Y-19744543D01*
X26713722Y-19755552D01*
X26638000Y-19778522D01*
X26562278Y-19755552D01*
X26450500Y-19744543D01*
X26325500Y-19744543D01*
X26213722Y-19755552D01*
X26138000Y-19778522D01*
X26062278Y-19755552D01*
X25950500Y-19744543D01*
X25825500Y-19744543D01*
X25713722Y-19755552D01*
X25638000Y-19778522D01*
X25562278Y-19755552D01*
X25450500Y-19744543D01*
X25325500Y-19744543D01*
X25213722Y-19755552D01*
X25138000Y-19778522D01*
X25062278Y-19755552D01*
X24950500Y-19744543D01*
X24825500Y-19744543D01*
X24713722Y-19755552D01*
X24638000Y-19778522D01*
X24562278Y-19755552D01*
X24511000Y-19750502D01*
X24511000Y-19533661D01*
X24537376Y-19519563D01*
X24647877Y-19428877D01*
X24738563Y-19318376D01*
X24805949Y-19192305D01*
X24847445Y-19055511D01*
X24861457Y-18913250D01*
X24861457Y-18475750D01*
X24847445Y-18333489D01*
X24805949Y-18196695D01*
X24738563Y-18070624D01*
X24647877Y-17960123D01*
X24537376Y-17869437D01*
X24411305Y-17802051D01*
X24274511Y-17760555D01*
X24132250Y-17746543D01*
X23619750Y-17746543D01*
X23477489Y-17760555D01*
X23340695Y-17802051D01*
X23214624Y-17869437D01*
X23104123Y-17960123D01*
X23013437Y-18070624D01*
X22946051Y-18196695D01*
X22904555Y-18333489D01*
X22890543Y-18475750D01*
X22890543Y-18913250D01*
X22904555Y-19055511D01*
X22946051Y-19192305D01*
X23013437Y-19318376D01*
X23104123Y-19428877D01*
X23214624Y-19519563D01*
X23241000Y-19533661D01*
X23241001Y-19752865D01*
X23213722Y-19755552D01*
X23138000Y-19778522D01*
X23062278Y-19755552D01*
X22950500Y-19744543D01*
X22825500Y-19744543D01*
X22713722Y-19755552D01*
X22606239Y-19788157D01*
X22523000Y-19832649D01*
X22523000Y-19505099D01*
X22615877Y-19428877D01*
X22706563Y-19318376D01*
X22773949Y-19192305D01*
X22815445Y-19055511D01*
X22829457Y-18913250D01*
X22829457Y-18475750D01*
X22815445Y-18333489D01*
X22773949Y-18196695D01*
X22706563Y-18070624D01*
X22615877Y-17960123D01*
X22505376Y-17869437D01*
X22379305Y-17802051D01*
X22242511Y-17760555D01*
X22100250Y-17746543D01*
X21587750Y-17746543D01*
X21445489Y-17760555D01*
X21308695Y-17802051D01*
X21194070Y-17863319D01*
X21092854Y-17821394D01*
X20917430Y-17786500D01*
X20738570Y-17786500D01*
X20563146Y-17821394D01*
X20397901Y-17889841D01*
X20249184Y-17989211D01*
X20122711Y-18115684D01*
X20023341Y-18264401D01*
X19954894Y-18429646D01*
X19920000Y-18605070D01*
X19920000Y-18783930D01*
X19954894Y-18959354D01*
X20023341Y-19124599D01*
X20122711Y-19273316D01*
X20249184Y-19399789D01*
X20397901Y-19499159D01*
X20563146Y-19567606D01*
X20738570Y-19602500D01*
X20917430Y-19602500D01*
X21092854Y-19567606D01*
X21194070Y-19525681D01*
X21253001Y-19557180D01*
X21253000Y-20312858D01*
X21252543Y-20317500D01*
X21252543Y-20744543D01*
X21146983Y-20744543D01*
X21117792Y-20735688D01*
X21024502Y-20726500D01*
X20411434Y-20726500D01*
X20329877Y-20627123D01*
X20219376Y-20536437D01*
X20093305Y-20469051D01*
X19956511Y-20427555D01*
X19814250Y-20413543D01*
X19301750Y-20413543D01*
X19159489Y-20427555D01*
X19022695Y-20469051D01*
X18897442Y-20536000D01*
X18852072Y-20536000D01*
X18845099Y-20531341D01*
X18679854Y-20462894D01*
X18504430Y-20428000D01*
X18325570Y-20428000D01*
X18150146Y-20462894D01*
X17984901Y-20531341D01*
X17836184Y-20630711D01*
X17709711Y-20757184D01*
X17610341Y-20905901D01*
X17541894Y-21071146D01*
X17507000Y-21246570D01*
X17507000Y-21425430D01*
X17541894Y-21600854D01*
X17610341Y-21766099D01*
X17709711Y-21914816D01*
X17836184Y-22041289D01*
X17984901Y-22140659D01*
X18150146Y-22209106D01*
X18325570Y-22244000D01*
X18504430Y-22244000D01*
X18679854Y-22209106D01*
X18733222Y-22187000D01*
X18897442Y-22187000D01*
X18910310Y-22193878D01*
X18910311Y-27032672D01*
X18904095Y-27027571D01*
X18815843Y-26980399D01*
X18720085Y-26951351D01*
X18620500Y-26941543D01*
X17763889Y-26941543D01*
X17819448Y-26895948D01*
X17882929Y-26818595D01*
X17930101Y-26730343D01*
X17959149Y-26634585D01*
X17968957Y-26535000D01*
X17968957Y-25535000D01*
X17959149Y-25435415D01*
X17930101Y-25339657D01*
X17882929Y-25251405D01*
X17819448Y-25174052D01*
X17742095Y-25110571D01*
X17653843Y-25063399D01*
X17558085Y-25034351D01*
X17458500Y-25024543D01*
X16958500Y-25024543D01*
X16858915Y-25034351D01*
X16763157Y-25063399D01*
X16674905Y-25110571D01*
X16597552Y-25174052D01*
X16534071Y-25251405D01*
X16486899Y-25339657D01*
X16457851Y-25435415D01*
X16448043Y-25535000D01*
X16448043Y-26336778D01*
X16312938Y-26280816D01*
X16127855Y-26244000D01*
X15939145Y-26244000D01*
X15754062Y-26280816D01*
X15618957Y-26336778D01*
X15618957Y-25535000D01*
X15609149Y-25435415D01*
X15580101Y-25339657D01*
X15532929Y-25251405D01*
X15469448Y-25174052D01*
X15392095Y-25110571D01*
X15303843Y-25063399D01*
X15208085Y-25034351D01*
X15108500Y-25024543D01*
X14998939Y-25024543D01*
X15059580Y-24844414D01*
X15139136Y-24619392D01*
X15222099Y-24395552D01*
X15308447Y-24172954D01*
X15398118Y-23951758D01*
X15491157Y-23731852D01*
X15587467Y-23513464D01*
X15687086Y-23296514D01*
X15789937Y-23081162D01*
X15896073Y-22867296D01*
X16005440Y-22655033D01*
X16117918Y-22444603D01*
X16233674Y-22235689D01*
X16352444Y-22028776D01*
X16474463Y-21823444D01*
X16599445Y-21620180D01*
X16727558Y-21418711D01*
X16858658Y-21219261D01*
X16992782Y-21021775D01*
X17129875Y-20826336D01*
X17269842Y-20633074D01*
X17412800Y-20441830D01*
X17558632Y-20252766D01*
X17707276Y-20065959D01*
X17858656Y-19881502D01*
X18012872Y-19699273D01*
X18169856Y-19519355D01*
X18329458Y-19341918D01*
X18491798Y-19166833D01*
X18656681Y-18994302D01*
X18699366Y-18950968D01*
X18737516Y-18919659D01*
X18765356Y-18885736D01*
X18996745Y-18654347D01*
X19166835Y-18491795D01*
X19341870Y-18329502D01*
X19519336Y-18169872D01*
X19699292Y-18012855D01*
X19881491Y-17858666D01*
X20066012Y-17707233D01*
X20252787Y-17558614D01*
X20441766Y-17412847D01*
X20633040Y-17269867D01*
X20826341Y-17129871D01*
X21021782Y-16992777D01*
X21219239Y-16858671D01*
X21279344Y-16819164D01*
X21418742Y-16727537D01*
X21442710Y-16712296D01*
X21620175Y-16599448D01*
X21823478Y-16474441D01*
X22028785Y-16352437D01*
X22235713Y-16233660D01*
X22444571Y-16117935D01*
X22655060Y-16005426D01*
X22867223Y-15896109D01*
X23081106Y-15789963D01*
X23296541Y-15687072D01*
X23513459Y-15587469D01*
X23731856Y-15491154D01*
X23951704Y-15398138D01*
X24172958Y-15308444D01*
X24395519Y-15222110D01*
X24619347Y-15139151D01*
X24844443Y-15059568D01*
X25070566Y-14983445D01*
X25298032Y-14910674D01*
X25526414Y-14841395D01*
X25755865Y-14775560D01*
X25986305Y-14713192D01*
X26217709Y-14654300D01*
X26449803Y-14598950D01*
X26682865Y-14547075D01*
X26916582Y-14498749D01*
X27151013Y-14453955D01*
X27386250Y-14412680D01*
X27567158Y-14383746D01*
X27574541Y-14401571D01*
X27713527Y-14609578D01*
X27890422Y-14786473D01*
X28098429Y-14925459D01*
X28329555Y-15021195D01*
X28574916Y-15070000D01*
X28825084Y-15070000D01*
X29070445Y-15021195D01*
X29301571Y-14925459D01*
X29509578Y-14786473D01*
X29686473Y-14609578D01*
X29825459Y-14401571D01*
X29921195Y-14170445D01*
X29970000Y-13925084D01*
X29970000Y-13674916D01*
X29921195Y-13429555D01*
X29825459Y-13198429D01*
X29723717Y-13046161D01*
X30000000Y-13033000D01*
X31612816Y-13109828D01*
G37*
X31612816Y-13109828D02*
X33211026Y-13339616D01*
X34780156Y-13720283D01*
X36305997Y-14248381D01*
X37774729Y-14919129D01*
X37818747Y-14944543D01*
X37797750Y-14944543D01*
X37655489Y-14958555D01*
X37518695Y-15000051D01*
X37392624Y-15067437D01*
X37347339Y-15104601D01*
X37287595Y-15055571D01*
X37199343Y-15008399D01*
X37103585Y-14979351D01*
X37004000Y-14969543D01*
X35854000Y-14969543D01*
X35754415Y-14979351D01*
X35658657Y-15008399D01*
X35570405Y-15055571D01*
X35493052Y-15119052D01*
X35429571Y-15196405D01*
X35382399Y-15284657D01*
X35353351Y-15380415D01*
X35343543Y-15480000D01*
X35343543Y-16378362D01*
X35254000Y-16369543D01*
X34104000Y-16369543D01*
X34004415Y-16379351D01*
X33908657Y-16408399D01*
X33820405Y-16455571D01*
X33743052Y-16519052D01*
X33679571Y-16596405D01*
X33668390Y-16617323D01*
X33589305Y-16575051D01*
X33452511Y-16533555D01*
X33310250Y-16519543D01*
X32797750Y-16519543D01*
X32655489Y-16533555D01*
X32518695Y-16575051D01*
X32392624Y-16642437D01*
X32282123Y-16733123D01*
X32191437Y-16843624D01*
X32124051Y-16969695D01*
X32082555Y-17106489D01*
X32068543Y-17248750D01*
X32068543Y-17686250D01*
X32082555Y-17828511D01*
X32124051Y-17965305D01*
X32191437Y-18091376D01*
X32282123Y-18201877D01*
X32392624Y-18292563D01*
X32518695Y-18359949D01*
X32655489Y-18401445D01*
X32797750Y-18415457D01*
X33310250Y-18415457D01*
X33452511Y-18401445D01*
X33589305Y-18359949D01*
X33715376Y-18292563D01*
X33760661Y-18255399D01*
X33820405Y-18304429D01*
X33908657Y-18351601D01*
X33964035Y-18368400D01*
X33947437Y-18388624D01*
X33880051Y-18514695D01*
X33838555Y-18651489D01*
X33824543Y-18793750D01*
X33824543Y-19306250D01*
X33838555Y-19448511D01*
X33880051Y-19585305D01*
X33947437Y-19711376D01*
X34038123Y-19821877D01*
X34137500Y-19903434D01*
X34137500Y-20009318D01*
X34134429Y-20040500D01*
X34137500Y-20071681D01*
X34137500Y-20071691D01*
X34146688Y-20164981D01*
X34182998Y-20284679D01*
X34241963Y-20394993D01*
X34270727Y-20430043D01*
X32994700Y-20430043D01*
X32895115Y-20439851D01*
X32799357Y-20468899D01*
X32711105Y-20516071D01*
X32633752Y-20579552D01*
X32570271Y-20656905D01*
X32523099Y-20745157D01*
X32494051Y-20840915D01*
X32484243Y-20940500D01*
X32484243Y-21350500D01*
X32494051Y-21450085D01*
X32497969Y-21463000D01*
X32494051Y-21475915D01*
X32484243Y-21575500D01*
X32484243Y-21985500D01*
X32494051Y-22085085D01*
X32497969Y-22098000D01*
X32494051Y-22110915D01*
X32484243Y-22210500D01*
X32484243Y-22620500D01*
X32494051Y-22720085D01*
X32497969Y-22733000D01*
X32494051Y-22745915D01*
X32484243Y-22845500D01*
X32484243Y-23255500D01*
X32494051Y-23355085D01*
X32497969Y-23368000D01*
X32494051Y-23380915D01*
X32484243Y-23480500D01*
X32484243Y-23890500D01*
X32494051Y-23990085D01*
X32497969Y-24003000D01*
X32494051Y-24015915D01*
X32484243Y-24115500D01*
X32484243Y-24320500D01*
X30298525Y-24320500D01*
X29937875Y-23959851D01*
X29917986Y-23935616D01*
X29821295Y-23856264D01*
X29710981Y-23797299D01*
X29591283Y-23760989D01*
X29497993Y-23751801D01*
X29497982Y-23751801D01*
X29466801Y-23748730D01*
X29435620Y-23751801D01*
X29016986Y-23751801D01*
X29012448Y-23705722D01*
X28989478Y-23630000D01*
X29012448Y-23554278D01*
X29023457Y-23442500D01*
X29023457Y-23317500D01*
X29012448Y-23205722D01*
X28989478Y-23130000D01*
X29012448Y-23054278D01*
X29016316Y-23015000D01*
X29991473Y-23015000D01*
X30091438Y-23114965D01*
X30256533Y-23225278D01*
X30439977Y-23301263D01*
X30634721Y-23340000D01*
X30833279Y-23340000D01*
X31028023Y-23301263D01*
X31211467Y-23225278D01*
X31376562Y-23114965D01*
X31516965Y-22974562D01*
X31627278Y-22809467D01*
X31703263Y-22626023D01*
X31742000Y-22431279D01*
X31742000Y-22232721D01*
X31703263Y-22037977D01*
X31627278Y-21854533D01*
X31528700Y-21707000D01*
X31627278Y-21559467D01*
X31703263Y-21376023D01*
X31742000Y-21181279D01*
X31742000Y-20982721D01*
X31703263Y-20787977D01*
X31640772Y-20637110D01*
X31658429Y-20615595D01*
X31705601Y-20527343D01*
X31734649Y-20431585D01*
X31744457Y-20332000D01*
X31744457Y-19332000D01*
X31734649Y-19232415D01*
X31705601Y-19136657D01*
X31658429Y-19048405D01*
X31594948Y-18971052D01*
X31517595Y-18907571D01*
X31429343Y-18860399D01*
X31333585Y-18831351D01*
X31234000Y-18821543D01*
X30711371Y-18821543D01*
X30114673Y-18224846D01*
X30092803Y-18198197D01*
X29986443Y-18110909D01*
X29865097Y-18046048D01*
X29733430Y-18006107D01*
X29630809Y-17996000D01*
X29630798Y-17996000D01*
X29596500Y-17992622D01*
X29562202Y-17996000D01*
X28868321Y-17996000D01*
X28838877Y-17960123D01*
X28728376Y-17869437D01*
X28602305Y-17802051D01*
X28465511Y-17760555D01*
X28323250Y-17746543D01*
X27810750Y-17746543D01*
X27668489Y-17760555D01*
X27531695Y-17802051D01*
X27454149Y-17843500D01*
X27430785Y-17843500D01*
X27315854Y-17795894D01*
X27140430Y-17761000D01*
X26961570Y-17761000D01*
X26786146Y-17795894D01*
X26620901Y-17864341D01*
X26472184Y-17963711D01*
X26345711Y-18090184D01*
X26246341Y-18238901D01*
X26177894Y-18404146D01*
X26143000Y-18579570D01*
X26143000Y-18758430D01*
X26177894Y-18933854D01*
X26246341Y-19099099D01*
X26345711Y-19247816D01*
X26472184Y-19374289D01*
X26620901Y-19473659D01*
X26786146Y-19542106D01*
X26961570Y-19577000D01*
X27022976Y-19577000D01*
X26961045Y-19638931D01*
X26936816Y-19658815D01*
X26866460Y-19744543D01*
X26825500Y-19744543D01*
X26713722Y-19755552D01*
X26638000Y-19778522D01*
X26562278Y-19755552D01*
X26450500Y-19744543D01*
X26325500Y-19744543D01*
X26213722Y-19755552D01*
X26138000Y-19778522D01*
X26062278Y-19755552D01*
X25950500Y-19744543D01*
X25825500Y-19744543D01*
X25713722Y-19755552D01*
X25638000Y-19778522D01*
X25562278Y-19755552D01*
X25450500Y-19744543D01*
X25325500Y-19744543D01*
X25213722Y-19755552D01*
X25138000Y-19778522D01*
X25062278Y-19755552D01*
X24950500Y-19744543D01*
X24825500Y-19744543D01*
X24713722Y-19755552D01*
X24638000Y-19778522D01*
X24562278Y-19755552D01*
X24511000Y-19750502D01*
X24511000Y-19533661D01*
X24537376Y-19519563D01*
X24647877Y-19428877D01*
X24738563Y-19318376D01*
X24805949Y-19192305D01*
X24847445Y-19055511D01*
X24861457Y-18913250D01*
X24861457Y-18475750D01*
X24847445Y-18333489D01*
X24805949Y-18196695D01*
X24738563Y-18070624D01*
X24647877Y-17960123D01*
X24537376Y-17869437D01*
X24411305Y-17802051D01*
X24274511Y-17760555D01*
X24132250Y-17746543D01*
X23619750Y-17746543D01*
X23477489Y-17760555D01*
X23340695Y-17802051D01*
X23214624Y-17869437D01*
X23104123Y-17960123D01*
X23013437Y-18070624D01*
X22946051Y-18196695D01*
X22904555Y-18333489D01*
X22890543Y-18475750D01*
X22890543Y-18913250D01*
X22904555Y-19055511D01*
X22946051Y-19192305D01*
X23013437Y-19318376D01*
X23104123Y-19428877D01*
X23214624Y-19519563D01*
X23241000Y-19533661D01*
X23241001Y-19752865D01*
X23213722Y-19755552D01*
X23138000Y-19778522D01*
X23062278Y-19755552D01*
X22950500Y-19744543D01*
X22825500Y-19744543D01*
X22713722Y-19755552D01*
X22606239Y-19788157D01*
X22523000Y-19832649D01*
X22523000Y-19505099D01*
X22615877Y-19428877D01*
X22706563Y-19318376D01*
X22773949Y-19192305D01*
X22815445Y-19055511D01*
X22829457Y-18913250D01*
X22829457Y-18475750D01*
X22815445Y-18333489D01*
X22773949Y-18196695D01*
X22706563Y-18070624D01*
X22615877Y-17960123D01*
X22505376Y-17869437D01*
X22379305Y-17802051D01*
X22242511Y-17760555D01*
X22100250Y-17746543D01*
X21587750Y-17746543D01*
X21445489Y-17760555D01*
X21308695Y-17802051D01*
X21194070Y-17863319D01*
X21092854Y-17821394D01*
X20917430Y-17786500D01*
X20738570Y-17786500D01*
X20563146Y-17821394D01*
X20397901Y-17889841D01*
X20249184Y-17989211D01*
X20122711Y-18115684D01*
X20023341Y-18264401D01*
X19954894Y-18429646D01*
X19920000Y-18605070D01*
X19920000Y-18783930D01*
X19954894Y-18959354D01*
X20023341Y-19124599D01*
X20122711Y-19273316D01*
X20249184Y-19399789D01*
X20397901Y-19499159D01*
X20563146Y-19567606D01*
X20738570Y-19602500D01*
X20917430Y-19602500D01*
X21092854Y-19567606D01*
X21194070Y-19525681D01*
X21253001Y-19557180D01*
X21253000Y-20312858D01*
X21252543Y-20317500D01*
X21252543Y-20744543D01*
X21146983Y-20744543D01*
X21117792Y-20735688D01*
X21024502Y-20726500D01*
X20411434Y-20726500D01*
X20329877Y-20627123D01*
X20219376Y-20536437D01*
X20093305Y-20469051D01*
X19956511Y-20427555D01*
X19814250Y-20413543D01*
X19301750Y-20413543D01*
X19159489Y-20427555D01*
X19022695Y-20469051D01*
X18897442Y-20536000D01*
X18852072Y-20536000D01*
X18845099Y-20531341D01*
X18679854Y-20462894D01*
X18504430Y-20428000D01*
X18325570Y-20428000D01*
X18150146Y-20462894D01*
X17984901Y-20531341D01*
X17836184Y-20630711D01*
X17709711Y-20757184D01*
X17610341Y-20905901D01*
X17541894Y-21071146D01*
X17507000Y-21246570D01*
X17507000Y-21425430D01*
X17541894Y-21600854D01*
X17610341Y-21766099D01*
X17709711Y-21914816D01*
X17836184Y-22041289D01*
X17984901Y-22140659D01*
X18150146Y-22209106D01*
X18325570Y-22244000D01*
X18504430Y-22244000D01*
X18679854Y-22209106D01*
X18733222Y-22187000D01*
X18897442Y-22187000D01*
X18910310Y-22193878D01*
X18910311Y-27032672D01*
X18904095Y-27027571D01*
X18815843Y-26980399D01*
X18720085Y-26951351D01*
X18620500Y-26941543D01*
X17763889Y-26941543D01*
X17819448Y-26895948D01*
X17882929Y-26818595D01*
X17930101Y-26730343D01*
X17959149Y-26634585D01*
X17968957Y-26535000D01*
X17968957Y-25535000D01*
X17959149Y-25435415D01*
X17930101Y-25339657D01*
X17882929Y-25251405D01*
X17819448Y-25174052D01*
X17742095Y-25110571D01*
X17653843Y-25063399D01*
X17558085Y-25034351D01*
X17458500Y-25024543D01*
X16958500Y-25024543D01*
X16858915Y-25034351D01*
X16763157Y-25063399D01*
X16674905Y-25110571D01*
X16597552Y-25174052D01*
X16534071Y-25251405D01*
X16486899Y-25339657D01*
X16457851Y-25435415D01*
X16448043Y-25535000D01*
X16448043Y-26336778D01*
X16312938Y-26280816D01*
X16127855Y-26244000D01*
X15939145Y-26244000D01*
X15754062Y-26280816D01*
X15618957Y-26336778D01*
X15618957Y-25535000D01*
X15609149Y-25435415D01*
X15580101Y-25339657D01*
X15532929Y-25251405D01*
X15469448Y-25174052D01*
X15392095Y-25110571D01*
X15303843Y-25063399D01*
X15208085Y-25034351D01*
X15108500Y-25024543D01*
X14998939Y-25024543D01*
X15059580Y-24844414D01*
X15139136Y-24619392D01*
X15222099Y-24395552D01*
X15308447Y-24172954D01*
X15398118Y-23951758D01*
X15491157Y-23731852D01*
X15587467Y-23513464D01*
X15687086Y-23296514D01*
X15789937Y-23081162D01*
X15896073Y-22867296D01*
X16005440Y-22655033D01*
X16117918Y-22444603D01*
X16233674Y-22235689D01*
X16352444Y-22028776D01*
X16474463Y-21823444D01*
X16599445Y-21620180D01*
X16727558Y-21418711D01*
X16858658Y-21219261D01*
X16992782Y-21021775D01*
X17129875Y-20826336D01*
X17269842Y-20633074D01*
X17412800Y-20441830D01*
X17558632Y-20252766D01*
X17707276Y-20065959D01*
X17858656Y-19881502D01*
X18012872Y-19699273D01*
X18169856Y-19519355D01*
X18329458Y-19341918D01*
X18491798Y-19166833D01*
X18656681Y-18994302D01*
X18699366Y-18950968D01*
X18737516Y-18919659D01*
X18765356Y-18885736D01*
X18996745Y-18654347D01*
X19166835Y-18491795D01*
X19341870Y-18329502D01*
X19519336Y-18169872D01*
X19699292Y-18012855D01*
X19881491Y-17858666D01*
X20066012Y-17707233D01*
X20252787Y-17558614D01*
X20441766Y-17412847D01*
X20633040Y-17269867D01*
X20826341Y-17129871D01*
X21021782Y-16992777D01*
X21219239Y-16858671D01*
X21279344Y-16819164D01*
X21418742Y-16727537D01*
X21442710Y-16712296D01*
X21620175Y-16599448D01*
X21823478Y-16474441D01*
X22028785Y-16352437D01*
X22235713Y-16233660D01*
X22444571Y-16117935D01*
X22655060Y-16005426D01*
X22867223Y-15896109D01*
X23081106Y-15789963D01*
X23296541Y-15687072D01*
X23513459Y-15587469D01*
X23731856Y-15491154D01*
X23951704Y-15398138D01*
X24172958Y-15308444D01*
X24395519Y-15222110D01*
X24619347Y-15139151D01*
X24844443Y-15059568D01*
X25070566Y-14983445D01*
X25298032Y-14910674D01*
X25526414Y-14841395D01*
X25755865Y-14775560D01*
X25986305Y-14713192D01*
X26217709Y-14654300D01*
X26449803Y-14598950D01*
X26682865Y-14547075D01*
X26916582Y-14498749D01*
X27151013Y-14453955D01*
X27386250Y-14412680D01*
X27567158Y-14383746D01*
X27574541Y-14401571D01*
X27713527Y-14609578D01*
X27890422Y-14786473D01*
X28098429Y-14925459D01*
X28329555Y-15021195D01*
X28574916Y-15070000D01*
X28825084Y-15070000D01*
X29070445Y-15021195D01*
X29301571Y-14925459D01*
X29509578Y-14786473D01*
X29686473Y-14609578D01*
X29825459Y-14401571D01*
X29921195Y-14170445D01*
X29970000Y-13925084D01*
X29970000Y-13674916D01*
X29921195Y-13429555D01*
X29825459Y-13198429D01*
X29723717Y-13046161D01*
X30000000Y-13033000D01*
X31612816Y-13109828D01*
G36*
X22420358Y-21472642D02*
G01*
X22507182Y-21543896D01*
X22606239Y-21596843D01*
X22713722Y-21629448D01*
X22825500Y-21640457D01*
X22950500Y-21640457D01*
X23062278Y-21629448D01*
X23138000Y-21606478D01*
X23213722Y-21629448D01*
X23325500Y-21640457D01*
X23450500Y-21640457D01*
X23562278Y-21629448D01*
X23638000Y-21606478D01*
X23713722Y-21629448D01*
X23825500Y-21640457D01*
X23950500Y-21640457D01*
X24062278Y-21629448D01*
X24138000Y-21606478D01*
X24213722Y-21629448D01*
X24325500Y-21640457D01*
X24450500Y-21640457D01*
X24562278Y-21629448D01*
X24638000Y-21606478D01*
X24713722Y-21629448D01*
X24825500Y-21640457D01*
X24950500Y-21640457D01*
X25062278Y-21629448D01*
X25138000Y-21606478D01*
X25213722Y-21629448D01*
X25325500Y-21640457D01*
X25450500Y-21640457D01*
X25562278Y-21629448D01*
X25638000Y-21606478D01*
X25713722Y-21629448D01*
X25825500Y-21640457D01*
X25950500Y-21640457D01*
X26062278Y-21629448D01*
X26138000Y-21606478D01*
X26213722Y-21629448D01*
X26325500Y-21640457D01*
X26450500Y-21640457D01*
X26562278Y-21629448D01*
X26638000Y-21606478D01*
X26713722Y-21629448D01*
X26825500Y-21640457D01*
X26950500Y-21640457D01*
X27062278Y-21629448D01*
X27138000Y-21606478D01*
X27156048Y-21611952D01*
X27171157Y-21661761D01*
X27224104Y-21760818D01*
X27295358Y-21847642D01*
X27334787Y-21880000D01*
X27295358Y-21912358D01*
X27224104Y-21999182D01*
X27171157Y-22098239D01*
X27138552Y-22205722D01*
X27127543Y-22317500D01*
X27127543Y-22442500D01*
X27138552Y-22554278D01*
X27161522Y-22630000D01*
X27138552Y-22705722D01*
X27127543Y-22817500D01*
X27127543Y-22942500D01*
X27138552Y-23054278D01*
X27161522Y-23130000D01*
X27138552Y-23205722D01*
X27127543Y-23317500D01*
X27127543Y-23442500D01*
X27138552Y-23554278D01*
X27161522Y-23630000D01*
X27138552Y-23705722D01*
X27127543Y-23817500D01*
X27127543Y-23942500D01*
X27138552Y-24054278D01*
X27161522Y-24130000D01*
X27138552Y-24205722D01*
X27127543Y-24317500D01*
X27127543Y-24442500D01*
X27138552Y-24554278D01*
X27161522Y-24630000D01*
X27138552Y-24705722D01*
X27127543Y-24817500D01*
X27127543Y-24942500D01*
X27138552Y-25054278D01*
X27161522Y-25130000D01*
X27138552Y-25205722D01*
X27127543Y-25317500D01*
X27127543Y-25442500D01*
X27138552Y-25554278D01*
X27161522Y-25630000D01*
X27138552Y-25705722D01*
X27127543Y-25817500D01*
X27127543Y-25942500D01*
X27138552Y-26054278D01*
X27161522Y-26130000D01*
X27138552Y-26205722D01*
X27127543Y-26317500D01*
X27127543Y-26442500D01*
X27138552Y-26554278D01*
X27161522Y-26630000D01*
X27156048Y-26648048D01*
X27106239Y-26663157D01*
X27007182Y-26716104D01*
X26920358Y-26787358D01*
X26888000Y-26826787D01*
X26855642Y-26787358D01*
X26768818Y-26716104D01*
X26669761Y-26663157D01*
X26562278Y-26630552D01*
X26450500Y-26619543D01*
X26325500Y-26619543D01*
X26213722Y-26630552D01*
X26138000Y-26653522D01*
X26062278Y-26630552D01*
X25950500Y-26619543D01*
X25825500Y-26619543D01*
X25713722Y-26630552D01*
X25638000Y-26653522D01*
X25562278Y-26630552D01*
X25450500Y-26619543D01*
X25325500Y-26619543D01*
X25213722Y-26630552D01*
X25138000Y-26653522D01*
X25062278Y-26630552D01*
X24950500Y-26619543D01*
X24825500Y-26619543D01*
X24713722Y-26630552D01*
X24638000Y-26653522D01*
X24562278Y-26630552D01*
X24450500Y-26619543D01*
X24325500Y-26619543D01*
X24213722Y-26630552D01*
X24138000Y-26653522D01*
X24062278Y-26630552D01*
X23950500Y-26619543D01*
X23825500Y-26619543D01*
X23713722Y-26630552D01*
X23638000Y-26653522D01*
X23562278Y-26630552D01*
X23450500Y-26619543D01*
X23325500Y-26619543D01*
X23213722Y-26630552D01*
X23138000Y-26653522D01*
X23062278Y-26630552D01*
X22950500Y-26619543D01*
X22825500Y-26619543D01*
X22713722Y-26630552D01*
X22638000Y-26653522D01*
X22562278Y-26630552D01*
X22450500Y-26619543D01*
X22325500Y-26619543D01*
X22213722Y-26630552D01*
X22138000Y-26653522D01*
X22119952Y-26648048D01*
X22114478Y-26630000D01*
X22137448Y-26554278D01*
X22148457Y-26442500D01*
X22148457Y-26317500D01*
X22137448Y-26205722D01*
X22114478Y-26130000D01*
X22137448Y-26054278D01*
X22148457Y-25942500D01*
X22148457Y-25817500D01*
X22137448Y-25705722D01*
X22114478Y-25630000D01*
X22137448Y-25554278D01*
X22148457Y-25442500D01*
X22148457Y-25317500D01*
X22137448Y-25205722D01*
X22104843Y-25098239D01*
X22051896Y-24999182D01*
X21980642Y-24912358D01*
X21941213Y-24880000D01*
X21980642Y-24847642D01*
X22051896Y-24760818D01*
X22104843Y-24661761D01*
X22137448Y-24554278D01*
X22148457Y-24442500D01*
X22148457Y-24317500D01*
X22137448Y-24205722D01*
X22114478Y-24130000D01*
X22137448Y-24054278D01*
X22148457Y-23942500D01*
X22148457Y-23817500D01*
X22137448Y-23705722D01*
X22114478Y-23630000D01*
X22137448Y-23554278D01*
X22148457Y-23442500D01*
X22148457Y-23317500D01*
X22137448Y-23205722D01*
X22114478Y-23130000D01*
X22137448Y-23054278D01*
X22148457Y-22942500D01*
X22148457Y-22817500D01*
X22137448Y-22705722D01*
X22114478Y-22630000D01*
X22137448Y-22554278D01*
X22148457Y-22442500D01*
X22148457Y-22317500D01*
X22137448Y-22205722D01*
X22114478Y-22130000D01*
X22137448Y-22054278D01*
X22148457Y-21942500D01*
X22148457Y-21817500D01*
X22137448Y-21705722D01*
X22114478Y-21630000D01*
X22119952Y-21611952D01*
X22169761Y-21596843D01*
X22268818Y-21543896D01*
X22355642Y-21472642D01*
X22388000Y-21433213D01*
X22420358Y-21472642D01*
G37*
X22420358Y-21472642D02*
X22507182Y-21543896D01*
X22606239Y-21596843D01*
X22713722Y-21629448D01*
X22825500Y-21640457D01*
X22950500Y-21640457D01*
X23062278Y-21629448D01*
X23138000Y-21606478D01*
X23213722Y-21629448D01*
X23325500Y-21640457D01*
X23450500Y-21640457D01*
X23562278Y-21629448D01*
X23638000Y-21606478D01*
X23713722Y-21629448D01*
X23825500Y-21640457D01*
X23950500Y-21640457D01*
X24062278Y-21629448D01*
X24138000Y-21606478D01*
X24213722Y-21629448D01*
X24325500Y-21640457D01*
X24450500Y-21640457D01*
X24562278Y-21629448D01*
X24638000Y-21606478D01*
X24713722Y-21629448D01*
X24825500Y-21640457D01*
X24950500Y-21640457D01*
X25062278Y-21629448D01*
X25138000Y-21606478D01*
X25213722Y-21629448D01*
X25325500Y-21640457D01*
X25450500Y-21640457D01*
X25562278Y-21629448D01*
X25638000Y-21606478D01*
X25713722Y-21629448D01*
X25825500Y-21640457D01*
X25950500Y-21640457D01*
X26062278Y-21629448D01*
X26138000Y-21606478D01*
X26213722Y-21629448D01*
X26325500Y-21640457D01*
X26450500Y-21640457D01*
X26562278Y-21629448D01*
X26638000Y-21606478D01*
X26713722Y-21629448D01*
X26825500Y-21640457D01*
X26950500Y-21640457D01*
X27062278Y-21629448D01*
X27138000Y-21606478D01*
X27156048Y-21611952D01*
X27171157Y-21661761D01*
X27224104Y-21760818D01*
X27295358Y-21847642D01*
X27334787Y-21880000D01*
X27295358Y-21912358D01*
X27224104Y-21999182D01*
X27171157Y-22098239D01*
X27138552Y-22205722D01*
X27127543Y-22317500D01*
X27127543Y-22442500D01*
X27138552Y-22554278D01*
X27161522Y-22630000D01*
X27138552Y-22705722D01*
X27127543Y-22817500D01*
X27127543Y-22942500D01*
X27138552Y-23054278D01*
X27161522Y-23130000D01*
X27138552Y-23205722D01*
X27127543Y-23317500D01*
X27127543Y-23442500D01*
X27138552Y-23554278D01*
X27161522Y-23630000D01*
X27138552Y-23705722D01*
X27127543Y-23817500D01*
X27127543Y-23942500D01*
X27138552Y-24054278D01*
X27161522Y-24130000D01*
X27138552Y-24205722D01*
X27127543Y-24317500D01*
X27127543Y-24442500D01*
X27138552Y-24554278D01*
X27161522Y-24630000D01*
X27138552Y-24705722D01*
X27127543Y-24817500D01*
X27127543Y-24942500D01*
X27138552Y-25054278D01*
X27161522Y-25130000D01*
X27138552Y-25205722D01*
X27127543Y-25317500D01*
X27127543Y-25442500D01*
X27138552Y-25554278D01*
X27161522Y-25630000D01*
X27138552Y-25705722D01*
X27127543Y-25817500D01*
X27127543Y-25942500D01*
X27138552Y-26054278D01*
X27161522Y-26130000D01*
X27138552Y-26205722D01*
X27127543Y-26317500D01*
X27127543Y-26442500D01*
X27138552Y-26554278D01*
X27161522Y-26630000D01*
X27156048Y-26648048D01*
X27106239Y-26663157D01*
X27007182Y-26716104D01*
X26920358Y-26787358D01*
X26888000Y-26826787D01*
X26855642Y-26787358D01*
X26768818Y-26716104D01*
X26669761Y-26663157D01*
X26562278Y-26630552D01*
X26450500Y-26619543D01*
X26325500Y-26619543D01*
X26213722Y-26630552D01*
X26138000Y-26653522D01*
X26062278Y-26630552D01*
X25950500Y-26619543D01*
X25825500Y-26619543D01*
X25713722Y-26630552D01*
X25638000Y-26653522D01*
X25562278Y-26630552D01*
X25450500Y-26619543D01*
X25325500Y-26619543D01*
X25213722Y-26630552D01*
X25138000Y-26653522D01*
X25062278Y-26630552D01*
X24950500Y-26619543D01*
X24825500Y-26619543D01*
X24713722Y-26630552D01*
X24638000Y-26653522D01*
X24562278Y-26630552D01*
X24450500Y-26619543D01*
X24325500Y-26619543D01*
X24213722Y-26630552D01*
X24138000Y-26653522D01*
X24062278Y-26630552D01*
X23950500Y-26619543D01*
X23825500Y-26619543D01*
X23713722Y-26630552D01*
X23638000Y-26653522D01*
X23562278Y-26630552D01*
X23450500Y-26619543D01*
X23325500Y-26619543D01*
X23213722Y-26630552D01*
X23138000Y-26653522D01*
X23062278Y-26630552D01*
X22950500Y-26619543D01*
X22825500Y-26619543D01*
X22713722Y-26630552D01*
X22638000Y-26653522D01*
X22562278Y-26630552D01*
X22450500Y-26619543D01*
X22325500Y-26619543D01*
X22213722Y-26630552D01*
X22138000Y-26653522D01*
X22119952Y-26648048D01*
X22114478Y-26630000D01*
X22137448Y-26554278D01*
X22148457Y-26442500D01*
X22148457Y-26317500D01*
X22137448Y-26205722D01*
X22114478Y-26130000D01*
X22137448Y-26054278D01*
X22148457Y-25942500D01*
X22148457Y-25817500D01*
X22137448Y-25705722D01*
X22114478Y-25630000D01*
X22137448Y-25554278D01*
X22148457Y-25442500D01*
X22148457Y-25317500D01*
X22137448Y-25205722D01*
X22104843Y-25098239D01*
X22051896Y-24999182D01*
X21980642Y-24912358D01*
X21941213Y-24880000D01*
X21980642Y-24847642D01*
X22051896Y-24760818D01*
X22104843Y-24661761D01*
X22137448Y-24554278D01*
X22148457Y-24442500D01*
X22148457Y-24317500D01*
X22137448Y-24205722D01*
X22114478Y-24130000D01*
X22137448Y-24054278D01*
X22148457Y-23942500D01*
X22148457Y-23817500D01*
X22137448Y-23705722D01*
X22114478Y-23630000D01*
X22137448Y-23554278D01*
X22148457Y-23442500D01*
X22148457Y-23317500D01*
X22137448Y-23205722D01*
X22114478Y-23130000D01*
X22137448Y-23054278D01*
X22148457Y-22942500D01*
X22148457Y-22817500D01*
X22137448Y-22705722D01*
X22114478Y-22630000D01*
X22137448Y-22554278D01*
X22148457Y-22442500D01*
X22148457Y-22317500D01*
X22137448Y-22205722D01*
X22114478Y-22130000D01*
X22137448Y-22054278D01*
X22148457Y-21942500D01*
X22148457Y-21817500D01*
X22137448Y-21705722D01*
X22114478Y-21630000D01*
X22119952Y-21611952D01*
X22169761Y-21596843D01*
X22268818Y-21543896D01*
X22355642Y-21472642D01*
X22388000Y-21433213D01*
X22420358Y-21472642D01*
G36*
X45433726Y-22951653D02*
G01*
X45897858Y-24111000D01*
X45821070Y-24111000D01*
X45645646Y-24145894D01*
X45480401Y-24214341D01*
X45331684Y-24313711D01*
X45205211Y-24440184D01*
X45105841Y-24588901D01*
X45099362Y-24604543D01*
X44828750Y-24604543D01*
X44686489Y-24618555D01*
X44549695Y-24660051D01*
X44423624Y-24727437D01*
X44323000Y-24810017D01*
X44222376Y-24727437D01*
X44096305Y-24660051D01*
X43959511Y-24618555D01*
X43817250Y-24604543D01*
X43304750Y-24604543D01*
X43162489Y-24618555D01*
X43025695Y-24660051D01*
X42899624Y-24727437D01*
X42789123Y-24818123D01*
X42728494Y-24892000D01*
X41000718Y-24892000D01*
X42566390Y-23326329D01*
X42694330Y-23338930D01*
X42836591Y-23324918D01*
X42973385Y-23283422D01*
X43099456Y-23216036D01*
X43209957Y-23125350D01*
X43572350Y-22762957D01*
X43663036Y-22652456D01*
X43730422Y-22526385D01*
X43771918Y-22389591D01*
X43779151Y-22316151D01*
X43852591Y-22308918D01*
X43989385Y-22267422D01*
X44115456Y-22200036D01*
X44225957Y-22109350D01*
X44588350Y-21746957D01*
X44679036Y-21636456D01*
X44718058Y-21563451D01*
X45433726Y-22951653D01*
G37*
X45433726Y-22951653D02*
X45897858Y-24111000D01*
X45821070Y-24111000D01*
X45645646Y-24145894D01*
X45480401Y-24214341D01*
X45331684Y-24313711D01*
X45205211Y-24440184D01*
X45105841Y-24588901D01*
X45099362Y-24604543D01*
X44828750Y-24604543D01*
X44686489Y-24618555D01*
X44549695Y-24660051D01*
X44423624Y-24727437D01*
X44323000Y-24810017D01*
X44222376Y-24727437D01*
X44096305Y-24660051D01*
X43959511Y-24618555D01*
X43817250Y-24604543D01*
X43304750Y-24604543D01*
X43162489Y-24618555D01*
X43025695Y-24660051D01*
X42899624Y-24727437D01*
X42789123Y-24818123D01*
X42728494Y-24892000D01*
X41000718Y-24892000D01*
X42566390Y-23326329D01*
X42694330Y-23338930D01*
X42836591Y-23324918D01*
X42973385Y-23283422D01*
X43099456Y-23216036D01*
X43209957Y-23125350D01*
X43572350Y-22762957D01*
X43663036Y-22652456D01*
X43730422Y-22526385D01*
X43771918Y-22389591D01*
X43779151Y-22316151D01*
X43852591Y-22308918D01*
X43989385Y-22267422D01*
X44115456Y-22200036D01*
X44225957Y-22109350D01*
X44588350Y-21746957D01*
X44679036Y-21636456D01*
X44718058Y-21563451D01*
X45433726Y-22951653D01*
G36*
X43820910Y-20158174D02*
G01*
X43848531Y-20201152D01*
X43763364Y-20192764D01*
X43621103Y-20206776D01*
X43484309Y-20248272D01*
X43358238Y-20315658D01*
X43247737Y-20406344D01*
X42885344Y-20768737D01*
X42794658Y-20879238D01*
X42727272Y-21005309D01*
X42685776Y-21142103D01*
X42678543Y-21215543D01*
X42605103Y-21222776D01*
X42468309Y-21264272D01*
X42342238Y-21331658D01*
X42231737Y-21422344D01*
X41869344Y-21784737D01*
X41778658Y-21895238D01*
X41711272Y-22021309D01*
X41669776Y-22158103D01*
X41655764Y-22300364D01*
X41668365Y-22428304D01*
X41148000Y-22948669D01*
X41148000Y-20884796D01*
X41195385Y-20870422D01*
X41321456Y-20803036D01*
X41431957Y-20712350D01*
X41794350Y-20349957D01*
X41885036Y-20239456D01*
X41952422Y-20113385D01*
X41993918Y-19976591D01*
X42001151Y-19903151D01*
X42074591Y-19895918D01*
X42211385Y-19854422D01*
X42337456Y-19787036D01*
X42447957Y-19696350D01*
X42810350Y-19333957D01*
X42901036Y-19223456D01*
X42968422Y-19097385D01*
X42973509Y-19080616D01*
X43820910Y-20158174D01*
G37*
X43820910Y-20158174D02*
X43848531Y-20201152D01*
X43763364Y-20192764D01*
X43621103Y-20206776D01*
X43484309Y-20248272D01*
X43358238Y-20315658D01*
X43247737Y-20406344D01*
X42885344Y-20768737D01*
X42794658Y-20879238D01*
X42727272Y-21005309D01*
X42685776Y-21142103D01*
X42678543Y-21215543D01*
X42605103Y-21222776D01*
X42468309Y-21264272D01*
X42342238Y-21331658D01*
X42231737Y-21422344D01*
X41869344Y-21784737D01*
X41778658Y-21895238D01*
X41711272Y-22021309D01*
X41669776Y-22158103D01*
X41655764Y-22300364D01*
X41668365Y-22428304D01*
X41148000Y-22948669D01*
X41148000Y-20884796D01*
X41195385Y-20870422D01*
X41321456Y-20803036D01*
X41431957Y-20712350D01*
X41794350Y-20349957D01*
X41885036Y-20239456D01*
X41952422Y-20113385D01*
X41993918Y-19976591D01*
X42001151Y-19903151D01*
X42074591Y-19895918D01*
X42211385Y-19854422D01*
X42337456Y-19787036D01*
X42447957Y-19696350D01*
X42810350Y-19333957D01*
X42901036Y-19223456D01*
X42968422Y-19097385D01*
X42973509Y-19080616D01*
X43820910Y-20158174D01*
G36*
X35613123Y-19821877D02*
G01*
X35723624Y-19912563D01*
X35849695Y-19979949D01*
X35986489Y-20021445D01*
X36128750Y-20035457D01*
X36434932Y-20035457D01*
X37544974Y-21145500D01*
X36775526Y-21145500D01*
X35476682Y-19846658D01*
X35506877Y-19821877D01*
X35560000Y-19757147D01*
X35613123Y-19821877D01*
G37*
X35613123Y-19821877D02*
X35723624Y-19912563D01*
X35849695Y-19979949D01*
X35986489Y-20021445D01*
X36128750Y-20035457D01*
X36434932Y-20035457D01*
X37544974Y-21145500D01*
X36775526Y-21145500D01*
X35476682Y-19846658D01*
X35506877Y-19821877D01*
X35560000Y-19757147D01*
X35613123Y-19821877D01*
G36*
X39173053Y-15726451D02*
G01*
X40488304Y-16663037D01*
X41708571Y-17720405D01*
X41793017Y-17808969D01*
X41706309Y-17835272D01*
X41580238Y-17902658D01*
X41469737Y-17993344D01*
X41107344Y-18355737D01*
X41016658Y-18466238D01*
X40949272Y-18592309D01*
X40907776Y-18729103D01*
X40900543Y-18802543D01*
X40827103Y-18809776D01*
X40690309Y-18851272D01*
X40564238Y-18918658D01*
X40453737Y-19009344D01*
X40091344Y-19371737D01*
X40000658Y-19482238D01*
X39933272Y-19608309D01*
X39891776Y-19745103D01*
X39877764Y-19887364D01*
X39891776Y-20029625D01*
X39910199Y-20090357D01*
X39887188Y-20166213D01*
X39878000Y-20259503D01*
X39878000Y-20259513D01*
X39874929Y-20290694D01*
X39878000Y-20321875D01*
X39878000Y-20430043D01*
X38625569Y-20430043D01*
X37880525Y-19685000D01*
X38386319Y-19685000D01*
X38417500Y-19688071D01*
X38448681Y-19685000D01*
X38448692Y-19685000D01*
X38541982Y-19675812D01*
X38661680Y-19639502D01*
X38771994Y-19580537D01*
X38868685Y-19501185D01*
X38888574Y-19476950D01*
X39260760Y-19104764D01*
X39284995Y-19084875D01*
X39345088Y-19011651D01*
X39364347Y-18988185D01*
X39423312Y-18877870D01*
X39430378Y-18854577D01*
X39459622Y-18758172D01*
X39468810Y-18664882D01*
X39468810Y-18664872D01*
X39471881Y-18633691D01*
X39468810Y-18602510D01*
X39468810Y-16385990D01*
X39471881Y-16354809D01*
X39468810Y-16323628D01*
X39468810Y-16323618D01*
X39459622Y-16230328D01*
X39423312Y-16110630D01*
X39364347Y-16000316D01*
X39284995Y-15903625D01*
X39260766Y-15883741D01*
X39038220Y-15661196D01*
X39036906Y-15647846D01*
X39173053Y-15726451D01*
G37*
X39173053Y-15726451D02*
X40488304Y-16663037D01*
X41708571Y-17720405D01*
X41793017Y-17808969D01*
X41706309Y-17835272D01*
X41580238Y-17902658D01*
X41469737Y-17993344D01*
X41107344Y-18355737D01*
X41016658Y-18466238D01*
X40949272Y-18592309D01*
X40907776Y-18729103D01*
X40900543Y-18802543D01*
X40827103Y-18809776D01*
X40690309Y-18851272D01*
X40564238Y-18918658D01*
X40453737Y-19009344D01*
X40091344Y-19371737D01*
X40000658Y-19482238D01*
X39933272Y-19608309D01*
X39891776Y-19745103D01*
X39877764Y-19887364D01*
X39891776Y-20029625D01*
X39910199Y-20090357D01*
X39887188Y-20166213D01*
X39878000Y-20259503D01*
X39878000Y-20259513D01*
X39874929Y-20290694D01*
X39878000Y-20321875D01*
X39878000Y-20430043D01*
X38625569Y-20430043D01*
X37880525Y-19685000D01*
X38386319Y-19685000D01*
X38417500Y-19688071D01*
X38448681Y-19685000D01*
X38448692Y-19685000D01*
X38541982Y-19675812D01*
X38661680Y-19639502D01*
X38771994Y-19580537D01*
X38868685Y-19501185D01*
X38888574Y-19476950D01*
X39260760Y-19104764D01*
X39284995Y-19084875D01*
X39345088Y-19011651D01*
X39364347Y-18988185D01*
X39423312Y-18877870D01*
X39430378Y-18854577D01*
X39459622Y-18758172D01*
X39468810Y-18664882D01*
X39468810Y-18664872D01*
X39471881Y-18633691D01*
X39468810Y-18602510D01*
X39468810Y-16385990D01*
X39471881Y-16354809D01*
X39468810Y-16323628D01*
X39468810Y-16323618D01*
X39459622Y-16230328D01*
X39423312Y-16110630D01*
X39364347Y-16000316D01*
X39284995Y-15903625D01*
X39260766Y-15883741D01*
X39038220Y-15661196D01*
X39036906Y-15647846D01*
X39173053Y-15726451D01*
G36*
X37518695Y-16784949D02*
G01*
X37655489Y-16826445D01*
X37797750Y-16840457D01*
X38198810Y-16840457D01*
X38198811Y-18370665D01*
X38154476Y-18415000D01*
X37186661Y-18415000D01*
X37172563Y-18388624D01*
X37081877Y-18278123D01*
X36971376Y-18187437D01*
X36845305Y-18120051D01*
X36708511Y-18078555D01*
X36566250Y-18064543D01*
X36128750Y-18064543D01*
X35986489Y-18078555D01*
X35849695Y-18120051D01*
X35723624Y-18187437D01*
X35613123Y-18278123D01*
X35560000Y-18342853D01*
X35531249Y-18307821D01*
X35537595Y-18304429D01*
X35614948Y-18240948D01*
X35678429Y-18163595D01*
X35725601Y-18075343D01*
X35754649Y-17979585D01*
X35764457Y-17880000D01*
X35764457Y-16981638D01*
X35854000Y-16990457D01*
X37004000Y-16990457D01*
X37103585Y-16980649D01*
X37199343Y-16951601D01*
X37287595Y-16904429D01*
X37364948Y-16840948D01*
X37428429Y-16763595D01*
X37439610Y-16742677D01*
X37518695Y-16784949D01*
G37*
X37518695Y-16784949D02*
X37655489Y-16826445D01*
X37797750Y-16840457D01*
X38198810Y-16840457D01*
X38198811Y-18370665D01*
X38154476Y-18415000D01*
X37186661Y-18415000D01*
X37172563Y-18388624D01*
X37081877Y-18278123D01*
X36971376Y-18187437D01*
X36845305Y-18120051D01*
X36708511Y-18078555D01*
X36566250Y-18064543D01*
X36128750Y-18064543D01*
X35986489Y-18078555D01*
X35849695Y-18120051D01*
X35723624Y-18187437D01*
X35613123Y-18278123D01*
X35560000Y-18342853D01*
X35531249Y-18307821D01*
X35537595Y-18304429D01*
X35614948Y-18240948D01*
X35678429Y-18163595D01*
X35725601Y-18075343D01*
X35754649Y-17979585D01*
X35764457Y-17880000D01*
X35764457Y-16981638D01*
X35854000Y-16990457D01*
X37004000Y-16990457D01*
X37103585Y-16980649D01*
X37199343Y-16951601D01*
X37287595Y-16904429D01*
X37364948Y-16840948D01*
X37428429Y-16763595D01*
X37439610Y-16742677D01*
X37518695Y-16784949D01*
%TD*%
M02*
