%TF.GenerationSoftware,KiCad,Pcbnew,(5.1.6)-1*%
%TF.CreationDate,2020-12-07T17:57:15+08:00*%
%TF.ProjectId,A1.0,41312e30-2e6b-4696-9361-645f70636258,rev?*%
%TF.SameCoordinates,Original*%
%TF.FileFunction,Soldermask,Top*%
%TF.FilePolarity,Negative*%
%FSLAX46Y46*%
G04 Gerber Fmt 4.6, Leading zero omitted, Abs format (unit mm)*
G04 Created by KiCad (PCBNEW (5.1.6)-1) date 2020-12-07 17:57:15*
%MOMM*%
%LPD*%
G01*
G04 APERTURE LIST*
%ADD10R,1.250000X1.100000*%
%ADD11R,1.700000X0.510000*%
%ADD12C,1.000000*%
%ADD13R,0.600000X1.100000*%
%ADD14R,1.400000X0.600000*%
%ADD15C,1.100000*%
%ADD16R,0.900000X1.000000*%
%ADD17R,5.700000X5.700000*%
%ADD18O,1.100000X1.100000*%
%ADD19R,1.100000X1.100000*%
%ADD20C,1.624000*%
G04 APERTURE END LIST*
%TO.C,C23*%
G36*
G01*
X40372741Y-18892994D02*
X39974993Y-19290741D01*
G75*
G02*
X39630279Y-19290741I-172357J172357D01*
G01*
X39285565Y-18946027D01*
G75*
G02*
X39285565Y-18601313I172357J172357D01*
G01*
X39683313Y-18203565D01*
G75*
G02*
X40028027Y-18203565I172357J-172357D01*
G01*
X40372741Y-18548279D01*
G75*
G02*
X40372741Y-18892993I-172357J-172357D01*
G01*
G37*
G36*
G01*
X41486435Y-20006688D02*
X41088687Y-20404435D01*
G75*
G02*
X40743973Y-20404435I-172357J172357D01*
G01*
X40399259Y-20059721D01*
G75*
G02*
X40399259Y-19715007I172357J172357D01*
G01*
X40797007Y-19317259D01*
G75*
G02*
X41141721Y-19317259I172357J-172357D01*
G01*
X41486435Y-19661973D01*
G75*
G02*
X41486435Y-20006687I-172357J-172357D01*
G01*
G37*
%TD*%
%TO.C,J4*%
G36*
G01*
X38855500Y-43378500D02*
X38855500Y-41203500D01*
G75*
G02*
X38968000Y-41091000I112500J0D01*
G01*
X39193000Y-41091000D01*
G75*
G02*
X39305500Y-41203500I0J-112500D01*
G01*
X39305500Y-43378500D01*
G75*
G02*
X39193000Y-43491000I-112500J0D01*
G01*
X38968000Y-43491000D01*
G75*
G02*
X38855500Y-43378500I0J112500D01*
G01*
G37*
G36*
G01*
X38155500Y-43378500D02*
X38155500Y-41203500D01*
G75*
G02*
X38268000Y-41091000I112500J0D01*
G01*
X38493000Y-41091000D01*
G75*
G02*
X38605500Y-41203500I0J-112500D01*
G01*
X38605500Y-43378500D01*
G75*
G02*
X38493000Y-43491000I-112500J0D01*
G01*
X38268000Y-43491000D01*
G75*
G02*
X38155500Y-43378500I0J112500D01*
G01*
G37*
G36*
G01*
X37455500Y-43378500D02*
X37455500Y-41203500D01*
G75*
G02*
X37568000Y-41091000I112500J0D01*
G01*
X37793000Y-41091000D01*
G75*
G02*
X37905500Y-41203500I0J-112500D01*
G01*
X37905500Y-43378500D01*
G75*
G02*
X37793000Y-43491000I-112500J0D01*
G01*
X37568000Y-43491000D01*
G75*
G02*
X37455500Y-43378500I0J112500D01*
G01*
G37*
G36*
G01*
X39555500Y-43378500D02*
X39555500Y-41203500D01*
G75*
G02*
X39668000Y-41091000I112500J0D01*
G01*
X39893000Y-41091000D01*
G75*
G02*
X40005500Y-41203500I0J-112500D01*
G01*
X40005500Y-43378500D01*
G75*
G02*
X39893000Y-43491000I-112500J0D01*
G01*
X39668000Y-43491000D01*
G75*
G02*
X39555500Y-43378500I0J112500D01*
G01*
G37*
G36*
G01*
X36755500Y-43378500D02*
X36755500Y-41203500D01*
G75*
G02*
X36868000Y-41091000I112500J0D01*
G01*
X37093000Y-41091000D01*
G75*
G02*
X37205500Y-41203500I0J-112500D01*
G01*
X37205500Y-43378500D01*
G75*
G02*
X37093000Y-43491000I-112500J0D01*
G01*
X36868000Y-43491000D01*
G75*
G02*
X36755500Y-43378500I0J112500D01*
G01*
G37*
%TD*%
%TO.C,J1*%
G36*
G01*
X33625000Y-43387500D02*
X33625000Y-41212500D01*
G75*
G02*
X33737500Y-41100000I112500J0D01*
G01*
X33962500Y-41100000D01*
G75*
G02*
X34075000Y-41212500I0J-112500D01*
G01*
X34075000Y-43387500D01*
G75*
G02*
X33962500Y-43500000I-112500J0D01*
G01*
X33737500Y-43500000D01*
G75*
G02*
X33625000Y-43387500I0J112500D01*
G01*
G37*
G36*
G01*
X32925000Y-43387500D02*
X32925000Y-41212500D01*
G75*
G02*
X33037500Y-41100000I112500J0D01*
G01*
X33262500Y-41100000D01*
G75*
G02*
X33375000Y-41212500I0J-112500D01*
G01*
X33375000Y-43387500D01*
G75*
G02*
X33262500Y-43500000I-112500J0D01*
G01*
X33037500Y-43500000D01*
G75*
G02*
X32925000Y-43387500I0J112500D01*
G01*
G37*
G36*
G01*
X32225000Y-43387500D02*
X32225000Y-41212500D01*
G75*
G02*
X32337500Y-41100000I112500J0D01*
G01*
X32562500Y-41100000D01*
G75*
G02*
X32675000Y-41212500I0J-112500D01*
G01*
X32675000Y-43387500D01*
G75*
G02*
X32562500Y-43500000I-112500J0D01*
G01*
X32337500Y-43500000D01*
G75*
G02*
X32225000Y-43387500I0J112500D01*
G01*
G37*
G36*
G01*
X31525000Y-43387500D02*
X31525000Y-41212500D01*
G75*
G02*
X31637500Y-41100000I112500J0D01*
G01*
X31862500Y-41100000D01*
G75*
G02*
X31975000Y-41212500I0J-112500D01*
G01*
X31975000Y-43387500D01*
G75*
G02*
X31862500Y-43500000I-112500J0D01*
G01*
X31637500Y-43500000D01*
G75*
G02*
X31525000Y-43387500I0J112500D01*
G01*
G37*
G36*
G01*
X30825000Y-43387500D02*
X30825000Y-41212500D01*
G75*
G02*
X30937500Y-41100000I112500J0D01*
G01*
X31162500Y-41100000D01*
G75*
G02*
X31275000Y-41212500I0J-112500D01*
G01*
X31275000Y-43387500D01*
G75*
G02*
X31162500Y-43500000I-112500J0D01*
G01*
X30937500Y-43500000D01*
G75*
G02*
X30825000Y-43387500I0J112500D01*
G01*
G37*
G36*
G01*
X25925000Y-43387500D02*
X25925000Y-41212500D01*
G75*
G02*
X26037500Y-41100000I112500J0D01*
G01*
X26262500Y-41100000D01*
G75*
G02*
X26375000Y-41212500I0J-112500D01*
G01*
X26375000Y-43387500D01*
G75*
G02*
X26262500Y-43500000I-112500J0D01*
G01*
X26037500Y-43500000D01*
G75*
G02*
X25925000Y-43387500I0J112500D01*
G01*
G37*
G36*
G01*
X26625000Y-43387500D02*
X26625000Y-41212500D01*
G75*
G02*
X26737500Y-41100000I112500J0D01*
G01*
X26962500Y-41100000D01*
G75*
G02*
X27075000Y-41212500I0J-112500D01*
G01*
X27075000Y-43387500D01*
G75*
G02*
X26962500Y-43500000I-112500J0D01*
G01*
X26737500Y-43500000D01*
G75*
G02*
X26625000Y-43387500I0J112500D01*
G01*
G37*
G36*
G01*
X27325000Y-43387500D02*
X27325000Y-41212500D01*
G75*
G02*
X27437500Y-41100000I112500J0D01*
G01*
X27662500Y-41100000D01*
G75*
G02*
X27775000Y-41212500I0J-112500D01*
G01*
X27775000Y-43387500D01*
G75*
G02*
X27662500Y-43500000I-112500J0D01*
G01*
X27437500Y-43500000D01*
G75*
G02*
X27325000Y-43387500I0J112500D01*
G01*
G37*
G36*
G01*
X28025000Y-43387500D02*
X28025000Y-41212500D01*
G75*
G02*
X28137500Y-41100000I112500J0D01*
G01*
X28362500Y-41100000D01*
G75*
G02*
X28475000Y-41212500I0J-112500D01*
G01*
X28475000Y-43387500D01*
G75*
G02*
X28362500Y-43500000I-112500J0D01*
G01*
X28137500Y-43500000D01*
G75*
G02*
X28025000Y-43387500I0J112500D01*
G01*
G37*
G36*
G01*
X28725000Y-43387500D02*
X28725000Y-41212500D01*
G75*
G02*
X28837500Y-41100000I112500J0D01*
G01*
X29062500Y-41100000D01*
G75*
G02*
X29175000Y-41212500I0J-112500D01*
G01*
X29175000Y-43387500D01*
G75*
G02*
X29062500Y-43500000I-112500J0D01*
G01*
X28837500Y-43500000D01*
G75*
G02*
X28725000Y-43387500I0J112500D01*
G01*
G37*
G36*
G01*
X30125000Y-43387500D02*
X30125000Y-41212500D01*
G75*
G02*
X30237500Y-41100000I112500J0D01*
G01*
X30462500Y-41100000D01*
G75*
G02*
X30575000Y-41212500I0J-112500D01*
G01*
X30575000Y-43387500D01*
G75*
G02*
X30462500Y-43500000I-112500J0D01*
G01*
X30237500Y-43500000D01*
G75*
G02*
X30125000Y-43387500I0J112500D01*
G01*
G37*
G36*
G01*
X29425000Y-43387500D02*
X29425000Y-41212500D01*
G75*
G02*
X29537500Y-41100000I112500J0D01*
G01*
X29762500Y-41100000D01*
G75*
G02*
X29875000Y-41212500I0J-112500D01*
G01*
X29875000Y-43387500D01*
G75*
G02*
X29762500Y-43500000I-112500J0D01*
G01*
X29537500Y-43500000D01*
G75*
G02*
X29425000Y-43387500I0J112500D01*
G01*
G37*
%TD*%
D10*
%TO.C,Y1*%
X34679000Y-15980000D03*
X36429000Y-15980000D03*
X36429000Y-17380000D03*
X34679000Y-17380000D03*
%TD*%
D11*
%TO.C,U3*%
X39103300Y-21145500D03*
X39103300Y-21780500D03*
X39103300Y-22415500D03*
X39103300Y-23050500D03*
X39103300Y-26225500D03*
X39103300Y-26860500D03*
X39103300Y-27495500D03*
X39103300Y-28130500D03*
X33794700Y-28130500D03*
X33794700Y-27495500D03*
X33794700Y-26860500D03*
X33794700Y-26225500D03*
X33794700Y-23050500D03*
X33794700Y-22415500D03*
X33794700Y-21780500D03*
X33794700Y-21145500D03*
X33794700Y-23685500D03*
X33794700Y-24320500D03*
X39103300Y-24320500D03*
X39103300Y-23685500D03*
X33794700Y-24955500D03*
X33794700Y-25590500D03*
X39103300Y-24955500D03*
X39103300Y-25590500D03*
%TD*%
D12*
%TO.C,SW1*%
X16033500Y-30202000D03*
X16033500Y-27202000D03*
D13*
X14859000Y-31369000D03*
X14858500Y-26035000D03*
X17208500Y-31369000D03*
X17208500Y-26035000D03*
D14*
X17970500Y-27702000D03*
X17970500Y-29702000D03*
X17970500Y-28702000D03*
%TD*%
%TO.C,R8*%
G36*
G01*
X43427250Y-31284000D02*
X42864750Y-31284000D01*
G75*
G02*
X42621000Y-31040250I0J243750D01*
G01*
X42621000Y-30552750D01*
G75*
G02*
X42864750Y-30309000I243750J0D01*
G01*
X43427250Y-30309000D01*
G75*
G02*
X43671000Y-30552750I0J-243750D01*
G01*
X43671000Y-31040250D01*
G75*
G02*
X43427250Y-31284000I-243750J0D01*
G01*
G37*
G36*
G01*
X43427250Y-32859000D02*
X42864750Y-32859000D01*
G75*
G02*
X42621000Y-32615250I0J243750D01*
G01*
X42621000Y-32127750D01*
G75*
G02*
X42864750Y-31884000I243750J0D01*
G01*
X43427250Y-31884000D01*
G75*
G02*
X43671000Y-32127750I0J-243750D01*
G01*
X43671000Y-32615250D01*
G75*
G02*
X43427250Y-32859000I-243750J0D01*
G01*
G37*
%TD*%
%TO.C,R7*%
G36*
G01*
X44967250Y-28244000D02*
X44404750Y-28244000D01*
G75*
G02*
X44161000Y-28000250I0J243750D01*
G01*
X44161000Y-27512750D01*
G75*
G02*
X44404750Y-27269000I243750J0D01*
G01*
X44967250Y-27269000D01*
G75*
G02*
X45211000Y-27512750I0J-243750D01*
G01*
X45211000Y-28000250D01*
G75*
G02*
X44967250Y-28244000I-243750J0D01*
G01*
G37*
G36*
G01*
X44967250Y-29819000D02*
X44404750Y-29819000D01*
G75*
G02*
X44161000Y-29575250I0J243750D01*
G01*
X44161000Y-29087750D01*
G75*
G02*
X44404750Y-28844000I243750J0D01*
G01*
X44967250Y-28844000D01*
G75*
G02*
X45211000Y-29087750I0J-243750D01*
G01*
X45211000Y-29575250D01*
G75*
G02*
X44967250Y-29819000I-243750J0D01*
G01*
G37*
%TD*%
%TO.C,R6*%
G36*
G01*
X45914750Y-31884000D02*
X46477250Y-31884000D01*
G75*
G02*
X46721000Y-32127750I0J-243750D01*
G01*
X46721000Y-32615250D01*
G75*
G02*
X46477250Y-32859000I-243750J0D01*
G01*
X45914750Y-32859000D01*
G75*
G02*
X45671000Y-32615250I0J243750D01*
G01*
X45671000Y-32127750D01*
G75*
G02*
X45914750Y-31884000I243750J0D01*
G01*
G37*
G36*
G01*
X45914750Y-30309000D02*
X46477250Y-30309000D01*
G75*
G02*
X46721000Y-30552750I0J-243750D01*
G01*
X46721000Y-31040250D01*
G75*
G02*
X46477250Y-31284000I-243750J0D01*
G01*
X45914750Y-31284000D01*
G75*
G02*
X45671000Y-31040250I0J243750D01*
G01*
X45671000Y-30552750D01*
G75*
G02*
X45914750Y-30309000I243750J0D01*
G01*
G37*
%TD*%
%TO.C,R5*%
G36*
G01*
X35860000Y-19331250D02*
X35860000Y-18768750D01*
G75*
G02*
X36103750Y-18525000I243750J0D01*
G01*
X36591250Y-18525000D01*
G75*
G02*
X36835000Y-18768750I0J-243750D01*
G01*
X36835000Y-19331250D01*
G75*
G02*
X36591250Y-19575000I-243750J0D01*
G01*
X36103750Y-19575000D01*
G75*
G02*
X35860000Y-19331250I0J243750D01*
G01*
G37*
G36*
G01*
X34285000Y-19331250D02*
X34285000Y-18768750D01*
G75*
G02*
X34528750Y-18525000I243750J0D01*
G01*
X35016250Y-18525000D01*
G75*
G02*
X35260000Y-18768750I0J-243750D01*
G01*
X35260000Y-19331250D01*
G75*
G02*
X35016250Y-19575000I-243750J0D01*
G01*
X34528750Y-19575000D01*
G75*
G02*
X34285000Y-19331250I0J243750D01*
G01*
G37*
%TD*%
D15*
%TO.C,MK1*%
X44642000Y-36264000D03*
X43242000Y-36264000D03*
%TD*%
%TO.C,C22*%
G36*
G01*
X41388741Y-17876994D02*
X40990993Y-18274741D01*
G75*
G02*
X40646279Y-18274741I-172357J172357D01*
G01*
X40301565Y-17930027D01*
G75*
G02*
X40301565Y-17585313I172357J172357D01*
G01*
X40699313Y-17187565D01*
G75*
G02*
X41044027Y-17187565I172357J-172357D01*
G01*
X41388741Y-17532279D01*
G75*
G02*
X41388741Y-17876993I-172357J-172357D01*
G01*
G37*
G36*
G01*
X42502435Y-18990688D02*
X42104687Y-19388435D01*
G75*
G02*
X41759973Y-19388435I-172357J172357D01*
G01*
X41415259Y-19043721D01*
G75*
G02*
X41415259Y-18699007I172357J172357D01*
G01*
X41813007Y-18301259D01*
G75*
G02*
X42157721Y-18301259I172357J-172357D01*
G01*
X42502435Y-18645973D01*
G75*
G02*
X42502435Y-18990687I-172357J-172357D01*
G01*
G37*
%TD*%
%TO.C,C21*%
G36*
G01*
X42150741Y-21305994D02*
X41752993Y-21703741D01*
G75*
G02*
X41408279Y-21703741I-172357J172357D01*
G01*
X41063565Y-21359027D01*
G75*
G02*
X41063565Y-21014313I172357J172357D01*
G01*
X41461313Y-20616565D01*
G75*
G02*
X41806027Y-20616565I172357J-172357D01*
G01*
X42150741Y-20961279D01*
G75*
G02*
X42150741Y-21305993I-172357J-172357D01*
G01*
G37*
G36*
G01*
X43264435Y-22419688D02*
X42866687Y-22817435D01*
G75*
G02*
X42521973Y-22817435I-172357J172357D01*
G01*
X42177259Y-22472721D01*
G75*
G02*
X42177259Y-22128007I172357J172357D01*
G01*
X42575007Y-21730259D01*
G75*
G02*
X42919721Y-21730259I172357J-172357D01*
G01*
X43264435Y-22074973D01*
G75*
G02*
X43264435Y-22419687I-172357J-172357D01*
G01*
G37*
%TD*%
%TO.C,C20*%
G36*
G01*
X41374750Y-31864000D02*
X41937250Y-31864000D01*
G75*
G02*
X42181000Y-32107750I0J-243750D01*
G01*
X42181000Y-32595250D01*
G75*
G02*
X41937250Y-32839000I-243750J0D01*
G01*
X41374750Y-32839000D01*
G75*
G02*
X41131000Y-32595250I0J243750D01*
G01*
X41131000Y-32107750D01*
G75*
G02*
X41374750Y-31864000I243750J0D01*
G01*
G37*
G36*
G01*
X41374750Y-30289000D02*
X41937250Y-30289000D01*
G75*
G02*
X42181000Y-30532750I0J-243750D01*
G01*
X42181000Y-31020250D01*
G75*
G02*
X41937250Y-31264000I-243750J0D01*
G01*
X41374750Y-31264000D01*
G75*
G02*
X41131000Y-31020250I0J243750D01*
G01*
X41131000Y-30532750D01*
G75*
G02*
X41374750Y-30289000I243750J0D01*
G01*
G37*
%TD*%
%TO.C,C19*%
G36*
G01*
X43166741Y-20289994D02*
X42768993Y-20687741D01*
G75*
G02*
X42424279Y-20687741I-172357J172357D01*
G01*
X42079565Y-20343027D01*
G75*
G02*
X42079565Y-19998313I172357J172357D01*
G01*
X42477313Y-19600565D01*
G75*
G02*
X42822027Y-19600565I172357J-172357D01*
G01*
X43166741Y-19945279D01*
G75*
G02*
X43166741Y-20289993I-172357J-172357D01*
G01*
G37*
G36*
G01*
X44280435Y-21403688D02*
X43882687Y-21801435D01*
G75*
G02*
X43537973Y-21801435I-172357J172357D01*
G01*
X43193259Y-21456721D01*
G75*
G02*
X43193259Y-21112007I172357J172357D01*
G01*
X43591007Y-20714259D01*
G75*
G02*
X43935721Y-20714259I172357J-172357D01*
G01*
X44280435Y-21058973D01*
G75*
G02*
X44280435Y-21403687I-172357J-172357D01*
G01*
G37*
%TD*%
%TO.C,C18*%
G36*
G01*
X44394750Y-31874000D02*
X44957250Y-31874000D01*
G75*
G02*
X45201000Y-32117750I0J-243750D01*
G01*
X45201000Y-32605250D01*
G75*
G02*
X44957250Y-32849000I-243750J0D01*
G01*
X44394750Y-32849000D01*
G75*
G02*
X44151000Y-32605250I0J243750D01*
G01*
X44151000Y-32117750D01*
G75*
G02*
X44394750Y-31874000I243750J0D01*
G01*
G37*
G36*
G01*
X44394750Y-30299000D02*
X44957250Y-30299000D01*
G75*
G02*
X45201000Y-30542750I0J-243750D01*
G01*
X45201000Y-31030250D01*
G75*
G02*
X44957250Y-31274000I-243750J0D01*
G01*
X44394750Y-31274000D01*
G75*
G02*
X44151000Y-31030250I0J243750D01*
G01*
X44151000Y-30542750D01*
G75*
G02*
X44394750Y-30299000I243750J0D01*
G01*
G37*
%TD*%
%TO.C,C17*%
G36*
G01*
X45366250Y-24465000D02*
X44803750Y-24465000D01*
G75*
G02*
X44560000Y-24221250I0J243750D01*
G01*
X44560000Y-23733750D01*
G75*
G02*
X44803750Y-23490000I243750J0D01*
G01*
X45366250Y-23490000D01*
G75*
G02*
X45610000Y-23733750I0J-243750D01*
G01*
X45610000Y-24221250D01*
G75*
G02*
X45366250Y-24465000I-243750J0D01*
G01*
G37*
G36*
G01*
X45366250Y-26040000D02*
X44803750Y-26040000D01*
G75*
G02*
X44560000Y-25796250I0J243750D01*
G01*
X44560000Y-25308750D01*
G75*
G02*
X44803750Y-25065000I243750J0D01*
G01*
X45366250Y-25065000D01*
G75*
G02*
X45610000Y-25308750I0J-243750D01*
G01*
X45610000Y-25796250D01*
G75*
G02*
X45366250Y-26040000I-243750J0D01*
G01*
G37*
%TD*%
%TO.C,C16*%
G36*
G01*
X32772750Y-16980000D02*
X33335250Y-16980000D01*
G75*
G02*
X33579000Y-17223750I0J-243750D01*
G01*
X33579000Y-17711250D01*
G75*
G02*
X33335250Y-17955000I-243750J0D01*
G01*
X32772750Y-17955000D01*
G75*
G02*
X32529000Y-17711250I0J243750D01*
G01*
X32529000Y-17223750D01*
G75*
G02*
X32772750Y-16980000I243750J0D01*
G01*
G37*
G36*
G01*
X32772750Y-15405000D02*
X33335250Y-15405000D01*
G75*
G02*
X33579000Y-15648750I0J-243750D01*
G01*
X33579000Y-16136250D01*
G75*
G02*
X33335250Y-16380000I-243750J0D01*
G01*
X32772750Y-16380000D01*
G75*
G02*
X32529000Y-16136250I0J243750D01*
G01*
X32529000Y-15648750D01*
G75*
G02*
X32772750Y-15405000I243750J0D01*
G01*
G37*
%TD*%
%TO.C,C15*%
G36*
G01*
X38335250Y-16380000D02*
X37772750Y-16380000D01*
G75*
G02*
X37529000Y-16136250I0J243750D01*
G01*
X37529000Y-15648750D01*
G75*
G02*
X37772750Y-15405000I243750J0D01*
G01*
X38335250Y-15405000D01*
G75*
G02*
X38579000Y-15648750I0J-243750D01*
G01*
X38579000Y-16136250D01*
G75*
G02*
X38335250Y-16380000I-243750J0D01*
G01*
G37*
G36*
G01*
X38335250Y-17955000D02*
X37772750Y-17955000D01*
G75*
G02*
X37529000Y-17711250I0J243750D01*
G01*
X37529000Y-17223750D01*
G75*
G02*
X37772750Y-16980000I243750J0D01*
G01*
X38335250Y-16980000D01*
G75*
G02*
X38579000Y-17223750I0J-243750D01*
G01*
X38579000Y-17711250D01*
G75*
G02*
X38335250Y-17955000I-243750J0D01*
G01*
G37*
%TD*%
%TO.C,C14*%
G36*
G01*
X43842250Y-24465000D02*
X43279750Y-24465000D01*
G75*
G02*
X43036000Y-24221250I0J243750D01*
G01*
X43036000Y-23733750D01*
G75*
G02*
X43279750Y-23490000I243750J0D01*
G01*
X43842250Y-23490000D01*
G75*
G02*
X44086000Y-23733750I0J-243750D01*
G01*
X44086000Y-24221250D01*
G75*
G02*
X43842250Y-24465000I-243750J0D01*
G01*
G37*
G36*
G01*
X43842250Y-26040000D02*
X43279750Y-26040000D01*
G75*
G02*
X43036000Y-25796250I0J243750D01*
G01*
X43036000Y-25308750D01*
G75*
G02*
X43279750Y-25065000I243750J0D01*
G01*
X43842250Y-25065000D01*
G75*
G02*
X44086000Y-25308750I0J-243750D01*
G01*
X44086000Y-25796250D01*
G75*
G02*
X43842250Y-26040000I-243750J0D01*
G01*
G37*
%TD*%
%TO.C,C13*%
G36*
G01*
X42898750Y-28849500D02*
X43461250Y-28849500D01*
G75*
G02*
X43705000Y-29093250I0J-243750D01*
G01*
X43705000Y-29580750D01*
G75*
G02*
X43461250Y-29824500I-243750J0D01*
G01*
X42898750Y-29824500D01*
G75*
G02*
X42655000Y-29580750I0J243750D01*
G01*
X42655000Y-29093250D01*
G75*
G02*
X42898750Y-28849500I243750J0D01*
G01*
G37*
G36*
G01*
X42898750Y-27274500D02*
X43461250Y-27274500D01*
G75*
G02*
X43705000Y-27518250I0J-243750D01*
G01*
X43705000Y-28005750D01*
G75*
G02*
X43461250Y-28249500I-243750J0D01*
G01*
X42898750Y-28249500D01*
G75*
G02*
X42655000Y-28005750I0J243750D01*
G01*
X42655000Y-27518250D01*
G75*
G02*
X42898750Y-27274500I243750J0D01*
G01*
G37*
%TD*%
%TO.C,C12*%
G36*
G01*
X41374750Y-28875000D02*
X41937250Y-28875000D01*
G75*
G02*
X42181000Y-29118750I0J-243750D01*
G01*
X42181000Y-29606250D01*
G75*
G02*
X41937250Y-29850000I-243750J0D01*
G01*
X41374750Y-29850000D01*
G75*
G02*
X41131000Y-29606250I0J243750D01*
G01*
X41131000Y-29118750D01*
G75*
G02*
X41374750Y-28875000I243750J0D01*
G01*
G37*
G36*
G01*
X41374750Y-27300000D02*
X41937250Y-27300000D01*
G75*
G02*
X42181000Y-27543750I0J-243750D01*
G01*
X42181000Y-28031250D01*
G75*
G02*
X41937250Y-28275000I-243750J0D01*
G01*
X41374750Y-28275000D01*
G75*
G02*
X41131000Y-28031250I0J243750D01*
G01*
X41131000Y-27543750D01*
G75*
G02*
X41374750Y-27300000I243750J0D01*
G01*
G37*
%TD*%
%TO.C,C11*%
G36*
G01*
X46487250Y-28254000D02*
X45924750Y-28254000D01*
G75*
G02*
X45681000Y-28010250I0J243750D01*
G01*
X45681000Y-27522750D01*
G75*
G02*
X45924750Y-27279000I243750J0D01*
G01*
X46487250Y-27279000D01*
G75*
G02*
X46731000Y-27522750I0J-243750D01*
G01*
X46731000Y-28010250D01*
G75*
G02*
X46487250Y-28254000I-243750J0D01*
G01*
G37*
G36*
G01*
X46487250Y-29829000D02*
X45924750Y-29829000D01*
G75*
G02*
X45681000Y-29585250I0J243750D01*
G01*
X45681000Y-29097750D01*
G75*
G02*
X45924750Y-28854000I243750J0D01*
G01*
X46487250Y-28854000D01*
G75*
G02*
X46731000Y-29097750I0J-243750D01*
G01*
X46731000Y-29585250D01*
G75*
G02*
X46487250Y-29829000I-243750J0D01*
G01*
G37*
%TD*%
%TO.C,C10*%
G36*
G01*
X34573000Y-31960250D02*
X34573000Y-31397750D01*
G75*
G02*
X34816750Y-31154000I243750J0D01*
G01*
X35304250Y-31154000D01*
G75*
G02*
X35548000Y-31397750I0J-243750D01*
G01*
X35548000Y-31960250D01*
G75*
G02*
X35304250Y-32204000I-243750J0D01*
G01*
X34816750Y-32204000D01*
G75*
G02*
X34573000Y-31960250I0J243750D01*
G01*
G37*
G36*
G01*
X32998000Y-31960250D02*
X32998000Y-31397750D01*
G75*
G02*
X33241750Y-31154000I243750J0D01*
G01*
X33729250Y-31154000D01*
G75*
G02*
X33973000Y-31397750I0J-243750D01*
G01*
X33973000Y-31960250D01*
G75*
G02*
X33729250Y-32204000I-243750J0D01*
G01*
X33241750Y-32204000D01*
G75*
G02*
X32998000Y-31960250I0J243750D01*
G01*
G37*
%TD*%
%TO.C,C9*%
G36*
G01*
X34563000Y-30390250D02*
X34563000Y-29827750D01*
G75*
G02*
X34806750Y-29584000I243750J0D01*
G01*
X35294250Y-29584000D01*
G75*
G02*
X35538000Y-29827750I0J-243750D01*
G01*
X35538000Y-30390250D01*
G75*
G02*
X35294250Y-30634000I-243750J0D01*
G01*
X34806750Y-30634000D01*
G75*
G02*
X34563000Y-30390250I0J243750D01*
G01*
G37*
G36*
G01*
X32988000Y-30390250D02*
X32988000Y-29827750D01*
G75*
G02*
X33231750Y-29584000I243750J0D01*
G01*
X33719250Y-29584000D01*
G75*
G02*
X33963000Y-29827750I0J-243750D01*
G01*
X33963000Y-30390250D01*
G75*
G02*
X33719250Y-30634000I-243750J0D01*
G01*
X33231750Y-30634000D01*
G75*
G02*
X32988000Y-30390250I0J243750D01*
G01*
G37*
%TD*%
D16*
%TO.C,U2*%
X16764000Y-33036000D03*
X17714000Y-35036000D03*
X15814000Y-35036000D03*
%TD*%
D17*
%TO.C,U1*%
X24638000Y-24130000D03*
G36*
G01*
X21713000Y-21092500D02*
X21713000Y-20292500D01*
G75*
G02*
X21800500Y-20205000I87500J0D01*
G01*
X21975500Y-20205000D01*
G75*
G02*
X22063000Y-20292500I0J-87500D01*
G01*
X22063000Y-21092500D01*
G75*
G02*
X21975500Y-21180000I-87500J0D01*
G01*
X21800500Y-21180000D01*
G75*
G02*
X21713000Y-21092500I0J87500D01*
G01*
G37*
G36*
G01*
X22213000Y-21092500D02*
X22213000Y-20292500D01*
G75*
G02*
X22300500Y-20205000I87500J0D01*
G01*
X22475500Y-20205000D01*
G75*
G02*
X22563000Y-20292500I0J-87500D01*
G01*
X22563000Y-21092500D01*
G75*
G02*
X22475500Y-21180000I-87500J0D01*
G01*
X22300500Y-21180000D01*
G75*
G02*
X22213000Y-21092500I0J87500D01*
G01*
G37*
G36*
G01*
X22713000Y-21092500D02*
X22713000Y-20292500D01*
G75*
G02*
X22800500Y-20205000I87500J0D01*
G01*
X22975500Y-20205000D01*
G75*
G02*
X23063000Y-20292500I0J-87500D01*
G01*
X23063000Y-21092500D01*
G75*
G02*
X22975500Y-21180000I-87500J0D01*
G01*
X22800500Y-21180000D01*
G75*
G02*
X22713000Y-21092500I0J87500D01*
G01*
G37*
G36*
G01*
X23213000Y-21092500D02*
X23213000Y-20292500D01*
G75*
G02*
X23300500Y-20205000I87500J0D01*
G01*
X23475500Y-20205000D01*
G75*
G02*
X23563000Y-20292500I0J-87500D01*
G01*
X23563000Y-21092500D01*
G75*
G02*
X23475500Y-21180000I-87500J0D01*
G01*
X23300500Y-21180000D01*
G75*
G02*
X23213000Y-21092500I0J87500D01*
G01*
G37*
G36*
G01*
X23713000Y-21092500D02*
X23713000Y-20292500D01*
G75*
G02*
X23800500Y-20205000I87500J0D01*
G01*
X23975500Y-20205000D01*
G75*
G02*
X24063000Y-20292500I0J-87500D01*
G01*
X24063000Y-21092500D01*
G75*
G02*
X23975500Y-21180000I-87500J0D01*
G01*
X23800500Y-21180000D01*
G75*
G02*
X23713000Y-21092500I0J87500D01*
G01*
G37*
G36*
G01*
X24213000Y-21092500D02*
X24213000Y-20292500D01*
G75*
G02*
X24300500Y-20205000I87500J0D01*
G01*
X24475500Y-20205000D01*
G75*
G02*
X24563000Y-20292500I0J-87500D01*
G01*
X24563000Y-21092500D01*
G75*
G02*
X24475500Y-21180000I-87500J0D01*
G01*
X24300500Y-21180000D01*
G75*
G02*
X24213000Y-21092500I0J87500D01*
G01*
G37*
G36*
G01*
X24713000Y-21092500D02*
X24713000Y-20292500D01*
G75*
G02*
X24800500Y-20205000I87500J0D01*
G01*
X24975500Y-20205000D01*
G75*
G02*
X25063000Y-20292500I0J-87500D01*
G01*
X25063000Y-21092500D01*
G75*
G02*
X24975500Y-21180000I-87500J0D01*
G01*
X24800500Y-21180000D01*
G75*
G02*
X24713000Y-21092500I0J87500D01*
G01*
G37*
G36*
G01*
X25213000Y-21092500D02*
X25213000Y-20292500D01*
G75*
G02*
X25300500Y-20205000I87500J0D01*
G01*
X25475500Y-20205000D01*
G75*
G02*
X25563000Y-20292500I0J-87500D01*
G01*
X25563000Y-21092500D01*
G75*
G02*
X25475500Y-21180000I-87500J0D01*
G01*
X25300500Y-21180000D01*
G75*
G02*
X25213000Y-21092500I0J87500D01*
G01*
G37*
G36*
G01*
X25713000Y-21092500D02*
X25713000Y-20292500D01*
G75*
G02*
X25800500Y-20205000I87500J0D01*
G01*
X25975500Y-20205000D01*
G75*
G02*
X26063000Y-20292500I0J-87500D01*
G01*
X26063000Y-21092500D01*
G75*
G02*
X25975500Y-21180000I-87500J0D01*
G01*
X25800500Y-21180000D01*
G75*
G02*
X25713000Y-21092500I0J87500D01*
G01*
G37*
G36*
G01*
X26213000Y-21092500D02*
X26213000Y-20292500D01*
G75*
G02*
X26300500Y-20205000I87500J0D01*
G01*
X26475500Y-20205000D01*
G75*
G02*
X26563000Y-20292500I0J-87500D01*
G01*
X26563000Y-21092500D01*
G75*
G02*
X26475500Y-21180000I-87500J0D01*
G01*
X26300500Y-21180000D01*
G75*
G02*
X26213000Y-21092500I0J87500D01*
G01*
G37*
G36*
G01*
X26713000Y-21092500D02*
X26713000Y-20292500D01*
G75*
G02*
X26800500Y-20205000I87500J0D01*
G01*
X26975500Y-20205000D01*
G75*
G02*
X27063000Y-20292500I0J-87500D01*
G01*
X27063000Y-21092500D01*
G75*
G02*
X26975500Y-21180000I-87500J0D01*
G01*
X26800500Y-21180000D01*
G75*
G02*
X26713000Y-21092500I0J87500D01*
G01*
G37*
G36*
G01*
X27213000Y-21092500D02*
X27213000Y-20292500D01*
G75*
G02*
X27300500Y-20205000I87500J0D01*
G01*
X27475500Y-20205000D01*
G75*
G02*
X27563000Y-20292500I0J-87500D01*
G01*
X27563000Y-21092500D01*
G75*
G02*
X27475500Y-21180000I-87500J0D01*
G01*
X27300500Y-21180000D01*
G75*
G02*
X27213000Y-21092500I0J87500D01*
G01*
G37*
G36*
G01*
X27588000Y-21467500D02*
X27588000Y-21292500D01*
G75*
G02*
X27675500Y-21205000I87500J0D01*
G01*
X28475500Y-21205000D01*
G75*
G02*
X28563000Y-21292500I0J-87500D01*
G01*
X28563000Y-21467500D01*
G75*
G02*
X28475500Y-21555000I-87500J0D01*
G01*
X27675500Y-21555000D01*
G75*
G02*
X27588000Y-21467500I0J87500D01*
G01*
G37*
G36*
G01*
X27588000Y-21967500D02*
X27588000Y-21792500D01*
G75*
G02*
X27675500Y-21705000I87500J0D01*
G01*
X28475500Y-21705000D01*
G75*
G02*
X28563000Y-21792500I0J-87500D01*
G01*
X28563000Y-21967500D01*
G75*
G02*
X28475500Y-22055000I-87500J0D01*
G01*
X27675500Y-22055000D01*
G75*
G02*
X27588000Y-21967500I0J87500D01*
G01*
G37*
G36*
G01*
X27588000Y-22467500D02*
X27588000Y-22292500D01*
G75*
G02*
X27675500Y-22205000I87500J0D01*
G01*
X28475500Y-22205000D01*
G75*
G02*
X28563000Y-22292500I0J-87500D01*
G01*
X28563000Y-22467500D01*
G75*
G02*
X28475500Y-22555000I-87500J0D01*
G01*
X27675500Y-22555000D01*
G75*
G02*
X27588000Y-22467500I0J87500D01*
G01*
G37*
G36*
G01*
X27588000Y-22967500D02*
X27588000Y-22792500D01*
G75*
G02*
X27675500Y-22705000I87500J0D01*
G01*
X28475500Y-22705000D01*
G75*
G02*
X28563000Y-22792500I0J-87500D01*
G01*
X28563000Y-22967500D01*
G75*
G02*
X28475500Y-23055000I-87500J0D01*
G01*
X27675500Y-23055000D01*
G75*
G02*
X27588000Y-22967500I0J87500D01*
G01*
G37*
G36*
G01*
X27588000Y-23467500D02*
X27588000Y-23292500D01*
G75*
G02*
X27675500Y-23205000I87500J0D01*
G01*
X28475500Y-23205000D01*
G75*
G02*
X28563000Y-23292500I0J-87500D01*
G01*
X28563000Y-23467500D01*
G75*
G02*
X28475500Y-23555000I-87500J0D01*
G01*
X27675500Y-23555000D01*
G75*
G02*
X27588000Y-23467500I0J87500D01*
G01*
G37*
G36*
G01*
X27588000Y-23967500D02*
X27588000Y-23792500D01*
G75*
G02*
X27675500Y-23705000I87500J0D01*
G01*
X28475500Y-23705000D01*
G75*
G02*
X28563000Y-23792500I0J-87500D01*
G01*
X28563000Y-23967500D01*
G75*
G02*
X28475500Y-24055000I-87500J0D01*
G01*
X27675500Y-24055000D01*
G75*
G02*
X27588000Y-23967500I0J87500D01*
G01*
G37*
G36*
G01*
X27588000Y-24467500D02*
X27588000Y-24292500D01*
G75*
G02*
X27675500Y-24205000I87500J0D01*
G01*
X28475500Y-24205000D01*
G75*
G02*
X28563000Y-24292500I0J-87500D01*
G01*
X28563000Y-24467500D01*
G75*
G02*
X28475500Y-24555000I-87500J0D01*
G01*
X27675500Y-24555000D01*
G75*
G02*
X27588000Y-24467500I0J87500D01*
G01*
G37*
G36*
G01*
X27588000Y-24967500D02*
X27588000Y-24792500D01*
G75*
G02*
X27675500Y-24705000I87500J0D01*
G01*
X28475500Y-24705000D01*
G75*
G02*
X28563000Y-24792500I0J-87500D01*
G01*
X28563000Y-24967500D01*
G75*
G02*
X28475500Y-25055000I-87500J0D01*
G01*
X27675500Y-25055000D01*
G75*
G02*
X27588000Y-24967500I0J87500D01*
G01*
G37*
G36*
G01*
X27588000Y-25467500D02*
X27588000Y-25292500D01*
G75*
G02*
X27675500Y-25205000I87500J0D01*
G01*
X28475500Y-25205000D01*
G75*
G02*
X28563000Y-25292500I0J-87500D01*
G01*
X28563000Y-25467500D01*
G75*
G02*
X28475500Y-25555000I-87500J0D01*
G01*
X27675500Y-25555000D01*
G75*
G02*
X27588000Y-25467500I0J87500D01*
G01*
G37*
G36*
G01*
X27588000Y-25967500D02*
X27588000Y-25792500D01*
G75*
G02*
X27675500Y-25705000I87500J0D01*
G01*
X28475500Y-25705000D01*
G75*
G02*
X28563000Y-25792500I0J-87500D01*
G01*
X28563000Y-25967500D01*
G75*
G02*
X28475500Y-26055000I-87500J0D01*
G01*
X27675500Y-26055000D01*
G75*
G02*
X27588000Y-25967500I0J87500D01*
G01*
G37*
G36*
G01*
X27588000Y-26467500D02*
X27588000Y-26292500D01*
G75*
G02*
X27675500Y-26205000I87500J0D01*
G01*
X28475500Y-26205000D01*
G75*
G02*
X28563000Y-26292500I0J-87500D01*
G01*
X28563000Y-26467500D01*
G75*
G02*
X28475500Y-26555000I-87500J0D01*
G01*
X27675500Y-26555000D01*
G75*
G02*
X27588000Y-26467500I0J87500D01*
G01*
G37*
G36*
G01*
X27588000Y-26967500D02*
X27588000Y-26792500D01*
G75*
G02*
X27675500Y-26705000I87500J0D01*
G01*
X28475500Y-26705000D01*
G75*
G02*
X28563000Y-26792500I0J-87500D01*
G01*
X28563000Y-26967500D01*
G75*
G02*
X28475500Y-27055000I-87500J0D01*
G01*
X27675500Y-27055000D01*
G75*
G02*
X27588000Y-26967500I0J87500D01*
G01*
G37*
G36*
G01*
X27213000Y-27967500D02*
X27213000Y-27167500D01*
G75*
G02*
X27300500Y-27080000I87500J0D01*
G01*
X27475500Y-27080000D01*
G75*
G02*
X27563000Y-27167500I0J-87500D01*
G01*
X27563000Y-27967500D01*
G75*
G02*
X27475500Y-28055000I-87500J0D01*
G01*
X27300500Y-28055000D01*
G75*
G02*
X27213000Y-27967500I0J87500D01*
G01*
G37*
G36*
G01*
X26713000Y-27967500D02*
X26713000Y-27167500D01*
G75*
G02*
X26800500Y-27080000I87500J0D01*
G01*
X26975500Y-27080000D01*
G75*
G02*
X27063000Y-27167500I0J-87500D01*
G01*
X27063000Y-27967500D01*
G75*
G02*
X26975500Y-28055000I-87500J0D01*
G01*
X26800500Y-28055000D01*
G75*
G02*
X26713000Y-27967500I0J87500D01*
G01*
G37*
G36*
G01*
X26213000Y-27967500D02*
X26213000Y-27167500D01*
G75*
G02*
X26300500Y-27080000I87500J0D01*
G01*
X26475500Y-27080000D01*
G75*
G02*
X26563000Y-27167500I0J-87500D01*
G01*
X26563000Y-27967500D01*
G75*
G02*
X26475500Y-28055000I-87500J0D01*
G01*
X26300500Y-28055000D01*
G75*
G02*
X26213000Y-27967500I0J87500D01*
G01*
G37*
G36*
G01*
X25713000Y-27967500D02*
X25713000Y-27167500D01*
G75*
G02*
X25800500Y-27080000I87500J0D01*
G01*
X25975500Y-27080000D01*
G75*
G02*
X26063000Y-27167500I0J-87500D01*
G01*
X26063000Y-27967500D01*
G75*
G02*
X25975500Y-28055000I-87500J0D01*
G01*
X25800500Y-28055000D01*
G75*
G02*
X25713000Y-27967500I0J87500D01*
G01*
G37*
G36*
G01*
X25213000Y-27967500D02*
X25213000Y-27167500D01*
G75*
G02*
X25300500Y-27080000I87500J0D01*
G01*
X25475500Y-27080000D01*
G75*
G02*
X25563000Y-27167500I0J-87500D01*
G01*
X25563000Y-27967500D01*
G75*
G02*
X25475500Y-28055000I-87500J0D01*
G01*
X25300500Y-28055000D01*
G75*
G02*
X25213000Y-27967500I0J87500D01*
G01*
G37*
G36*
G01*
X24713000Y-27967500D02*
X24713000Y-27167500D01*
G75*
G02*
X24800500Y-27080000I87500J0D01*
G01*
X24975500Y-27080000D01*
G75*
G02*
X25063000Y-27167500I0J-87500D01*
G01*
X25063000Y-27967500D01*
G75*
G02*
X24975500Y-28055000I-87500J0D01*
G01*
X24800500Y-28055000D01*
G75*
G02*
X24713000Y-27967500I0J87500D01*
G01*
G37*
G36*
G01*
X24213000Y-27967500D02*
X24213000Y-27167500D01*
G75*
G02*
X24300500Y-27080000I87500J0D01*
G01*
X24475500Y-27080000D01*
G75*
G02*
X24563000Y-27167500I0J-87500D01*
G01*
X24563000Y-27967500D01*
G75*
G02*
X24475500Y-28055000I-87500J0D01*
G01*
X24300500Y-28055000D01*
G75*
G02*
X24213000Y-27967500I0J87500D01*
G01*
G37*
G36*
G01*
X23713000Y-27967500D02*
X23713000Y-27167500D01*
G75*
G02*
X23800500Y-27080000I87500J0D01*
G01*
X23975500Y-27080000D01*
G75*
G02*
X24063000Y-27167500I0J-87500D01*
G01*
X24063000Y-27967500D01*
G75*
G02*
X23975500Y-28055000I-87500J0D01*
G01*
X23800500Y-28055000D01*
G75*
G02*
X23713000Y-27967500I0J87500D01*
G01*
G37*
G36*
G01*
X23213000Y-27967500D02*
X23213000Y-27167500D01*
G75*
G02*
X23300500Y-27080000I87500J0D01*
G01*
X23475500Y-27080000D01*
G75*
G02*
X23563000Y-27167500I0J-87500D01*
G01*
X23563000Y-27967500D01*
G75*
G02*
X23475500Y-28055000I-87500J0D01*
G01*
X23300500Y-28055000D01*
G75*
G02*
X23213000Y-27967500I0J87500D01*
G01*
G37*
G36*
G01*
X22713000Y-27967500D02*
X22713000Y-27167500D01*
G75*
G02*
X22800500Y-27080000I87500J0D01*
G01*
X22975500Y-27080000D01*
G75*
G02*
X23063000Y-27167500I0J-87500D01*
G01*
X23063000Y-27967500D01*
G75*
G02*
X22975500Y-28055000I-87500J0D01*
G01*
X22800500Y-28055000D01*
G75*
G02*
X22713000Y-27967500I0J87500D01*
G01*
G37*
G36*
G01*
X22213000Y-27967500D02*
X22213000Y-27167500D01*
G75*
G02*
X22300500Y-27080000I87500J0D01*
G01*
X22475500Y-27080000D01*
G75*
G02*
X22563000Y-27167500I0J-87500D01*
G01*
X22563000Y-27967500D01*
G75*
G02*
X22475500Y-28055000I-87500J0D01*
G01*
X22300500Y-28055000D01*
G75*
G02*
X22213000Y-27967500I0J87500D01*
G01*
G37*
G36*
G01*
X21713000Y-27967500D02*
X21713000Y-27167500D01*
G75*
G02*
X21800500Y-27080000I87500J0D01*
G01*
X21975500Y-27080000D01*
G75*
G02*
X22063000Y-27167500I0J-87500D01*
G01*
X22063000Y-27967500D01*
G75*
G02*
X21975500Y-28055000I-87500J0D01*
G01*
X21800500Y-28055000D01*
G75*
G02*
X21713000Y-27967500I0J87500D01*
G01*
G37*
G36*
G01*
X20713000Y-26967500D02*
X20713000Y-26792500D01*
G75*
G02*
X20800500Y-26705000I87500J0D01*
G01*
X21600500Y-26705000D01*
G75*
G02*
X21688000Y-26792500I0J-87500D01*
G01*
X21688000Y-26967500D01*
G75*
G02*
X21600500Y-27055000I-87500J0D01*
G01*
X20800500Y-27055000D01*
G75*
G02*
X20713000Y-26967500I0J87500D01*
G01*
G37*
G36*
G01*
X20713000Y-26467500D02*
X20713000Y-26292500D01*
G75*
G02*
X20800500Y-26205000I87500J0D01*
G01*
X21600500Y-26205000D01*
G75*
G02*
X21688000Y-26292500I0J-87500D01*
G01*
X21688000Y-26467500D01*
G75*
G02*
X21600500Y-26555000I-87500J0D01*
G01*
X20800500Y-26555000D01*
G75*
G02*
X20713000Y-26467500I0J87500D01*
G01*
G37*
G36*
G01*
X20713000Y-25967500D02*
X20713000Y-25792500D01*
G75*
G02*
X20800500Y-25705000I87500J0D01*
G01*
X21600500Y-25705000D01*
G75*
G02*
X21688000Y-25792500I0J-87500D01*
G01*
X21688000Y-25967500D01*
G75*
G02*
X21600500Y-26055000I-87500J0D01*
G01*
X20800500Y-26055000D01*
G75*
G02*
X20713000Y-25967500I0J87500D01*
G01*
G37*
G36*
G01*
X20713000Y-25467500D02*
X20713000Y-25292500D01*
G75*
G02*
X20800500Y-25205000I87500J0D01*
G01*
X21600500Y-25205000D01*
G75*
G02*
X21688000Y-25292500I0J-87500D01*
G01*
X21688000Y-25467500D01*
G75*
G02*
X21600500Y-25555000I-87500J0D01*
G01*
X20800500Y-25555000D01*
G75*
G02*
X20713000Y-25467500I0J87500D01*
G01*
G37*
G36*
G01*
X20713000Y-24967500D02*
X20713000Y-24792500D01*
G75*
G02*
X20800500Y-24705000I87500J0D01*
G01*
X21600500Y-24705000D01*
G75*
G02*
X21688000Y-24792500I0J-87500D01*
G01*
X21688000Y-24967500D01*
G75*
G02*
X21600500Y-25055000I-87500J0D01*
G01*
X20800500Y-25055000D01*
G75*
G02*
X20713000Y-24967500I0J87500D01*
G01*
G37*
G36*
G01*
X20713000Y-24467500D02*
X20713000Y-24292500D01*
G75*
G02*
X20800500Y-24205000I87500J0D01*
G01*
X21600500Y-24205000D01*
G75*
G02*
X21688000Y-24292500I0J-87500D01*
G01*
X21688000Y-24467500D01*
G75*
G02*
X21600500Y-24555000I-87500J0D01*
G01*
X20800500Y-24555000D01*
G75*
G02*
X20713000Y-24467500I0J87500D01*
G01*
G37*
G36*
G01*
X20713000Y-23967500D02*
X20713000Y-23792500D01*
G75*
G02*
X20800500Y-23705000I87500J0D01*
G01*
X21600500Y-23705000D01*
G75*
G02*
X21688000Y-23792500I0J-87500D01*
G01*
X21688000Y-23967500D01*
G75*
G02*
X21600500Y-24055000I-87500J0D01*
G01*
X20800500Y-24055000D01*
G75*
G02*
X20713000Y-23967500I0J87500D01*
G01*
G37*
G36*
G01*
X20713000Y-23467500D02*
X20713000Y-23292500D01*
G75*
G02*
X20800500Y-23205000I87500J0D01*
G01*
X21600500Y-23205000D01*
G75*
G02*
X21688000Y-23292500I0J-87500D01*
G01*
X21688000Y-23467500D01*
G75*
G02*
X21600500Y-23555000I-87500J0D01*
G01*
X20800500Y-23555000D01*
G75*
G02*
X20713000Y-23467500I0J87500D01*
G01*
G37*
G36*
G01*
X20713000Y-22967500D02*
X20713000Y-22792500D01*
G75*
G02*
X20800500Y-22705000I87500J0D01*
G01*
X21600500Y-22705000D01*
G75*
G02*
X21688000Y-22792500I0J-87500D01*
G01*
X21688000Y-22967500D01*
G75*
G02*
X21600500Y-23055000I-87500J0D01*
G01*
X20800500Y-23055000D01*
G75*
G02*
X20713000Y-22967500I0J87500D01*
G01*
G37*
G36*
G01*
X20713000Y-22467500D02*
X20713000Y-22292500D01*
G75*
G02*
X20800500Y-22205000I87500J0D01*
G01*
X21600500Y-22205000D01*
G75*
G02*
X21688000Y-22292500I0J-87500D01*
G01*
X21688000Y-22467500D01*
G75*
G02*
X21600500Y-22555000I-87500J0D01*
G01*
X20800500Y-22555000D01*
G75*
G02*
X20713000Y-22467500I0J87500D01*
G01*
G37*
G36*
G01*
X20713000Y-21967500D02*
X20713000Y-21792500D01*
G75*
G02*
X20800500Y-21705000I87500J0D01*
G01*
X21600500Y-21705000D01*
G75*
G02*
X21688000Y-21792500I0J-87500D01*
G01*
X21688000Y-21967500D01*
G75*
G02*
X21600500Y-22055000I-87500J0D01*
G01*
X20800500Y-22055000D01*
G75*
G02*
X20713000Y-21967500I0J87500D01*
G01*
G37*
G36*
G01*
X20713000Y-21467500D02*
X20713000Y-21292500D01*
G75*
G02*
X20800500Y-21205000I87500J0D01*
G01*
X21600500Y-21205000D01*
G75*
G02*
X21688000Y-21292500I0J-87500D01*
G01*
X21688000Y-21467500D01*
G75*
G02*
X21600500Y-21555000I-87500J0D01*
G01*
X20800500Y-21555000D01*
G75*
G02*
X20713000Y-21467500I0J87500D01*
G01*
G37*
%TD*%
%TO.C,R4*%
G36*
G01*
X27103250Y-38533000D02*
X26540750Y-38533000D01*
G75*
G02*
X26297000Y-38289250I0J243750D01*
G01*
X26297000Y-37801750D01*
G75*
G02*
X26540750Y-37558000I243750J0D01*
G01*
X27103250Y-37558000D01*
G75*
G02*
X27347000Y-37801750I0J-243750D01*
G01*
X27347000Y-38289250D01*
G75*
G02*
X27103250Y-38533000I-243750J0D01*
G01*
G37*
G36*
G01*
X27103250Y-40108000D02*
X26540750Y-40108000D01*
G75*
G02*
X26297000Y-39864250I0J243750D01*
G01*
X26297000Y-39376750D01*
G75*
G02*
X26540750Y-39133000I243750J0D01*
G01*
X27103250Y-39133000D01*
G75*
G02*
X27347000Y-39376750I0J-243750D01*
G01*
X27347000Y-39864250D01*
G75*
G02*
X27103250Y-40108000I-243750J0D01*
G01*
G37*
%TD*%
%TO.C,R3*%
G36*
G01*
X20922750Y-32734000D02*
X21485250Y-32734000D01*
G75*
G02*
X21729000Y-32977750I0J-243750D01*
G01*
X21729000Y-33465250D01*
G75*
G02*
X21485250Y-33709000I-243750J0D01*
G01*
X20922750Y-33709000D01*
G75*
G02*
X20679000Y-33465250I0J243750D01*
G01*
X20679000Y-32977750D01*
G75*
G02*
X20922750Y-32734000I243750J0D01*
G01*
G37*
G36*
G01*
X20922750Y-31159000D02*
X21485250Y-31159000D01*
G75*
G02*
X21729000Y-31402750I0J-243750D01*
G01*
X21729000Y-31890250D01*
G75*
G02*
X21485250Y-32134000I-243750J0D01*
G01*
X20922750Y-32134000D01*
G75*
G02*
X20679000Y-31890250I0J243750D01*
G01*
X20679000Y-31402750D01*
G75*
G02*
X20922750Y-31159000I243750J0D01*
G01*
G37*
%TD*%
%TO.C,R2*%
G36*
G01*
X23385250Y-32134000D02*
X22822750Y-32134000D01*
G75*
G02*
X22579000Y-31890250I0J243750D01*
G01*
X22579000Y-31402750D01*
G75*
G02*
X22822750Y-31159000I243750J0D01*
G01*
X23385250Y-31159000D01*
G75*
G02*
X23629000Y-31402750I0J-243750D01*
G01*
X23629000Y-31890250D01*
G75*
G02*
X23385250Y-32134000I-243750J0D01*
G01*
G37*
G36*
G01*
X23385250Y-33709000D02*
X22822750Y-33709000D01*
G75*
G02*
X22579000Y-33465250I0J243750D01*
G01*
X22579000Y-32977750D01*
G75*
G02*
X22822750Y-32734000I243750J0D01*
G01*
X23385250Y-32734000D01*
G75*
G02*
X23629000Y-32977750I0J-243750D01*
G01*
X23629000Y-33465250D01*
G75*
G02*
X23385250Y-33709000I-243750J0D01*
G01*
G37*
%TD*%
%TO.C,R1*%
G36*
G01*
X24157250Y-17607000D02*
X23594750Y-17607000D01*
G75*
G02*
X23351000Y-17363250I0J243750D01*
G01*
X23351000Y-16875750D01*
G75*
G02*
X23594750Y-16632000I243750J0D01*
G01*
X24157250Y-16632000D01*
G75*
G02*
X24401000Y-16875750I0J-243750D01*
G01*
X24401000Y-17363250D01*
G75*
G02*
X24157250Y-17607000I-243750J0D01*
G01*
G37*
G36*
G01*
X24157250Y-19182000D02*
X23594750Y-19182000D01*
G75*
G02*
X23351000Y-18938250I0J243750D01*
G01*
X23351000Y-18450750D01*
G75*
G02*
X23594750Y-18207000I243750J0D01*
G01*
X24157250Y-18207000D01*
G75*
G02*
X24401000Y-18450750I0J-243750D01*
G01*
X24401000Y-18938250D01*
G75*
G02*
X24157250Y-19182000I-243750J0D01*
G01*
G37*
%TD*%
D16*
%TO.C,Q1*%
X22154000Y-36734000D03*
X21204000Y-34734000D03*
X23104000Y-34734000D03*
%TD*%
D18*
%TO.C,J3*%
X30734000Y-23582000D03*
X30734000Y-22332000D03*
X30734000Y-21082000D03*
D19*
X30734000Y-19832000D03*
%TD*%
D20*
%TO.C,J2*%
X28700000Y-13800000D03*
X31300000Y-13800000D03*
%TD*%
%TO.C,C8*%
G36*
G01*
X28603250Y-38533000D02*
X28040750Y-38533000D01*
G75*
G02*
X27797000Y-38289250I0J243750D01*
G01*
X27797000Y-37801750D01*
G75*
G02*
X28040750Y-37558000I243750J0D01*
G01*
X28603250Y-37558000D01*
G75*
G02*
X28847000Y-37801750I0J-243750D01*
G01*
X28847000Y-38289250D01*
G75*
G02*
X28603250Y-38533000I-243750J0D01*
G01*
G37*
G36*
G01*
X28603250Y-40108000D02*
X28040750Y-40108000D01*
G75*
G02*
X27797000Y-39864250I0J243750D01*
G01*
X27797000Y-39376750D01*
G75*
G02*
X28040750Y-39133000I243750J0D01*
G01*
X28603250Y-39133000D01*
G75*
G02*
X28847000Y-39376750I0J-243750D01*
G01*
X28847000Y-39864250D01*
G75*
G02*
X28603250Y-40108000I-243750J0D01*
G01*
G37*
%TD*%
%TO.C,C7*%
G36*
G01*
X16464000Y-36294750D02*
X16464000Y-36857250D01*
G75*
G02*
X16220250Y-37101000I-243750J0D01*
G01*
X15732750Y-37101000D01*
G75*
G02*
X15489000Y-36857250I0J243750D01*
G01*
X15489000Y-36294750D01*
G75*
G02*
X15732750Y-36051000I243750J0D01*
G01*
X16220250Y-36051000D01*
G75*
G02*
X16464000Y-36294750I0J-243750D01*
G01*
G37*
G36*
G01*
X18039000Y-36294750D02*
X18039000Y-36857250D01*
G75*
G02*
X17795250Y-37101000I-243750J0D01*
G01*
X17307750Y-37101000D01*
G75*
G02*
X17064000Y-36857250I0J243750D01*
G01*
X17064000Y-36294750D01*
G75*
G02*
X17307750Y-36051000I243750J0D01*
G01*
X17795250Y-36051000D01*
G75*
G02*
X18039000Y-36294750I0J-243750D01*
G01*
G37*
%TD*%
%TO.C,C6*%
G36*
G01*
X19022750Y-34131962D02*
X19585250Y-34131962D01*
G75*
G02*
X19829000Y-34375712I0J-243750D01*
G01*
X19829000Y-34863212D01*
G75*
G02*
X19585250Y-35106962I-243750J0D01*
G01*
X19022750Y-35106962D01*
G75*
G02*
X18779000Y-34863212I0J243750D01*
G01*
X18779000Y-34375712D01*
G75*
G02*
X19022750Y-34131962I243750J0D01*
G01*
G37*
G36*
G01*
X19022750Y-32556962D02*
X19585250Y-32556962D01*
G75*
G02*
X19829000Y-32800712I0J-243750D01*
G01*
X19829000Y-33288212D01*
G75*
G02*
X19585250Y-33531962I-243750J0D01*
G01*
X19022750Y-33531962D01*
G75*
G02*
X18779000Y-33288212I0J243750D01*
G01*
X18779000Y-32800712D01*
G75*
G02*
X19022750Y-32556962I243750J0D01*
G01*
G37*
%TD*%
%TO.C,C5*%
G36*
G01*
X19839250Y-20274000D02*
X19276750Y-20274000D01*
G75*
G02*
X19033000Y-20030250I0J243750D01*
G01*
X19033000Y-19542750D01*
G75*
G02*
X19276750Y-19299000I243750J0D01*
G01*
X19839250Y-19299000D01*
G75*
G02*
X20083000Y-19542750I0J-243750D01*
G01*
X20083000Y-20030250D01*
G75*
G02*
X19839250Y-20274000I-243750J0D01*
G01*
G37*
G36*
G01*
X19839250Y-21849000D02*
X19276750Y-21849000D01*
G75*
G02*
X19033000Y-21605250I0J243750D01*
G01*
X19033000Y-21117750D01*
G75*
G02*
X19276750Y-20874000I243750J0D01*
G01*
X19839250Y-20874000D01*
G75*
G02*
X20083000Y-21117750I0J-243750D01*
G01*
X20083000Y-21605250D01*
G75*
G02*
X19839250Y-21849000I-243750J0D01*
G01*
G37*
%TD*%
%TO.C,C4*%
G36*
G01*
X28348250Y-17607000D02*
X27785750Y-17607000D01*
G75*
G02*
X27542000Y-17363250I0J243750D01*
G01*
X27542000Y-16875750D01*
G75*
G02*
X27785750Y-16632000I243750J0D01*
G01*
X28348250Y-16632000D01*
G75*
G02*
X28592000Y-16875750I0J-243750D01*
G01*
X28592000Y-17363250D01*
G75*
G02*
X28348250Y-17607000I-243750J0D01*
G01*
G37*
G36*
G01*
X28348250Y-19182000D02*
X27785750Y-19182000D01*
G75*
G02*
X27542000Y-18938250I0J243750D01*
G01*
X27542000Y-18450750D01*
G75*
G02*
X27785750Y-18207000I243750J0D01*
G01*
X28348250Y-18207000D01*
G75*
G02*
X28592000Y-18450750I0J-243750D01*
G01*
X28592000Y-18938250D01*
G75*
G02*
X28348250Y-19182000I-243750J0D01*
G01*
G37*
%TD*%
%TO.C,C3*%
G36*
G01*
X28420750Y-30653000D02*
X28983250Y-30653000D01*
G75*
G02*
X29227000Y-30896750I0J-243750D01*
G01*
X29227000Y-31384250D01*
G75*
G02*
X28983250Y-31628000I-243750J0D01*
G01*
X28420750Y-31628000D01*
G75*
G02*
X28177000Y-31384250I0J243750D01*
G01*
X28177000Y-30896750D01*
G75*
G02*
X28420750Y-30653000I243750J0D01*
G01*
G37*
G36*
G01*
X28420750Y-29078000D02*
X28983250Y-29078000D01*
G75*
G02*
X29227000Y-29321750I0J-243750D01*
G01*
X29227000Y-29809250D01*
G75*
G02*
X28983250Y-30053000I-243750J0D01*
G01*
X28420750Y-30053000D01*
G75*
G02*
X28177000Y-29809250I0J243750D01*
G01*
X28177000Y-29321750D01*
G75*
G02*
X28420750Y-29078000I243750J0D01*
G01*
G37*
%TD*%
%TO.C,C2*%
G36*
G01*
X22125250Y-17607000D02*
X21562750Y-17607000D01*
G75*
G02*
X21319000Y-17363250I0J243750D01*
G01*
X21319000Y-16875750D01*
G75*
G02*
X21562750Y-16632000I243750J0D01*
G01*
X22125250Y-16632000D01*
G75*
G02*
X22369000Y-16875750I0J-243750D01*
G01*
X22369000Y-17363250D01*
G75*
G02*
X22125250Y-17607000I-243750J0D01*
G01*
G37*
G36*
G01*
X22125250Y-19182000D02*
X21562750Y-19182000D01*
G75*
G02*
X21319000Y-18938250I0J243750D01*
G01*
X21319000Y-18450750D01*
G75*
G02*
X21562750Y-18207000I243750J0D01*
G01*
X22125250Y-18207000D01*
G75*
G02*
X22369000Y-18450750I0J-243750D01*
G01*
X22369000Y-18938250D01*
G75*
G02*
X22125250Y-19182000I-243750J0D01*
G01*
G37*
%TD*%
%TO.C,C1*%
G36*
G01*
X27459250Y-30053000D02*
X26896750Y-30053000D01*
G75*
G02*
X26653000Y-29809250I0J243750D01*
G01*
X26653000Y-29321750D01*
G75*
G02*
X26896750Y-29078000I243750J0D01*
G01*
X27459250Y-29078000D01*
G75*
G02*
X27703000Y-29321750I0J-243750D01*
G01*
X27703000Y-29809250D01*
G75*
G02*
X27459250Y-30053000I-243750J0D01*
G01*
G37*
G36*
G01*
X27459250Y-31628000D02*
X26896750Y-31628000D01*
G75*
G02*
X26653000Y-31384250I0J243750D01*
G01*
X26653000Y-30896750D01*
G75*
G02*
X26896750Y-30653000I243750J0D01*
G01*
X27459250Y-30653000D01*
G75*
G02*
X27703000Y-30896750I0J-243750D01*
G01*
X27703000Y-31384250D01*
G75*
G02*
X27459250Y-31628000I-243750J0D01*
G01*
G37*
%TD*%
M02*
