%TF.GenerationSoftware,KiCad,Pcbnew,(5.1.6)-1*%
%TF.CreationDate,2020-12-08T12:03:19+08:00*%
%TF.ProjectId,LED_A1.0,4c45445f-4131-42e3-902e-6b696361645f,rev?*%
%TF.SameCoordinates,Original*%
%TF.FileFunction,Copper,L2,Bot*%
%TF.FilePolarity,Positive*%
%FSLAX46Y46*%
G04 Gerber Fmt 4.6, Leading zero omitted, Abs format (unit mm)*
G04 Created by KiCad (PCBNEW (5.1.6)-1) date 2020-12-08 12:03:19*
%MOMM*%
%LPD*%
G01*
G04 APERTURE LIST*
%TA.AperFunction,SMDPad,CuDef*%
%ADD10R,0.800000X0.450000*%
%TD*%
%TA.AperFunction,SMDPad,CuDef*%
%ADD11R,0.450000X0.800000*%
%TD*%
%TA.AperFunction,ViaPad*%
%ADD12C,0.800000*%
%TD*%
%TA.AperFunction,Conductor*%
%ADD13C,0.635000*%
%TD*%
%TA.AperFunction,Conductor*%
%ADD14C,0.250000*%
%TD*%
%TA.AperFunction,Conductor*%
%ADD15C,0.254000*%
%TD*%
G04 APERTURE END LIST*
D10*
%TO.P,D3,1*%
%TO.N,+5V*%
X51268400Y-37723000D03*
%TO.P,D3,4*%
%TO.N,Net-(D3-Pad4)*%
X51268400Y-36953000D03*
D11*
%TO.P,D3,1*%
%TO.N,+5V*%
X51587400Y-37898000D03*
%TO.P,D3,4*%
%TO.N,Net-(D3-Pad4)*%
X51587400Y-36778000D03*
D10*
%TO.P,D3,2*%
%TO.N,Net-(D3-Pad2)*%
X52668400Y-37723000D03*
D11*
X52349400Y-37898000D03*
D10*
%TO.P,D3,3*%
%TO.N,Net-(D3-Pad3)*%
X52668400Y-36953000D03*
D11*
X52349400Y-36778000D03*
%TD*%
D10*
%TO.P,D2,1*%
%TO.N,+5V*%
X22696400Y-36953000D03*
%TO.P,D2,4*%
%TO.N,Net-(D2-Pad4)*%
X22696400Y-37723000D03*
D11*
%TO.P,D2,1*%
%TO.N,+5V*%
X22377400Y-36778000D03*
%TO.P,D2,4*%
%TO.N,Net-(D2-Pad4)*%
X22377400Y-37898000D03*
D10*
%TO.P,D2,2*%
%TO.N,Net-(D2-Pad2)*%
X21296400Y-36953000D03*
D11*
X21615400Y-36778000D03*
D10*
%TO.P,D2,3*%
%TO.N,Net-(D2-Pad3)*%
X21296400Y-37723000D03*
D11*
X21615400Y-37898000D03*
%TD*%
D10*
%TO.P,D1,1*%
%TO.N,+5V*%
X36257000Y-16463200D03*
%TO.P,D1,4*%
%TO.N,Net-(D1-Pad4)*%
X36257000Y-15693200D03*
D11*
%TO.P,D1,1*%
%TO.N,+5V*%
X36576000Y-16638200D03*
%TO.P,D1,4*%
%TO.N,Net-(D1-Pad4)*%
X36576000Y-15518200D03*
D10*
%TO.P,D1,2*%
%TO.N,Net-(D1-Pad2)*%
X37657000Y-16463200D03*
D11*
X37338000Y-16638200D03*
D10*
%TO.P,D1,3*%
%TO.N,Net-(D1-Pad3)*%
X37657000Y-15693200D03*
D11*
X37338000Y-15518200D03*
%TD*%
D12*
%TO.N,Earth*%
X47332900Y-33134300D03*
X35229800Y-26352500D03*
%TO.N,Net-(D2-Pad4)*%
X23698200Y-37820600D03*
%TO.N,Net-(D2-Pad3)*%
X21336000Y-37973000D03*
%TO.N,Net-(D2-Pad2)*%
X21310600Y-36677600D03*
%TO.N,Net-(D1-Pad2)*%
X35534600Y-20015200D03*
%TO.N,Net-(D3-Pad2)*%
X52730400Y-38011100D03*
%TO.N,Net-(D3-Pad4)*%
X48691800Y-35356800D03*
%TO.N,+5V*%
X25615900Y-31356300D03*
X26098500Y-31838900D03*
%TO.N,Net-(D1-Pad4)*%
X36220400Y-15417800D03*
%TO.N,Net-(D1-Pad3)*%
X36982400Y-19964400D03*
%TO.N,Net-(D3-Pad3)*%
X50590451Y-35744149D03*
%TO.N,Earth*%
X40767000Y-21653500D03*
X42303700Y-23774400D03*
X44132500Y-26390600D03*
X48526700Y-32156400D03*
X45313600Y-33121600D03*
X49339500Y-33159700D03*
X35725100Y-25006300D03*
X38684200Y-26314400D03*
X38112700Y-24942800D03*
X33020000Y-21729700D03*
X31762700Y-23812500D03*
X30162500Y-26454100D03*
%TO.N,/LED_B_O*%
X40627300Y-27889200D03*
X40132000Y-34697510D03*
%TO.N,/LED_R_O*%
X37084000Y-36068000D03*
X36995100Y-27863800D03*
%TO.N,/LED_G_O*%
X33362900Y-27838400D03*
X33604200Y-33670810D03*
%TD*%
D13*
%TO.N,+5V*%
X26098500Y-31838900D02*
X25615900Y-31356300D01*
X25615900Y-31356300D02*
X25615900Y-31026100D01*
X35449511Y-16638200D02*
X36395499Y-16638200D01*
X26027542Y-29991090D02*
X35449511Y-16638200D01*
X22631491Y-36704410D02*
X22557901Y-36778000D01*
X22631491Y-34803999D02*
X22631491Y-36704410D01*
X26027542Y-29991089D02*
X25430820Y-30836767D01*
X25019000Y-36703000D02*
X22946400Y-36703000D01*
X26314400Y-37998400D02*
X25019000Y-36703000D01*
X51409600Y-37884100D02*
X51295300Y-37998400D01*
X51295300Y-37998400D02*
X26314400Y-37998400D01*
X25234900Y-31356300D02*
X25134837Y-31256237D01*
X25615900Y-31356300D02*
X25234900Y-31356300D01*
X25430820Y-30836767D02*
X25134837Y-31256237D01*
X25134837Y-31256237D02*
X22631491Y-34803999D01*
D14*
%TO.N,Net-(D1-Pad2)*%
X37338000Y-18211800D02*
X37338000Y-16638200D01*
X35534600Y-20015200D02*
X37338000Y-18211800D01*
%TO.N,Net-(D1-Pad3)*%
X38097002Y-15693200D02*
X38430200Y-16026398D01*
X37657000Y-15693200D02*
X38097002Y-15693200D01*
X38430200Y-18516600D02*
X36982400Y-19964400D01*
X38430200Y-16026398D02*
X38430200Y-18516600D01*
%TO.N,Net-(D2-Pad4)*%
X22794000Y-37820600D02*
X22696400Y-37723000D01*
X23698200Y-37820600D02*
X22794000Y-37820600D01*
%TO.N,Net-(D2-Pad2)*%
X21310600Y-36938800D02*
X21296400Y-36953000D01*
X21310600Y-36677600D02*
X21310600Y-36938800D01*
%TO.N,Net-(D2-Pad3)*%
X21336000Y-37762600D02*
X21296400Y-37723000D01*
X21336000Y-37973000D02*
X21336000Y-37762600D01*
%TO.N,Net-(D3-Pad4)*%
X50113000Y-36778000D02*
X51587400Y-36778000D01*
X48691800Y-35356800D02*
X50113000Y-36778000D01*
%TO.N,Net-(D3-Pad3)*%
X52668400Y-36953000D02*
X52668400Y-36430915D01*
X52668400Y-36430915D02*
X51981634Y-35744149D01*
X51981634Y-35744149D02*
X50590451Y-35744149D01*
%TO.N,/LED_B_O*%
X40589200Y-34240310D02*
X40132000Y-34697510D01*
X40589200Y-28219400D02*
X40589200Y-34240310D01*
%TO.N,/LED_R_O*%
X36957000Y-35941000D02*
X37084000Y-36068000D01*
X36957000Y-28194000D02*
X36957000Y-35941000D01*
%TO.N,/LED_G_O*%
X33324800Y-33391410D02*
X33604200Y-33670810D01*
X33324800Y-28168600D02*
X33324800Y-33391410D01*
%TD*%
D15*
%TO.N,Earth*%
G36*
X52044765Y-35241919D02*
G01*
X52006488Y-35238149D01*
X52006480Y-35238149D01*
X51981634Y-35235702D01*
X51956788Y-35238149D01*
X51188952Y-35238149D01*
X51088310Y-35137507D01*
X50960393Y-35052036D01*
X50818260Y-34993162D01*
X50667373Y-34963149D01*
X50513529Y-34963149D01*
X50362642Y-34993162D01*
X50220509Y-35052036D01*
X50092592Y-35137507D01*
X49983809Y-35246290D01*
X49898338Y-35374207D01*
X49839464Y-35516340D01*
X49809451Y-35667227D01*
X49809451Y-35758859D01*
X49472800Y-35422209D01*
X49472800Y-35279878D01*
X49442787Y-35128991D01*
X49383913Y-34986858D01*
X49298442Y-34858941D01*
X49189659Y-34750158D01*
X49061742Y-34664687D01*
X48919609Y-34605813D01*
X48768722Y-34575800D01*
X48614878Y-34575800D01*
X48463991Y-34605813D01*
X48321858Y-34664687D01*
X48193941Y-34750158D01*
X48085158Y-34858941D01*
X47999687Y-34986858D01*
X47940813Y-35128991D01*
X47910800Y-35279878D01*
X47910800Y-35433722D01*
X47940813Y-35584609D01*
X47999687Y-35726742D01*
X48085158Y-35854659D01*
X48193941Y-35963442D01*
X48321858Y-36048913D01*
X48463991Y-36107787D01*
X48614878Y-36137800D01*
X48757209Y-36137800D01*
X49737628Y-37118220D01*
X49753473Y-37137527D01*
X49830521Y-37200759D01*
X49918425Y-37247745D01*
X49991607Y-37269944D01*
X50013806Y-37276678D01*
X50023694Y-37277652D01*
X50088146Y-37284000D01*
X50088153Y-37284000D01*
X50112999Y-37286447D01*
X50137845Y-37284000D01*
X50502411Y-37284000D01*
X50507234Y-37299900D01*
X26603729Y-37299900D01*
X25537175Y-36233348D01*
X25515303Y-36206697D01*
X25408943Y-36119409D01*
X25287597Y-36054548D01*
X25155930Y-36014607D01*
X25053309Y-36004500D01*
X25053298Y-36004500D01*
X25019000Y-36001122D01*
X24984702Y-36004500D01*
X23329991Y-36004500D01*
X23329991Y-35025624D01*
X25373526Y-32129510D01*
X25406387Y-32208842D01*
X25491858Y-32336759D01*
X25600641Y-32445542D01*
X25728558Y-32531013D01*
X25870691Y-32589887D01*
X26021578Y-32619900D01*
X26175422Y-32619900D01*
X26326309Y-32589887D01*
X26468442Y-32531013D01*
X26596359Y-32445542D01*
X26705142Y-32336759D01*
X26790613Y-32208842D01*
X26849487Y-32066709D01*
X26879500Y-31915822D01*
X26879500Y-31761978D01*
X26849487Y-31611091D01*
X26790613Y-31468958D01*
X26705142Y-31341041D01*
X26596359Y-31232258D01*
X26468442Y-31146787D01*
X26355002Y-31099798D01*
X26314400Y-31001777D01*
X26314400Y-30991792D01*
X26304293Y-30889171D01*
X26287586Y-30834096D01*
X26617837Y-30366065D01*
X28455666Y-27761478D01*
X32581900Y-27761478D01*
X32581900Y-27915322D01*
X32611913Y-28066209D01*
X32670787Y-28208342D01*
X32756258Y-28336259D01*
X32818800Y-28398801D01*
X32818801Y-33366554D01*
X32816353Y-33391410D01*
X32826122Y-33490602D01*
X32836765Y-33525690D01*
X32823200Y-33593888D01*
X32823200Y-33747732D01*
X32853213Y-33898619D01*
X32912087Y-34040752D01*
X32997558Y-34168669D01*
X33106341Y-34277452D01*
X33234258Y-34362923D01*
X33376391Y-34421797D01*
X33527278Y-34451810D01*
X33681122Y-34451810D01*
X33832009Y-34421797D01*
X33974142Y-34362923D01*
X34102059Y-34277452D01*
X34210842Y-34168669D01*
X34296313Y-34040752D01*
X34355187Y-33898619D01*
X34385200Y-33747732D01*
X34385200Y-33593888D01*
X34355187Y-33443001D01*
X34296313Y-33300868D01*
X34210842Y-33172951D01*
X34102059Y-33064168D01*
X33974142Y-32978697D01*
X33832009Y-32919823D01*
X33830800Y-32919583D01*
X33830800Y-28465060D01*
X33860759Y-28445042D01*
X33969542Y-28336259D01*
X34055013Y-28208342D01*
X34113887Y-28066209D01*
X34143900Y-27915322D01*
X34143900Y-27786878D01*
X36214100Y-27786878D01*
X36214100Y-27940722D01*
X36244113Y-28091609D01*
X36302987Y-28233742D01*
X36388458Y-28361659D01*
X36451000Y-28424201D01*
X36451001Y-35609587D01*
X36391887Y-35698058D01*
X36333013Y-35840191D01*
X36303000Y-35991078D01*
X36303000Y-36144922D01*
X36333013Y-36295809D01*
X36391887Y-36437942D01*
X36477358Y-36565859D01*
X36586141Y-36674642D01*
X36714058Y-36760113D01*
X36856191Y-36818987D01*
X37007078Y-36849000D01*
X37160922Y-36849000D01*
X37311809Y-36818987D01*
X37453942Y-36760113D01*
X37581859Y-36674642D01*
X37690642Y-36565859D01*
X37776113Y-36437942D01*
X37834987Y-36295809D01*
X37865000Y-36144922D01*
X37865000Y-35991078D01*
X37834987Y-35840191D01*
X37776113Y-35698058D01*
X37690642Y-35570141D01*
X37581859Y-35461358D01*
X37463000Y-35381939D01*
X37463000Y-34620588D01*
X39351000Y-34620588D01*
X39351000Y-34774432D01*
X39381013Y-34925319D01*
X39439887Y-35067452D01*
X39525358Y-35195369D01*
X39634141Y-35304152D01*
X39762058Y-35389623D01*
X39904191Y-35448497D01*
X40055078Y-35478510D01*
X40208922Y-35478510D01*
X40359809Y-35448497D01*
X40501942Y-35389623D01*
X40629859Y-35304152D01*
X40738642Y-35195369D01*
X40824113Y-35067452D01*
X40882987Y-34925319D01*
X40913000Y-34774432D01*
X40913000Y-34632102D01*
X40929420Y-34615682D01*
X40948727Y-34599837D01*
X41011959Y-34522789D01*
X41058945Y-34434885D01*
X41087878Y-34339503D01*
X41095200Y-34265164D01*
X41095200Y-34265157D01*
X41097647Y-34240311D01*
X41095200Y-34215465D01*
X41095200Y-28515860D01*
X41125159Y-28495842D01*
X41233942Y-28387059D01*
X41319413Y-28259142D01*
X41378287Y-28117009D01*
X41408300Y-27966122D01*
X41408300Y-27812278D01*
X41378287Y-27661391D01*
X41319413Y-27519258D01*
X41233942Y-27391341D01*
X41125159Y-27282558D01*
X40997242Y-27197087D01*
X40855109Y-27138213D01*
X40704222Y-27108200D01*
X40550378Y-27108200D01*
X40399491Y-27138213D01*
X40257358Y-27197087D01*
X40129441Y-27282558D01*
X40020658Y-27391341D01*
X39935187Y-27519258D01*
X39876313Y-27661391D01*
X39846300Y-27812278D01*
X39846300Y-27966122D01*
X39876313Y-28117009D01*
X39935187Y-28259142D01*
X40020658Y-28387059D01*
X40083200Y-28449601D01*
X40083201Y-33916510D01*
X40055078Y-33916510D01*
X39904191Y-33946523D01*
X39762058Y-34005397D01*
X39634141Y-34090868D01*
X39525358Y-34199651D01*
X39439887Y-34327568D01*
X39381013Y-34469701D01*
X39351000Y-34620588D01*
X37463000Y-34620588D01*
X37463000Y-28490460D01*
X37492959Y-28470442D01*
X37601742Y-28361659D01*
X37687213Y-28233742D01*
X37746087Y-28091609D01*
X37776100Y-27940722D01*
X37776100Y-27786878D01*
X37746087Y-27635991D01*
X37687213Y-27493858D01*
X37601742Y-27365941D01*
X37492959Y-27257158D01*
X37365042Y-27171687D01*
X37222909Y-27112813D01*
X37072022Y-27082800D01*
X36918178Y-27082800D01*
X36767291Y-27112813D01*
X36625158Y-27171687D01*
X36497241Y-27257158D01*
X36388458Y-27365941D01*
X36302987Y-27493858D01*
X36244113Y-27635991D01*
X36214100Y-27786878D01*
X34143900Y-27786878D01*
X34143900Y-27761478D01*
X34113887Y-27610591D01*
X34055013Y-27468458D01*
X33969542Y-27340541D01*
X33860759Y-27231758D01*
X33732842Y-27146287D01*
X33590709Y-27087413D01*
X33439822Y-27057400D01*
X33285978Y-27057400D01*
X33135091Y-27087413D01*
X32992958Y-27146287D01*
X32865041Y-27231758D01*
X32756258Y-27340541D01*
X32670787Y-27468458D01*
X32611913Y-27610591D01*
X32581900Y-27761478D01*
X28455666Y-27761478D01*
X35811522Y-17336700D01*
X36114150Y-17336700D01*
X36138304Y-17356522D01*
X36204492Y-17391901D01*
X36276311Y-17413687D01*
X36351000Y-17421043D01*
X36801000Y-17421043D01*
X36832001Y-17417990D01*
X36832000Y-18002208D01*
X35600009Y-19234200D01*
X35457678Y-19234200D01*
X35306791Y-19264213D01*
X35164658Y-19323087D01*
X35036741Y-19408558D01*
X34927958Y-19517341D01*
X34842487Y-19645258D01*
X34783613Y-19787391D01*
X34753600Y-19938278D01*
X34753600Y-20092122D01*
X34783613Y-20243009D01*
X34842487Y-20385142D01*
X34927958Y-20513059D01*
X35036741Y-20621842D01*
X35164658Y-20707313D01*
X35306791Y-20766187D01*
X35457678Y-20796200D01*
X35611522Y-20796200D01*
X35762409Y-20766187D01*
X35904542Y-20707313D01*
X36032459Y-20621842D01*
X36141242Y-20513059D01*
X36226713Y-20385142D01*
X36269021Y-20283002D01*
X36290287Y-20334342D01*
X36375758Y-20462259D01*
X36484541Y-20571042D01*
X36612458Y-20656513D01*
X36754591Y-20715387D01*
X36905478Y-20745400D01*
X37059322Y-20745400D01*
X37210209Y-20715387D01*
X37352342Y-20656513D01*
X37480259Y-20571042D01*
X37589042Y-20462259D01*
X37674513Y-20334342D01*
X37733387Y-20192209D01*
X37763400Y-20041322D01*
X37763400Y-19898991D01*
X38770420Y-18891972D01*
X38789727Y-18876127D01*
X38852959Y-18799079D01*
X38899945Y-18711175D01*
X38928878Y-18615793D01*
X38936200Y-18541454D01*
X38936200Y-18541447D01*
X38938647Y-18516601D01*
X38936200Y-18491755D01*
X38936200Y-16717112D01*
X52044765Y-35241919D01*
G37*
X52044765Y-35241919D02*
X52006488Y-35238149D01*
X52006480Y-35238149D01*
X51981634Y-35235702D01*
X51956788Y-35238149D01*
X51188952Y-35238149D01*
X51088310Y-35137507D01*
X50960393Y-35052036D01*
X50818260Y-34993162D01*
X50667373Y-34963149D01*
X50513529Y-34963149D01*
X50362642Y-34993162D01*
X50220509Y-35052036D01*
X50092592Y-35137507D01*
X49983809Y-35246290D01*
X49898338Y-35374207D01*
X49839464Y-35516340D01*
X49809451Y-35667227D01*
X49809451Y-35758859D01*
X49472800Y-35422209D01*
X49472800Y-35279878D01*
X49442787Y-35128991D01*
X49383913Y-34986858D01*
X49298442Y-34858941D01*
X49189659Y-34750158D01*
X49061742Y-34664687D01*
X48919609Y-34605813D01*
X48768722Y-34575800D01*
X48614878Y-34575800D01*
X48463991Y-34605813D01*
X48321858Y-34664687D01*
X48193941Y-34750158D01*
X48085158Y-34858941D01*
X47999687Y-34986858D01*
X47940813Y-35128991D01*
X47910800Y-35279878D01*
X47910800Y-35433722D01*
X47940813Y-35584609D01*
X47999687Y-35726742D01*
X48085158Y-35854659D01*
X48193941Y-35963442D01*
X48321858Y-36048913D01*
X48463991Y-36107787D01*
X48614878Y-36137800D01*
X48757209Y-36137800D01*
X49737628Y-37118220D01*
X49753473Y-37137527D01*
X49830521Y-37200759D01*
X49918425Y-37247745D01*
X49991607Y-37269944D01*
X50013806Y-37276678D01*
X50023694Y-37277652D01*
X50088146Y-37284000D01*
X50088153Y-37284000D01*
X50112999Y-37286447D01*
X50137845Y-37284000D01*
X50502411Y-37284000D01*
X50507234Y-37299900D01*
X26603729Y-37299900D01*
X25537175Y-36233348D01*
X25515303Y-36206697D01*
X25408943Y-36119409D01*
X25287597Y-36054548D01*
X25155930Y-36014607D01*
X25053309Y-36004500D01*
X25053298Y-36004500D01*
X25019000Y-36001122D01*
X24984702Y-36004500D01*
X23329991Y-36004500D01*
X23329991Y-35025624D01*
X25373526Y-32129510D01*
X25406387Y-32208842D01*
X25491858Y-32336759D01*
X25600641Y-32445542D01*
X25728558Y-32531013D01*
X25870691Y-32589887D01*
X26021578Y-32619900D01*
X26175422Y-32619900D01*
X26326309Y-32589887D01*
X26468442Y-32531013D01*
X26596359Y-32445542D01*
X26705142Y-32336759D01*
X26790613Y-32208842D01*
X26849487Y-32066709D01*
X26879500Y-31915822D01*
X26879500Y-31761978D01*
X26849487Y-31611091D01*
X26790613Y-31468958D01*
X26705142Y-31341041D01*
X26596359Y-31232258D01*
X26468442Y-31146787D01*
X26355002Y-31099798D01*
X26314400Y-31001777D01*
X26314400Y-30991792D01*
X26304293Y-30889171D01*
X26287586Y-30834096D01*
X26617837Y-30366065D01*
X28455666Y-27761478D01*
X32581900Y-27761478D01*
X32581900Y-27915322D01*
X32611913Y-28066209D01*
X32670787Y-28208342D01*
X32756258Y-28336259D01*
X32818800Y-28398801D01*
X32818801Y-33366554D01*
X32816353Y-33391410D01*
X32826122Y-33490602D01*
X32836765Y-33525690D01*
X32823200Y-33593888D01*
X32823200Y-33747732D01*
X32853213Y-33898619D01*
X32912087Y-34040752D01*
X32997558Y-34168669D01*
X33106341Y-34277452D01*
X33234258Y-34362923D01*
X33376391Y-34421797D01*
X33527278Y-34451810D01*
X33681122Y-34451810D01*
X33832009Y-34421797D01*
X33974142Y-34362923D01*
X34102059Y-34277452D01*
X34210842Y-34168669D01*
X34296313Y-34040752D01*
X34355187Y-33898619D01*
X34385200Y-33747732D01*
X34385200Y-33593888D01*
X34355187Y-33443001D01*
X34296313Y-33300868D01*
X34210842Y-33172951D01*
X34102059Y-33064168D01*
X33974142Y-32978697D01*
X33832009Y-32919823D01*
X33830800Y-32919583D01*
X33830800Y-28465060D01*
X33860759Y-28445042D01*
X33969542Y-28336259D01*
X34055013Y-28208342D01*
X34113887Y-28066209D01*
X34143900Y-27915322D01*
X34143900Y-27786878D01*
X36214100Y-27786878D01*
X36214100Y-27940722D01*
X36244113Y-28091609D01*
X36302987Y-28233742D01*
X36388458Y-28361659D01*
X36451000Y-28424201D01*
X36451001Y-35609587D01*
X36391887Y-35698058D01*
X36333013Y-35840191D01*
X36303000Y-35991078D01*
X36303000Y-36144922D01*
X36333013Y-36295809D01*
X36391887Y-36437942D01*
X36477358Y-36565859D01*
X36586141Y-36674642D01*
X36714058Y-36760113D01*
X36856191Y-36818987D01*
X37007078Y-36849000D01*
X37160922Y-36849000D01*
X37311809Y-36818987D01*
X37453942Y-36760113D01*
X37581859Y-36674642D01*
X37690642Y-36565859D01*
X37776113Y-36437942D01*
X37834987Y-36295809D01*
X37865000Y-36144922D01*
X37865000Y-35991078D01*
X37834987Y-35840191D01*
X37776113Y-35698058D01*
X37690642Y-35570141D01*
X37581859Y-35461358D01*
X37463000Y-35381939D01*
X37463000Y-34620588D01*
X39351000Y-34620588D01*
X39351000Y-34774432D01*
X39381013Y-34925319D01*
X39439887Y-35067452D01*
X39525358Y-35195369D01*
X39634141Y-35304152D01*
X39762058Y-35389623D01*
X39904191Y-35448497D01*
X40055078Y-35478510D01*
X40208922Y-35478510D01*
X40359809Y-35448497D01*
X40501942Y-35389623D01*
X40629859Y-35304152D01*
X40738642Y-35195369D01*
X40824113Y-35067452D01*
X40882987Y-34925319D01*
X40913000Y-34774432D01*
X40913000Y-34632102D01*
X40929420Y-34615682D01*
X40948727Y-34599837D01*
X41011959Y-34522789D01*
X41058945Y-34434885D01*
X41087878Y-34339503D01*
X41095200Y-34265164D01*
X41095200Y-34265157D01*
X41097647Y-34240311D01*
X41095200Y-34215465D01*
X41095200Y-28515860D01*
X41125159Y-28495842D01*
X41233942Y-28387059D01*
X41319413Y-28259142D01*
X41378287Y-28117009D01*
X41408300Y-27966122D01*
X41408300Y-27812278D01*
X41378287Y-27661391D01*
X41319413Y-27519258D01*
X41233942Y-27391341D01*
X41125159Y-27282558D01*
X40997242Y-27197087D01*
X40855109Y-27138213D01*
X40704222Y-27108200D01*
X40550378Y-27108200D01*
X40399491Y-27138213D01*
X40257358Y-27197087D01*
X40129441Y-27282558D01*
X40020658Y-27391341D01*
X39935187Y-27519258D01*
X39876313Y-27661391D01*
X39846300Y-27812278D01*
X39846300Y-27966122D01*
X39876313Y-28117009D01*
X39935187Y-28259142D01*
X40020658Y-28387059D01*
X40083200Y-28449601D01*
X40083201Y-33916510D01*
X40055078Y-33916510D01*
X39904191Y-33946523D01*
X39762058Y-34005397D01*
X39634141Y-34090868D01*
X39525358Y-34199651D01*
X39439887Y-34327568D01*
X39381013Y-34469701D01*
X39351000Y-34620588D01*
X37463000Y-34620588D01*
X37463000Y-28490460D01*
X37492959Y-28470442D01*
X37601742Y-28361659D01*
X37687213Y-28233742D01*
X37746087Y-28091609D01*
X37776100Y-27940722D01*
X37776100Y-27786878D01*
X37746087Y-27635991D01*
X37687213Y-27493858D01*
X37601742Y-27365941D01*
X37492959Y-27257158D01*
X37365042Y-27171687D01*
X37222909Y-27112813D01*
X37072022Y-27082800D01*
X36918178Y-27082800D01*
X36767291Y-27112813D01*
X36625158Y-27171687D01*
X36497241Y-27257158D01*
X36388458Y-27365941D01*
X36302987Y-27493858D01*
X36244113Y-27635991D01*
X36214100Y-27786878D01*
X34143900Y-27786878D01*
X34143900Y-27761478D01*
X34113887Y-27610591D01*
X34055013Y-27468458D01*
X33969542Y-27340541D01*
X33860759Y-27231758D01*
X33732842Y-27146287D01*
X33590709Y-27087413D01*
X33439822Y-27057400D01*
X33285978Y-27057400D01*
X33135091Y-27087413D01*
X32992958Y-27146287D01*
X32865041Y-27231758D01*
X32756258Y-27340541D01*
X32670787Y-27468458D01*
X32611913Y-27610591D01*
X32581900Y-27761478D01*
X28455666Y-27761478D01*
X35811522Y-17336700D01*
X36114150Y-17336700D01*
X36138304Y-17356522D01*
X36204492Y-17391901D01*
X36276311Y-17413687D01*
X36351000Y-17421043D01*
X36801000Y-17421043D01*
X36832001Y-17417990D01*
X36832000Y-18002208D01*
X35600009Y-19234200D01*
X35457678Y-19234200D01*
X35306791Y-19264213D01*
X35164658Y-19323087D01*
X35036741Y-19408558D01*
X34927958Y-19517341D01*
X34842487Y-19645258D01*
X34783613Y-19787391D01*
X34753600Y-19938278D01*
X34753600Y-20092122D01*
X34783613Y-20243009D01*
X34842487Y-20385142D01*
X34927958Y-20513059D01*
X35036741Y-20621842D01*
X35164658Y-20707313D01*
X35306791Y-20766187D01*
X35457678Y-20796200D01*
X35611522Y-20796200D01*
X35762409Y-20766187D01*
X35904542Y-20707313D01*
X36032459Y-20621842D01*
X36141242Y-20513059D01*
X36226713Y-20385142D01*
X36269021Y-20283002D01*
X36290287Y-20334342D01*
X36375758Y-20462259D01*
X36484541Y-20571042D01*
X36612458Y-20656513D01*
X36754591Y-20715387D01*
X36905478Y-20745400D01*
X37059322Y-20745400D01*
X37210209Y-20715387D01*
X37352342Y-20656513D01*
X37480259Y-20571042D01*
X37589042Y-20462259D01*
X37674513Y-20334342D01*
X37733387Y-20192209D01*
X37763400Y-20041322D01*
X37763400Y-19898991D01*
X38770420Y-18891972D01*
X38789727Y-18876127D01*
X38852959Y-18799079D01*
X38899945Y-18711175D01*
X38928878Y-18615793D01*
X38936200Y-18541454D01*
X38936200Y-18541447D01*
X38938647Y-18516601D01*
X38936200Y-18491755D01*
X38936200Y-16717112D01*
X52044765Y-35241919D01*
%TD*%
M02*
