%TF.GenerationSoftware,KiCad,Pcbnew,(5.1.6)-1*%
%TF.CreationDate,2020-12-08T12:03:19+08:00*%
%TF.ProjectId,LED_A1.0,4c45445f-4131-42e3-902e-6b696361645f,rev?*%
%TF.SameCoordinates,Original*%
%TF.FileFunction,Legend,Top*%
%TF.FilePolarity,Positive*%
%FSLAX46Y46*%
G04 Gerber Fmt 4.6, Leading zero omitted, Abs format (unit mm)*
G04 Created by KiCad (PCBNEW (5.1.6)-1) date 2020-12-08 12:03:19*
%MOMM*%
%LPD*%
G01*
G04 APERTURE LIST*
%ADD10C,0.120000*%
%ADD11C,0.150000*%
G04 APERTURE END LIST*
D10*
%TO.C,R12*%
X42606500Y-28369479D02*
X42606500Y-28043921D01*
X43626500Y-28369479D02*
X43626500Y-28043921D01*
%TO.C,R11*%
X35054321Y-30363700D02*
X35379879Y-30363700D01*
X35054321Y-31383700D02*
X35379879Y-31383700D01*
%TO.C,R10*%
X38686521Y-30338300D02*
X39012079Y-30338300D01*
X38686521Y-31358300D02*
X39012079Y-31358300D01*
%TO.C,R9*%
X42915621Y-33246600D02*
X43241179Y-33246600D01*
X42915621Y-34266600D02*
X43241179Y-34266600D01*
%TO.C,R8*%
X42915621Y-36091400D02*
X43241179Y-36091400D01*
X42915621Y-37111400D02*
X43241179Y-37111400D01*
%TO.C,R7*%
X42915621Y-34669000D02*
X43241179Y-34669000D01*
X42915621Y-35689000D02*
X43241179Y-35689000D01*
%TO.C,R6*%
X30744379Y-34292000D02*
X30418821Y-34292000D01*
X30744379Y-33272000D02*
X30418821Y-33272000D01*
%TO.C,R5*%
X30744379Y-37136800D02*
X30418821Y-37136800D01*
X30744379Y-36116800D02*
X30418821Y-36116800D01*
%TO.C,R4*%
X30744379Y-35714400D02*
X30418821Y-35714400D01*
X30744379Y-34694400D02*
X30418821Y-34694400D01*
%TO.C,R3*%
X35024600Y-22108379D02*
X35024600Y-21782821D01*
X36044600Y-22108379D02*
X36044600Y-21782821D01*
%TO.C,R2*%
X36447000Y-22108379D02*
X36447000Y-21782821D01*
X37467000Y-22108379D02*
X37467000Y-21782821D01*
%TO.C,R1*%
X37869400Y-22108379D02*
X37869400Y-21782821D01*
X38889400Y-22108379D02*
X38889400Y-21782821D01*
%TO.C,Q3*%
X34942900Y-27637200D02*
X34012900Y-27637200D01*
X31782900Y-27637200D02*
X32712900Y-27637200D01*
X31782900Y-27637200D02*
X31782900Y-29797200D01*
X34942900Y-27637200D02*
X34942900Y-29097200D01*
%TO.C,Q2*%
X38575100Y-27637200D02*
X37645100Y-27637200D01*
X35415100Y-27637200D02*
X36345100Y-27637200D01*
X35415100Y-27637200D02*
X35415100Y-29797200D01*
X38575100Y-27637200D02*
X38575100Y-29097200D01*
%TO.C,Q1*%
X42181900Y-27637200D02*
X41251900Y-27637200D01*
X39021900Y-27637200D02*
X39951900Y-27637200D01*
X39021900Y-27637200D02*
X39021900Y-29797200D01*
X42181900Y-27637200D02*
X42181900Y-29097200D01*
%TO.C,J1*%
X49180083Y-30592483D02*
X46891372Y-32195056D01*
X46885490Y-27315465D02*
X44596780Y-28918038D01*
%TO.C,R12*%
D11*
X43568880Y-26042857D02*
X43092690Y-26376190D01*
X43568880Y-26614285D02*
X42568880Y-26614285D01*
X42568880Y-26233333D01*
X42616500Y-26138095D01*
X42664119Y-26090476D01*
X42759357Y-26042857D01*
X42902214Y-26042857D01*
X42997452Y-26090476D01*
X43045071Y-26138095D01*
X43092690Y-26233333D01*
X43092690Y-26614285D01*
X43568880Y-25090476D02*
X43568880Y-25661904D01*
X43568880Y-25376190D02*
X42568880Y-25376190D01*
X42711738Y-25471428D01*
X42806976Y-25566666D01*
X42854595Y-25661904D01*
X42664119Y-24709523D02*
X42616500Y-24661904D01*
X42568880Y-24566666D01*
X42568880Y-24328571D01*
X42616500Y-24233333D01*
X42664119Y-24185714D01*
X42759357Y-24138095D01*
X42854595Y-24138095D01*
X42997452Y-24185714D01*
X43568880Y-24757142D01*
X43568880Y-24138095D01*
%TO.C,R11*%
X34713942Y-32684980D02*
X34380609Y-32208790D01*
X34142514Y-32684980D02*
X34142514Y-31684980D01*
X34523466Y-31684980D01*
X34618704Y-31732600D01*
X34666323Y-31780219D01*
X34713942Y-31875457D01*
X34713942Y-32018314D01*
X34666323Y-32113552D01*
X34618704Y-32161171D01*
X34523466Y-32208790D01*
X34142514Y-32208790D01*
X35666323Y-32684980D02*
X35094895Y-32684980D01*
X35380609Y-32684980D02*
X35380609Y-31684980D01*
X35285371Y-31827838D01*
X35190133Y-31923076D01*
X35094895Y-31970695D01*
X36618704Y-32684980D02*
X36047276Y-32684980D01*
X36332990Y-32684980D02*
X36332990Y-31684980D01*
X36237752Y-31827838D01*
X36142514Y-31923076D01*
X36047276Y-31970695D01*
%TO.C,R10*%
X38231842Y-32748480D02*
X37898509Y-32272290D01*
X37660414Y-32748480D02*
X37660414Y-31748480D01*
X38041366Y-31748480D01*
X38136604Y-31796100D01*
X38184223Y-31843719D01*
X38231842Y-31938957D01*
X38231842Y-32081814D01*
X38184223Y-32177052D01*
X38136604Y-32224671D01*
X38041366Y-32272290D01*
X37660414Y-32272290D01*
X39184223Y-32748480D02*
X38612795Y-32748480D01*
X38898509Y-32748480D02*
X38898509Y-31748480D01*
X38803271Y-31891338D01*
X38708033Y-31986576D01*
X38612795Y-32034195D01*
X39803271Y-31748480D02*
X39898509Y-31748480D01*
X39993747Y-31796100D01*
X40041366Y-31843719D01*
X40088985Y-31938957D01*
X40136604Y-32129433D01*
X40136604Y-32367528D01*
X40088985Y-32558004D01*
X40041366Y-32653242D01*
X39993747Y-32700861D01*
X39898509Y-32748480D01*
X39803271Y-32748480D01*
X39708033Y-32700861D01*
X39660414Y-32653242D01*
X39612795Y-32558004D01*
X39565176Y-32367528D01*
X39565176Y-32129433D01*
X39612795Y-31938957D01*
X39660414Y-31843719D01*
X39708033Y-31796100D01*
X39803271Y-31748480D01*
%TO.C,R9*%
X40536833Y-34183580D02*
X40203500Y-33707390D01*
X39965404Y-34183580D02*
X39965404Y-33183580D01*
X40346357Y-33183580D01*
X40441595Y-33231200D01*
X40489214Y-33278819D01*
X40536833Y-33374057D01*
X40536833Y-33516914D01*
X40489214Y-33612152D01*
X40441595Y-33659771D01*
X40346357Y-33707390D01*
X39965404Y-33707390D01*
X41013023Y-34183580D02*
X41203500Y-34183580D01*
X41298738Y-34135961D01*
X41346357Y-34088342D01*
X41441595Y-33945485D01*
X41489214Y-33755009D01*
X41489214Y-33374057D01*
X41441595Y-33278819D01*
X41393976Y-33231200D01*
X41298738Y-33183580D01*
X41108261Y-33183580D01*
X41013023Y-33231200D01*
X40965404Y-33278819D01*
X40917785Y-33374057D01*
X40917785Y-33612152D01*
X40965404Y-33707390D01*
X41013023Y-33755009D01*
X41108261Y-33802628D01*
X41298738Y-33802628D01*
X41393976Y-33755009D01*
X41441595Y-33707390D01*
X41489214Y-33612152D01*
%TO.C,R8*%
X40524133Y-37142680D02*
X40190800Y-36666490D01*
X39952704Y-37142680D02*
X39952704Y-36142680D01*
X40333657Y-36142680D01*
X40428895Y-36190300D01*
X40476514Y-36237919D01*
X40524133Y-36333157D01*
X40524133Y-36476014D01*
X40476514Y-36571252D01*
X40428895Y-36618871D01*
X40333657Y-36666490D01*
X39952704Y-36666490D01*
X41095561Y-36571252D02*
X41000323Y-36523633D01*
X40952704Y-36476014D01*
X40905085Y-36380776D01*
X40905085Y-36333157D01*
X40952704Y-36237919D01*
X41000323Y-36190300D01*
X41095561Y-36142680D01*
X41286038Y-36142680D01*
X41381276Y-36190300D01*
X41428895Y-36237919D01*
X41476514Y-36333157D01*
X41476514Y-36380776D01*
X41428895Y-36476014D01*
X41381276Y-36523633D01*
X41286038Y-36571252D01*
X41095561Y-36571252D01*
X41000323Y-36618871D01*
X40952704Y-36666490D01*
X40905085Y-36761728D01*
X40905085Y-36952204D01*
X40952704Y-37047442D01*
X41000323Y-37095061D01*
X41095561Y-37142680D01*
X41286038Y-37142680D01*
X41381276Y-37095061D01*
X41428895Y-37047442D01*
X41476514Y-36952204D01*
X41476514Y-36761728D01*
X41428895Y-36666490D01*
X41381276Y-36618871D01*
X41286038Y-36571252D01*
%TO.C,R7*%
X40498733Y-35707580D02*
X40165400Y-35231390D01*
X39927304Y-35707580D02*
X39927304Y-34707580D01*
X40308257Y-34707580D01*
X40403495Y-34755200D01*
X40451114Y-34802819D01*
X40498733Y-34898057D01*
X40498733Y-35040914D01*
X40451114Y-35136152D01*
X40403495Y-35183771D01*
X40308257Y-35231390D01*
X39927304Y-35231390D01*
X40832066Y-34707580D02*
X41498733Y-34707580D01*
X41070161Y-35707580D01*
%TO.C,R6*%
X32789833Y-34247080D02*
X32456500Y-33770890D01*
X32218404Y-34247080D02*
X32218404Y-33247080D01*
X32599357Y-33247080D01*
X32694595Y-33294700D01*
X32742214Y-33342319D01*
X32789833Y-33437557D01*
X32789833Y-33580414D01*
X32742214Y-33675652D01*
X32694595Y-33723271D01*
X32599357Y-33770890D01*
X32218404Y-33770890D01*
X33646976Y-33247080D02*
X33456500Y-33247080D01*
X33361261Y-33294700D01*
X33313642Y-33342319D01*
X33218404Y-33485176D01*
X33170785Y-33675652D01*
X33170785Y-34056604D01*
X33218404Y-34151842D01*
X33266023Y-34199461D01*
X33361261Y-34247080D01*
X33551738Y-34247080D01*
X33646976Y-34199461D01*
X33694595Y-34151842D01*
X33742214Y-34056604D01*
X33742214Y-33818509D01*
X33694595Y-33723271D01*
X33646976Y-33675652D01*
X33551738Y-33628033D01*
X33361261Y-33628033D01*
X33266023Y-33675652D01*
X33218404Y-33723271D01*
X33170785Y-33818509D01*
%TO.C,R5*%
X32802533Y-37142680D02*
X32469200Y-36666490D01*
X32231104Y-37142680D02*
X32231104Y-36142680D01*
X32612057Y-36142680D01*
X32707295Y-36190300D01*
X32754914Y-36237919D01*
X32802533Y-36333157D01*
X32802533Y-36476014D01*
X32754914Y-36571252D01*
X32707295Y-36618871D01*
X32612057Y-36666490D01*
X32231104Y-36666490D01*
X33707295Y-36142680D02*
X33231104Y-36142680D01*
X33183485Y-36618871D01*
X33231104Y-36571252D01*
X33326342Y-36523633D01*
X33564438Y-36523633D01*
X33659676Y-36571252D01*
X33707295Y-36618871D01*
X33754914Y-36714109D01*
X33754914Y-36952204D01*
X33707295Y-37047442D01*
X33659676Y-37095061D01*
X33564438Y-37142680D01*
X33326342Y-37142680D01*
X33231104Y-37095061D01*
X33183485Y-37047442D01*
%TO.C,R4*%
X32802533Y-35758380D02*
X32469200Y-35282190D01*
X32231104Y-35758380D02*
X32231104Y-34758380D01*
X32612057Y-34758380D01*
X32707295Y-34806000D01*
X32754914Y-34853619D01*
X32802533Y-34948857D01*
X32802533Y-35091714D01*
X32754914Y-35186952D01*
X32707295Y-35234571D01*
X32612057Y-35282190D01*
X32231104Y-35282190D01*
X33659676Y-35091714D02*
X33659676Y-35758380D01*
X33421580Y-34710761D02*
X33183485Y-35425047D01*
X33802533Y-35425047D01*
%TO.C,R3*%
X36050480Y-24474466D02*
X35574290Y-24807800D01*
X36050480Y-25045895D02*
X35050480Y-25045895D01*
X35050480Y-24664942D01*
X35098100Y-24569704D01*
X35145719Y-24522085D01*
X35240957Y-24474466D01*
X35383814Y-24474466D01*
X35479052Y-24522085D01*
X35526671Y-24569704D01*
X35574290Y-24664942D01*
X35574290Y-25045895D01*
X35050480Y-24141133D02*
X35050480Y-23522085D01*
X35431433Y-23855419D01*
X35431433Y-23712561D01*
X35479052Y-23617323D01*
X35526671Y-23569704D01*
X35621909Y-23522085D01*
X35860004Y-23522085D01*
X35955242Y-23569704D01*
X36002861Y-23617323D01*
X36050480Y-23712561D01*
X36050480Y-23998276D01*
X36002861Y-24093514D01*
X35955242Y-24141133D01*
%TO.C,R2*%
X37383980Y-24487166D02*
X36907790Y-24820500D01*
X37383980Y-25058595D02*
X36383980Y-25058595D01*
X36383980Y-24677642D01*
X36431600Y-24582404D01*
X36479219Y-24534785D01*
X36574457Y-24487166D01*
X36717314Y-24487166D01*
X36812552Y-24534785D01*
X36860171Y-24582404D01*
X36907790Y-24677642D01*
X36907790Y-25058595D01*
X36479219Y-24106214D02*
X36431600Y-24058595D01*
X36383980Y-23963357D01*
X36383980Y-23725261D01*
X36431600Y-23630023D01*
X36479219Y-23582404D01*
X36574457Y-23534785D01*
X36669695Y-23534785D01*
X36812552Y-23582404D01*
X37383980Y-24153833D01*
X37383980Y-23534785D01*
%TO.C,R1*%
X38907980Y-24487166D02*
X38431790Y-24820500D01*
X38907980Y-25058595D02*
X37907980Y-25058595D01*
X37907980Y-24677642D01*
X37955600Y-24582404D01*
X38003219Y-24534785D01*
X38098457Y-24487166D01*
X38241314Y-24487166D01*
X38336552Y-24534785D01*
X38384171Y-24582404D01*
X38431790Y-24677642D01*
X38431790Y-25058595D01*
X38907980Y-23534785D02*
X38907980Y-24106214D01*
X38907980Y-23820500D02*
X37907980Y-23820500D01*
X38050838Y-23915738D01*
X38146076Y-24010976D01*
X38193695Y-24106214D01*
%TO.C,Q3*%
X33267661Y-26569919D02*
X33172423Y-26522300D01*
X33077185Y-26427061D01*
X32934328Y-26284204D01*
X32839090Y-26236585D01*
X32743852Y-26236585D01*
X32791471Y-26474680D02*
X32696233Y-26427061D01*
X32600995Y-26331823D01*
X32553376Y-26141347D01*
X32553376Y-25808014D01*
X32600995Y-25617538D01*
X32696233Y-25522300D01*
X32791471Y-25474680D01*
X32981947Y-25474680D01*
X33077185Y-25522300D01*
X33172423Y-25617538D01*
X33220042Y-25808014D01*
X33220042Y-26141347D01*
X33172423Y-26331823D01*
X33077185Y-26427061D01*
X32981947Y-26474680D01*
X32791471Y-26474680D01*
X33553376Y-25474680D02*
X34172423Y-25474680D01*
X33839090Y-25855633D01*
X33981947Y-25855633D01*
X34077185Y-25903252D01*
X34124804Y-25950871D01*
X34172423Y-26046109D01*
X34172423Y-26284204D01*
X34124804Y-26379442D01*
X34077185Y-26427061D01*
X33981947Y-26474680D01*
X33696233Y-26474680D01*
X33600995Y-26427061D01*
X33553376Y-26379442D01*
%TO.C,Q2*%
X36798261Y-26569919D02*
X36703023Y-26522300D01*
X36607785Y-26427061D01*
X36464928Y-26284204D01*
X36369690Y-26236585D01*
X36274452Y-26236585D01*
X36322071Y-26474680D02*
X36226833Y-26427061D01*
X36131595Y-26331823D01*
X36083976Y-26141347D01*
X36083976Y-25808014D01*
X36131595Y-25617538D01*
X36226833Y-25522300D01*
X36322071Y-25474680D01*
X36512547Y-25474680D01*
X36607785Y-25522300D01*
X36703023Y-25617538D01*
X36750642Y-25808014D01*
X36750642Y-26141347D01*
X36703023Y-26331823D01*
X36607785Y-26427061D01*
X36512547Y-26474680D01*
X36322071Y-26474680D01*
X37131595Y-25569919D02*
X37179214Y-25522300D01*
X37274452Y-25474680D01*
X37512547Y-25474680D01*
X37607785Y-25522300D01*
X37655404Y-25569919D01*
X37703023Y-25665157D01*
X37703023Y-25760395D01*
X37655404Y-25903252D01*
X37083976Y-26474680D01*
X37703023Y-26474680D01*
%TO.C,Q1*%
X40354261Y-26493719D02*
X40259023Y-26446100D01*
X40163785Y-26350861D01*
X40020928Y-26208004D01*
X39925690Y-26160385D01*
X39830452Y-26160385D01*
X39878071Y-26398480D02*
X39782833Y-26350861D01*
X39687595Y-26255623D01*
X39639976Y-26065147D01*
X39639976Y-25731814D01*
X39687595Y-25541338D01*
X39782833Y-25446100D01*
X39878071Y-25398480D01*
X40068547Y-25398480D01*
X40163785Y-25446100D01*
X40259023Y-25541338D01*
X40306642Y-25731814D01*
X40306642Y-26065147D01*
X40259023Y-26255623D01*
X40163785Y-26350861D01*
X40068547Y-26398480D01*
X39878071Y-26398480D01*
X41259023Y-26398480D02*
X40687595Y-26398480D01*
X40973309Y-26398480D02*
X40973309Y-25398480D01*
X40878071Y-25541338D01*
X40782833Y-25636576D01*
X40687595Y-25684195D01*
%TO.C,J1*%
X44008891Y-30870747D02*
X43423782Y-31280445D01*
X43279447Y-31323377D01*
X43146806Y-31299989D01*
X43025860Y-31210280D01*
X42971233Y-31132266D01*
X43763315Y-32263476D02*
X43435557Y-31795389D01*
X43599436Y-32029432D02*
X44418588Y-31455856D01*
X44246940Y-31459781D01*
X44114299Y-31436393D01*
X44020666Y-31385692D01*
%TD*%
M02*
