%TF.GenerationSoftware,KiCad,Pcbnew,(5.1.6)-1*%
%TF.CreationDate,2020-12-08T12:03:19+08:00*%
%TF.ProjectId,LED_A1.0,4c45445f-4131-42e3-902e-6b696361645f,rev?*%
%TF.SameCoordinates,Original*%
%TF.FileFunction,Copper,L1,Top*%
%TF.FilePolarity,Positive*%
%FSLAX46Y46*%
G04 Gerber Fmt 4.6, Leading zero omitted, Abs format (unit mm)*
G04 Created by KiCad (PCBNEW (5.1.6)-1) date 2020-12-08 12:03:19*
%MOMM*%
%LPD*%
G01*
G04 APERTURE LIST*
%TA.AperFunction,SMDPad,CuDef*%
%ADD10R,0.800000X0.900000*%
%TD*%
%TA.AperFunction,ViaPad*%
%ADD11C,0.800000*%
%TD*%
%TA.AperFunction,Conductor*%
%ADD12C,0.250000*%
%TD*%
%TA.AperFunction,Conductor*%
%ADD13C,0.635000*%
%TD*%
%TA.AperFunction,Conductor*%
%ADD14C,0.381000*%
%TD*%
%TA.AperFunction,Conductor*%
%ADD15C,0.254000*%
%TD*%
G04 APERTURE END LIST*
%TO.P,R12,2*%
%TO.N,/LED_B*%
%TA.AperFunction,SMDPad,CuDef*%
G36*
G01*
X43372750Y-27856700D02*
X42860250Y-27856700D01*
G75*
G02*
X42641500Y-27637950I0J218750D01*
G01*
X42641500Y-27200450D01*
G75*
G02*
X42860250Y-26981700I218750J0D01*
G01*
X43372750Y-26981700D01*
G75*
G02*
X43591500Y-27200450I0J-218750D01*
G01*
X43591500Y-27637950D01*
G75*
G02*
X43372750Y-27856700I-218750J0D01*
G01*
G37*
%TD.AperFunction*%
%TO.P,R12,1*%
%TO.N,Net-(Q1-Pad2)*%
%TA.AperFunction,SMDPad,CuDef*%
G36*
G01*
X43372750Y-29431700D02*
X42860250Y-29431700D01*
G75*
G02*
X42641500Y-29212950I0J218750D01*
G01*
X42641500Y-28775450D01*
G75*
G02*
X42860250Y-28556700I218750J0D01*
G01*
X43372750Y-28556700D01*
G75*
G02*
X43591500Y-28775450I0J-218750D01*
G01*
X43591500Y-29212950D01*
G75*
G02*
X43372750Y-29431700I-218750J0D01*
G01*
G37*
%TD.AperFunction*%
%TD*%
%TO.P,R11,2*%
%TO.N,/LED_G*%
%TA.AperFunction,SMDPad,CuDef*%
G36*
G01*
X35567100Y-31129950D02*
X35567100Y-30617450D01*
G75*
G02*
X35785850Y-30398700I218750J0D01*
G01*
X36223350Y-30398700D01*
G75*
G02*
X36442100Y-30617450I0J-218750D01*
G01*
X36442100Y-31129950D01*
G75*
G02*
X36223350Y-31348700I-218750J0D01*
G01*
X35785850Y-31348700D01*
G75*
G02*
X35567100Y-31129950I0J218750D01*
G01*
G37*
%TD.AperFunction*%
%TO.P,R11,1*%
%TO.N,Net-(Q3-Pad2)*%
%TA.AperFunction,SMDPad,CuDef*%
G36*
G01*
X33992100Y-31129950D02*
X33992100Y-30617450D01*
G75*
G02*
X34210850Y-30398700I218750J0D01*
G01*
X34648350Y-30398700D01*
G75*
G02*
X34867100Y-30617450I0J-218750D01*
G01*
X34867100Y-31129950D01*
G75*
G02*
X34648350Y-31348700I-218750J0D01*
G01*
X34210850Y-31348700D01*
G75*
G02*
X33992100Y-31129950I0J218750D01*
G01*
G37*
%TD.AperFunction*%
%TD*%
%TO.P,R10,2*%
%TO.N,/LED_R*%
%TA.AperFunction,SMDPad,CuDef*%
G36*
G01*
X39199300Y-31104550D02*
X39199300Y-30592050D01*
G75*
G02*
X39418050Y-30373300I218750J0D01*
G01*
X39855550Y-30373300D01*
G75*
G02*
X40074300Y-30592050I0J-218750D01*
G01*
X40074300Y-31104550D01*
G75*
G02*
X39855550Y-31323300I-218750J0D01*
G01*
X39418050Y-31323300D01*
G75*
G02*
X39199300Y-31104550I0J218750D01*
G01*
G37*
%TD.AperFunction*%
%TO.P,R10,1*%
%TO.N,Net-(Q2-Pad2)*%
%TA.AperFunction,SMDPad,CuDef*%
G36*
G01*
X37624300Y-31104550D02*
X37624300Y-30592050D01*
G75*
G02*
X37843050Y-30373300I218750J0D01*
G01*
X38280550Y-30373300D01*
G75*
G02*
X38499300Y-30592050I0J-218750D01*
G01*
X38499300Y-31104550D01*
G75*
G02*
X38280550Y-31323300I-218750J0D01*
G01*
X37843050Y-31323300D01*
G75*
G02*
X37624300Y-31104550I0J218750D01*
G01*
G37*
%TD.AperFunction*%
%TD*%
%TO.P,R9,2*%
%TO.N,Net-(D3-Pad2)*%
%TA.AperFunction,SMDPad,CuDef*%
G36*
G01*
X43428400Y-34012850D02*
X43428400Y-33500350D01*
G75*
G02*
X43647150Y-33281600I218750J0D01*
G01*
X44084650Y-33281600D01*
G75*
G02*
X44303400Y-33500350I0J-218750D01*
G01*
X44303400Y-34012850D01*
G75*
G02*
X44084650Y-34231600I-218750J0D01*
G01*
X43647150Y-34231600D01*
G75*
G02*
X43428400Y-34012850I0J218750D01*
G01*
G37*
%TD.AperFunction*%
%TO.P,R9,1*%
%TO.N,/LED_G_O*%
%TA.AperFunction,SMDPad,CuDef*%
G36*
G01*
X41853400Y-34012850D02*
X41853400Y-33500350D01*
G75*
G02*
X42072150Y-33281600I218750J0D01*
G01*
X42509650Y-33281600D01*
G75*
G02*
X42728400Y-33500350I0J-218750D01*
G01*
X42728400Y-34012850D01*
G75*
G02*
X42509650Y-34231600I-218750J0D01*
G01*
X42072150Y-34231600D01*
G75*
G02*
X41853400Y-34012850I0J218750D01*
G01*
G37*
%TD.AperFunction*%
%TD*%
%TO.P,R8,2*%
%TO.N,Net-(D3-Pad3)*%
%TA.AperFunction,SMDPad,CuDef*%
G36*
G01*
X43428400Y-36857650D02*
X43428400Y-36345150D01*
G75*
G02*
X43647150Y-36126400I218750J0D01*
G01*
X44084650Y-36126400D01*
G75*
G02*
X44303400Y-36345150I0J-218750D01*
G01*
X44303400Y-36857650D01*
G75*
G02*
X44084650Y-37076400I-218750J0D01*
G01*
X43647150Y-37076400D01*
G75*
G02*
X43428400Y-36857650I0J218750D01*
G01*
G37*
%TD.AperFunction*%
%TO.P,R8,1*%
%TO.N,/LED_R_O*%
%TA.AperFunction,SMDPad,CuDef*%
G36*
G01*
X41853400Y-36857650D02*
X41853400Y-36345150D01*
G75*
G02*
X42072150Y-36126400I218750J0D01*
G01*
X42509650Y-36126400D01*
G75*
G02*
X42728400Y-36345150I0J-218750D01*
G01*
X42728400Y-36857650D01*
G75*
G02*
X42509650Y-37076400I-218750J0D01*
G01*
X42072150Y-37076400D01*
G75*
G02*
X41853400Y-36857650I0J218750D01*
G01*
G37*
%TD.AperFunction*%
%TD*%
%TO.P,R7,2*%
%TO.N,Net-(D3-Pad4)*%
%TA.AperFunction,SMDPad,CuDef*%
G36*
G01*
X43428400Y-35435250D02*
X43428400Y-34922750D01*
G75*
G02*
X43647150Y-34704000I218750J0D01*
G01*
X44084650Y-34704000D01*
G75*
G02*
X44303400Y-34922750I0J-218750D01*
G01*
X44303400Y-35435250D01*
G75*
G02*
X44084650Y-35654000I-218750J0D01*
G01*
X43647150Y-35654000D01*
G75*
G02*
X43428400Y-35435250I0J218750D01*
G01*
G37*
%TD.AperFunction*%
%TO.P,R7,1*%
%TO.N,/LED_B_O*%
%TA.AperFunction,SMDPad,CuDef*%
G36*
G01*
X41853400Y-35435250D02*
X41853400Y-34922750D01*
G75*
G02*
X42072150Y-34704000I218750J0D01*
G01*
X42509650Y-34704000D01*
G75*
G02*
X42728400Y-34922750I0J-218750D01*
G01*
X42728400Y-35435250D01*
G75*
G02*
X42509650Y-35654000I-218750J0D01*
G01*
X42072150Y-35654000D01*
G75*
G02*
X41853400Y-35435250I0J218750D01*
G01*
G37*
%TD.AperFunction*%
%TD*%
%TO.P,R6,2*%
%TO.N,Net-(D2-Pad2)*%
%TA.AperFunction,SMDPad,CuDef*%
G36*
G01*
X30231600Y-33525750D02*
X30231600Y-34038250D01*
G75*
G02*
X30012850Y-34257000I-218750J0D01*
G01*
X29575350Y-34257000D01*
G75*
G02*
X29356600Y-34038250I0J218750D01*
G01*
X29356600Y-33525750D01*
G75*
G02*
X29575350Y-33307000I218750J0D01*
G01*
X30012850Y-33307000D01*
G75*
G02*
X30231600Y-33525750I0J-218750D01*
G01*
G37*
%TD.AperFunction*%
%TO.P,R6,1*%
%TO.N,/LED_G_O*%
%TA.AperFunction,SMDPad,CuDef*%
G36*
G01*
X31806600Y-33525750D02*
X31806600Y-34038250D01*
G75*
G02*
X31587850Y-34257000I-218750J0D01*
G01*
X31150350Y-34257000D01*
G75*
G02*
X30931600Y-34038250I0J218750D01*
G01*
X30931600Y-33525750D01*
G75*
G02*
X31150350Y-33307000I218750J0D01*
G01*
X31587850Y-33307000D01*
G75*
G02*
X31806600Y-33525750I0J-218750D01*
G01*
G37*
%TD.AperFunction*%
%TD*%
%TO.P,R5,2*%
%TO.N,Net-(D2-Pad3)*%
%TA.AperFunction,SMDPad,CuDef*%
G36*
G01*
X30231600Y-36370550D02*
X30231600Y-36883050D01*
G75*
G02*
X30012850Y-37101800I-218750J0D01*
G01*
X29575350Y-37101800D01*
G75*
G02*
X29356600Y-36883050I0J218750D01*
G01*
X29356600Y-36370550D01*
G75*
G02*
X29575350Y-36151800I218750J0D01*
G01*
X30012850Y-36151800D01*
G75*
G02*
X30231600Y-36370550I0J-218750D01*
G01*
G37*
%TD.AperFunction*%
%TO.P,R5,1*%
%TO.N,/LED_R_O*%
%TA.AperFunction,SMDPad,CuDef*%
G36*
G01*
X31806600Y-36370550D02*
X31806600Y-36883050D01*
G75*
G02*
X31587850Y-37101800I-218750J0D01*
G01*
X31150350Y-37101800D01*
G75*
G02*
X30931600Y-36883050I0J218750D01*
G01*
X30931600Y-36370550D01*
G75*
G02*
X31150350Y-36151800I218750J0D01*
G01*
X31587850Y-36151800D01*
G75*
G02*
X31806600Y-36370550I0J-218750D01*
G01*
G37*
%TD.AperFunction*%
%TD*%
%TO.P,R4,2*%
%TO.N,Net-(D2-Pad4)*%
%TA.AperFunction,SMDPad,CuDef*%
G36*
G01*
X30231600Y-34948150D02*
X30231600Y-35460650D01*
G75*
G02*
X30012850Y-35679400I-218750J0D01*
G01*
X29575350Y-35679400D01*
G75*
G02*
X29356600Y-35460650I0J218750D01*
G01*
X29356600Y-34948150D01*
G75*
G02*
X29575350Y-34729400I218750J0D01*
G01*
X30012850Y-34729400D01*
G75*
G02*
X30231600Y-34948150I0J-218750D01*
G01*
G37*
%TD.AperFunction*%
%TO.P,R4,1*%
%TO.N,/LED_B_O*%
%TA.AperFunction,SMDPad,CuDef*%
G36*
G01*
X31806600Y-34948150D02*
X31806600Y-35460650D01*
G75*
G02*
X31587850Y-35679400I-218750J0D01*
G01*
X31150350Y-35679400D01*
G75*
G02*
X30931600Y-35460650I0J218750D01*
G01*
X30931600Y-34948150D01*
G75*
G02*
X31150350Y-34729400I218750J0D01*
G01*
X31587850Y-34729400D01*
G75*
G02*
X31806600Y-34948150I0J-218750D01*
G01*
G37*
%TD.AperFunction*%
%TD*%
%TO.P,R3,2*%
%TO.N,Net-(D1-Pad2)*%
%TA.AperFunction,SMDPad,CuDef*%
G36*
G01*
X35790850Y-21595600D02*
X35278350Y-21595600D01*
G75*
G02*
X35059600Y-21376850I0J218750D01*
G01*
X35059600Y-20939350D01*
G75*
G02*
X35278350Y-20720600I218750J0D01*
G01*
X35790850Y-20720600D01*
G75*
G02*
X36009600Y-20939350I0J-218750D01*
G01*
X36009600Y-21376850D01*
G75*
G02*
X35790850Y-21595600I-218750J0D01*
G01*
G37*
%TD.AperFunction*%
%TO.P,R3,1*%
%TO.N,/LED_G_O*%
%TA.AperFunction,SMDPad,CuDef*%
G36*
G01*
X35790850Y-23170600D02*
X35278350Y-23170600D01*
G75*
G02*
X35059600Y-22951850I0J218750D01*
G01*
X35059600Y-22514350D01*
G75*
G02*
X35278350Y-22295600I218750J0D01*
G01*
X35790850Y-22295600D01*
G75*
G02*
X36009600Y-22514350I0J-218750D01*
G01*
X36009600Y-22951850D01*
G75*
G02*
X35790850Y-23170600I-218750J0D01*
G01*
G37*
%TD.AperFunction*%
%TD*%
%TO.P,R2,2*%
%TO.N,Net-(D1-Pad3)*%
%TA.AperFunction,SMDPad,CuDef*%
G36*
G01*
X37213250Y-21595600D02*
X36700750Y-21595600D01*
G75*
G02*
X36482000Y-21376850I0J218750D01*
G01*
X36482000Y-20939350D01*
G75*
G02*
X36700750Y-20720600I218750J0D01*
G01*
X37213250Y-20720600D01*
G75*
G02*
X37432000Y-20939350I0J-218750D01*
G01*
X37432000Y-21376850D01*
G75*
G02*
X37213250Y-21595600I-218750J0D01*
G01*
G37*
%TD.AperFunction*%
%TO.P,R2,1*%
%TO.N,/LED_R_O*%
%TA.AperFunction,SMDPad,CuDef*%
G36*
G01*
X37213250Y-23170600D02*
X36700750Y-23170600D01*
G75*
G02*
X36482000Y-22951850I0J218750D01*
G01*
X36482000Y-22514350D01*
G75*
G02*
X36700750Y-22295600I218750J0D01*
G01*
X37213250Y-22295600D01*
G75*
G02*
X37432000Y-22514350I0J-218750D01*
G01*
X37432000Y-22951850D01*
G75*
G02*
X37213250Y-23170600I-218750J0D01*
G01*
G37*
%TD.AperFunction*%
%TD*%
%TO.P,R1,2*%
%TO.N,Net-(D1-Pad4)*%
%TA.AperFunction,SMDPad,CuDef*%
G36*
G01*
X38635650Y-21595600D02*
X38123150Y-21595600D01*
G75*
G02*
X37904400Y-21376850I0J218750D01*
G01*
X37904400Y-20939350D01*
G75*
G02*
X38123150Y-20720600I218750J0D01*
G01*
X38635650Y-20720600D01*
G75*
G02*
X38854400Y-20939350I0J-218750D01*
G01*
X38854400Y-21376850D01*
G75*
G02*
X38635650Y-21595600I-218750J0D01*
G01*
G37*
%TD.AperFunction*%
%TO.P,R1,1*%
%TO.N,/LED_B_O*%
%TA.AperFunction,SMDPad,CuDef*%
G36*
G01*
X38635650Y-23170600D02*
X38123150Y-23170600D01*
G75*
G02*
X37904400Y-22951850I0J218750D01*
G01*
X37904400Y-22514350D01*
G75*
G02*
X38123150Y-22295600I218750J0D01*
G01*
X38635650Y-22295600D01*
G75*
G02*
X38854400Y-22514350I0J-218750D01*
G01*
X38854400Y-22951850D01*
G75*
G02*
X38635650Y-23170600I-218750J0D01*
G01*
G37*
%TD.AperFunction*%
%TD*%
D10*
%TO.P,Q3,3*%
%TO.N,/LED_G_O*%
X33362900Y-27397200D03*
%TO.P,Q3,2*%
%TO.N,Net-(Q3-Pad2)*%
X34312900Y-29397200D03*
%TO.P,Q3,1*%
%TO.N,Earth*%
X32412900Y-29397200D03*
%TD*%
%TO.P,Q2,3*%
%TO.N,/LED_R_O*%
X36995100Y-27397200D03*
%TO.P,Q2,2*%
%TO.N,Net-(Q2-Pad2)*%
X37945100Y-29397200D03*
%TO.P,Q2,1*%
%TO.N,Earth*%
X36045100Y-29397200D03*
%TD*%
%TO.P,Q1,3*%
%TO.N,/LED_B_O*%
X40601900Y-27397200D03*
%TO.P,Q1,2*%
%TO.N,Net-(Q1-Pad2)*%
X41551900Y-29397200D03*
%TO.P,Q1,1*%
%TO.N,Earth*%
X39651900Y-29397200D03*
%TD*%
%TO.P,J1,4*%
%TO.N,/LED_R*%
%TA.AperFunction,SMDPad,CuDef*%
G36*
G01*
X46680422Y-29266413D02*
X44939724Y-30485263D01*
G75*
G02*
X44817860Y-30463775I-50188J71676D01*
G01*
X44717484Y-30320423D01*
G75*
G02*
X44738972Y-30198559I71676J50188D01*
G01*
X46479670Y-28979709D01*
G75*
G02*
X46601534Y-29001197I50188J-71676D01*
G01*
X46701910Y-29144549D01*
G75*
G02*
X46680422Y-29266413I-71676J-50188D01*
G01*
G37*
%TD.AperFunction*%
%TO.P,J1,3*%
%TO.N,/LED_G*%
%TA.AperFunction,SMDPad,CuDef*%
G36*
G01*
X47081925Y-29839819D02*
X45341227Y-31058669D01*
G75*
G02*
X45219363Y-31037181I-50188J71676D01*
G01*
X45118987Y-30893829D01*
G75*
G02*
X45140475Y-30771965I71676J50188D01*
G01*
X46881173Y-29553115D01*
G75*
G02*
X47003037Y-29574603I50188J-71676D01*
G01*
X47103413Y-29717955D01*
G75*
G02*
X47081925Y-29839819I-71676J-50188D01*
G01*
G37*
%TD.AperFunction*%
%TO.P,J1,2*%
%TO.N,+5V*%
%TA.AperFunction,SMDPad,CuDef*%
G36*
G01*
X47483429Y-30413226D02*
X45742731Y-31632076D01*
G75*
G02*
X45620867Y-31610588I-50188J71676D01*
G01*
X45520491Y-31467236D01*
G75*
G02*
X45541979Y-31345372I71676J50188D01*
G01*
X47282677Y-30126522D01*
G75*
G02*
X47404541Y-30148010I50188J-71676D01*
G01*
X47504917Y-30291362D01*
G75*
G02*
X47483429Y-30413226I-71676J-50188D01*
G01*
G37*
%TD.AperFunction*%
%TO.P,J1,5*%
%TO.N,/LED_B*%
%TA.AperFunction,SMDPad,CuDef*%
G36*
G01*
X46278918Y-28693007D02*
X44538220Y-29911857D01*
G75*
G02*
X44416356Y-29890369I-50188J71676D01*
G01*
X44315980Y-29747017D01*
G75*
G02*
X44337468Y-29625153I71676J50188D01*
G01*
X46078166Y-28406303D01*
G75*
G02*
X46200030Y-28427791I50188J-71676D01*
G01*
X46300406Y-28571143D01*
G75*
G02*
X46278918Y-28693007I-71676J-50188D01*
G01*
G37*
%TD.AperFunction*%
%TO.P,J1,1*%
%TO.N,Earth*%
%TA.AperFunction,SMDPad,CuDef*%
G36*
G01*
X47884932Y-30986632D02*
X46144234Y-32205482D01*
G75*
G02*
X46022370Y-32183994I-50188J71676D01*
G01*
X45921994Y-32040642D01*
G75*
G02*
X45943482Y-31918778I71676J50188D01*
G01*
X47684180Y-30699928D01*
G75*
G02*
X47806044Y-30721416I50188J-71676D01*
G01*
X47906420Y-30864768D01*
G75*
G02*
X47884932Y-30986632I-71676J-50188D01*
G01*
G37*
%TD.AperFunction*%
%TD*%
D11*
%TO.N,Earth*%
X47332900Y-33134300D03*
X35229800Y-26352500D03*
%TO.N,Net-(D2-Pad4)*%
X23698200Y-37820600D03*
%TO.N,Net-(D2-Pad3)*%
X21336000Y-37973000D03*
%TO.N,Net-(D2-Pad2)*%
X21310600Y-36677600D03*
%TO.N,Net-(D1-Pad2)*%
X35534600Y-20015200D03*
%TO.N,Net-(D3-Pad2)*%
X52730400Y-38011100D03*
%TO.N,Net-(D3-Pad4)*%
X48691800Y-35356800D03*
%TO.N,+5V*%
X25615900Y-31356300D03*
X26098500Y-31838900D03*
%TO.N,Net-(D1-Pad4)*%
X36220400Y-15417800D03*
%TO.N,Net-(D1-Pad3)*%
X36982400Y-19964400D03*
%TO.N,Net-(D3-Pad3)*%
X50590451Y-35744149D03*
%TO.N,Earth*%
X40767000Y-21653500D03*
X42303700Y-23774400D03*
X44132500Y-26390600D03*
X48526700Y-32156400D03*
X45313600Y-33121600D03*
X49339500Y-33159700D03*
X35725100Y-25006300D03*
X38684200Y-26314400D03*
X38112700Y-24942800D03*
X33020000Y-21729700D03*
X31762700Y-23812500D03*
X30162500Y-26454100D03*
%TO.N,/LED_B_O*%
X40627300Y-27889200D03*
X40132000Y-34697510D03*
%TO.N,/LED_R_O*%
X37084000Y-36068000D03*
X36995100Y-27863800D03*
%TO.N,/LED_G_O*%
X33362900Y-27838400D03*
X33604200Y-33670810D03*
%TD*%
D12*
%TO.N,+5V*%
X46817807Y-30879299D02*
X47318706Y-30378400D01*
X46512704Y-30879299D02*
X46817807Y-30879299D01*
X47318706Y-30378400D02*
X47371000Y-30378400D01*
X46512704Y-30879299D02*
X46260501Y-30879299D01*
X46260501Y-30879299D02*
X45161200Y-31978600D01*
D13*
X25615900Y-31356300D02*
X25577800Y-31318200D01*
X26098500Y-31838900D02*
X25615900Y-31356300D01*
X26911300Y-32651700D02*
X26098500Y-31838900D01*
X44425598Y-32651700D02*
X26911300Y-32651700D01*
X45212998Y-31864300D02*
X44425598Y-32651700D01*
X45161200Y-31978600D02*
X45275500Y-31864300D01*
X45275500Y-31864300D02*
X45212998Y-31864300D01*
D12*
%TO.N,Net-(D1-Pad4)*%
X38379400Y-21158100D02*
X38379400Y-20040600D01*
X36322000Y-17983200D02*
X38379400Y-20040600D01*
X36322000Y-17983200D02*
X36322000Y-15494000D01*
%TO.N,Net-(D1-Pad2)*%
X35534600Y-21158100D02*
X35534600Y-20015200D01*
%TO.N,Net-(D1-Pad3)*%
X36957000Y-19989800D02*
X36982400Y-19964400D01*
X36957000Y-21158100D02*
X36957000Y-19989800D01*
%TO.N,Net-(D2-Pad4)*%
X27177900Y-37820600D02*
X29794100Y-35204400D01*
X23698200Y-37820600D02*
X27177900Y-37820600D01*
%TO.N,Net-(D2-Pad2)*%
X26644600Y-36677600D02*
X21310600Y-36677600D01*
X29794100Y-33782000D02*
X29540200Y-33782000D01*
X29540200Y-33782000D02*
X26644600Y-36677600D01*
%TO.N,Net-(D2-Pad3)*%
X27875299Y-38545601D02*
X29794100Y-36626800D01*
X21336000Y-37973000D02*
X21908601Y-38545601D01*
X21908601Y-38545601D02*
X27875299Y-38545601D01*
%TO.N,Net-(D3-Pad4)*%
X44043700Y-35356800D02*
X43865900Y-35179000D01*
X48691800Y-35356800D02*
X44043700Y-35356800D01*
%TO.N,Net-(D3-Pad2)*%
X50355500Y-34239200D02*
X44348500Y-34239200D01*
X51842502Y-35726202D02*
X50355500Y-34239200D01*
X44348500Y-34239200D02*
X43865900Y-33756600D01*
X52730400Y-38011100D02*
X51842502Y-37123202D01*
X51842502Y-37123202D02*
X51842502Y-35726202D01*
%TO.N,Net-(D3-Pad3)*%
X49733200Y-36601400D02*
X50590451Y-35744149D01*
X43865900Y-36601400D02*
X49733200Y-36601400D01*
%TO.N,/LED_R*%
X45709697Y-29732486D02*
X45578514Y-29732486D01*
X44424600Y-30835600D02*
X45527714Y-29732486D01*
X45527714Y-29732486D02*
X45709697Y-29732486D01*
X39636800Y-30848300D02*
X39649500Y-30835600D01*
X39649500Y-30835600D02*
X44424600Y-30835600D01*
%TO.N,/LED_G*%
X45868708Y-30305892D02*
X46111200Y-30305892D01*
X36004600Y-30873700D02*
X37096800Y-31965900D01*
X45008800Y-31165800D02*
X45868708Y-30305892D01*
X37096800Y-31965900D02*
X44080290Y-31965900D01*
X44080290Y-31965900D02*
X44880390Y-31165800D01*
X44880390Y-31165800D02*
X45008800Y-31165800D01*
%TO.N,Net-(Q1-Pad2)*%
X41551900Y-29422600D02*
X41764500Y-29210000D01*
%TO.N,/LED_B*%
X44927073Y-29540200D02*
X45308193Y-29159080D01*
X45859700Y-28607573D02*
X45308193Y-29159080D01*
X45859700Y-28232100D02*
X45859700Y-28607573D01*
X43116500Y-27419200D02*
X45046800Y-27419200D01*
X45046800Y-27419200D02*
X45859700Y-28232100D01*
%TO.N,Earth*%
X47574200Y-32112698D02*
X46914207Y-31452705D01*
X47574200Y-33121600D02*
X47574200Y-32112698D01*
D14*
X44836140Y-26479500D02*
X44747240Y-26390600D01*
X44747240Y-26390600D02*
X44132500Y-26390600D01*
X45555241Y-26479500D02*
X44836140Y-26479500D01*
X48526700Y-32156400D02*
X48526700Y-30490565D01*
X47702735Y-29630635D02*
X47702735Y-29514303D01*
X48439658Y-30367558D02*
X47702735Y-29630635D01*
X48526700Y-30490565D02*
X48439658Y-30367558D01*
X47702735Y-29514303D02*
X45555241Y-26479500D01*
D12*
%TO.N,/LED_B_O*%
X31394500Y-35179000D02*
X31369100Y-35204400D01*
X36550600Y-35179000D02*
X31394500Y-35179000D01*
X42290900Y-35179000D02*
X40284400Y-35179000D01*
X40284400Y-35179000D02*
X36550600Y-35179000D01*
X40568500Y-27389200D02*
X40601900Y-27422600D01*
X40530400Y-25544400D02*
X40530400Y-27719400D01*
X38379400Y-22733100D02*
X38379400Y-23393400D01*
X38379400Y-23393400D02*
X40530400Y-25544400D01*
X40627300Y-27448000D02*
X40601900Y-27422600D01*
X40627300Y-27889200D02*
X40627300Y-27448000D01*
X40284400Y-35179000D02*
X40132000Y-35026600D01*
X40132000Y-35026600D02*
X40132000Y-34697510D01*
%TO.N,/LED_R_O*%
X31394500Y-36601400D02*
X31369100Y-36626800D01*
X42290900Y-36601400D02*
X38658800Y-36601400D01*
X36995100Y-27397200D02*
X36995100Y-27305000D01*
X36957000Y-27635200D02*
X36957000Y-22733100D01*
X37084000Y-36322000D02*
X37363400Y-36601400D01*
X37084000Y-36068000D02*
X37084000Y-36322000D01*
X38658800Y-36601400D02*
X37363400Y-36601400D01*
X37363400Y-36601400D02*
X31394500Y-36601400D01*
X36995100Y-27863800D02*
X36995100Y-27397200D01*
%TO.N,/LED_G_O*%
X33510600Y-25341200D02*
X33510600Y-27516200D01*
X35534600Y-22733100D02*
X35534600Y-23317200D01*
X33548700Y-27186000D02*
X33362900Y-27371800D01*
X35534600Y-23317200D02*
X33510600Y-25341200D01*
D13*
X33362900Y-27838400D02*
X33362900Y-27371800D01*
D12*
X33302510Y-33972500D02*
X31559600Y-33972500D01*
X33604200Y-33670810D02*
X33302510Y-33972500D01*
X31559600Y-33972500D02*
X31369100Y-33782000D01*
X42290900Y-33756600D02*
X42075000Y-33972500D01*
X42075000Y-33972500D02*
X33147000Y-33972500D01*
%TO.N,Net-(Q1-Pad2)*%
X41954900Y-28994200D02*
X41551900Y-29397200D01*
X43116500Y-28994200D02*
X41954900Y-28994200D01*
%TO.N,Net-(Q2-Pad2)*%
X38074500Y-29526600D02*
X37945100Y-29397200D01*
X38074500Y-30886400D02*
X38074500Y-29526600D01*
%TO.N,Net-(Q3-Pad2)*%
X34312900Y-30757000D02*
X34416900Y-30861000D01*
X34312900Y-29371800D02*
X34312900Y-30757000D01*
%TD*%
D15*
%TO.N,Earth*%
G36*
X50493265Y-33489092D02*
G01*
X50392833Y-33479200D01*
X50392822Y-33479200D01*
X50355500Y-33475524D01*
X50318178Y-33479200D01*
X44939389Y-33479200D01*
X44937321Y-33458206D01*
X44957339Y-33447506D01*
X45102376Y-33328478D01*
X45132205Y-33292131D01*
X45600545Y-32823791D01*
X45692940Y-32774406D01*
X45801637Y-32685201D01*
X45915927Y-32570910D01*
X45952278Y-32541078D01*
X46071306Y-32396041D01*
X46159752Y-32230569D01*
X46202717Y-32088932D01*
X46843179Y-31640476D01*
X46855129Y-31639299D01*
X46855140Y-31639299D01*
X46966793Y-31628302D01*
X47110054Y-31584845D01*
X47242083Y-31514273D01*
X47357808Y-31419300D01*
X47381611Y-31390296D01*
X47716340Y-31055567D01*
X47795276Y-31013374D01*
X47911001Y-30918401D01*
X48005974Y-30802676D01*
X48041703Y-30735833D01*
X48045182Y-30731400D01*
X48065456Y-30691394D01*
X48076546Y-30670647D01*
X48077404Y-30667818D01*
X48109480Y-30604525D01*
X48147790Y-30467545D01*
X48158640Y-30325722D01*
X48141614Y-30184508D01*
X48130206Y-30149656D01*
X50493265Y-33489092D01*
G37*
X50493265Y-33489092D02*
X50392833Y-33479200D01*
X50392822Y-33479200D01*
X50355500Y-33475524D01*
X50318178Y-33479200D01*
X44939389Y-33479200D01*
X44937321Y-33458206D01*
X44957339Y-33447506D01*
X45102376Y-33328478D01*
X45132205Y-33292131D01*
X45600545Y-32823791D01*
X45692940Y-32774406D01*
X45801637Y-32685201D01*
X45915927Y-32570910D01*
X45952278Y-32541078D01*
X46071306Y-32396041D01*
X46159752Y-32230569D01*
X46202717Y-32088932D01*
X46843179Y-31640476D01*
X46855129Y-31639299D01*
X46855140Y-31639299D01*
X46966793Y-31628302D01*
X47110054Y-31584845D01*
X47242083Y-31514273D01*
X47357808Y-31419300D01*
X47381611Y-31390296D01*
X47716340Y-31055567D01*
X47795276Y-31013374D01*
X47911001Y-30918401D01*
X48005974Y-30802676D01*
X48041703Y-30735833D01*
X48045182Y-30731400D01*
X48065456Y-30691394D01*
X48076546Y-30670647D01*
X48077404Y-30667818D01*
X48109480Y-30604525D01*
X48147790Y-30467545D01*
X48158640Y-30325722D01*
X48141614Y-30184508D01*
X48130206Y-30149656D01*
X50493265Y-33489092D01*
G36*
X35562000Y-17945877D02*
G01*
X35558324Y-17983200D01*
X35562000Y-18020522D01*
X35562000Y-18020532D01*
X35572997Y-18132185D01*
X35616454Y-18275446D01*
X35687026Y-18407476D01*
X35726871Y-18456026D01*
X35781999Y-18523201D01*
X35811003Y-18547004D01*
X36383672Y-19119673D01*
X36322626Y-19160463D01*
X36233100Y-19249989D01*
X36194374Y-19211263D01*
X36024856Y-19097995D01*
X35836498Y-19019974D01*
X35636539Y-18980200D01*
X35432661Y-18980200D01*
X35232702Y-19019974D01*
X35044344Y-19097995D01*
X34874826Y-19211263D01*
X34730663Y-19355426D01*
X34617395Y-19524944D01*
X34539374Y-19713302D01*
X34499600Y-19913261D01*
X34499600Y-20117139D01*
X34539374Y-20317098D01*
X34588534Y-20435780D01*
X34565929Y-20463325D01*
X34486750Y-20611458D01*
X34437992Y-20772192D01*
X34421528Y-20939350D01*
X34421528Y-21376850D01*
X34437992Y-21544008D01*
X34486750Y-21704742D01*
X34565929Y-21852875D01*
X34642026Y-21945600D01*
X34565929Y-22038325D01*
X34486750Y-22186458D01*
X34437992Y-22347192D01*
X34421528Y-22514350D01*
X34421528Y-22951850D01*
X34437992Y-23119008D01*
X34486750Y-23279742D01*
X34490410Y-23286589D01*
X32999603Y-24777396D01*
X32970599Y-24801199D01*
X32939697Y-24838854D01*
X32875626Y-24916924D01*
X32805055Y-25048953D01*
X32805054Y-25048954D01*
X32761597Y-25192215D01*
X32750600Y-25303868D01*
X32750600Y-25303878D01*
X32746924Y-25341200D01*
X32750600Y-25378523D01*
X32750600Y-26348027D01*
X32718720Y-26357698D01*
X32608406Y-26416663D01*
X32511715Y-26496015D01*
X32432363Y-26592706D01*
X32373398Y-26703020D01*
X32337088Y-26822718D01*
X32324828Y-26947200D01*
X32324828Y-27847200D01*
X32327900Y-27878392D01*
X32327900Y-27940339D01*
X32367674Y-28140298D01*
X32445695Y-28328656D01*
X32558963Y-28498174D01*
X32703126Y-28642337D01*
X32872644Y-28755605D01*
X33061002Y-28833626D01*
X33260961Y-28873400D01*
X33282096Y-28873400D01*
X33274828Y-28947200D01*
X33274828Y-29847200D01*
X33287088Y-29971682D01*
X33323398Y-30091380D01*
X33382363Y-30201694D01*
X33433142Y-30263568D01*
X33419250Y-30289558D01*
X33370492Y-30450292D01*
X33354028Y-30617450D01*
X33354028Y-31129950D01*
X33370492Y-31297108D01*
X33419250Y-31457842D01*
X33498429Y-31605975D01*
X33574936Y-31699200D01*
X27305839Y-31699200D01*
X27058431Y-31451792D01*
X27015705Y-31348644D01*
X26902437Y-31179126D01*
X26758274Y-31034963D01*
X26588756Y-30921695D01*
X26549405Y-30905395D01*
X26533105Y-30866044D01*
X26419837Y-30696526D01*
X26275674Y-30552363D01*
X26106156Y-30439095D01*
X25917798Y-30361074D01*
X25717839Y-30321300D01*
X25693559Y-30321300D01*
X35562001Y-16335667D01*
X35562000Y-17945877D01*
G37*
X35562000Y-17945877D02*
X35558324Y-17983200D01*
X35562000Y-18020522D01*
X35562000Y-18020532D01*
X35572997Y-18132185D01*
X35616454Y-18275446D01*
X35687026Y-18407476D01*
X35726871Y-18456026D01*
X35781999Y-18523201D01*
X35811003Y-18547004D01*
X36383672Y-19119673D01*
X36322626Y-19160463D01*
X36233100Y-19249989D01*
X36194374Y-19211263D01*
X36024856Y-19097995D01*
X35836498Y-19019974D01*
X35636539Y-18980200D01*
X35432661Y-18980200D01*
X35232702Y-19019974D01*
X35044344Y-19097995D01*
X34874826Y-19211263D01*
X34730663Y-19355426D01*
X34617395Y-19524944D01*
X34539374Y-19713302D01*
X34499600Y-19913261D01*
X34499600Y-20117139D01*
X34539374Y-20317098D01*
X34588534Y-20435780D01*
X34565929Y-20463325D01*
X34486750Y-20611458D01*
X34437992Y-20772192D01*
X34421528Y-20939350D01*
X34421528Y-21376850D01*
X34437992Y-21544008D01*
X34486750Y-21704742D01*
X34565929Y-21852875D01*
X34642026Y-21945600D01*
X34565929Y-22038325D01*
X34486750Y-22186458D01*
X34437992Y-22347192D01*
X34421528Y-22514350D01*
X34421528Y-22951850D01*
X34437992Y-23119008D01*
X34486750Y-23279742D01*
X34490410Y-23286589D01*
X32999603Y-24777396D01*
X32970599Y-24801199D01*
X32939697Y-24838854D01*
X32875626Y-24916924D01*
X32805055Y-25048953D01*
X32805054Y-25048954D01*
X32761597Y-25192215D01*
X32750600Y-25303868D01*
X32750600Y-25303878D01*
X32746924Y-25341200D01*
X32750600Y-25378523D01*
X32750600Y-26348027D01*
X32718720Y-26357698D01*
X32608406Y-26416663D01*
X32511715Y-26496015D01*
X32432363Y-26592706D01*
X32373398Y-26703020D01*
X32337088Y-26822718D01*
X32324828Y-26947200D01*
X32324828Y-27847200D01*
X32327900Y-27878392D01*
X32327900Y-27940339D01*
X32367674Y-28140298D01*
X32445695Y-28328656D01*
X32558963Y-28498174D01*
X32703126Y-28642337D01*
X32872644Y-28755605D01*
X33061002Y-28833626D01*
X33260961Y-28873400D01*
X33282096Y-28873400D01*
X33274828Y-28947200D01*
X33274828Y-29847200D01*
X33287088Y-29971682D01*
X33323398Y-30091380D01*
X33382363Y-30201694D01*
X33433142Y-30263568D01*
X33419250Y-30289558D01*
X33370492Y-30450292D01*
X33354028Y-30617450D01*
X33354028Y-31129950D01*
X33370492Y-31297108D01*
X33419250Y-31457842D01*
X33498429Y-31605975D01*
X33574936Y-31699200D01*
X27305839Y-31699200D01*
X27058431Y-31451792D01*
X27015705Y-31348644D01*
X26902437Y-31179126D01*
X26758274Y-31034963D01*
X26588756Y-30921695D01*
X26549405Y-30905395D01*
X26533105Y-30866044D01*
X26419837Y-30696526D01*
X26275674Y-30552363D01*
X26106156Y-30439095D01*
X25917798Y-30361074D01*
X25717839Y-30321300D01*
X25693559Y-30321300D01*
X35562001Y-16335667D01*
X35562000Y-17945877D01*
G36*
X36197000Y-26452449D02*
G01*
X36143915Y-26496015D01*
X36064563Y-26592706D01*
X36005598Y-26703020D01*
X35969288Y-26822718D01*
X35957028Y-26947200D01*
X35957028Y-27847200D01*
X35960100Y-27878392D01*
X35960100Y-27965739D01*
X35999874Y-28165698D01*
X36077895Y-28354056D01*
X36191163Y-28523574D01*
X36335326Y-28667737D01*
X36504844Y-28781005D01*
X36693202Y-28859026D01*
X36893161Y-28898800D01*
X36911795Y-28898800D01*
X36907028Y-28947200D01*
X36907028Y-29847200D01*
X36919288Y-29971682D01*
X36955598Y-30091380D01*
X37014563Y-30201694D01*
X37057120Y-30253550D01*
X37051450Y-30264158D01*
X37029348Y-30337020D01*
X37014950Y-30289558D01*
X36935771Y-30141425D01*
X36829215Y-30011585D01*
X36699375Y-29905029D01*
X36551242Y-29825850D01*
X36390508Y-29777092D01*
X36223350Y-29760628D01*
X35785850Y-29760628D01*
X35618692Y-29777092D01*
X35457958Y-29825850D01*
X35347247Y-29885027D01*
X35350972Y-29847200D01*
X35350972Y-28947200D01*
X35338712Y-28822718D01*
X35302402Y-28703020D01*
X35243437Y-28592706D01*
X35164085Y-28496015D01*
X35067394Y-28416663D01*
X34957080Y-28357698D01*
X34837382Y-28321388D01*
X34712900Y-28309128D01*
X34288194Y-28309128D01*
X34358126Y-28140298D01*
X34397900Y-27940339D01*
X34397900Y-27878392D01*
X34400972Y-27847200D01*
X34400972Y-26947200D01*
X34388712Y-26822718D01*
X34352402Y-26703020D01*
X34293437Y-26592706D01*
X34270600Y-26564879D01*
X34270600Y-25656001D01*
X36045603Y-23880999D01*
X36074601Y-23857201D01*
X36169574Y-23741476D01*
X36188429Y-23706201D01*
X36197001Y-23701620D01*
X36197000Y-26452449D01*
G37*
X36197000Y-26452449D02*
X36143915Y-26496015D01*
X36064563Y-26592706D01*
X36005598Y-26703020D01*
X35969288Y-26822718D01*
X35957028Y-26947200D01*
X35957028Y-27847200D01*
X35960100Y-27878392D01*
X35960100Y-27965739D01*
X35999874Y-28165698D01*
X36077895Y-28354056D01*
X36191163Y-28523574D01*
X36335326Y-28667737D01*
X36504844Y-28781005D01*
X36693202Y-28859026D01*
X36893161Y-28898800D01*
X36911795Y-28898800D01*
X36907028Y-28947200D01*
X36907028Y-29847200D01*
X36919288Y-29971682D01*
X36955598Y-30091380D01*
X37014563Y-30201694D01*
X37057120Y-30253550D01*
X37051450Y-30264158D01*
X37029348Y-30337020D01*
X37014950Y-30289558D01*
X36935771Y-30141425D01*
X36829215Y-30011585D01*
X36699375Y-29905029D01*
X36551242Y-29825850D01*
X36390508Y-29777092D01*
X36223350Y-29760628D01*
X35785850Y-29760628D01*
X35618692Y-29777092D01*
X35457958Y-29825850D01*
X35347247Y-29885027D01*
X35350972Y-29847200D01*
X35350972Y-28947200D01*
X35338712Y-28822718D01*
X35302402Y-28703020D01*
X35243437Y-28592706D01*
X35164085Y-28496015D01*
X35067394Y-28416663D01*
X34957080Y-28357698D01*
X34837382Y-28321388D01*
X34712900Y-28309128D01*
X34288194Y-28309128D01*
X34358126Y-28140298D01*
X34397900Y-27940339D01*
X34397900Y-27878392D01*
X34400972Y-27847200D01*
X34400972Y-26947200D01*
X34388712Y-26822718D01*
X34352402Y-26703020D01*
X34293437Y-26592706D01*
X34270600Y-26564879D01*
X34270600Y-25656001D01*
X36045603Y-23880999D01*
X36074601Y-23857201D01*
X36169574Y-23741476D01*
X36188429Y-23706201D01*
X36197001Y-23701620D01*
X36197000Y-26452449D01*
G36*
X37744426Y-23817676D02*
G01*
X37776864Y-23857201D01*
X37839400Y-23933401D01*
X37868398Y-23957199D01*
X39770400Y-25859202D01*
X39770400Y-26479860D01*
X39750715Y-26496015D01*
X39671363Y-26592706D01*
X39612398Y-26703020D01*
X39576088Y-26822718D01*
X39563828Y-26947200D01*
X39563828Y-27847200D01*
X39576088Y-27971682D01*
X39611936Y-28089858D01*
X39632074Y-28191098D01*
X39710095Y-28379456D01*
X39823363Y-28548974D01*
X39967526Y-28693137D01*
X40137044Y-28806405D01*
X40325402Y-28884426D01*
X40516271Y-28922392D01*
X40513828Y-28947200D01*
X40513828Y-29847200D01*
X40526088Y-29971682D01*
X40557611Y-30075600D01*
X40534795Y-30075600D01*
X40461415Y-29986185D01*
X40331575Y-29879629D01*
X40183442Y-29800450D01*
X40022708Y-29751692D01*
X39855550Y-29735228D01*
X39418050Y-29735228D01*
X39250892Y-29751692D01*
X39090158Y-29800450D01*
X38982087Y-29858215D01*
X38983172Y-29847200D01*
X38983172Y-28947200D01*
X38970912Y-28822718D01*
X38934602Y-28703020D01*
X38875637Y-28592706D01*
X38796285Y-28496015D01*
X38699594Y-28416663D01*
X38589280Y-28357698D01*
X38469582Y-28321388D01*
X38345100Y-28309128D01*
X37930915Y-28309128D01*
X37990326Y-28165698D01*
X38030100Y-27965739D01*
X38030100Y-27878392D01*
X38033172Y-27847200D01*
X38033172Y-26947200D01*
X38020912Y-26822718D01*
X37984602Y-26703020D01*
X37925637Y-26592706D01*
X37846285Y-26496015D01*
X37749594Y-26416663D01*
X37717000Y-26399241D01*
X37717000Y-23766366D01*
X37744426Y-23817676D01*
G37*
X37744426Y-23817676D02*
X37776864Y-23857201D01*
X37839400Y-23933401D01*
X37868398Y-23957199D01*
X39770400Y-25859202D01*
X39770400Y-26479860D01*
X39750715Y-26496015D01*
X39671363Y-26592706D01*
X39612398Y-26703020D01*
X39576088Y-26822718D01*
X39563828Y-26947200D01*
X39563828Y-27847200D01*
X39576088Y-27971682D01*
X39611936Y-28089858D01*
X39632074Y-28191098D01*
X39710095Y-28379456D01*
X39823363Y-28548974D01*
X39967526Y-28693137D01*
X40137044Y-28806405D01*
X40325402Y-28884426D01*
X40516271Y-28922392D01*
X40513828Y-28947200D01*
X40513828Y-29847200D01*
X40526088Y-29971682D01*
X40557611Y-30075600D01*
X40534795Y-30075600D01*
X40461415Y-29986185D01*
X40331575Y-29879629D01*
X40183442Y-29800450D01*
X40022708Y-29751692D01*
X39855550Y-29735228D01*
X39418050Y-29735228D01*
X39250892Y-29751692D01*
X39090158Y-29800450D01*
X38982087Y-29858215D01*
X38983172Y-29847200D01*
X38983172Y-28947200D01*
X38970912Y-28822718D01*
X38934602Y-28703020D01*
X38875637Y-28592706D01*
X38796285Y-28496015D01*
X38699594Y-28416663D01*
X38589280Y-28357698D01*
X38469582Y-28321388D01*
X38345100Y-28309128D01*
X37930915Y-28309128D01*
X37990326Y-28165698D01*
X38030100Y-27965739D01*
X38030100Y-27878392D01*
X38033172Y-27847200D01*
X38033172Y-26947200D01*
X38020912Y-26822718D01*
X37984602Y-26703020D01*
X37925637Y-26592706D01*
X37846285Y-26496015D01*
X37749594Y-26416663D01*
X37717000Y-26399241D01*
X37717000Y-23766366D01*
X37744426Y-23817676D01*
G36*
X47742545Y-29601820D02*
G01*
X47735180Y-29596040D01*
X47732361Y-29587428D01*
X47742545Y-29601820D01*
G37*
X47742545Y-29601820D02*
X47735180Y-29596040D01*
X47732361Y-29587428D01*
X47742545Y-29601820D01*
G36*
X46379388Y-27675429D02*
G01*
X46370704Y-27668302D01*
X45610603Y-26908202D01*
X45586801Y-26879199D01*
X45471076Y-26784226D01*
X45339047Y-26713654D01*
X45195786Y-26670197D01*
X45084133Y-26659200D01*
X45084122Y-26659200D01*
X45046800Y-26655524D01*
X45009478Y-26659200D01*
X44031643Y-26659200D01*
X43978615Y-26594585D01*
X43848775Y-26488029D01*
X43700642Y-26408850D01*
X43539908Y-26360092D01*
X43372750Y-26343628D01*
X42860250Y-26343628D01*
X42693092Y-26360092D01*
X42532358Y-26408850D01*
X42384225Y-26488029D01*
X42254385Y-26594585D01*
X42147829Y-26724425D01*
X42068650Y-26872558D01*
X42019892Y-27033292D01*
X42003428Y-27200450D01*
X42003428Y-27637950D01*
X42019892Y-27805108D01*
X42068650Y-27965842D01*
X42147829Y-28113975D01*
X42223926Y-28206700D01*
X42201357Y-28234200D01*
X41992222Y-28234200D01*
X41954899Y-28230524D01*
X41917576Y-28234200D01*
X41917567Y-28234200D01*
X41805914Y-28245197D01*
X41662653Y-28288654D01*
X41624349Y-28309128D01*
X41573636Y-28309128D01*
X41622526Y-28191098D01*
X41662300Y-27991139D01*
X41662300Y-27787261D01*
X41639972Y-27675010D01*
X41639972Y-26947200D01*
X41627712Y-26822718D01*
X41591402Y-26703020D01*
X41532437Y-26592706D01*
X41453085Y-26496015D01*
X41356394Y-26416663D01*
X41290400Y-26381388D01*
X41290400Y-25581722D01*
X41294076Y-25544399D01*
X41290400Y-25507076D01*
X41290400Y-25507067D01*
X41279403Y-25395414D01*
X41235946Y-25252153D01*
X41165374Y-25120124D01*
X41070401Y-25004399D01*
X41041404Y-24980602D01*
X39397048Y-23336246D01*
X39427250Y-23279742D01*
X39476008Y-23119008D01*
X39492472Y-22951850D01*
X39492472Y-22514350D01*
X39476008Y-22347192D01*
X39427250Y-22186458D01*
X39348071Y-22038325D01*
X39271974Y-21945600D01*
X39348071Y-21852875D01*
X39427250Y-21704742D01*
X39476008Y-21544008D01*
X39492472Y-21376850D01*
X39492472Y-20939350D01*
X39476008Y-20772192D01*
X39427250Y-20611458D01*
X39348071Y-20463325D01*
X39241515Y-20333485D01*
X39139400Y-20249682D01*
X39139400Y-20077922D01*
X39143076Y-20040600D01*
X39139400Y-20003277D01*
X39139400Y-20003267D01*
X39128403Y-19891614D01*
X39084946Y-19748353D01*
X39057793Y-19697554D01*
X39014374Y-19616323D01*
X38943199Y-19529597D01*
X38919401Y-19500599D01*
X38890403Y-19476801D01*
X37082000Y-17668399D01*
X37082000Y-15991275D01*
X37137605Y-15908056D01*
X37215626Y-15719698D01*
X37255400Y-15519739D01*
X37255400Y-15315861D01*
X37215626Y-15115902D01*
X37193216Y-15061800D01*
X37453704Y-15061800D01*
X46379388Y-27675429D01*
G37*
X46379388Y-27675429D02*
X46370704Y-27668302D01*
X45610603Y-26908202D01*
X45586801Y-26879199D01*
X45471076Y-26784226D01*
X45339047Y-26713654D01*
X45195786Y-26670197D01*
X45084133Y-26659200D01*
X45084122Y-26659200D01*
X45046800Y-26655524D01*
X45009478Y-26659200D01*
X44031643Y-26659200D01*
X43978615Y-26594585D01*
X43848775Y-26488029D01*
X43700642Y-26408850D01*
X43539908Y-26360092D01*
X43372750Y-26343628D01*
X42860250Y-26343628D01*
X42693092Y-26360092D01*
X42532358Y-26408850D01*
X42384225Y-26488029D01*
X42254385Y-26594585D01*
X42147829Y-26724425D01*
X42068650Y-26872558D01*
X42019892Y-27033292D01*
X42003428Y-27200450D01*
X42003428Y-27637950D01*
X42019892Y-27805108D01*
X42068650Y-27965842D01*
X42147829Y-28113975D01*
X42223926Y-28206700D01*
X42201357Y-28234200D01*
X41992222Y-28234200D01*
X41954899Y-28230524D01*
X41917576Y-28234200D01*
X41917567Y-28234200D01*
X41805914Y-28245197D01*
X41662653Y-28288654D01*
X41624349Y-28309128D01*
X41573636Y-28309128D01*
X41622526Y-28191098D01*
X41662300Y-27991139D01*
X41662300Y-27787261D01*
X41639972Y-27675010D01*
X41639972Y-26947200D01*
X41627712Y-26822718D01*
X41591402Y-26703020D01*
X41532437Y-26592706D01*
X41453085Y-26496015D01*
X41356394Y-26416663D01*
X41290400Y-26381388D01*
X41290400Y-25581722D01*
X41294076Y-25544399D01*
X41290400Y-25507076D01*
X41290400Y-25507067D01*
X41279403Y-25395414D01*
X41235946Y-25252153D01*
X41165374Y-25120124D01*
X41070401Y-25004399D01*
X41041404Y-24980602D01*
X39397048Y-23336246D01*
X39427250Y-23279742D01*
X39476008Y-23119008D01*
X39492472Y-22951850D01*
X39492472Y-22514350D01*
X39476008Y-22347192D01*
X39427250Y-22186458D01*
X39348071Y-22038325D01*
X39271974Y-21945600D01*
X39348071Y-21852875D01*
X39427250Y-21704742D01*
X39476008Y-21544008D01*
X39492472Y-21376850D01*
X39492472Y-20939350D01*
X39476008Y-20772192D01*
X39427250Y-20611458D01*
X39348071Y-20463325D01*
X39241515Y-20333485D01*
X39139400Y-20249682D01*
X39139400Y-20077922D01*
X39143076Y-20040600D01*
X39139400Y-20003277D01*
X39139400Y-20003267D01*
X39128403Y-19891614D01*
X39084946Y-19748353D01*
X39057793Y-19697554D01*
X39014374Y-19616323D01*
X38943199Y-19529597D01*
X38919401Y-19500599D01*
X38890403Y-19476801D01*
X37082000Y-17668399D01*
X37082000Y-15991275D01*
X37137605Y-15908056D01*
X37215626Y-15719698D01*
X37255400Y-15519739D01*
X37255400Y-15315861D01*
X37215626Y-15115902D01*
X37193216Y-15061800D01*
X37453704Y-15061800D01*
X46379388Y-27675429D01*
%TD*%
M02*
