M48
; DRILL file {KiCad (5.1.6)-1} date 12/08/20 12:03:21
; FORMAT={-:-/ absolute / metric / decimal}
; #@! TF.CreationDate,2020-12-08T12:03:21+08:00
; #@! TF.GenerationSoftware,Kicad,Pcbnew,(5.1.6)-1
; #@! TF.FileFunction,Plated,1,2,PTH
FMAT,2
METRIC
T1C0.400
%
G90
G05
T1
X21.311Y-36.678
X21.336Y-37.973
X23.698Y-37.821
X25.616Y-31.356
X26.098Y-31.839
X30.162Y-26.454
X31.763Y-23.812
X33.02Y-21.73
X33.363Y-27.838
X33.604Y-33.671
X35.23Y-26.352
X35.535Y-20.015
X35.725Y-25.006
X36.22Y-15.418
X36.982Y-19.964
X36.995Y-27.864
X37.084Y-36.068
X38.113Y-24.943
X38.684Y-26.314
X40.132Y-34.698
X40.627Y-27.889
X40.767Y-21.653
X42.304Y-23.774
X44.133Y-26.391
X45.314Y-33.122
X47.333Y-33.134
X48.527Y-32.156
X48.692Y-35.357
X49.34Y-33.16
X50.59Y-35.744
X52.73Y-38.011
T0
M30
