G04 #@! TF.GenerationSoftware,KiCad,Pcbnew,(5.1.6)-1*
G04 #@! TF.CreationDate,2020-12-22T11:04:26+08:00*
G04 #@! TF.ProjectId,LED_A1.0,4c45445f-4131-42e3-902e-6b696361645f,rev?*
G04 #@! TF.SameCoordinates,Original*
G04 #@! TF.FileFunction,Paste,Bot*
G04 #@! TF.FilePolarity,Positive*
%FSLAX46Y46*%
G04 Gerber Fmt 4.6, Leading zero omitted, Abs format (unit mm)*
G04 Created by KiCad (PCBNEW (5.1.6)-1) date 2020-12-22 11:04:26*
%MOMM*%
%LPD*%
G01*
G04 APERTURE LIST*
%ADD10R,0.900000X0.800000*%
G04 APERTURE END LIST*
G36*
G01*
X33520900Y-29372850D02*
X33520900Y-29885350D01*
G75*
G02*
X33302150Y-30104100I-218750J0D01*
G01*
X32864650Y-30104100D01*
G75*
G02*
X32645900Y-29885350I0J218750D01*
G01*
X32645900Y-29372850D01*
G75*
G02*
X32864650Y-29154100I218750J0D01*
G01*
X33302150Y-29154100D01*
G75*
G02*
X33520900Y-29372850I0J-218750D01*
G01*
G37*
G36*
G01*
X35095900Y-29372850D02*
X35095900Y-29885350D01*
G75*
G02*
X34877150Y-30104100I-218750J0D01*
G01*
X34439650Y-30104100D01*
G75*
G02*
X34220900Y-29885350I0J218750D01*
G01*
X34220900Y-29372850D01*
G75*
G02*
X34439650Y-29154100I218750J0D01*
G01*
X34877150Y-29154100D01*
G75*
G02*
X35095900Y-29372850I0J-218750D01*
G01*
G37*
G36*
G01*
X34876450Y-27005800D02*
X34363950Y-27005800D01*
G75*
G02*
X34145200Y-26787050I0J218750D01*
G01*
X34145200Y-26349550D01*
G75*
G02*
X34363950Y-26130800I218750J0D01*
G01*
X34876450Y-26130800D01*
G75*
G02*
X35095200Y-26349550I0J-218750D01*
G01*
X35095200Y-26787050D01*
G75*
G02*
X34876450Y-27005800I-218750J0D01*
G01*
G37*
G36*
G01*
X34876450Y-28580800D02*
X34363950Y-28580800D01*
G75*
G02*
X34145200Y-28362050I0J218750D01*
G01*
X34145200Y-27924550D01*
G75*
G02*
X34363950Y-27705800I218750J0D01*
G01*
X34876450Y-27705800D01*
G75*
G02*
X35095200Y-27924550I0J-218750D01*
G01*
X35095200Y-28362050D01*
G75*
G02*
X34876450Y-28580800I-218750J0D01*
G01*
G37*
G36*
G01*
X34363950Y-32252400D02*
X34876450Y-32252400D01*
G75*
G02*
X35095200Y-32471150I0J-218750D01*
G01*
X35095200Y-32908650D01*
G75*
G02*
X34876450Y-33127400I-218750J0D01*
G01*
X34363950Y-33127400D01*
G75*
G02*
X34145200Y-32908650I0J218750D01*
G01*
X34145200Y-32471150D01*
G75*
G02*
X34363950Y-32252400I218750J0D01*
G01*
G37*
G36*
G01*
X34363950Y-30677400D02*
X34876450Y-30677400D01*
G75*
G02*
X35095200Y-30896150I0J-218750D01*
G01*
X35095200Y-31333650D01*
G75*
G02*
X34876450Y-31552400I-218750J0D01*
G01*
X34363950Y-31552400D01*
G75*
G02*
X34145200Y-31333650I0J218750D01*
G01*
X34145200Y-30896150D01*
G75*
G02*
X34363950Y-30677400I218750J0D01*
G01*
G37*
G36*
G01*
X39469350Y-29953700D02*
X39981850Y-29953700D01*
G75*
G02*
X40200600Y-30172450I0J-218750D01*
G01*
X40200600Y-30609950D01*
G75*
G02*
X39981850Y-30828700I-218750J0D01*
G01*
X39469350Y-30828700D01*
G75*
G02*
X39250600Y-30609950I0J218750D01*
G01*
X39250600Y-30172450D01*
G75*
G02*
X39469350Y-29953700I218750J0D01*
G01*
G37*
G36*
G01*
X39469350Y-28378700D02*
X39981850Y-28378700D01*
G75*
G02*
X40200600Y-28597450I0J-218750D01*
G01*
X40200600Y-29034950D01*
G75*
G02*
X39981850Y-29253700I-218750J0D01*
G01*
X39469350Y-29253700D01*
G75*
G02*
X39250600Y-29034950I0J218750D01*
G01*
X39250600Y-28597450D01*
G75*
G02*
X39469350Y-28378700I218750J0D01*
G01*
G37*
D10*
X36109400Y-29654500D03*
X38109400Y-30604500D03*
X38109400Y-28704500D03*
G36*
G01*
X21848687Y-37006471D02*
X22372076Y-37753948D01*
G75*
G02*
X22312217Y-38093425I-199668J-139809D01*
G01*
X21912880Y-38373043D01*
G75*
G02*
X21573403Y-38313184I-139809J199668D01*
G01*
X21050014Y-37565708D01*
G75*
G02*
X21109873Y-37226231I199668J139809D01*
G01*
X21509210Y-36946613D01*
G75*
G02*
X21848687Y-37006472I139809J-199668D01*
G01*
G37*
G36*
G01*
X23384597Y-35931015D02*
X23907986Y-36678492D01*
G75*
G02*
X23848127Y-37017969I-199668J-139809D01*
G01*
X23448790Y-37297587D01*
G75*
G02*
X23109313Y-37237728I-139809J199668D01*
G01*
X22585924Y-36490252D01*
G75*
G02*
X22645783Y-36150775I199668J139809D01*
G01*
X23045120Y-35871157D01*
G75*
G02*
X23384597Y-35931016I139809J-199668D01*
G01*
G37*
G36*
G01*
X37400550Y-15882200D02*
X36488050Y-15882200D01*
G75*
G02*
X36244300Y-15638450I0J243750D01*
G01*
X36244300Y-15150950D01*
G75*
G02*
X36488050Y-14907200I243750J0D01*
G01*
X37400550Y-14907200D01*
G75*
G02*
X37644300Y-15150950I0J-243750D01*
G01*
X37644300Y-15638450D01*
G75*
G02*
X37400550Y-15882200I-243750J0D01*
G01*
G37*
G36*
G01*
X37400550Y-17757200D02*
X36488050Y-17757200D01*
G75*
G02*
X36244300Y-17513450I0J243750D01*
G01*
X36244300Y-17025950D01*
G75*
G02*
X36488050Y-16782200I243750J0D01*
G01*
X37400550Y-16782200D01*
G75*
G02*
X37644300Y-17025950I0J-243750D01*
G01*
X37644300Y-17513450D01*
G75*
G02*
X37400550Y-17757200I-243750J0D01*
G01*
G37*
G36*
G01*
X51719724Y-37741248D02*
X52243113Y-36993772D01*
G75*
G02*
X52582590Y-36933913I199668J-139809D01*
G01*
X52981927Y-37213531D01*
G75*
G02*
X53041786Y-37553008I-139809J-199668D01*
G01*
X52518397Y-38300484D01*
G75*
G02*
X52178920Y-38360343I-199668J139809D01*
G01*
X51779583Y-38080725D01*
G75*
G02*
X51719724Y-37741248I139809J199668D01*
G01*
G37*
G36*
G01*
X50183814Y-36665792D02*
X50707203Y-35918316D01*
G75*
G02*
X51046680Y-35858457I199668J-139809D01*
G01*
X51446017Y-36138075D01*
G75*
G02*
X51505876Y-36477552I-139809J-199668D01*
G01*
X50982487Y-37225028D01*
G75*
G02*
X50643010Y-37284887I-199668J139809D01*
G01*
X50243673Y-37005269D01*
G75*
G02*
X50183814Y-36665792I139809J199668D01*
G01*
G37*
G36*
G01*
X44353178Y-31960287D02*
X46093876Y-30741437D01*
G75*
G02*
X46215740Y-30762925I50188J-71676D01*
G01*
X46316116Y-30906277D01*
G75*
G02*
X46294628Y-31028141I-71676J-50188D01*
G01*
X44553930Y-32246991D01*
G75*
G02*
X44432066Y-32225503I-50188J71676D01*
G01*
X44331690Y-32082151D01*
G75*
G02*
X44353178Y-31960287I71676J50188D01*
G01*
G37*
G36*
G01*
X43951675Y-31386881D02*
X45692373Y-30168031D01*
G75*
G02*
X45814237Y-30189519I50188J-71676D01*
G01*
X45914613Y-30332871D01*
G75*
G02*
X45893125Y-30454735I-71676J-50188D01*
G01*
X44152427Y-31673585D01*
G75*
G02*
X44030563Y-31652097I-50188J71676D01*
G01*
X43930187Y-31508745D01*
G75*
G02*
X43951675Y-31386881I71676J50188D01*
G01*
G37*
G36*
G01*
X43550171Y-30813474D02*
X45290869Y-29594624D01*
G75*
G02*
X45412733Y-29616112I50188J-71676D01*
G01*
X45513109Y-29759464D01*
G75*
G02*
X45491621Y-29881328I-71676J-50188D01*
G01*
X43750923Y-31100178D01*
G75*
G02*
X43629059Y-31078690I-50188J71676D01*
G01*
X43528683Y-30935338D01*
G75*
G02*
X43550171Y-30813474I71676J50188D01*
G01*
G37*
G36*
G01*
X44754682Y-32533693D02*
X46495380Y-31314843D01*
G75*
G02*
X46617244Y-31336331I50188J-71676D01*
G01*
X46717620Y-31479683D01*
G75*
G02*
X46696132Y-31601547I-71676J-50188D01*
G01*
X44955434Y-32820397D01*
G75*
G02*
X44833570Y-32798909I-50188J71676D01*
G01*
X44733194Y-32655557D01*
G75*
G02*
X44754682Y-32533693I71676J50188D01*
G01*
G37*
G36*
G01*
X43148668Y-30240068D02*
X44889366Y-29021218D01*
G75*
G02*
X45011230Y-29042706I50188J-71676D01*
G01*
X45111606Y-29186058D01*
G75*
G02*
X45090118Y-29307922I-71676J-50188D01*
G01*
X43349420Y-30526772D01*
G75*
G02*
X43227556Y-30505284I-50188J71676D01*
G01*
X43127180Y-30361932D01*
G75*
G02*
X43148668Y-30240068I71676J50188D01*
G01*
G37*
M02*
