G04 #@! TF.GenerationSoftware,KiCad,Pcbnew,(5.1.6)-1*
G04 #@! TF.CreationDate,2020-12-22T11:04:26+08:00*
G04 #@! TF.ProjectId,LED_A1.0,4c45445f-4131-42e3-902e-6b696361645f,rev?*
G04 #@! TF.SameCoordinates,Original*
G04 #@! TF.FileFunction,Legend,Bot*
G04 #@! TF.FilePolarity,Positive*
%FSLAX46Y46*%
G04 Gerber Fmt 4.6, Leading zero omitted, Abs format (unit mm)*
G04 Created by KiCad (PCBNEW (5.1.6)-1) date 2020-12-22 11:04:26*
%MOMM*%
%LPD*%
G01*
G04 APERTURE LIST*
%ADD10C,0.120000*%
%ADD11C,0.150000*%
G04 APERTURE END LIST*
D10*
X34033679Y-30139100D02*
X33708121Y-30139100D01*
X34033679Y-29119100D02*
X33708121Y-29119100D01*
X34110200Y-27518579D02*
X34110200Y-27193021D01*
X35130200Y-27518579D02*
X35130200Y-27193021D01*
X35130200Y-31739621D02*
X35130200Y-32065179D01*
X34110200Y-31739621D02*
X34110200Y-32065179D01*
X40235600Y-29440921D02*
X40235600Y-29766479D01*
X39215600Y-29440921D02*
X39215600Y-29766479D01*
X36349400Y-31234500D02*
X37809400Y-31234500D01*
X36349400Y-28074500D02*
X38509400Y-28074500D01*
X36349400Y-28074500D02*
X36349400Y-29004500D01*
X36349400Y-31234500D02*
X36349400Y-30304500D01*
X24409905Y-36942010D02*
X22210481Y-38482062D01*
X23308638Y-35369238D02*
X24409905Y-36942010D01*
X21109215Y-36909290D02*
X23308638Y-35369238D01*
X35984300Y-18017200D02*
X35984300Y-15332200D01*
X37904300Y-18017200D02*
X35984300Y-18017200D01*
X37904300Y-15332200D02*
X37904300Y-18017200D01*
X50783162Y-35356538D02*
X52982585Y-36896590D01*
X49681895Y-36929310D02*
X50783162Y-35356538D01*
X51881319Y-38469362D02*
X49681895Y-36929310D01*
X45702713Y-27938981D02*
X43414002Y-29541554D01*
X47997305Y-31215999D02*
X45708594Y-32818572D01*
D11*
X31662666Y-30106880D02*
X31996000Y-29630690D01*
X32234095Y-30106880D02*
X32234095Y-29106880D01*
X31853142Y-29106880D01*
X31757904Y-29154500D01*
X31710285Y-29202119D01*
X31662666Y-29297357D01*
X31662666Y-29440214D01*
X31710285Y-29535452D01*
X31757904Y-29583071D01*
X31853142Y-29630690D01*
X32234095Y-29630690D01*
X31329333Y-29106880D02*
X30710285Y-29106880D01*
X31043619Y-29487833D01*
X30900761Y-29487833D01*
X30805523Y-29535452D01*
X30757904Y-29583071D01*
X30710285Y-29678309D01*
X30710285Y-29916404D01*
X30757904Y-30011642D01*
X30805523Y-30059261D01*
X30900761Y-30106880D01*
X31186476Y-30106880D01*
X31281714Y-30059261D01*
X31329333Y-30011642D01*
X33726380Y-27176433D02*
X33250190Y-26843100D01*
X33726380Y-26605004D02*
X32726380Y-26605004D01*
X32726380Y-26985957D01*
X32774000Y-27081195D01*
X32821619Y-27128814D01*
X32916857Y-27176433D01*
X33059714Y-27176433D01*
X33154952Y-27128814D01*
X33202571Y-27081195D01*
X33250190Y-26985957D01*
X33250190Y-26605004D01*
X32821619Y-27557385D02*
X32774000Y-27605004D01*
X32726380Y-27700242D01*
X32726380Y-27938338D01*
X32774000Y-28033576D01*
X32821619Y-28081195D01*
X32916857Y-28128814D01*
X33012095Y-28128814D01*
X33154952Y-28081195D01*
X33726380Y-27509766D01*
X33726380Y-28128814D01*
X33642580Y-31735733D02*
X33166390Y-31402400D01*
X33642580Y-31164304D02*
X32642580Y-31164304D01*
X32642580Y-31545257D01*
X32690200Y-31640495D01*
X32737819Y-31688114D01*
X32833057Y-31735733D01*
X32975914Y-31735733D01*
X33071152Y-31688114D01*
X33118771Y-31640495D01*
X33166390Y-31545257D01*
X33166390Y-31164304D01*
X33642580Y-32688114D02*
X33642580Y-32116685D01*
X33642580Y-32402400D02*
X32642580Y-32402400D01*
X32785438Y-32307161D01*
X32880676Y-32211923D01*
X32928295Y-32116685D01*
X41613080Y-28960842D02*
X41136890Y-28627509D01*
X41613080Y-28389414D02*
X40613080Y-28389414D01*
X40613080Y-28770366D01*
X40660700Y-28865604D01*
X40708319Y-28913223D01*
X40803557Y-28960842D01*
X40946414Y-28960842D01*
X41041652Y-28913223D01*
X41089271Y-28865604D01*
X41136890Y-28770366D01*
X41136890Y-28389414D01*
X41613080Y-29913223D02*
X41613080Y-29341795D01*
X41613080Y-29627509D02*
X40613080Y-29627509D01*
X40755938Y-29532271D01*
X40851176Y-29437033D01*
X40898795Y-29341795D01*
X41613080Y-30865604D02*
X41613080Y-30294176D01*
X41613080Y-30579890D02*
X40613080Y-30579890D01*
X40755938Y-30484652D01*
X40851176Y-30389414D01*
X40898795Y-30294176D01*
X37204638Y-27702119D02*
X37299876Y-27654500D01*
X37395114Y-27559261D01*
X37537971Y-27416404D01*
X37633209Y-27368785D01*
X37728447Y-27368785D01*
X37680828Y-27606880D02*
X37776066Y-27559261D01*
X37871304Y-27464023D01*
X37918923Y-27273547D01*
X37918923Y-26940214D01*
X37871304Y-26749738D01*
X37776066Y-26654500D01*
X37680828Y-26606880D01*
X37490352Y-26606880D01*
X37395114Y-26654500D01*
X37299876Y-26749738D01*
X37252257Y-26940214D01*
X37252257Y-27273547D01*
X37299876Y-27464023D01*
X37395114Y-27559261D01*
X37490352Y-27606880D01*
X37680828Y-27606880D01*
X36299876Y-27606880D02*
X36871304Y-27606880D01*
X36585590Y-27606880D02*
X36585590Y-26606880D01*
X36680828Y-26749738D01*
X36776066Y-26844976D01*
X36871304Y-26892595D01*
X25590987Y-35545314D02*
X25017410Y-34726162D01*
X24822374Y-34862728D01*
X24732666Y-34983675D01*
X24709277Y-35116316D01*
X24724897Y-35221643D01*
X24795142Y-35404985D01*
X24877081Y-35522007D01*
X25025341Y-35650723D01*
X25118975Y-35701424D01*
X25251616Y-35724812D01*
X25395951Y-35681880D01*
X25590987Y-35545314D01*
X24276273Y-35245112D02*
X23769179Y-35600183D01*
X24260735Y-35721049D01*
X24143713Y-35802989D01*
X24093012Y-35896622D01*
X24081318Y-35962943D01*
X24096937Y-36068270D01*
X24233502Y-36263307D01*
X24327136Y-36314008D01*
X24393456Y-36325702D01*
X24498784Y-36310083D01*
X24732827Y-36146204D01*
X24783529Y-36052570D01*
X24795223Y-35986250D01*
X37472880Y-18337304D02*
X36472880Y-18337304D01*
X36472880Y-18575400D01*
X36520500Y-18718257D01*
X36615738Y-18813495D01*
X36710976Y-18861114D01*
X36901452Y-18908733D01*
X37044309Y-18908733D01*
X37234785Y-18861114D01*
X37330023Y-18813495D01*
X37425261Y-18718257D01*
X37472880Y-18575400D01*
X37472880Y-18337304D01*
X36568119Y-19289685D02*
X36520500Y-19337304D01*
X36472880Y-19432542D01*
X36472880Y-19670638D01*
X36520500Y-19765876D01*
X36568119Y-19813495D01*
X36663357Y-19861114D01*
X36758595Y-19861114D01*
X36901452Y-19813495D01*
X37472880Y-19242066D01*
X37472880Y-19861114D01*
X49735437Y-36404722D02*
X50309013Y-35585570D01*
X50113977Y-35449004D01*
X49969642Y-35406072D01*
X49837001Y-35429460D01*
X49743368Y-35480162D01*
X49595108Y-35608877D01*
X49513168Y-35725899D01*
X49442923Y-35909241D01*
X49427304Y-36014569D01*
X49450692Y-36147210D01*
X49540400Y-36268157D01*
X49735437Y-36404722D01*
X48487205Y-35530701D02*
X48955292Y-35858459D01*
X48721248Y-35694580D02*
X49294825Y-34875428D01*
X49290900Y-35047076D01*
X49314288Y-35179717D01*
X49364989Y-35273350D01*
X43672576Y-32703140D02*
X43087467Y-33112837D01*
X42997759Y-33233784D01*
X42974371Y-33366425D01*
X43017303Y-33510760D01*
X43071929Y-33588774D01*
X42279847Y-32457564D02*
X42607605Y-32925651D01*
X42443726Y-32691608D02*
X43262878Y-32118031D01*
X43200483Y-32277985D01*
X43177095Y-32410626D01*
X43192714Y-32515954D01*
M02*
