G04 #@! TF.GenerationSoftware,KiCad,Pcbnew,(5.1.6)-1*
G04 #@! TF.CreationDate,2020-12-22T11:04:26+08:00*
G04 #@! TF.ProjectId,LED_A1.0,4c45445f-4131-42e3-902e-6b696361645f,rev?*
G04 #@! TF.SameCoordinates,Original*
G04 #@! TF.FileFunction,Soldermask,Bot*
G04 #@! TF.FilePolarity,Negative*
%FSLAX46Y46*%
G04 Gerber Fmt 4.6, Leading zero omitted, Abs format (unit mm)*
G04 Created by KiCad (PCBNEW (5.1.6)-1) date 2020-12-22 11:04:26*
%MOMM*%
%LPD*%
G01*
G04 APERTURE LIST*
%ADD10R,1.000000X0.900000*%
G04 APERTURE END LIST*
G36*
G01*
X33570900Y-29347850D02*
X33570900Y-29910350D01*
G75*
G02*
X33327150Y-30154100I-243750J0D01*
G01*
X32839650Y-30154100D01*
G75*
G02*
X32595900Y-29910350I0J243750D01*
G01*
X32595900Y-29347850D01*
G75*
G02*
X32839650Y-29104100I243750J0D01*
G01*
X33327150Y-29104100D01*
G75*
G02*
X33570900Y-29347850I0J-243750D01*
G01*
G37*
G36*
G01*
X35145900Y-29347850D02*
X35145900Y-29910350D01*
G75*
G02*
X34902150Y-30154100I-243750J0D01*
G01*
X34414650Y-30154100D01*
G75*
G02*
X34170900Y-29910350I0J243750D01*
G01*
X34170900Y-29347850D01*
G75*
G02*
X34414650Y-29104100I243750J0D01*
G01*
X34902150Y-29104100D01*
G75*
G02*
X35145900Y-29347850I0J-243750D01*
G01*
G37*
G36*
G01*
X34901450Y-27055800D02*
X34338950Y-27055800D01*
G75*
G02*
X34095200Y-26812050I0J243750D01*
G01*
X34095200Y-26324550D01*
G75*
G02*
X34338950Y-26080800I243750J0D01*
G01*
X34901450Y-26080800D01*
G75*
G02*
X35145200Y-26324550I0J-243750D01*
G01*
X35145200Y-26812050D01*
G75*
G02*
X34901450Y-27055800I-243750J0D01*
G01*
G37*
G36*
G01*
X34901450Y-28630800D02*
X34338950Y-28630800D01*
G75*
G02*
X34095200Y-28387050I0J243750D01*
G01*
X34095200Y-27899550D01*
G75*
G02*
X34338950Y-27655800I243750J0D01*
G01*
X34901450Y-27655800D01*
G75*
G02*
X35145200Y-27899550I0J-243750D01*
G01*
X35145200Y-28387050D01*
G75*
G02*
X34901450Y-28630800I-243750J0D01*
G01*
G37*
G36*
G01*
X34338950Y-32202400D02*
X34901450Y-32202400D01*
G75*
G02*
X35145200Y-32446150I0J-243750D01*
G01*
X35145200Y-32933650D01*
G75*
G02*
X34901450Y-33177400I-243750J0D01*
G01*
X34338950Y-33177400D01*
G75*
G02*
X34095200Y-32933650I0J243750D01*
G01*
X34095200Y-32446150D01*
G75*
G02*
X34338950Y-32202400I243750J0D01*
G01*
G37*
G36*
G01*
X34338950Y-30627400D02*
X34901450Y-30627400D01*
G75*
G02*
X35145200Y-30871150I0J-243750D01*
G01*
X35145200Y-31358650D01*
G75*
G02*
X34901450Y-31602400I-243750J0D01*
G01*
X34338950Y-31602400D01*
G75*
G02*
X34095200Y-31358650I0J243750D01*
G01*
X34095200Y-30871150D01*
G75*
G02*
X34338950Y-30627400I243750J0D01*
G01*
G37*
G36*
G01*
X39444350Y-29903700D02*
X40006850Y-29903700D01*
G75*
G02*
X40250600Y-30147450I0J-243750D01*
G01*
X40250600Y-30634950D01*
G75*
G02*
X40006850Y-30878700I-243750J0D01*
G01*
X39444350Y-30878700D01*
G75*
G02*
X39200600Y-30634950I0J243750D01*
G01*
X39200600Y-30147450D01*
G75*
G02*
X39444350Y-29903700I243750J0D01*
G01*
G37*
G36*
G01*
X39444350Y-28328700D02*
X40006850Y-28328700D01*
G75*
G02*
X40250600Y-28572450I0J-243750D01*
G01*
X40250600Y-29059950D01*
G75*
G02*
X40006850Y-29303700I-243750J0D01*
G01*
X39444350Y-29303700D01*
G75*
G02*
X39200600Y-29059950I0J243750D01*
G01*
X39200600Y-28572450D01*
G75*
G02*
X39444350Y-28328700I243750J0D01*
G01*
G37*
D10*
X36109400Y-29654500D03*
X38109400Y-30604500D03*
X38109400Y-28704500D03*
G36*
G01*
X21875306Y-36957314D02*
X22427373Y-37745747D01*
G75*
G02*
X22361375Y-38120043I-220147J-154149D01*
G01*
X21921081Y-38428341D01*
G75*
G02*
X21546785Y-38362343I-154149J220147D01*
G01*
X20994717Y-37573909D01*
G75*
G02*
X21060715Y-37199613I220147J154149D01*
G01*
X21501009Y-36891315D01*
G75*
G02*
X21875305Y-36957313I154149J-220147D01*
G01*
G37*
G36*
G01*
X23411216Y-35881858D02*
X23963283Y-36670291D01*
G75*
G02*
X23897285Y-37044587I-220147J-154149D01*
G01*
X23456991Y-37352885D01*
G75*
G02*
X23082695Y-37286887I-154149J220147D01*
G01*
X22530627Y-36498453D01*
G75*
G02*
X22596625Y-36124157I220147J154149D01*
G01*
X23036919Y-35815859D01*
G75*
G02*
X23411215Y-35881857I154149J-220147D01*
G01*
G37*
G36*
G01*
X37425550Y-15932200D02*
X36463050Y-15932200D01*
G75*
G02*
X36194300Y-15663450I0J268750D01*
G01*
X36194300Y-15125950D01*
G75*
G02*
X36463050Y-14857200I268750J0D01*
G01*
X37425550Y-14857200D01*
G75*
G02*
X37694300Y-15125950I0J-268750D01*
G01*
X37694300Y-15663450D01*
G75*
G02*
X37425550Y-15932200I-268750J0D01*
G01*
G37*
G36*
G01*
X37425550Y-17807200D02*
X36463050Y-17807200D01*
G75*
G02*
X36194300Y-17538450I0J268750D01*
G01*
X36194300Y-17000950D01*
G75*
G02*
X36463050Y-16732200I268750J0D01*
G01*
X37425550Y-16732200D01*
G75*
G02*
X37694300Y-17000950I0J-268750D01*
G01*
X37694300Y-17538450D01*
G75*
G02*
X37425550Y-17807200I-268750J0D01*
G01*
G37*
G36*
G01*
X51664427Y-37733048D02*
X52216495Y-36944613D01*
G75*
G02*
X52590791Y-36878615I220147J-154149D01*
G01*
X53031085Y-37186913D01*
G75*
G02*
X53097083Y-37561209I-154149J-220147D01*
G01*
X52545015Y-38349643D01*
G75*
G02*
X52170719Y-38415641I-220147J154149D01*
G01*
X51730425Y-38107343D01*
G75*
G02*
X51664427Y-37733047I154149J220147D01*
G01*
G37*
G36*
G01*
X50128517Y-36657592D02*
X50680585Y-35869157D01*
G75*
G02*
X51054881Y-35803159I220147J-154149D01*
G01*
X51495175Y-36111457D01*
G75*
G02*
X51561173Y-36485753I-154149J-220147D01*
G01*
X51009105Y-37274187D01*
G75*
G02*
X50634809Y-37340185I-220147J154149D01*
G01*
X50194515Y-37031887D01*
G75*
G02*
X50128517Y-36657591I154149J220147D01*
G01*
G37*
G36*
G01*
X44304020Y-31933669D02*
X46085676Y-30686140D01*
G75*
G02*
X46242358Y-30713768I64527J-92155D01*
G01*
X46371413Y-30898077D01*
G75*
G02*
X46343785Y-31054759I-92155J-64527D01*
G01*
X44562130Y-32302288D01*
G75*
G02*
X44405448Y-32274660I-64527J92155D01*
G01*
X44276393Y-32090351D01*
G75*
G02*
X44304021Y-31933669I92155J64527D01*
G01*
G37*
G36*
G01*
X43902517Y-31360263D02*
X45684173Y-30112734D01*
G75*
G02*
X45840855Y-30140362I64527J-92155D01*
G01*
X45969910Y-30324671D01*
G75*
G02*
X45942282Y-30481353I-92155J-64527D01*
G01*
X44160627Y-31728882D01*
G75*
G02*
X44003945Y-31701254I-64527J92155D01*
G01*
X43874890Y-31516945D01*
G75*
G02*
X43902518Y-31360263I92155J64527D01*
G01*
G37*
G36*
G01*
X43501013Y-30786856D02*
X45282669Y-29539327D01*
G75*
G02*
X45439351Y-29566955I64527J-92155D01*
G01*
X45568406Y-29751264D01*
G75*
G02*
X45540778Y-29907946I-92155J-64527D01*
G01*
X43759123Y-31155475D01*
G75*
G02*
X43602441Y-31127847I-64527J92155D01*
G01*
X43473386Y-30943538D01*
G75*
G02*
X43501014Y-30786856I92155J64527D01*
G01*
G37*
G36*
G01*
X44705524Y-32507075D02*
X46487180Y-31259546D01*
G75*
G02*
X46643862Y-31287174I64527J-92155D01*
G01*
X46772917Y-31471483D01*
G75*
G02*
X46745289Y-31628165I-92155J-64527D01*
G01*
X44963634Y-32875694D01*
G75*
G02*
X44806952Y-32848066I-64527J92155D01*
G01*
X44677897Y-32663757D01*
G75*
G02*
X44705525Y-32507075I92155J64527D01*
G01*
G37*
G36*
G01*
X43099510Y-30213450D02*
X44881166Y-28965921D01*
G75*
G02*
X45037848Y-28993549I64527J-92155D01*
G01*
X45166903Y-29177858D01*
G75*
G02*
X45139275Y-29334540I-92155J-64527D01*
G01*
X43357620Y-30582069D01*
G75*
G02*
X43200938Y-30554441I-64527J92155D01*
G01*
X43071883Y-30370132D01*
G75*
G02*
X43099511Y-30213450I92155J64527D01*
G01*
G37*
M02*
